M48
;DRILL file {KiCad 4.0.7} date 12/03/18 22:38:28
;FORMAT={-:-/ absolute / inch / decimal}
FMAT,2
INCH,TZ
T1C0.016
T2C0.024
T3C0.031
T4C0.039
%
G90
G05
M72
T1
X4.6334Y-3.498
X4.6457Y-4.6457
X4.8425Y-3.3858
X4.8425Y-3.4252
X4.8425Y-3.4646
X4.9438Y-3.5905
X4.9743Y-3.5569
X4.981Y-3.607
X4.9991Y-3.5188
X5.0104Y-3.6494
X5.0381Y-3.6796
X5.0735Y-3.9584
X5.0787Y-3.3858
X5.1168Y-3.9956
X5.1636Y-3.7293
X5.1673Y-4.6654
X5.1897Y-3.6905
X5.2362Y-3.4252
X5.2843Y-3.4254
X5.302Y-3.8843
X5.3543Y-3.4252
X5.3562Y-3.8826
X5.4022Y-4.1088
X5.4281Y-4.0272
X5.4428Y-4.6522
X5.4724Y-3.4252
X5.5108Y-3.2984
X5.5274Y-4.0155
X5.5332Y-3.8715
X5.58Y-3.8595
X5.6147Y-3.8938
X5.6958Y-3.3449
X5.7151Y-3.3882
X5.748Y-3.8976
X5.7735Y-3.6758
X5.7874Y-3.7795
X5.8062Y-3.5423
X6.4665Y-4.6906
X6.8898Y-3.0315
X7.0223Y-3.8154
X7.0571Y-3.937
X7.0668Y-3.0321
X7.1066Y-3.8207
X7.2139Y-2.9826
X7.2636Y-3.0429
X7.3157Y-2.9845
X7.3427Y-3.0414
T2
X4.3594Y-3.189
X4.4094Y-3.189
X4.4594Y-3.189
T3
X4.3602Y-3.4055
X4.4587Y-3.4055
X4.626Y-3.1791
X4.685Y-4.0945
X4.7244Y-3.1791
X4.7835Y-4.0945
X4.8228Y-4.2126
X4.8228Y-4.5126
X4.8524Y-3.6122
X4.8524Y-3.7106
X4.9902Y-3.2382
X5.019Y-3.9855
X5.0886Y-3.2382
X5.0886Y-4.0551
X5.5315Y-4.1437
X5.5807Y-3.189
X5.6299Y-4.1437
X5.6791Y-3.189
X5.8268Y-3.3957
X5.9055Y-4.1535
X5.9252Y-3.3957
X5.9252Y-3.6516
X5.9252Y-3.8878
X6.0039Y-4.1535
X6.0236Y-3.6516
X6.0236Y-3.8878
X6.4862Y-3.4055
X6.5846Y-3.4055
X7.4508Y-3.1201
X7.4508Y-3.2185
X7.4508Y-3.7697
X7.4508Y-3.8681
T4
X5.2129Y-3.8422
X5.2836Y-3.7715
X5.3543Y-3.7008
X5.425Y-3.6301
X5.4958Y-3.5594
X5.5665Y-3.4887
X6.4272Y-4.4882
X6.5157Y-4.4882
X6.6043Y-4.4882
X6.6929Y-4.4882
X6.7815Y-4.4882
T0
M30
