G04 #@! TF.FileFunction,Legend,Bot*
%FSLAX46Y46*%
G04 Gerber Fmt 4.6, Leading zero omitted, Abs format (unit mm)*
G04 Created by KiCad (PCBNEW 4.0.7) date 02/07/19 17:37:47*
%MOMM*%
%LPD*%
G01*
G04 APERTURE LIST*
%ADD10C,0.100000*%
%ADD11C,0.250000*%
%ADD12C,0.300000*%
%ADD13C,0.120000*%
%ADD14C,0.010000*%
%ADD15C,0.150000*%
G04 APERTURE END LIST*
D10*
D11*
X121809524Y-118952381D02*
X121190476Y-118952381D01*
X121523810Y-119333333D01*
X121380952Y-119333333D01*
X121285714Y-119380952D01*
X121238095Y-119428571D01*
X121190476Y-119523810D01*
X121190476Y-119761905D01*
X121238095Y-119857143D01*
X121285714Y-119904762D01*
X121380952Y-119952381D01*
X121666667Y-119952381D01*
X121761905Y-119904762D01*
X121809524Y-119857143D01*
X120285714Y-118952381D02*
X120761905Y-118952381D01*
X120809524Y-119428571D01*
X120761905Y-119380952D01*
X120666667Y-119333333D01*
X120428571Y-119333333D01*
X120333333Y-119380952D01*
X120285714Y-119428571D01*
X120238095Y-119523810D01*
X120238095Y-119761905D01*
X120285714Y-119857143D01*
X120333333Y-119904762D01*
X120428571Y-119952381D01*
X120666667Y-119952381D01*
X120761905Y-119904762D01*
X120809524Y-119857143D01*
X164714285Y-119952381D02*
X165285714Y-119952381D01*
X165000000Y-119952381D02*
X165000000Y-118952381D01*
X165095238Y-119095238D01*
X165190476Y-119190476D01*
X165285714Y-119238095D01*
D12*
X102285714Y-73028571D02*
X102285714Y-74100000D01*
X102357142Y-74314286D01*
X102499999Y-74457143D01*
X102714285Y-74528571D01*
X102857142Y-74528571D01*
X101785714Y-73028571D02*
X100928571Y-73028571D01*
X101357142Y-74528571D02*
X101357142Y-73028571D01*
X100500000Y-74100000D02*
X99785714Y-74100000D01*
X100642857Y-74528571D02*
X100142857Y-73028571D01*
X99642857Y-74528571D01*
X98357143Y-73100000D02*
X98500000Y-73028571D01*
X98714286Y-73028571D01*
X98928571Y-73100000D01*
X99071429Y-73242857D01*
X99142857Y-73385714D01*
X99214286Y-73671429D01*
X99214286Y-73885714D01*
X99142857Y-74171429D01*
X99071429Y-74314286D01*
X98928571Y-74457143D01*
X98714286Y-74528571D01*
X98571429Y-74528571D01*
X98357143Y-74457143D01*
X98285714Y-74385714D01*
X98285714Y-73885714D01*
X98571429Y-73885714D01*
X97642857Y-74385714D02*
X97571429Y-74457143D01*
X97642857Y-74528571D01*
X97714286Y-74457143D01*
X97642857Y-74385714D01*
X97642857Y-74528571D01*
X96928571Y-74528571D02*
X96928571Y-73028571D01*
X96928571Y-73742857D02*
X96071428Y-73742857D01*
X96071428Y-74528571D02*
X96071428Y-73028571D01*
X94714285Y-74528571D02*
X94714285Y-73028571D01*
X94714285Y-74457143D02*
X94857142Y-74528571D01*
X95142856Y-74528571D01*
X95285714Y-74457143D01*
X95357142Y-74385714D01*
X95428571Y-74242857D01*
X95428571Y-73814286D01*
X95357142Y-73671429D01*
X95285714Y-73600000D01*
X95142856Y-73528571D01*
X94857142Y-73528571D01*
X94714285Y-73600000D01*
X93999999Y-74528571D02*
X93999999Y-73528571D01*
X93999999Y-73814286D02*
X93928571Y-73671429D01*
X93857142Y-73600000D01*
X93714285Y-73528571D01*
X93571428Y-73528571D01*
X100535713Y-75578571D02*
X100821427Y-75578571D01*
X100964284Y-75650000D01*
X101035713Y-75721429D01*
X101178570Y-75935714D01*
X101249999Y-76221429D01*
X101249999Y-76792857D01*
X101178570Y-76935714D01*
X101107142Y-77007143D01*
X100964284Y-77078571D01*
X100678570Y-77078571D01*
X100535713Y-77007143D01*
X100464284Y-76935714D01*
X100392856Y-76792857D01*
X100392856Y-76435714D01*
X100464284Y-76292857D01*
X100535713Y-76221429D01*
X100678570Y-76150000D01*
X100964284Y-76150000D01*
X101107142Y-76221429D01*
X101178570Y-76292857D01*
X101249999Y-76435714D01*
X98749999Y-75578571D02*
X97821428Y-75578571D01*
X98321428Y-76150000D01*
X98107142Y-76150000D01*
X97964285Y-76221429D01*
X97892856Y-76292857D01*
X97821428Y-76435714D01*
X97821428Y-76792857D01*
X97892856Y-76935714D01*
X97964285Y-77007143D01*
X98107142Y-77078571D01*
X98535714Y-77078571D01*
X98678571Y-77007143D01*
X98749999Y-76935714D01*
X97321428Y-76078571D02*
X96964285Y-77078571D01*
X96607143Y-76078571D01*
X96178571Y-75578571D02*
X95250000Y-75578571D01*
X95750000Y-76150000D01*
X95535714Y-76150000D01*
X95392857Y-76221429D01*
X95321428Y-76292857D01*
X95250000Y-76435714D01*
X95250000Y-76792857D01*
X95321428Y-76935714D01*
X95392857Y-77007143D01*
X95535714Y-77078571D01*
X95964286Y-77078571D01*
X96107143Y-77007143D01*
X96178571Y-76935714D01*
X100714285Y-78128571D02*
X101428571Y-78128571D01*
X101500000Y-78842857D01*
X101428571Y-78771429D01*
X101285714Y-78700000D01*
X100928571Y-78700000D01*
X100785714Y-78771429D01*
X100714285Y-78842857D01*
X100642857Y-78985714D01*
X100642857Y-79342857D01*
X100714285Y-79485714D01*
X100785714Y-79557143D01*
X100928571Y-79628571D01*
X101285714Y-79628571D01*
X101428571Y-79557143D01*
X101500000Y-79485714D01*
X99071429Y-78128571D02*
X98214286Y-78128571D01*
X98642857Y-79628571D02*
X98642857Y-78128571D01*
X97714286Y-79628571D02*
X97714286Y-78128571D01*
X97357143Y-78128571D01*
X97142858Y-78200000D01*
X97000000Y-78342857D01*
X96928572Y-78485714D01*
X96857143Y-78771429D01*
X96857143Y-78985714D01*
X96928572Y-79271429D01*
X97000000Y-79414286D01*
X97142858Y-79557143D01*
X97357143Y-79628571D01*
X97714286Y-79628571D01*
X96214286Y-79628571D02*
X96214286Y-78128571D01*
X100607142Y-81178571D02*
X100607142Y-82178571D01*
X100964285Y-80607143D02*
X101321428Y-81678571D01*
X100392856Y-81678571D01*
X98892857Y-80678571D02*
X98035714Y-80678571D01*
X98464285Y-82178571D02*
X98464285Y-80678571D01*
X96678571Y-82035714D02*
X96750000Y-82107143D01*
X96964286Y-82178571D01*
X97107143Y-82178571D01*
X97321428Y-82107143D01*
X97464286Y-81964286D01*
X97535714Y-81821429D01*
X97607143Y-81535714D01*
X97607143Y-81321429D01*
X97535714Y-81035714D01*
X97464286Y-80892857D01*
X97321428Y-80750000D01*
X97107143Y-80678571D01*
X96964286Y-80678571D01*
X96750000Y-80750000D01*
X96678571Y-80821429D01*
X96035714Y-82178571D02*
X96035714Y-80678571D01*
X95178571Y-82178571D02*
X95821428Y-81321429D01*
X95178571Y-80678571D02*
X96035714Y-81535714D01*
X101464285Y-83228571D02*
X100535714Y-83228571D01*
X101035714Y-83800000D01*
X100821428Y-83800000D01*
X100678571Y-83871429D01*
X100607142Y-83942857D01*
X100535714Y-84085714D01*
X100535714Y-84442857D01*
X100607142Y-84585714D01*
X100678571Y-84657143D01*
X100821428Y-84728571D01*
X101250000Y-84728571D01*
X101392857Y-84657143D01*
X101464285Y-84585714D01*
X98964286Y-83228571D02*
X98107143Y-83228571D01*
X98535714Y-84728571D02*
X98535714Y-83228571D01*
X97607143Y-84728571D02*
X97607143Y-83228571D01*
X97107143Y-84300000D01*
X96607143Y-83228571D01*
X96607143Y-84728571D01*
X95964286Y-84657143D02*
X95750000Y-84728571D01*
X95392857Y-84728571D01*
X95250000Y-84657143D01*
X95178571Y-84585714D01*
X95107143Y-84442857D01*
X95107143Y-84300000D01*
X95178571Y-84157143D01*
X95250000Y-84085714D01*
X95392857Y-84014286D01*
X95678571Y-83942857D01*
X95821429Y-83871429D01*
X95892857Y-83800000D01*
X95964286Y-83657143D01*
X95964286Y-83514286D01*
X95892857Y-83371429D01*
X95821429Y-83300000D01*
X95678571Y-83228571D01*
X95321429Y-83228571D01*
X95107143Y-83300000D01*
X101357143Y-85921429D02*
X101285714Y-85850000D01*
X101142857Y-85778571D01*
X100785714Y-85778571D01*
X100642857Y-85850000D01*
X100571428Y-85921429D01*
X100500000Y-86064286D01*
X100500000Y-86207143D01*
X100571428Y-86421429D01*
X101428571Y-87278571D01*
X100500000Y-87278571D01*
X98928572Y-85778571D02*
X98071429Y-85778571D01*
X98500000Y-87278571D02*
X98500000Y-85778571D01*
X97571429Y-87278571D02*
X97571429Y-85778571D01*
X97214286Y-85778571D01*
X97000001Y-85850000D01*
X96857143Y-85992857D01*
X96785715Y-86135714D01*
X96714286Y-86421429D01*
X96714286Y-86635714D01*
X96785715Y-86921429D01*
X96857143Y-87064286D01*
X97000001Y-87207143D01*
X97214286Y-87278571D01*
X97571429Y-87278571D01*
X95785715Y-85778571D02*
X95500001Y-85778571D01*
X95357143Y-85850000D01*
X95214286Y-85992857D01*
X95142858Y-86278571D01*
X95142858Y-86778571D01*
X95214286Y-87064286D01*
X95357143Y-87207143D01*
X95500001Y-87278571D01*
X95785715Y-87278571D01*
X95928572Y-87207143D01*
X96071429Y-87064286D01*
X96142858Y-86778571D01*
X96142858Y-86278571D01*
X96071429Y-85992857D01*
X95928572Y-85850000D01*
X95785715Y-85778571D01*
X100678571Y-89828571D02*
X101535714Y-89828571D01*
X101107142Y-89828571D02*
X101107142Y-88328571D01*
X101249999Y-88542857D01*
X101392857Y-88685714D01*
X101535714Y-88757143D01*
X98107143Y-88400000D02*
X98250000Y-88328571D01*
X98464286Y-88328571D01*
X98678571Y-88400000D01*
X98821429Y-88542857D01*
X98892857Y-88685714D01*
X98964286Y-88971429D01*
X98964286Y-89185714D01*
X98892857Y-89471429D01*
X98821429Y-89614286D01*
X98678571Y-89757143D01*
X98464286Y-89828571D01*
X98321429Y-89828571D01*
X98107143Y-89757143D01*
X98035714Y-89685714D01*
X98035714Y-89185714D01*
X98321429Y-89185714D01*
X97392857Y-89828571D02*
X97392857Y-88328571D01*
X96535714Y-89828571D01*
X96535714Y-88328571D01*
X95821428Y-89828571D02*
X95821428Y-88328571D01*
X95464285Y-88328571D01*
X95250000Y-88400000D01*
X95107142Y-88542857D01*
X95035714Y-88685714D01*
X94964285Y-88971429D01*
X94964285Y-89185714D01*
X95035714Y-89471429D01*
X95107142Y-89614286D01*
X95250000Y-89757143D01*
X95464285Y-89828571D01*
X95821428Y-89828571D01*
D13*
X132100000Y-90850000D02*
X132100000Y-90150000D01*
X130900000Y-90150000D02*
X130900000Y-90850000D01*
X137700000Y-99100000D02*
X138400000Y-99100000D01*
X138400000Y-97900000D02*
X137700000Y-97900000D01*
X141900000Y-94200000D02*
X141900000Y-94900000D01*
X143100000Y-94900000D02*
X143100000Y-94200000D01*
X146400000Y-86200000D02*
X146400000Y-86900000D01*
X147600000Y-86900000D02*
X147600000Y-86200000D01*
X131650000Y-82850000D02*
X132350000Y-82850000D01*
X132350000Y-81650000D02*
X131650000Y-81650000D01*
X180300000Y-92400000D02*
X179600000Y-92400000D01*
X179600000Y-93600000D02*
X180300000Y-93600000D01*
X180350000Y-74400000D02*
X179650000Y-74400000D01*
X179650000Y-75600000D02*
X180350000Y-75600000D01*
X148650000Y-97100000D02*
X148650000Y-97800000D01*
X149850000Y-97800000D02*
X149850000Y-97100000D01*
X141950000Y-82600000D02*
X142650000Y-82600000D01*
X142650000Y-81400000D02*
X141950000Y-81400000D01*
X139700000Y-104850000D02*
X140400000Y-104850000D01*
X140400000Y-103650000D02*
X139700000Y-103650000D01*
X127350000Y-98300000D02*
X127350000Y-97600000D01*
X126150000Y-97600000D02*
X126150000Y-98300000D01*
X131950000Y-104600000D02*
X132650000Y-104600000D01*
X132650000Y-103400000D02*
X131950000Y-103400000D01*
D14*
G36*
X160242126Y-78904833D02*
X160096666Y-79065334D01*
X159689563Y-79347840D01*
X159289588Y-79404000D01*
X158787895Y-79520309D01*
X158317086Y-79812257D01*
X157986186Y-80194379D01*
X157895333Y-80496970D01*
X157755257Y-80702064D01*
X157387333Y-80758667D01*
X157030650Y-80709618D01*
X156879372Y-80591440D01*
X156879333Y-80589334D01*
X156750475Y-80424921D01*
X156710000Y-80420000D01*
X156567511Y-80547992D01*
X156553398Y-80824907D01*
X156658569Y-81090155D01*
X156752333Y-81167889D01*
X156876862Y-81279095D01*
X156752333Y-81365445D01*
X156591292Y-81565208D01*
X156545022Y-81856401D01*
X156622611Y-82078434D01*
X156710000Y-82113334D01*
X156874413Y-81984475D01*
X156879333Y-81944000D01*
X157026478Y-81825106D01*
X157381013Y-81774680D01*
X157387333Y-81774667D01*
X157744017Y-81823715D01*
X157895294Y-81941893D01*
X157895333Y-81944000D01*
X158042478Y-82062895D01*
X158397013Y-82113320D01*
X158403333Y-82113334D01*
X158760017Y-82162382D01*
X158911294Y-82280560D01*
X158911333Y-82282667D01*
X159053158Y-82420247D01*
X159250000Y-82452000D01*
X159525161Y-82381088D01*
X159588666Y-82282667D01*
X159726635Y-82134394D01*
X159854762Y-82113333D01*
X160259323Y-81961682D01*
X160523534Y-81549717D01*
X160604666Y-81024762D01*
X160646406Y-80628249D01*
X160652953Y-80615409D01*
X159908146Y-80615409D01*
X159839982Y-80750287D01*
X159758000Y-80758667D01*
X159593587Y-80629808D01*
X159588666Y-80589334D01*
X159446842Y-80451753D01*
X159250000Y-80420000D01*
X158974839Y-80490913D01*
X158911333Y-80589334D01*
X158782475Y-80753746D01*
X158742000Y-80758667D01*
X158604419Y-80616842D01*
X158572666Y-80420000D01*
X158705845Y-80169486D01*
X159025370Y-80073762D01*
X159411230Y-80143265D01*
X159685428Y-80323238D01*
X159908146Y-80615409D01*
X160652953Y-80615409D01*
X160749298Y-80426465D01*
X160774000Y-80420000D01*
X160885348Y-80568994D01*
X160941652Y-80935945D01*
X160943333Y-81020364D01*
X160828832Y-81546270D01*
X160539215Y-82029109D01*
X160155314Y-82363003D01*
X159850363Y-82452000D01*
X159620124Y-82541086D01*
X159588666Y-82621334D01*
X159438442Y-82727370D01*
X159063164Y-82786349D01*
X158911333Y-82790667D01*
X158487185Y-82828223D01*
X158251272Y-82922043D01*
X158234000Y-82960000D01*
X158096459Y-83109310D01*
X157974355Y-83129334D01*
X157709030Y-83242103D01*
X157329306Y-83528460D01*
X157127689Y-83716356D01*
X156819005Y-84046798D01*
X156643225Y-84338567D01*
X156563096Y-84704975D01*
X156541369Y-85259336D01*
X156540666Y-85502053D01*
X156555681Y-86162500D01*
X156618553Y-86588798D01*
X156756021Y-86884805D01*
X156956303Y-87116364D01*
X157310699Y-87399952D01*
X157614034Y-87530958D01*
X157633636Y-87532000D01*
X157863876Y-87621086D01*
X157895333Y-87701334D01*
X158033012Y-87850312D01*
X158157030Y-87870667D01*
X158479288Y-87999354D01*
X158847170Y-88306894D01*
X159142891Y-88675503D01*
X159250000Y-88963637D01*
X159339086Y-89193876D01*
X159419333Y-89225334D01*
X159543788Y-89368073D01*
X159586000Y-89713431D01*
X159552183Y-90137116D01*
X159448552Y-90514834D01*
X159346762Y-90676762D01*
X158918973Y-90893177D01*
X158431347Y-90857724D01*
X158137238Y-90676762D01*
X157991583Y-90395504D01*
X157911705Y-89987536D01*
X157903819Y-89577150D01*
X157974138Y-89288637D01*
X158064666Y-89225334D01*
X158202247Y-89083509D01*
X158234000Y-88886667D01*
X158100822Y-88636152D01*
X157781296Y-88540428D01*
X157395437Y-88609932D01*
X157121238Y-88789905D01*
X156932877Y-89141269D01*
X156879333Y-89467238D01*
X156822838Y-89791209D01*
X156710000Y-89902667D01*
X156598499Y-90051625D01*
X156542288Y-90418332D01*
X156540666Y-90500978D01*
X156618308Y-90986807D01*
X156895056Y-91435424D01*
X157127689Y-91686311D01*
X157479678Y-92011196D01*
X157790913Y-92185701D01*
X158188983Y-92254294D01*
X158778689Y-92261695D01*
X159385674Y-92239083D01*
X159779791Y-92157294D01*
X160086571Y-91970617D01*
X160393000Y-91673839D01*
X160759607Y-91191888D01*
X160936804Y-90748794D01*
X160943333Y-90669478D01*
X161000704Y-90348954D01*
X161112666Y-90241334D01*
X161209262Y-90089040D01*
X161270572Y-89699649D01*
X161282000Y-89394667D01*
X161251541Y-88911692D01*
X161173663Y-88605137D01*
X161112666Y-88548000D01*
X160993772Y-88400855D01*
X160943346Y-88046320D01*
X160943333Y-88040000D01*
X160894285Y-87683317D01*
X160776107Y-87532039D01*
X160774000Y-87532000D01*
X160655105Y-87384855D01*
X160604680Y-87030320D01*
X160604666Y-87024000D01*
X160555618Y-86667317D01*
X160437440Y-86516039D01*
X160435333Y-86516000D01*
X160338738Y-86363706D01*
X160277427Y-85974316D01*
X160266000Y-85669334D01*
X160296459Y-85186358D01*
X160374337Y-84879804D01*
X160435333Y-84822667D01*
X160541370Y-84672443D01*
X160600349Y-84297164D01*
X160604666Y-84145334D01*
X160642223Y-83721186D01*
X160736042Y-83485272D01*
X160774000Y-83468000D01*
X160892894Y-83320855D01*
X160943320Y-82966320D01*
X160943333Y-82960000D01*
X160992382Y-82603317D01*
X161110560Y-82452039D01*
X161112666Y-82452000D01*
X161200714Y-82296177D01*
X161261148Y-81882030D01*
X161282000Y-81328862D01*
X161264057Y-80687073D01*
X161192498Y-80280809D01*
X161040728Y-80008008D01*
X160901000Y-79866731D01*
X160665549Y-79592271D01*
X160731666Y-79451758D01*
X160908835Y-79240648D01*
X160943333Y-79051222D01*
X160830440Y-78788668D01*
X160561722Y-78740455D01*
X160242126Y-78904833D01*
X160242126Y-78904833D01*
G37*
X160242126Y-78904833D02*
X160096666Y-79065334D01*
X159689563Y-79347840D01*
X159289588Y-79404000D01*
X158787895Y-79520309D01*
X158317086Y-79812257D01*
X157986186Y-80194379D01*
X157895333Y-80496970D01*
X157755257Y-80702064D01*
X157387333Y-80758667D01*
X157030650Y-80709618D01*
X156879372Y-80591440D01*
X156879333Y-80589334D01*
X156750475Y-80424921D01*
X156710000Y-80420000D01*
X156567511Y-80547992D01*
X156553398Y-80824907D01*
X156658569Y-81090155D01*
X156752333Y-81167889D01*
X156876862Y-81279095D01*
X156752333Y-81365445D01*
X156591292Y-81565208D01*
X156545022Y-81856401D01*
X156622611Y-82078434D01*
X156710000Y-82113334D01*
X156874413Y-81984475D01*
X156879333Y-81944000D01*
X157026478Y-81825106D01*
X157381013Y-81774680D01*
X157387333Y-81774667D01*
X157744017Y-81823715D01*
X157895294Y-81941893D01*
X157895333Y-81944000D01*
X158042478Y-82062895D01*
X158397013Y-82113320D01*
X158403333Y-82113334D01*
X158760017Y-82162382D01*
X158911294Y-82280560D01*
X158911333Y-82282667D01*
X159053158Y-82420247D01*
X159250000Y-82452000D01*
X159525161Y-82381088D01*
X159588666Y-82282667D01*
X159726635Y-82134394D01*
X159854762Y-82113333D01*
X160259323Y-81961682D01*
X160523534Y-81549717D01*
X160604666Y-81024762D01*
X160646406Y-80628249D01*
X160652953Y-80615409D01*
X159908146Y-80615409D01*
X159839982Y-80750287D01*
X159758000Y-80758667D01*
X159593587Y-80629808D01*
X159588666Y-80589334D01*
X159446842Y-80451753D01*
X159250000Y-80420000D01*
X158974839Y-80490913D01*
X158911333Y-80589334D01*
X158782475Y-80753746D01*
X158742000Y-80758667D01*
X158604419Y-80616842D01*
X158572666Y-80420000D01*
X158705845Y-80169486D01*
X159025370Y-80073762D01*
X159411230Y-80143265D01*
X159685428Y-80323238D01*
X159908146Y-80615409D01*
X160652953Y-80615409D01*
X160749298Y-80426465D01*
X160774000Y-80420000D01*
X160885348Y-80568994D01*
X160941652Y-80935945D01*
X160943333Y-81020364D01*
X160828832Y-81546270D01*
X160539215Y-82029109D01*
X160155314Y-82363003D01*
X159850363Y-82452000D01*
X159620124Y-82541086D01*
X159588666Y-82621334D01*
X159438442Y-82727370D01*
X159063164Y-82786349D01*
X158911333Y-82790667D01*
X158487185Y-82828223D01*
X158251272Y-82922043D01*
X158234000Y-82960000D01*
X158096459Y-83109310D01*
X157974355Y-83129334D01*
X157709030Y-83242103D01*
X157329306Y-83528460D01*
X157127689Y-83716356D01*
X156819005Y-84046798D01*
X156643225Y-84338567D01*
X156563096Y-84704975D01*
X156541369Y-85259336D01*
X156540666Y-85502053D01*
X156555681Y-86162500D01*
X156618553Y-86588798D01*
X156756021Y-86884805D01*
X156956303Y-87116364D01*
X157310699Y-87399952D01*
X157614034Y-87530958D01*
X157633636Y-87532000D01*
X157863876Y-87621086D01*
X157895333Y-87701334D01*
X158033012Y-87850312D01*
X158157030Y-87870667D01*
X158479288Y-87999354D01*
X158847170Y-88306894D01*
X159142891Y-88675503D01*
X159250000Y-88963637D01*
X159339086Y-89193876D01*
X159419333Y-89225334D01*
X159543788Y-89368073D01*
X159586000Y-89713431D01*
X159552183Y-90137116D01*
X159448552Y-90514834D01*
X159346762Y-90676762D01*
X158918973Y-90893177D01*
X158431347Y-90857724D01*
X158137238Y-90676762D01*
X157991583Y-90395504D01*
X157911705Y-89987536D01*
X157903819Y-89577150D01*
X157974138Y-89288637D01*
X158064666Y-89225334D01*
X158202247Y-89083509D01*
X158234000Y-88886667D01*
X158100822Y-88636152D01*
X157781296Y-88540428D01*
X157395437Y-88609932D01*
X157121238Y-88789905D01*
X156932877Y-89141269D01*
X156879333Y-89467238D01*
X156822838Y-89791209D01*
X156710000Y-89902667D01*
X156598499Y-90051625D01*
X156542288Y-90418332D01*
X156540666Y-90500978D01*
X156618308Y-90986807D01*
X156895056Y-91435424D01*
X157127689Y-91686311D01*
X157479678Y-92011196D01*
X157790913Y-92185701D01*
X158188983Y-92254294D01*
X158778689Y-92261695D01*
X159385674Y-92239083D01*
X159779791Y-92157294D01*
X160086571Y-91970617D01*
X160393000Y-91673839D01*
X160759607Y-91191888D01*
X160936804Y-90748794D01*
X160943333Y-90669478D01*
X161000704Y-90348954D01*
X161112666Y-90241334D01*
X161209262Y-90089040D01*
X161270572Y-89699649D01*
X161282000Y-89394667D01*
X161251541Y-88911692D01*
X161173663Y-88605137D01*
X161112666Y-88548000D01*
X160993772Y-88400855D01*
X160943346Y-88046320D01*
X160943333Y-88040000D01*
X160894285Y-87683317D01*
X160776107Y-87532039D01*
X160774000Y-87532000D01*
X160655105Y-87384855D01*
X160604680Y-87030320D01*
X160604666Y-87024000D01*
X160555618Y-86667317D01*
X160437440Y-86516039D01*
X160435333Y-86516000D01*
X160338738Y-86363706D01*
X160277427Y-85974316D01*
X160266000Y-85669334D01*
X160296459Y-85186358D01*
X160374337Y-84879804D01*
X160435333Y-84822667D01*
X160541370Y-84672443D01*
X160600349Y-84297164D01*
X160604666Y-84145334D01*
X160642223Y-83721186D01*
X160736042Y-83485272D01*
X160774000Y-83468000D01*
X160892894Y-83320855D01*
X160943320Y-82966320D01*
X160943333Y-82960000D01*
X160992382Y-82603317D01*
X161110560Y-82452039D01*
X161112666Y-82452000D01*
X161200714Y-82296177D01*
X161261148Y-81882030D01*
X161282000Y-81328862D01*
X161264057Y-80687073D01*
X161192498Y-80280809D01*
X161040728Y-80008008D01*
X160901000Y-79866731D01*
X160665549Y-79592271D01*
X160731666Y-79451758D01*
X160908835Y-79240648D01*
X160943333Y-79051222D01*
X160830440Y-78788668D01*
X160561722Y-78740455D01*
X160242126Y-78904833D01*
G36*
X160948254Y-86306192D02*
X160943333Y-86346667D01*
X161072192Y-86511080D01*
X161112666Y-86516000D01*
X161277079Y-86387142D01*
X161282000Y-86346667D01*
X161153141Y-86182254D01*
X161112666Y-86177334D01*
X160948254Y-86306192D01*
X160948254Y-86306192D01*
G37*
X160948254Y-86306192D02*
X160943333Y-86346667D01*
X161072192Y-86511080D01*
X161112666Y-86516000D01*
X161277079Y-86387142D01*
X161282000Y-86346667D01*
X161153141Y-86182254D01*
X161112666Y-86177334D01*
X160948254Y-86306192D01*
G36*
X160609587Y-85628859D02*
X160604666Y-85669334D01*
X160733525Y-85833746D01*
X160774000Y-85838667D01*
X160938413Y-85709808D01*
X160943333Y-85669334D01*
X160814475Y-85504921D01*
X160774000Y-85500000D01*
X160609587Y-85628859D01*
X160609587Y-85628859D01*
G37*
X160609587Y-85628859D02*
X160604666Y-85669334D01*
X160733525Y-85833746D01*
X160774000Y-85838667D01*
X160938413Y-85709808D01*
X160943333Y-85669334D01*
X160814475Y-85504921D01*
X160774000Y-85500000D01*
X160609587Y-85628859D01*
G36*
X160948254Y-84951525D02*
X160943333Y-84992000D01*
X161072192Y-85156413D01*
X161112666Y-85161334D01*
X161277079Y-85032475D01*
X161282000Y-84992000D01*
X161153141Y-84827587D01*
X161112666Y-84822667D01*
X160948254Y-84951525D01*
X160948254Y-84951525D01*
G37*
X160948254Y-84951525D02*
X160943333Y-84992000D01*
X161072192Y-85156413D01*
X161112666Y-85161334D01*
X161277079Y-85032475D01*
X161282000Y-84992000D01*
X161153141Y-84827587D01*
X161112666Y-84822667D01*
X160948254Y-84951525D01*
G36*
X160948254Y-84274192D02*
X160943333Y-84314667D01*
X161072192Y-84479080D01*
X161112666Y-84484000D01*
X161277079Y-84355142D01*
X161282000Y-84314667D01*
X161153141Y-84150254D01*
X161112666Y-84145334D01*
X160948254Y-84274192D01*
X160948254Y-84274192D01*
G37*
X160948254Y-84274192D02*
X160943333Y-84314667D01*
X161072192Y-84479080D01*
X161112666Y-84484000D01*
X161277079Y-84355142D01*
X161282000Y-84314667D01*
X161153141Y-84150254D01*
X161112666Y-84145334D01*
X160948254Y-84274192D01*
G36*
X161286920Y-83596859D02*
X161282000Y-83637334D01*
X161410858Y-83801746D01*
X161451333Y-83806667D01*
X161615746Y-83677808D01*
X161620666Y-83637334D01*
X161491808Y-83472921D01*
X161451333Y-83468000D01*
X161286920Y-83596859D01*
X161286920Y-83596859D01*
G37*
X161286920Y-83596859D02*
X161282000Y-83637334D01*
X161410858Y-83801746D01*
X161451333Y-83806667D01*
X161615746Y-83677808D01*
X161620666Y-83637334D01*
X161491808Y-83472921D01*
X161451333Y-83468000D01*
X161286920Y-83596859D01*
G36*
X161286920Y-82919525D02*
X161282000Y-82960000D01*
X161410858Y-83124413D01*
X161451333Y-83129334D01*
X161615746Y-83000475D01*
X161620666Y-82960000D01*
X161491808Y-82795587D01*
X161451333Y-82790667D01*
X161286920Y-82919525D01*
X161286920Y-82919525D01*
G37*
X161286920Y-82919525D02*
X161282000Y-82960000D01*
X161410858Y-83124413D01*
X161451333Y-83129334D01*
X161615746Y-83000475D01*
X161620666Y-82960000D01*
X161491808Y-82795587D01*
X161451333Y-82790667D01*
X161286920Y-82919525D01*
G36*
X161625587Y-82242192D02*
X161620666Y-82282667D01*
X161749525Y-82447080D01*
X161790000Y-82452000D01*
X161954413Y-82323142D01*
X161959333Y-82282667D01*
X161830475Y-82118254D01*
X161790000Y-82113334D01*
X161625587Y-82242192D01*
X161625587Y-82242192D01*
G37*
X161625587Y-82242192D02*
X161620666Y-82282667D01*
X161749525Y-82447080D01*
X161790000Y-82452000D01*
X161954413Y-82323142D01*
X161959333Y-82282667D01*
X161830475Y-82118254D01*
X161790000Y-82113334D01*
X161625587Y-82242192D01*
G36*
X161625587Y-81564859D02*
X161620666Y-81605334D01*
X161749525Y-81769746D01*
X161790000Y-81774667D01*
X161954413Y-81645808D01*
X161959333Y-81605334D01*
X161830475Y-81440921D01*
X161790000Y-81436000D01*
X161625587Y-81564859D01*
X161625587Y-81564859D01*
G37*
X161625587Y-81564859D02*
X161620666Y-81605334D01*
X161749525Y-81769746D01*
X161790000Y-81774667D01*
X161954413Y-81645808D01*
X161959333Y-81605334D01*
X161830475Y-81440921D01*
X161790000Y-81436000D01*
X161625587Y-81564859D01*
G36*
X161625587Y-80887525D02*
X161620666Y-80928000D01*
X161749525Y-81092413D01*
X161790000Y-81097334D01*
X161954413Y-80968475D01*
X161959333Y-80928000D01*
X161830475Y-80763587D01*
X161790000Y-80758667D01*
X161625587Y-80887525D01*
X161625587Y-80887525D01*
G37*
X161625587Y-80887525D02*
X161620666Y-80928000D01*
X161749525Y-81092413D01*
X161790000Y-81097334D01*
X161954413Y-80968475D01*
X161959333Y-80928000D01*
X161830475Y-80763587D01*
X161790000Y-80758667D01*
X161625587Y-80887525D01*
G36*
X161625587Y-80210192D02*
X161620666Y-80250667D01*
X161749525Y-80415080D01*
X161790000Y-80420000D01*
X161954413Y-80291142D01*
X161959333Y-80250667D01*
X161830475Y-80086254D01*
X161790000Y-80081334D01*
X161625587Y-80210192D01*
X161625587Y-80210192D01*
G37*
X161625587Y-80210192D02*
X161620666Y-80250667D01*
X161749525Y-80415080D01*
X161790000Y-80420000D01*
X161954413Y-80291142D01*
X161959333Y-80250667D01*
X161830475Y-80086254D01*
X161790000Y-80081334D01*
X161625587Y-80210192D01*
G36*
X161286920Y-79532859D02*
X161282000Y-79573334D01*
X161410858Y-79737746D01*
X161451333Y-79742667D01*
X161615746Y-79613808D01*
X161620666Y-79573334D01*
X161491808Y-79408921D01*
X161451333Y-79404000D01*
X161286920Y-79532859D01*
X161286920Y-79532859D01*
G37*
X161286920Y-79532859D02*
X161282000Y-79573334D01*
X161410858Y-79737746D01*
X161451333Y-79742667D01*
X161615746Y-79613808D01*
X161620666Y-79573334D01*
X161491808Y-79408921D01*
X161451333Y-79404000D01*
X161286920Y-79532859D01*
G36*
X159254920Y-78855525D02*
X159250000Y-78896000D01*
X159378858Y-79060413D01*
X159419333Y-79065334D01*
X159583746Y-78936475D01*
X159588666Y-78896000D01*
X159459808Y-78731587D01*
X159419333Y-78726667D01*
X159254920Y-78855525D01*
X159254920Y-78855525D01*
G37*
X159254920Y-78855525D02*
X159250000Y-78896000D01*
X159378858Y-79060413D01*
X159419333Y-79065334D01*
X159583746Y-78936475D01*
X159588666Y-78896000D01*
X159459808Y-78731587D01*
X159419333Y-78726667D01*
X159254920Y-78855525D01*
D15*
X133107143Y-90333334D02*
X133154762Y-90285715D01*
X133202381Y-90142858D01*
X133202381Y-90047620D01*
X133154762Y-89904762D01*
X133059524Y-89809524D01*
X132964286Y-89761905D01*
X132773810Y-89714286D01*
X132630952Y-89714286D01*
X132440476Y-89761905D01*
X132345238Y-89809524D01*
X132250000Y-89904762D01*
X132202381Y-90047620D01*
X132202381Y-90142858D01*
X132250000Y-90285715D01*
X132297619Y-90333334D01*
X133202381Y-91285715D02*
X133202381Y-90714286D01*
X133202381Y-91000000D02*
X132202381Y-91000000D01*
X132345238Y-90904762D01*
X132440476Y-90809524D01*
X132488095Y-90714286D01*
X138216666Y-100107143D02*
X138264285Y-100154762D01*
X138407142Y-100202381D01*
X138502380Y-100202381D01*
X138645238Y-100154762D01*
X138740476Y-100059524D01*
X138788095Y-99964286D01*
X138835714Y-99773810D01*
X138835714Y-99630952D01*
X138788095Y-99440476D01*
X138740476Y-99345238D01*
X138645238Y-99250000D01*
X138502380Y-99202381D01*
X138407142Y-99202381D01*
X138264285Y-99250000D01*
X138216666Y-99297619D01*
X137835714Y-99297619D02*
X137788095Y-99250000D01*
X137692857Y-99202381D01*
X137454761Y-99202381D01*
X137359523Y-99250000D01*
X137311904Y-99297619D01*
X137264285Y-99392857D01*
X137264285Y-99488095D01*
X137311904Y-99630952D01*
X137883333Y-100202381D01*
X137264285Y-100202381D01*
X141607143Y-94383334D02*
X141654762Y-94335715D01*
X141702381Y-94192858D01*
X141702381Y-94097620D01*
X141654762Y-93954762D01*
X141559524Y-93859524D01*
X141464286Y-93811905D01*
X141273810Y-93764286D01*
X141130952Y-93764286D01*
X140940476Y-93811905D01*
X140845238Y-93859524D01*
X140750000Y-93954762D01*
X140702381Y-94097620D01*
X140702381Y-94192858D01*
X140750000Y-94335715D01*
X140797619Y-94383334D01*
X141035714Y-95240477D02*
X141702381Y-95240477D01*
X140654762Y-95002381D02*
X141369048Y-94764286D01*
X141369048Y-95383334D01*
X146107143Y-86383334D02*
X146154762Y-86335715D01*
X146202381Y-86192858D01*
X146202381Y-86097620D01*
X146154762Y-85954762D01*
X146059524Y-85859524D01*
X145964286Y-85811905D01*
X145773810Y-85764286D01*
X145630952Y-85764286D01*
X145440476Y-85811905D01*
X145345238Y-85859524D01*
X145250000Y-85954762D01*
X145202381Y-86097620D01*
X145202381Y-86192858D01*
X145250000Y-86335715D01*
X145297619Y-86383334D01*
X145202381Y-87288096D02*
X145202381Y-86811905D01*
X145678571Y-86764286D01*
X145630952Y-86811905D01*
X145583333Y-86907143D01*
X145583333Y-87145239D01*
X145630952Y-87240477D01*
X145678571Y-87288096D01*
X145773810Y-87335715D01*
X146011905Y-87335715D01*
X146107143Y-87288096D01*
X146154762Y-87240477D01*
X146202381Y-87145239D01*
X146202381Y-86907143D01*
X146154762Y-86811905D01*
X146107143Y-86764286D01*
X132166666Y-83857143D02*
X132214285Y-83904762D01*
X132357142Y-83952381D01*
X132452380Y-83952381D01*
X132595238Y-83904762D01*
X132690476Y-83809524D01*
X132738095Y-83714286D01*
X132785714Y-83523810D01*
X132785714Y-83380952D01*
X132738095Y-83190476D01*
X132690476Y-83095238D01*
X132595238Y-83000000D01*
X132452380Y-82952381D01*
X132357142Y-82952381D01*
X132214285Y-83000000D01*
X132166666Y-83047619D01*
X131833333Y-82952381D02*
X131166666Y-82952381D01*
X131595238Y-83952381D01*
X180592857Y-92107143D02*
X180640476Y-92154762D01*
X180783333Y-92202381D01*
X180878571Y-92202381D01*
X181021429Y-92154762D01*
X181116667Y-92059524D01*
X181164286Y-91964286D01*
X181211905Y-91773810D01*
X181211905Y-91630952D01*
X181164286Y-91440476D01*
X181116667Y-91345238D01*
X181021429Y-91250000D01*
X180878571Y-91202381D01*
X180783333Y-91202381D01*
X180640476Y-91250000D01*
X180592857Y-91297619D01*
X179640476Y-92202381D02*
X180211905Y-92202381D01*
X179926191Y-92202381D02*
X179926191Y-91202381D01*
X180021429Y-91345238D01*
X180116667Y-91440476D01*
X180211905Y-91488095D01*
X178688095Y-92202381D02*
X179259524Y-92202381D01*
X178973810Y-92202381D02*
X178973810Y-91202381D01*
X179069048Y-91345238D01*
X179164286Y-91440476D01*
X179259524Y-91488095D01*
X180642857Y-74107143D02*
X180690476Y-74154762D01*
X180833333Y-74202381D01*
X180928571Y-74202381D01*
X181071429Y-74154762D01*
X181166667Y-74059524D01*
X181214286Y-73964286D01*
X181261905Y-73773810D01*
X181261905Y-73630952D01*
X181214286Y-73440476D01*
X181166667Y-73345238D01*
X181071429Y-73250000D01*
X180928571Y-73202381D01*
X180833333Y-73202381D01*
X180690476Y-73250000D01*
X180642857Y-73297619D01*
X179690476Y-74202381D02*
X180261905Y-74202381D01*
X179976191Y-74202381D02*
X179976191Y-73202381D01*
X180071429Y-73345238D01*
X180166667Y-73440476D01*
X180261905Y-73488095D01*
X179309524Y-73297619D02*
X179261905Y-73250000D01*
X179166667Y-73202381D01*
X178928571Y-73202381D01*
X178833333Y-73250000D01*
X178785714Y-73297619D01*
X178738095Y-73392857D01*
X178738095Y-73488095D01*
X178785714Y-73630952D01*
X179357143Y-74202381D01*
X178738095Y-74202381D01*
X148357143Y-97283334D02*
X148404762Y-97235715D01*
X148452381Y-97092858D01*
X148452381Y-96997620D01*
X148404762Y-96854762D01*
X148309524Y-96759524D01*
X148214286Y-96711905D01*
X148023810Y-96664286D01*
X147880952Y-96664286D01*
X147690476Y-96711905D01*
X147595238Y-96759524D01*
X147500000Y-96854762D01*
X147452381Y-96997620D01*
X147452381Y-97092858D01*
X147500000Y-97235715D01*
X147547619Y-97283334D01*
X147452381Y-97616667D02*
X147452381Y-98235715D01*
X147833333Y-97902381D01*
X147833333Y-98045239D01*
X147880952Y-98140477D01*
X147928571Y-98188096D01*
X148023810Y-98235715D01*
X148261905Y-98235715D01*
X148357143Y-98188096D01*
X148404762Y-98140477D01*
X148452381Y-98045239D01*
X148452381Y-97759524D01*
X148404762Y-97664286D01*
X148357143Y-97616667D01*
X142466666Y-83607143D02*
X142514285Y-83654762D01*
X142657142Y-83702381D01*
X142752380Y-83702381D01*
X142895238Y-83654762D01*
X142990476Y-83559524D01*
X143038095Y-83464286D01*
X143085714Y-83273810D01*
X143085714Y-83130952D01*
X143038095Y-82940476D01*
X142990476Y-82845238D01*
X142895238Y-82750000D01*
X142752380Y-82702381D01*
X142657142Y-82702381D01*
X142514285Y-82750000D01*
X142466666Y-82797619D01*
X141609523Y-82702381D02*
X141800000Y-82702381D01*
X141895238Y-82750000D01*
X141942857Y-82797619D01*
X142038095Y-82940476D01*
X142085714Y-83130952D01*
X142085714Y-83511905D01*
X142038095Y-83607143D01*
X141990476Y-83654762D01*
X141895238Y-83702381D01*
X141704761Y-83702381D01*
X141609523Y-83654762D01*
X141561904Y-83607143D01*
X141514285Y-83511905D01*
X141514285Y-83273810D01*
X141561904Y-83178571D01*
X141609523Y-83130952D01*
X141704761Y-83083333D01*
X141895238Y-83083333D01*
X141990476Y-83130952D01*
X142038095Y-83178571D01*
X142085714Y-83273810D01*
X140216666Y-105857143D02*
X140264285Y-105904762D01*
X140407142Y-105952381D01*
X140502380Y-105952381D01*
X140645238Y-105904762D01*
X140740476Y-105809524D01*
X140788095Y-105714286D01*
X140835714Y-105523810D01*
X140835714Y-105380952D01*
X140788095Y-105190476D01*
X140740476Y-105095238D01*
X140645238Y-105000000D01*
X140502380Y-104952381D01*
X140407142Y-104952381D01*
X140264285Y-105000000D01*
X140216666Y-105047619D01*
X139645238Y-105380952D02*
X139740476Y-105333333D01*
X139788095Y-105285714D01*
X139835714Y-105190476D01*
X139835714Y-105142857D01*
X139788095Y-105047619D01*
X139740476Y-105000000D01*
X139645238Y-104952381D01*
X139454761Y-104952381D01*
X139359523Y-105000000D01*
X139311904Y-105047619D01*
X139264285Y-105142857D01*
X139264285Y-105190476D01*
X139311904Y-105285714D01*
X139359523Y-105333333D01*
X139454761Y-105380952D01*
X139645238Y-105380952D01*
X139740476Y-105428571D01*
X139788095Y-105476190D01*
X139835714Y-105571429D01*
X139835714Y-105761905D01*
X139788095Y-105857143D01*
X139740476Y-105904762D01*
X139645238Y-105952381D01*
X139454761Y-105952381D01*
X139359523Y-105904762D01*
X139311904Y-105857143D01*
X139264285Y-105761905D01*
X139264285Y-105571429D01*
X139311904Y-105476190D01*
X139359523Y-105428571D01*
X139454761Y-105380952D01*
X128357143Y-97783334D02*
X128404762Y-97735715D01*
X128452381Y-97592858D01*
X128452381Y-97497620D01*
X128404762Y-97354762D01*
X128309524Y-97259524D01*
X128214286Y-97211905D01*
X128023810Y-97164286D01*
X127880952Y-97164286D01*
X127690476Y-97211905D01*
X127595238Y-97259524D01*
X127500000Y-97354762D01*
X127452381Y-97497620D01*
X127452381Y-97592858D01*
X127500000Y-97735715D01*
X127547619Y-97783334D01*
X128452381Y-98259524D02*
X128452381Y-98450000D01*
X128404762Y-98545239D01*
X128357143Y-98592858D01*
X128214286Y-98688096D01*
X128023810Y-98735715D01*
X127642857Y-98735715D01*
X127547619Y-98688096D01*
X127500000Y-98640477D01*
X127452381Y-98545239D01*
X127452381Y-98354762D01*
X127500000Y-98259524D01*
X127547619Y-98211905D01*
X127642857Y-98164286D01*
X127880952Y-98164286D01*
X127976190Y-98211905D01*
X128023810Y-98259524D01*
X128071429Y-98354762D01*
X128071429Y-98545239D01*
X128023810Y-98640477D01*
X127976190Y-98688096D01*
X127880952Y-98735715D01*
X132942857Y-105607143D02*
X132990476Y-105654762D01*
X133133333Y-105702381D01*
X133228571Y-105702381D01*
X133371429Y-105654762D01*
X133466667Y-105559524D01*
X133514286Y-105464286D01*
X133561905Y-105273810D01*
X133561905Y-105130952D01*
X133514286Y-104940476D01*
X133466667Y-104845238D01*
X133371429Y-104750000D01*
X133228571Y-104702381D01*
X133133333Y-104702381D01*
X132990476Y-104750000D01*
X132942857Y-104797619D01*
X131990476Y-105702381D02*
X132561905Y-105702381D01*
X132276191Y-105702381D02*
X132276191Y-104702381D01*
X132371429Y-104845238D01*
X132466667Y-104940476D01*
X132561905Y-104988095D01*
X131371429Y-104702381D02*
X131276190Y-104702381D01*
X131180952Y-104750000D01*
X131133333Y-104797619D01*
X131085714Y-104892857D01*
X131038095Y-105083333D01*
X131038095Y-105321429D01*
X131085714Y-105511905D01*
X131133333Y-105607143D01*
X131180952Y-105654762D01*
X131276190Y-105702381D01*
X131371429Y-105702381D01*
X131466667Y-105654762D01*
X131514286Y-105607143D01*
X131561905Y-105511905D01*
X131609524Y-105321429D01*
X131609524Y-105083333D01*
X131561905Y-104892857D01*
X131514286Y-104797619D01*
X131466667Y-104750000D01*
X131371429Y-104702381D01*
M02*
