G04 #@! TF.FileFunction,Copper,L3,Inr,Plane*
%FSLAX46Y46*%
G04 Gerber Fmt 4.6, Leading zero omitted, Abs format (unit mm)*
G04 Created by KiCad (PCBNEW 4.0.7) date 02/07/19 17:37:46*
%MOMM*%
%LPD*%
G01*
G04 APERTURE LIST*
%ADD10C,0.100000*%
%ADD11C,1.400000*%
%ADD12C,1.510000*%
%ADD13C,0.600000*%
%ADD14C,0.254000*%
G04 APERTURE END LIST*
D10*
D11*
X180500000Y-114000000D03*
X157250000Y-110750000D03*
D10*
G36*
X132938228Y-99190163D02*
X130809837Y-97061772D01*
X131877568Y-95994041D01*
X134005959Y-98122432D01*
X132938228Y-99190163D01*
X132938228Y-99190163D01*
G37*
D12*
X133673619Y-95265721D02*
X134734279Y-96326381D01*
X135469670Y-93469670D02*
X136530330Y-94530330D01*
X137265722Y-91673618D02*
X138326382Y-92734278D01*
X139061773Y-89877567D02*
X140122433Y-90938227D01*
X140857824Y-88081516D02*
X141918484Y-89142176D01*
D11*
X167750000Y-114000000D03*
X172250000Y-114000000D03*
X163250000Y-114000000D03*
D13*
X135874990Y-86967050D03*
X107031664Y-83816910D03*
X127500000Y-100000000D03*
X131500000Y-103000000D03*
X150500000Y-96099967D03*
X140000000Y-82000000D03*
X128003118Y-101554848D03*
X137874990Y-102289841D03*
X131818934Y-93739173D03*
X135610695Y-98676201D03*
X140542554Y-98335716D03*
X130934292Y-80795340D03*
X136752953Y-97346987D03*
X145163471Y-86059885D03*
X134221457Y-87006163D03*
X148021424Y-85567846D03*
X139000000Y-87000000D03*
X146647113Y-93365248D03*
X132500000Y-91500000D03*
X141500000Y-93500000D03*
X177000000Y-93000000D03*
X186504710Y-77250361D03*
X179496256Y-77014121D03*
X183000000Y-75000000D03*
X139368726Y-97234828D03*
X184984203Y-77283804D03*
X106999406Y-77720173D03*
X125750000Y-97250000D03*
X134250000Y-105000000D03*
X142250000Y-104250000D03*
X150500000Y-98250000D03*
X144549124Y-81911278D03*
X133013069Y-80684095D03*
X129941947Y-102058049D03*
X175000000Y-77000000D03*
X141730825Y-98031133D03*
X131154388Y-94723500D03*
X134449950Y-98645248D03*
X126977540Y-89377295D03*
X144674017Y-84961333D03*
X139975553Y-83778773D03*
X148033637Y-87473014D03*
X164248305Y-119141288D03*
X133000000Y-87000000D03*
X148000000Y-91000000D03*
X147000000Y-96000000D03*
X146000000Y-99000000D03*
X129000000Y-86000000D03*
X132500000Y-89500000D03*
X141500000Y-95500000D03*
X118000000Y-112000000D03*
X118000000Y-118000000D03*
X180506838Y-97044952D03*
X177000000Y-75000000D03*
X183000000Y-93000000D03*
X124000000Y-81000000D03*
X120000000Y-83250000D03*
X127283939Y-93334940D03*
X125916453Y-92603865D03*
X125396021Y-91468777D03*
X124075021Y-90000000D03*
X126300962Y-90389056D03*
X123000000Y-88000000D03*
X123000000Y-87000000D03*
X123000000Y-86000000D03*
X118836032Y-88856032D03*
X179500000Y-96250000D03*
X184000000Y-80500000D03*
X137250000Y-89000000D03*
X138250000Y-96250000D03*
X137750000Y-87250000D03*
X137250000Y-96500000D03*
X138802906Y-118003653D03*
X140396325Y-102012426D03*
X137038711Y-104540107D03*
X131250000Y-118500000D03*
X179250000Y-100000000D03*
X142614179Y-98901302D03*
D14*
G36*
X191790000Y-118790000D02*
X166500000Y-118790000D01*
X166228295Y-118844046D01*
X165997954Y-118997954D01*
X165844046Y-119228295D01*
X165790000Y-119500000D01*
X165790000Y-119873000D01*
X119210000Y-119873000D01*
X119210000Y-119500000D01*
X119155954Y-119228295D01*
X119002046Y-118997954D01*
X118771705Y-118844046D01*
X118500000Y-118790000D01*
X93210000Y-118790000D01*
X93210000Y-118685167D01*
X130314838Y-118685167D01*
X130456883Y-119028943D01*
X130719673Y-119292192D01*
X131063201Y-119434838D01*
X131435167Y-119435162D01*
X131778943Y-119293117D01*
X132042192Y-119030327D01*
X132184838Y-118686799D01*
X132185162Y-118314833D01*
X132133095Y-118188820D01*
X137867744Y-118188820D01*
X138009789Y-118532596D01*
X138272579Y-118795845D01*
X138616107Y-118938491D01*
X138988073Y-118938815D01*
X139331849Y-118796770D01*
X139595098Y-118533980D01*
X139737744Y-118190452D01*
X139738068Y-117818486D01*
X139596023Y-117474710D01*
X139333233Y-117211461D01*
X138989705Y-117068815D01*
X138617739Y-117068491D01*
X138273963Y-117210536D01*
X138010714Y-117473326D01*
X137868068Y-117816854D01*
X137867744Y-118188820D01*
X132133095Y-118188820D01*
X132043117Y-117971057D01*
X131780327Y-117707808D01*
X131436799Y-117565162D01*
X131064833Y-117564838D01*
X130721057Y-117706883D01*
X130457808Y-117969673D01*
X130315162Y-118313201D01*
X130314838Y-118685167D01*
X93210000Y-118685167D01*
X93210000Y-114264383D01*
X161914769Y-114264383D01*
X162117582Y-114755229D01*
X162492796Y-115131098D01*
X162983287Y-115334768D01*
X163514383Y-115335231D01*
X164005229Y-115132418D01*
X164381098Y-114757204D01*
X164584768Y-114266713D01*
X164584770Y-114264383D01*
X166414769Y-114264383D01*
X166617582Y-114755229D01*
X166992796Y-115131098D01*
X167483287Y-115334768D01*
X168014383Y-115335231D01*
X168505229Y-115132418D01*
X168881098Y-114757204D01*
X169084768Y-114266713D01*
X169084770Y-114264383D01*
X170914769Y-114264383D01*
X171117582Y-114755229D01*
X171492796Y-115131098D01*
X171983287Y-115334768D01*
X172514383Y-115335231D01*
X173005229Y-115132418D01*
X173381098Y-114757204D01*
X173584768Y-114266713D01*
X173584770Y-114264383D01*
X179164769Y-114264383D01*
X179367582Y-114755229D01*
X179742796Y-115131098D01*
X180233287Y-115334768D01*
X180764383Y-115335231D01*
X181255229Y-115132418D01*
X181631098Y-114757204D01*
X181834768Y-114266713D01*
X181835231Y-113735617D01*
X181632418Y-113244771D01*
X181257204Y-112868902D01*
X180766713Y-112665232D01*
X180235617Y-112664769D01*
X179744771Y-112867582D01*
X179368902Y-113242796D01*
X179165232Y-113733287D01*
X179164769Y-114264383D01*
X173584770Y-114264383D01*
X173585231Y-113735617D01*
X173382418Y-113244771D01*
X173007204Y-112868902D01*
X172516713Y-112665232D01*
X171985617Y-112664769D01*
X171494771Y-112867582D01*
X171118902Y-113242796D01*
X170915232Y-113733287D01*
X170914769Y-114264383D01*
X169084770Y-114264383D01*
X169085231Y-113735617D01*
X168882418Y-113244771D01*
X168507204Y-112868902D01*
X168016713Y-112665232D01*
X167485617Y-112664769D01*
X166994771Y-112867582D01*
X166618902Y-113242796D01*
X166415232Y-113733287D01*
X166414769Y-114264383D01*
X164584770Y-114264383D01*
X164585231Y-113735617D01*
X164382418Y-113244771D01*
X164007204Y-112868902D01*
X163516713Y-112665232D01*
X162985617Y-112664769D01*
X162494771Y-112867582D01*
X162118902Y-113242796D01*
X161915232Y-113733287D01*
X161914769Y-114264383D01*
X93210000Y-114264383D01*
X93210000Y-111120854D01*
X138864457Y-111120854D01*
X139340727Y-112273515D01*
X140221847Y-113156174D01*
X141373674Y-113634454D01*
X142620854Y-113635543D01*
X143773515Y-113159273D01*
X144656174Y-112278153D01*
X144902358Y-111685275D01*
X156494331Y-111685275D01*
X156556169Y-111921042D01*
X157057122Y-112097419D01*
X157587440Y-112068664D01*
X157943831Y-111921042D01*
X158005669Y-111685275D01*
X157250000Y-110929605D01*
X156494331Y-111685275D01*
X144902358Y-111685275D01*
X145134454Y-111126326D01*
X145134951Y-110557122D01*
X155902581Y-110557122D01*
X155931336Y-111087440D01*
X156078958Y-111443831D01*
X156314725Y-111505669D01*
X157070395Y-110750000D01*
X157429605Y-110750000D01*
X158185275Y-111505669D01*
X158421042Y-111443831D01*
X158597419Y-110942878D01*
X158568664Y-110412560D01*
X158421042Y-110056169D01*
X158185275Y-109994331D01*
X157429605Y-110750000D01*
X157070395Y-110750000D01*
X156314725Y-109994331D01*
X156078958Y-110056169D01*
X155902581Y-110557122D01*
X145134951Y-110557122D01*
X145135543Y-109879146D01*
X145108925Y-109814725D01*
X156494331Y-109814725D01*
X157250000Y-110570395D01*
X158005669Y-109814725D01*
X157943831Y-109578958D01*
X157442878Y-109402581D01*
X156912560Y-109431336D01*
X156556169Y-109578958D01*
X156494331Y-109814725D01*
X145108925Y-109814725D01*
X144659273Y-108726485D01*
X143778153Y-107843826D01*
X142626326Y-107365546D01*
X141379146Y-107364457D01*
X140226485Y-107840727D01*
X139343826Y-108721847D01*
X138865546Y-109873674D01*
X138864457Y-111120854D01*
X93210000Y-111120854D01*
X93210000Y-104725274D01*
X136103549Y-104725274D01*
X136245594Y-105069050D01*
X136508384Y-105332299D01*
X136851912Y-105474945D01*
X137223878Y-105475269D01*
X137567654Y-105333224D01*
X137830903Y-105070434D01*
X137973549Y-104726906D01*
X137973873Y-104354940D01*
X137831828Y-104011164D01*
X137569038Y-103747915D01*
X137225510Y-103605269D01*
X136853544Y-103604945D01*
X136509768Y-103746990D01*
X136246519Y-104009780D01*
X136103873Y-104353308D01*
X136103549Y-104725274D01*
X93210000Y-104725274D01*
X93210000Y-103185167D01*
X130564838Y-103185167D01*
X130706883Y-103528943D01*
X130969673Y-103792192D01*
X131313201Y-103934838D01*
X131685167Y-103935162D01*
X132028943Y-103793117D01*
X132292192Y-103530327D01*
X132434838Y-103186799D01*
X132435162Y-102814833D01*
X132294750Y-102475008D01*
X136939828Y-102475008D01*
X137081873Y-102818784D01*
X137344663Y-103082033D01*
X137688191Y-103224679D01*
X138060157Y-103225003D01*
X138403933Y-103082958D01*
X138667182Y-102820168D01*
X138809828Y-102476640D01*
X138810071Y-102197593D01*
X139461163Y-102197593D01*
X139603208Y-102541369D01*
X139865998Y-102804618D01*
X140209526Y-102947264D01*
X140581492Y-102947588D01*
X140925268Y-102805543D01*
X141188517Y-102542753D01*
X141331163Y-102199225D01*
X141331487Y-101827259D01*
X141189442Y-101483483D01*
X140926652Y-101220234D01*
X140583124Y-101077588D01*
X140211158Y-101077264D01*
X139867382Y-101219309D01*
X139604133Y-101482099D01*
X139461487Y-101825627D01*
X139461163Y-102197593D01*
X138810071Y-102197593D01*
X138810152Y-102104674D01*
X138668107Y-101760898D01*
X138405317Y-101497649D01*
X138061789Y-101355003D01*
X137689823Y-101354679D01*
X137346047Y-101496724D01*
X137082798Y-101759514D01*
X136940152Y-102103042D01*
X136939828Y-102475008D01*
X132294750Y-102475008D01*
X132293117Y-102471057D01*
X132030327Y-102207808D01*
X131686799Y-102065162D01*
X131314833Y-102064838D01*
X130971057Y-102206883D01*
X130707808Y-102469673D01*
X130565162Y-102813201D01*
X130564838Y-103185167D01*
X93210000Y-103185167D01*
X93210000Y-100185167D01*
X126564838Y-100185167D01*
X126706883Y-100528943D01*
X126969673Y-100792192D01*
X127304419Y-100931191D01*
X127210926Y-101024521D01*
X127068280Y-101368049D01*
X127067956Y-101740015D01*
X127210001Y-102083791D01*
X127472791Y-102347040D01*
X127816319Y-102489686D01*
X128188285Y-102490010D01*
X128532061Y-102347965D01*
X128795310Y-102085175D01*
X128937956Y-101741647D01*
X128938280Y-101369681D01*
X128796235Y-101025905D01*
X128533445Y-100762656D01*
X128198699Y-100623657D01*
X128292192Y-100530327D01*
X128434838Y-100186799D01*
X128434839Y-100185167D01*
X178314838Y-100185167D01*
X178456883Y-100528943D01*
X178719673Y-100792192D01*
X179063201Y-100934838D01*
X179435167Y-100935162D01*
X179778943Y-100793117D01*
X180042192Y-100530327D01*
X180184838Y-100186799D01*
X180185162Y-99814833D01*
X180043117Y-99471057D01*
X179780327Y-99207808D01*
X179436799Y-99065162D01*
X179064833Y-99064838D01*
X178721057Y-99206883D01*
X178457808Y-99469673D01*
X178315162Y-99813201D01*
X178314838Y-100185167D01*
X128434839Y-100185167D01*
X128435162Y-99814833D01*
X128293117Y-99471057D01*
X128030327Y-99207808D01*
X127686799Y-99065162D01*
X127314833Y-99064838D01*
X126971057Y-99206883D01*
X126707808Y-99469673D01*
X126565162Y-99813201D01*
X126564838Y-100185167D01*
X93210000Y-100185167D01*
X93210000Y-98552530D01*
X131627075Y-98552530D01*
X131627075Y-98777036D01*
X132578530Y-99728491D01*
X132811919Y-99825164D01*
X133064538Y-99825163D01*
X133297927Y-99728490D01*
X133719051Y-99307366D01*
X133719051Y-99082860D01*
X132407898Y-97771707D01*
X131627075Y-98552530D01*
X93210000Y-98552530D01*
X93210000Y-97188081D01*
X130174836Y-97188081D01*
X130271509Y-97421470D01*
X131222964Y-98372925D01*
X131447470Y-98372925D01*
X132228293Y-97592102D01*
X130917140Y-96280949D01*
X130692634Y-96280949D01*
X130271510Y-96702073D01*
X130174837Y-96935462D01*
X130174836Y-97188081D01*
X93210000Y-97188081D01*
X93210000Y-95876838D01*
X131096745Y-95876838D01*
X131096745Y-96101344D01*
X132407898Y-97412497D01*
X132422041Y-97398355D01*
X132601646Y-97577960D01*
X132587503Y-97592102D01*
X133898656Y-98903255D01*
X134123162Y-98903255D01*
X134544286Y-98482131D01*
X134640959Y-98248742D01*
X134640960Y-97996123D01*
X134544287Y-97762734D01*
X134468895Y-97687342D01*
X134763925Y-97746026D01*
X135295855Y-97640220D01*
X135746803Y-97338905D01*
X135818052Y-97232273D01*
X135817791Y-97532154D01*
X135926341Y-97794865D01*
X135797494Y-97741363D01*
X135425528Y-97741039D01*
X135081752Y-97883084D01*
X134818503Y-98145874D01*
X134675857Y-98489402D01*
X134675533Y-98861368D01*
X134817578Y-99205144D01*
X135080368Y-99468393D01*
X135423896Y-99611039D01*
X135795862Y-99611363D01*
X136139638Y-99469318D01*
X136402887Y-99206528D01*
X136545533Y-98863000D01*
X136545831Y-98520883D01*
X139607392Y-98520883D01*
X139749437Y-98864659D01*
X140012227Y-99127908D01*
X140355755Y-99270554D01*
X140727721Y-99270878D01*
X141071497Y-99128833D01*
X141113934Y-99086469D01*
X141679017Y-99086469D01*
X141821062Y-99430245D01*
X142083852Y-99693494D01*
X142427380Y-99836140D01*
X142799346Y-99836464D01*
X143143122Y-99694419D01*
X143406371Y-99431629D01*
X143549017Y-99088101D01*
X143549341Y-98716135D01*
X143407296Y-98372359D01*
X143144506Y-98109110D01*
X142800978Y-97966464D01*
X142429012Y-97966140D01*
X142085236Y-98108185D01*
X141821987Y-98370975D01*
X141679341Y-98714503D01*
X141679017Y-99086469D01*
X141113934Y-99086469D01*
X141334746Y-98866043D01*
X141477392Y-98522515D01*
X141477716Y-98150549D01*
X141335671Y-97806773D01*
X141072881Y-97543524D01*
X140729353Y-97400878D01*
X140357387Y-97400554D01*
X140013611Y-97542599D01*
X139750362Y-97805389D01*
X139607716Y-98148917D01*
X139607392Y-98520883D01*
X136545831Y-98520883D01*
X136545857Y-98491034D01*
X136437307Y-98228323D01*
X136566154Y-98281825D01*
X136938120Y-98282149D01*
X137281896Y-98140104D01*
X137545145Y-97877314D01*
X137687791Y-97533786D01*
X137687968Y-97330707D01*
X137778943Y-97293117D01*
X137939052Y-97133287D01*
X138063201Y-97184838D01*
X138435167Y-97185162D01*
X138778943Y-97043117D01*
X139042192Y-96780327D01*
X139184838Y-96436799D01*
X139184970Y-96285134D01*
X149564838Y-96285134D01*
X149706883Y-96628910D01*
X149969673Y-96892159D01*
X150313201Y-97034805D01*
X150685167Y-97035129D01*
X151028943Y-96893084D01*
X151292192Y-96630294D01*
X151373216Y-96435167D01*
X178564838Y-96435167D01*
X178706883Y-96778943D01*
X178969673Y-97042192D01*
X179313201Y-97184838D01*
X179685167Y-97185162D01*
X180028943Y-97043117D01*
X180292192Y-96780327D01*
X180434838Y-96436799D01*
X180435162Y-96064833D01*
X180293117Y-95721057D01*
X180030327Y-95457808D01*
X179686799Y-95315162D01*
X179314833Y-95314838D01*
X178971057Y-95456883D01*
X178707808Y-95719673D01*
X178565162Y-96063201D01*
X178564838Y-96435167D01*
X151373216Y-96435167D01*
X151434838Y-96286766D01*
X151435162Y-95914800D01*
X151293117Y-95571024D01*
X151030327Y-95307775D01*
X150686799Y-95165129D01*
X150314833Y-95164805D01*
X149971057Y-95306850D01*
X149707808Y-95569640D01*
X149565162Y-95913168D01*
X149564838Y-96285134D01*
X139184970Y-96285134D01*
X139185162Y-96064833D01*
X139043117Y-95721057D01*
X138780327Y-95457808D01*
X138436799Y-95315162D01*
X138064833Y-95314838D01*
X137721057Y-95456883D01*
X137560948Y-95616713D01*
X137481616Y-95583772D01*
X137542854Y-95542854D01*
X137844169Y-95091906D01*
X137949975Y-94559976D01*
X137849153Y-94053101D01*
X138356028Y-94153923D01*
X138887958Y-94048117D01*
X139338906Y-93746802D01*
X139380089Y-93685167D01*
X140564838Y-93685167D01*
X140706883Y-94028943D01*
X140969673Y-94292192D01*
X141313201Y-94434838D01*
X141685167Y-94435162D01*
X142028943Y-94293117D01*
X142292192Y-94030327D01*
X142434838Y-93686799D01*
X142434956Y-93550415D01*
X145711951Y-93550415D01*
X145853996Y-93894191D01*
X146116786Y-94157440D01*
X146460314Y-94300086D01*
X146832280Y-94300410D01*
X147176056Y-94158365D01*
X147439305Y-93895575D01*
X147581951Y-93552047D01*
X147582270Y-93185167D01*
X176064838Y-93185167D01*
X176206883Y-93528943D01*
X176469673Y-93792192D01*
X176813201Y-93934838D01*
X177185167Y-93935162D01*
X177528943Y-93793117D01*
X177792192Y-93530327D01*
X177934838Y-93186799D01*
X177935162Y-92814833D01*
X177793117Y-92471057D01*
X177530327Y-92207808D01*
X177186799Y-92065162D01*
X176814833Y-92064838D01*
X176471057Y-92206883D01*
X176207808Y-92469673D01*
X176065162Y-92813201D01*
X176064838Y-93185167D01*
X147582270Y-93185167D01*
X147582275Y-93180081D01*
X147440230Y-92836305D01*
X147177440Y-92573056D01*
X146833912Y-92430410D01*
X146461946Y-92430086D01*
X146118170Y-92572131D01*
X145854921Y-92834921D01*
X145712275Y-93178449D01*
X145711951Y-93550415D01*
X142434956Y-93550415D01*
X142435162Y-93314833D01*
X142293117Y-92971057D01*
X142030327Y-92707808D01*
X141686799Y-92565162D01*
X141314833Y-92564838D01*
X140971057Y-92706883D01*
X140707808Y-92969673D01*
X140565162Y-93313201D01*
X140564838Y-93685167D01*
X139380089Y-93685167D01*
X139640221Y-93295854D01*
X139746027Y-92763924D01*
X139645205Y-92257050D01*
X140152079Y-92357872D01*
X140684009Y-92252066D01*
X141134957Y-91950751D01*
X141436272Y-91499803D01*
X141542078Y-90967873D01*
X141441256Y-90460999D01*
X141948130Y-90561821D01*
X142480060Y-90456015D01*
X142931008Y-90154700D01*
X143232323Y-89703752D01*
X143338129Y-89171822D01*
X143232323Y-88639892D01*
X142931008Y-88188943D01*
X141811056Y-87068992D01*
X141360108Y-86767677D01*
X140828178Y-86661871D01*
X140296248Y-86767677D01*
X139934993Y-87009061D01*
X139935162Y-86814833D01*
X139793117Y-86471057D01*
X139567507Y-86245052D01*
X144228309Y-86245052D01*
X144370354Y-86588828D01*
X144633144Y-86852077D01*
X144976672Y-86994723D01*
X145348638Y-86995047D01*
X145692414Y-86853002D01*
X145955663Y-86590212D01*
X146098309Y-86246684D01*
X146098633Y-85874718D01*
X146048346Y-85753013D01*
X147086262Y-85753013D01*
X147228307Y-86096789D01*
X147491097Y-86360038D01*
X147834625Y-86502684D01*
X148206591Y-86503008D01*
X148550367Y-86360963D01*
X148813616Y-86098173D01*
X148956262Y-85754645D01*
X148956586Y-85382679D01*
X148814541Y-85038903D01*
X148551751Y-84775654D01*
X148208223Y-84633008D01*
X147836257Y-84632684D01*
X147492481Y-84774729D01*
X147229232Y-85037519D01*
X147086586Y-85381047D01*
X147086262Y-85753013D01*
X146048346Y-85753013D01*
X145956588Y-85530942D01*
X145693798Y-85267693D01*
X145350270Y-85125047D01*
X144978304Y-85124723D01*
X144634528Y-85266768D01*
X144371279Y-85529558D01*
X144228633Y-85873086D01*
X144228309Y-86245052D01*
X139567507Y-86245052D01*
X139530327Y-86207808D01*
X139186799Y-86065162D01*
X138814833Y-86064838D01*
X138471057Y-86206883D01*
X138237506Y-86440027D01*
X137936799Y-86315162D01*
X137564833Y-86314838D01*
X137221057Y-86456883D01*
X136957808Y-86719673D01*
X136815162Y-87063201D01*
X136814838Y-87435167D01*
X136956883Y-87778943D01*
X137219673Y-88042192D01*
X137274650Y-88065021D01*
X137064833Y-88064838D01*
X136721057Y-88206883D01*
X136457808Y-88469673D01*
X136315162Y-88813201D01*
X136314838Y-89185167D01*
X136456883Y-89528943D01*
X136719673Y-89792192D01*
X137063201Y-89934838D01*
X137435167Y-89935162D01*
X137642445Y-89849517D01*
X137742950Y-90354795D01*
X137236076Y-90253973D01*
X136704146Y-90359779D01*
X136253198Y-90661094D01*
X135951883Y-91112042D01*
X135846077Y-91643972D01*
X135946899Y-92150847D01*
X135440024Y-92050025D01*
X134908094Y-92155831D01*
X134457146Y-92457146D01*
X134155831Y-92908094D01*
X134050025Y-93440024D01*
X134150847Y-93946898D01*
X133643973Y-93846076D01*
X133112043Y-93951882D01*
X132661095Y-94253197D01*
X132359780Y-94704145D01*
X132253974Y-95236075D01*
X132312658Y-95531105D01*
X132237266Y-95455713D01*
X132003877Y-95359040D01*
X131751258Y-95359041D01*
X131517869Y-95455714D01*
X131096745Y-95876838D01*
X93210000Y-95876838D01*
X93210000Y-91653944D01*
X124460859Y-91653944D01*
X124602904Y-91997720D01*
X124865694Y-92260969D01*
X125019852Y-92324981D01*
X124981615Y-92417066D01*
X124981291Y-92789032D01*
X125123336Y-93132808D01*
X125386126Y-93396057D01*
X125729654Y-93538703D01*
X126101620Y-93539027D01*
X126348849Y-93436874D01*
X126348777Y-93520107D01*
X126490822Y-93863883D01*
X126753612Y-94127132D01*
X127097140Y-94269778D01*
X127469106Y-94270102D01*
X127812882Y-94128057D01*
X128016954Y-93924340D01*
X130883772Y-93924340D01*
X131025817Y-94268116D01*
X131288607Y-94531365D01*
X131632135Y-94674011D01*
X132004101Y-94674335D01*
X132347877Y-94532290D01*
X132611126Y-94269500D01*
X132753772Y-93925972D01*
X132754096Y-93554006D01*
X132612051Y-93210230D01*
X132349261Y-92946981D01*
X132005733Y-92804335D01*
X131633767Y-92804011D01*
X131289991Y-92946056D01*
X131026742Y-93208846D01*
X130884096Y-93552374D01*
X130883772Y-93924340D01*
X128016954Y-93924340D01*
X128076131Y-93865267D01*
X128218777Y-93521739D01*
X128219101Y-93149773D01*
X128077056Y-92805997D01*
X127814266Y-92542748D01*
X127470738Y-92400102D01*
X127098772Y-92399778D01*
X126851543Y-92501931D01*
X126851615Y-92418698D01*
X126709570Y-92074922D01*
X126446780Y-91811673D01*
X126292622Y-91747661D01*
X126318571Y-91685167D01*
X131564838Y-91685167D01*
X131706883Y-92028943D01*
X131969673Y-92292192D01*
X132313201Y-92434838D01*
X132685167Y-92435162D01*
X133028943Y-92293117D01*
X133292192Y-92030327D01*
X133434838Y-91686799D01*
X133435162Y-91314833D01*
X133293117Y-90971057D01*
X133030327Y-90707808D01*
X132686799Y-90565162D01*
X132314833Y-90564838D01*
X131971057Y-90706883D01*
X131707808Y-90969673D01*
X131565162Y-91313201D01*
X131564838Y-91685167D01*
X126318571Y-91685167D01*
X126330859Y-91655576D01*
X126331148Y-91324083D01*
X126486129Y-91324218D01*
X126829905Y-91182173D01*
X127093154Y-90919383D01*
X127235800Y-90575855D01*
X127236124Y-90203889D01*
X127094079Y-89860113D01*
X126831289Y-89596864D01*
X126487761Y-89454218D01*
X126115795Y-89453894D01*
X125772019Y-89595939D01*
X125508770Y-89858729D01*
X125366124Y-90202257D01*
X125365835Y-90533750D01*
X125210854Y-90533615D01*
X124867078Y-90675660D01*
X124603829Y-90938450D01*
X124461183Y-91281978D01*
X124460859Y-91653944D01*
X93210000Y-91653944D01*
X93210000Y-90185167D01*
X123139859Y-90185167D01*
X123281904Y-90528943D01*
X123544694Y-90792192D01*
X123888222Y-90934838D01*
X124260188Y-90935162D01*
X124603964Y-90793117D01*
X124867213Y-90530327D01*
X125009859Y-90186799D01*
X125010183Y-89814833D01*
X124868138Y-89471057D01*
X124605348Y-89207808D01*
X124261820Y-89065162D01*
X123889854Y-89064838D01*
X123546078Y-89206883D01*
X123282829Y-89469673D01*
X123140183Y-89813201D01*
X123139859Y-90185167D01*
X93210000Y-90185167D01*
X93210000Y-89041199D01*
X117900870Y-89041199D01*
X118042915Y-89384975D01*
X118305705Y-89648224D01*
X118649233Y-89790870D01*
X119021199Y-89791194D01*
X119364975Y-89649149D01*
X119628224Y-89386359D01*
X119770870Y-89042831D01*
X119771194Y-88670865D01*
X119629149Y-88327089D01*
X119366359Y-88063840D01*
X119022831Y-87921194D01*
X118650865Y-87920870D01*
X118307089Y-88062915D01*
X118043840Y-88325705D01*
X117901194Y-88669233D01*
X117900870Y-89041199D01*
X93210000Y-89041199D01*
X93210000Y-86185167D01*
X122064838Y-86185167D01*
X122195069Y-86500351D01*
X122065162Y-86813201D01*
X122064838Y-87185167D01*
X122195069Y-87500351D01*
X122065162Y-87813201D01*
X122064838Y-88185167D01*
X122206883Y-88528943D01*
X122469673Y-88792192D01*
X122813201Y-88934838D01*
X123185167Y-88935162D01*
X123528943Y-88793117D01*
X123792192Y-88530327D01*
X123934838Y-88186799D01*
X123935162Y-87814833D01*
X123804931Y-87499649D01*
X123932956Y-87191330D01*
X133286295Y-87191330D01*
X133428340Y-87535106D01*
X133691130Y-87798355D01*
X134034658Y-87941001D01*
X134406624Y-87941325D01*
X134750400Y-87799280D01*
X135013649Y-87536490D01*
X135056232Y-87433938D01*
X135081873Y-87495993D01*
X135344663Y-87759242D01*
X135688191Y-87901888D01*
X136060157Y-87902212D01*
X136403933Y-87760167D01*
X136667182Y-87497377D01*
X136809828Y-87153849D01*
X136810152Y-86781883D01*
X136668107Y-86438107D01*
X136405317Y-86174858D01*
X136061789Y-86032212D01*
X135689823Y-86031888D01*
X135346047Y-86173933D01*
X135082798Y-86436723D01*
X135040215Y-86539275D01*
X135014574Y-86477220D01*
X134751784Y-86213971D01*
X134408256Y-86071325D01*
X134036290Y-86071001D01*
X133692514Y-86213046D01*
X133429265Y-86475836D01*
X133286619Y-86819364D01*
X133286295Y-87191330D01*
X123932956Y-87191330D01*
X123934838Y-87186799D01*
X123935162Y-86814833D01*
X123804931Y-86499649D01*
X123934838Y-86186799D01*
X123935162Y-85814833D01*
X123793117Y-85471057D01*
X123530327Y-85207808D01*
X123186799Y-85065162D01*
X122814833Y-85064838D01*
X122471057Y-85206883D01*
X122207808Y-85469673D01*
X122065162Y-85813201D01*
X122064838Y-86185167D01*
X93210000Y-86185167D01*
X93210000Y-84002077D01*
X106096502Y-84002077D01*
X106238547Y-84345853D01*
X106501337Y-84609102D01*
X106844865Y-84751748D01*
X107216831Y-84752072D01*
X107560607Y-84610027D01*
X107823856Y-84347237D01*
X107966502Y-84003709D01*
X107966826Y-83631743D01*
X107885603Y-83435167D01*
X119064838Y-83435167D01*
X119206883Y-83778943D01*
X119469673Y-84042192D01*
X119813201Y-84184838D01*
X120185167Y-84185162D01*
X120528943Y-84043117D01*
X120792192Y-83780327D01*
X120934838Y-83436799D01*
X120935162Y-83064833D01*
X120793117Y-82721057D01*
X120530327Y-82457808D01*
X120186799Y-82315162D01*
X119814833Y-82314838D01*
X119471057Y-82456883D01*
X119207808Y-82719673D01*
X119065162Y-83063201D01*
X119064838Y-83435167D01*
X107885603Y-83435167D01*
X107824781Y-83287967D01*
X107561991Y-83024718D01*
X107218463Y-82882072D01*
X106846497Y-82881748D01*
X106502721Y-83023793D01*
X106239472Y-83286583D01*
X106096826Y-83630111D01*
X106096502Y-84002077D01*
X93210000Y-84002077D01*
X93210000Y-82185167D01*
X139064838Y-82185167D01*
X139206883Y-82528943D01*
X139469673Y-82792192D01*
X139813201Y-82934838D01*
X140185167Y-82935162D01*
X140528943Y-82793117D01*
X140792192Y-82530327D01*
X140934838Y-82186799D01*
X140935162Y-81814833D01*
X140793117Y-81471057D01*
X140530327Y-81207808D01*
X140186799Y-81065162D01*
X139814833Y-81064838D01*
X139471057Y-81206883D01*
X139207808Y-81469673D01*
X139065162Y-81813201D01*
X139064838Y-82185167D01*
X93210000Y-82185167D01*
X93210000Y-80980507D01*
X129999130Y-80980507D01*
X130141175Y-81324283D01*
X130403965Y-81587532D01*
X130747493Y-81730178D01*
X131119459Y-81730502D01*
X131463235Y-81588457D01*
X131726484Y-81325667D01*
X131869130Y-80982139D01*
X131869388Y-80685167D01*
X183064838Y-80685167D01*
X183206883Y-81028943D01*
X183469673Y-81292192D01*
X183813201Y-81434838D01*
X184185167Y-81435162D01*
X184528943Y-81293117D01*
X184792192Y-81030327D01*
X184934838Y-80686799D01*
X184935162Y-80314833D01*
X184793117Y-79971057D01*
X184530327Y-79707808D01*
X184186799Y-79565162D01*
X183814833Y-79564838D01*
X183471057Y-79706883D01*
X183207808Y-79969673D01*
X183065162Y-80313201D01*
X183064838Y-80685167D01*
X131869388Y-80685167D01*
X131869454Y-80610173D01*
X131727409Y-80266397D01*
X131464619Y-80003148D01*
X131121091Y-79860502D01*
X130749125Y-79860178D01*
X130405349Y-80002223D01*
X130142100Y-80265013D01*
X129999454Y-80608541D01*
X129999130Y-80980507D01*
X93210000Y-80980507D01*
X93210000Y-77199288D01*
X178561094Y-77199288D01*
X178703139Y-77543064D01*
X178965929Y-77806313D01*
X179309457Y-77948959D01*
X179681423Y-77949283D01*
X180025199Y-77807238D01*
X180288448Y-77544448D01*
X180333675Y-77435528D01*
X185569548Y-77435528D01*
X185711593Y-77779304D01*
X185974383Y-78042553D01*
X186317911Y-78185199D01*
X186689877Y-78185523D01*
X187033653Y-78043478D01*
X187296902Y-77780688D01*
X187439548Y-77437160D01*
X187439872Y-77065194D01*
X187297827Y-76721418D01*
X187035037Y-76458169D01*
X186691509Y-76315523D01*
X186319543Y-76315199D01*
X185975767Y-76457244D01*
X185712518Y-76720034D01*
X185569872Y-77063562D01*
X185569548Y-77435528D01*
X180333675Y-77435528D01*
X180431094Y-77200920D01*
X180431418Y-76828954D01*
X180289373Y-76485178D01*
X180026583Y-76221929D01*
X179683055Y-76079283D01*
X179311089Y-76078959D01*
X178967313Y-76221004D01*
X178704064Y-76483794D01*
X178561418Y-76827322D01*
X178561094Y-77199288D01*
X93210000Y-77199288D01*
X93210000Y-75185167D01*
X182064838Y-75185167D01*
X182206883Y-75528943D01*
X182469673Y-75792192D01*
X182813201Y-75934838D01*
X183185167Y-75935162D01*
X183528943Y-75793117D01*
X183792192Y-75530327D01*
X183934838Y-75186799D01*
X183935162Y-74814833D01*
X183793117Y-74471057D01*
X183530327Y-74207808D01*
X183186799Y-74065162D01*
X182814833Y-74064838D01*
X182471057Y-74206883D01*
X182207808Y-74469673D01*
X182065162Y-74813201D01*
X182064838Y-75185167D01*
X93210000Y-75185167D01*
X93210000Y-72210000D01*
X191790000Y-72210000D01*
X191790000Y-118790000D01*
X191790000Y-118790000D01*
G37*
X191790000Y-118790000D02*
X166500000Y-118790000D01*
X166228295Y-118844046D01*
X165997954Y-118997954D01*
X165844046Y-119228295D01*
X165790000Y-119500000D01*
X165790000Y-119873000D01*
X119210000Y-119873000D01*
X119210000Y-119500000D01*
X119155954Y-119228295D01*
X119002046Y-118997954D01*
X118771705Y-118844046D01*
X118500000Y-118790000D01*
X93210000Y-118790000D01*
X93210000Y-118685167D01*
X130314838Y-118685167D01*
X130456883Y-119028943D01*
X130719673Y-119292192D01*
X131063201Y-119434838D01*
X131435167Y-119435162D01*
X131778943Y-119293117D01*
X132042192Y-119030327D01*
X132184838Y-118686799D01*
X132185162Y-118314833D01*
X132133095Y-118188820D01*
X137867744Y-118188820D01*
X138009789Y-118532596D01*
X138272579Y-118795845D01*
X138616107Y-118938491D01*
X138988073Y-118938815D01*
X139331849Y-118796770D01*
X139595098Y-118533980D01*
X139737744Y-118190452D01*
X139738068Y-117818486D01*
X139596023Y-117474710D01*
X139333233Y-117211461D01*
X138989705Y-117068815D01*
X138617739Y-117068491D01*
X138273963Y-117210536D01*
X138010714Y-117473326D01*
X137868068Y-117816854D01*
X137867744Y-118188820D01*
X132133095Y-118188820D01*
X132043117Y-117971057D01*
X131780327Y-117707808D01*
X131436799Y-117565162D01*
X131064833Y-117564838D01*
X130721057Y-117706883D01*
X130457808Y-117969673D01*
X130315162Y-118313201D01*
X130314838Y-118685167D01*
X93210000Y-118685167D01*
X93210000Y-114264383D01*
X161914769Y-114264383D01*
X162117582Y-114755229D01*
X162492796Y-115131098D01*
X162983287Y-115334768D01*
X163514383Y-115335231D01*
X164005229Y-115132418D01*
X164381098Y-114757204D01*
X164584768Y-114266713D01*
X164584770Y-114264383D01*
X166414769Y-114264383D01*
X166617582Y-114755229D01*
X166992796Y-115131098D01*
X167483287Y-115334768D01*
X168014383Y-115335231D01*
X168505229Y-115132418D01*
X168881098Y-114757204D01*
X169084768Y-114266713D01*
X169084770Y-114264383D01*
X170914769Y-114264383D01*
X171117582Y-114755229D01*
X171492796Y-115131098D01*
X171983287Y-115334768D01*
X172514383Y-115335231D01*
X173005229Y-115132418D01*
X173381098Y-114757204D01*
X173584768Y-114266713D01*
X173584770Y-114264383D01*
X179164769Y-114264383D01*
X179367582Y-114755229D01*
X179742796Y-115131098D01*
X180233287Y-115334768D01*
X180764383Y-115335231D01*
X181255229Y-115132418D01*
X181631098Y-114757204D01*
X181834768Y-114266713D01*
X181835231Y-113735617D01*
X181632418Y-113244771D01*
X181257204Y-112868902D01*
X180766713Y-112665232D01*
X180235617Y-112664769D01*
X179744771Y-112867582D01*
X179368902Y-113242796D01*
X179165232Y-113733287D01*
X179164769Y-114264383D01*
X173584770Y-114264383D01*
X173585231Y-113735617D01*
X173382418Y-113244771D01*
X173007204Y-112868902D01*
X172516713Y-112665232D01*
X171985617Y-112664769D01*
X171494771Y-112867582D01*
X171118902Y-113242796D01*
X170915232Y-113733287D01*
X170914769Y-114264383D01*
X169084770Y-114264383D01*
X169085231Y-113735617D01*
X168882418Y-113244771D01*
X168507204Y-112868902D01*
X168016713Y-112665232D01*
X167485617Y-112664769D01*
X166994771Y-112867582D01*
X166618902Y-113242796D01*
X166415232Y-113733287D01*
X166414769Y-114264383D01*
X164584770Y-114264383D01*
X164585231Y-113735617D01*
X164382418Y-113244771D01*
X164007204Y-112868902D01*
X163516713Y-112665232D01*
X162985617Y-112664769D01*
X162494771Y-112867582D01*
X162118902Y-113242796D01*
X161915232Y-113733287D01*
X161914769Y-114264383D01*
X93210000Y-114264383D01*
X93210000Y-111120854D01*
X138864457Y-111120854D01*
X139340727Y-112273515D01*
X140221847Y-113156174D01*
X141373674Y-113634454D01*
X142620854Y-113635543D01*
X143773515Y-113159273D01*
X144656174Y-112278153D01*
X144902358Y-111685275D01*
X156494331Y-111685275D01*
X156556169Y-111921042D01*
X157057122Y-112097419D01*
X157587440Y-112068664D01*
X157943831Y-111921042D01*
X158005669Y-111685275D01*
X157250000Y-110929605D01*
X156494331Y-111685275D01*
X144902358Y-111685275D01*
X145134454Y-111126326D01*
X145134951Y-110557122D01*
X155902581Y-110557122D01*
X155931336Y-111087440D01*
X156078958Y-111443831D01*
X156314725Y-111505669D01*
X157070395Y-110750000D01*
X157429605Y-110750000D01*
X158185275Y-111505669D01*
X158421042Y-111443831D01*
X158597419Y-110942878D01*
X158568664Y-110412560D01*
X158421042Y-110056169D01*
X158185275Y-109994331D01*
X157429605Y-110750000D01*
X157070395Y-110750000D01*
X156314725Y-109994331D01*
X156078958Y-110056169D01*
X155902581Y-110557122D01*
X145134951Y-110557122D01*
X145135543Y-109879146D01*
X145108925Y-109814725D01*
X156494331Y-109814725D01*
X157250000Y-110570395D01*
X158005669Y-109814725D01*
X157943831Y-109578958D01*
X157442878Y-109402581D01*
X156912560Y-109431336D01*
X156556169Y-109578958D01*
X156494331Y-109814725D01*
X145108925Y-109814725D01*
X144659273Y-108726485D01*
X143778153Y-107843826D01*
X142626326Y-107365546D01*
X141379146Y-107364457D01*
X140226485Y-107840727D01*
X139343826Y-108721847D01*
X138865546Y-109873674D01*
X138864457Y-111120854D01*
X93210000Y-111120854D01*
X93210000Y-104725274D01*
X136103549Y-104725274D01*
X136245594Y-105069050D01*
X136508384Y-105332299D01*
X136851912Y-105474945D01*
X137223878Y-105475269D01*
X137567654Y-105333224D01*
X137830903Y-105070434D01*
X137973549Y-104726906D01*
X137973873Y-104354940D01*
X137831828Y-104011164D01*
X137569038Y-103747915D01*
X137225510Y-103605269D01*
X136853544Y-103604945D01*
X136509768Y-103746990D01*
X136246519Y-104009780D01*
X136103873Y-104353308D01*
X136103549Y-104725274D01*
X93210000Y-104725274D01*
X93210000Y-103185167D01*
X130564838Y-103185167D01*
X130706883Y-103528943D01*
X130969673Y-103792192D01*
X131313201Y-103934838D01*
X131685167Y-103935162D01*
X132028943Y-103793117D01*
X132292192Y-103530327D01*
X132434838Y-103186799D01*
X132435162Y-102814833D01*
X132294750Y-102475008D01*
X136939828Y-102475008D01*
X137081873Y-102818784D01*
X137344663Y-103082033D01*
X137688191Y-103224679D01*
X138060157Y-103225003D01*
X138403933Y-103082958D01*
X138667182Y-102820168D01*
X138809828Y-102476640D01*
X138810071Y-102197593D01*
X139461163Y-102197593D01*
X139603208Y-102541369D01*
X139865998Y-102804618D01*
X140209526Y-102947264D01*
X140581492Y-102947588D01*
X140925268Y-102805543D01*
X141188517Y-102542753D01*
X141331163Y-102199225D01*
X141331487Y-101827259D01*
X141189442Y-101483483D01*
X140926652Y-101220234D01*
X140583124Y-101077588D01*
X140211158Y-101077264D01*
X139867382Y-101219309D01*
X139604133Y-101482099D01*
X139461487Y-101825627D01*
X139461163Y-102197593D01*
X138810071Y-102197593D01*
X138810152Y-102104674D01*
X138668107Y-101760898D01*
X138405317Y-101497649D01*
X138061789Y-101355003D01*
X137689823Y-101354679D01*
X137346047Y-101496724D01*
X137082798Y-101759514D01*
X136940152Y-102103042D01*
X136939828Y-102475008D01*
X132294750Y-102475008D01*
X132293117Y-102471057D01*
X132030327Y-102207808D01*
X131686799Y-102065162D01*
X131314833Y-102064838D01*
X130971057Y-102206883D01*
X130707808Y-102469673D01*
X130565162Y-102813201D01*
X130564838Y-103185167D01*
X93210000Y-103185167D01*
X93210000Y-100185167D01*
X126564838Y-100185167D01*
X126706883Y-100528943D01*
X126969673Y-100792192D01*
X127304419Y-100931191D01*
X127210926Y-101024521D01*
X127068280Y-101368049D01*
X127067956Y-101740015D01*
X127210001Y-102083791D01*
X127472791Y-102347040D01*
X127816319Y-102489686D01*
X128188285Y-102490010D01*
X128532061Y-102347965D01*
X128795310Y-102085175D01*
X128937956Y-101741647D01*
X128938280Y-101369681D01*
X128796235Y-101025905D01*
X128533445Y-100762656D01*
X128198699Y-100623657D01*
X128292192Y-100530327D01*
X128434838Y-100186799D01*
X128434839Y-100185167D01*
X178314838Y-100185167D01*
X178456883Y-100528943D01*
X178719673Y-100792192D01*
X179063201Y-100934838D01*
X179435167Y-100935162D01*
X179778943Y-100793117D01*
X180042192Y-100530327D01*
X180184838Y-100186799D01*
X180185162Y-99814833D01*
X180043117Y-99471057D01*
X179780327Y-99207808D01*
X179436799Y-99065162D01*
X179064833Y-99064838D01*
X178721057Y-99206883D01*
X178457808Y-99469673D01*
X178315162Y-99813201D01*
X178314838Y-100185167D01*
X128434839Y-100185167D01*
X128435162Y-99814833D01*
X128293117Y-99471057D01*
X128030327Y-99207808D01*
X127686799Y-99065162D01*
X127314833Y-99064838D01*
X126971057Y-99206883D01*
X126707808Y-99469673D01*
X126565162Y-99813201D01*
X126564838Y-100185167D01*
X93210000Y-100185167D01*
X93210000Y-98552530D01*
X131627075Y-98552530D01*
X131627075Y-98777036D01*
X132578530Y-99728491D01*
X132811919Y-99825164D01*
X133064538Y-99825163D01*
X133297927Y-99728490D01*
X133719051Y-99307366D01*
X133719051Y-99082860D01*
X132407898Y-97771707D01*
X131627075Y-98552530D01*
X93210000Y-98552530D01*
X93210000Y-97188081D01*
X130174836Y-97188081D01*
X130271509Y-97421470D01*
X131222964Y-98372925D01*
X131447470Y-98372925D01*
X132228293Y-97592102D01*
X130917140Y-96280949D01*
X130692634Y-96280949D01*
X130271510Y-96702073D01*
X130174837Y-96935462D01*
X130174836Y-97188081D01*
X93210000Y-97188081D01*
X93210000Y-95876838D01*
X131096745Y-95876838D01*
X131096745Y-96101344D01*
X132407898Y-97412497D01*
X132422041Y-97398355D01*
X132601646Y-97577960D01*
X132587503Y-97592102D01*
X133898656Y-98903255D01*
X134123162Y-98903255D01*
X134544286Y-98482131D01*
X134640959Y-98248742D01*
X134640960Y-97996123D01*
X134544287Y-97762734D01*
X134468895Y-97687342D01*
X134763925Y-97746026D01*
X135295855Y-97640220D01*
X135746803Y-97338905D01*
X135818052Y-97232273D01*
X135817791Y-97532154D01*
X135926341Y-97794865D01*
X135797494Y-97741363D01*
X135425528Y-97741039D01*
X135081752Y-97883084D01*
X134818503Y-98145874D01*
X134675857Y-98489402D01*
X134675533Y-98861368D01*
X134817578Y-99205144D01*
X135080368Y-99468393D01*
X135423896Y-99611039D01*
X135795862Y-99611363D01*
X136139638Y-99469318D01*
X136402887Y-99206528D01*
X136545533Y-98863000D01*
X136545831Y-98520883D01*
X139607392Y-98520883D01*
X139749437Y-98864659D01*
X140012227Y-99127908D01*
X140355755Y-99270554D01*
X140727721Y-99270878D01*
X141071497Y-99128833D01*
X141113934Y-99086469D01*
X141679017Y-99086469D01*
X141821062Y-99430245D01*
X142083852Y-99693494D01*
X142427380Y-99836140D01*
X142799346Y-99836464D01*
X143143122Y-99694419D01*
X143406371Y-99431629D01*
X143549017Y-99088101D01*
X143549341Y-98716135D01*
X143407296Y-98372359D01*
X143144506Y-98109110D01*
X142800978Y-97966464D01*
X142429012Y-97966140D01*
X142085236Y-98108185D01*
X141821987Y-98370975D01*
X141679341Y-98714503D01*
X141679017Y-99086469D01*
X141113934Y-99086469D01*
X141334746Y-98866043D01*
X141477392Y-98522515D01*
X141477716Y-98150549D01*
X141335671Y-97806773D01*
X141072881Y-97543524D01*
X140729353Y-97400878D01*
X140357387Y-97400554D01*
X140013611Y-97542599D01*
X139750362Y-97805389D01*
X139607716Y-98148917D01*
X139607392Y-98520883D01*
X136545831Y-98520883D01*
X136545857Y-98491034D01*
X136437307Y-98228323D01*
X136566154Y-98281825D01*
X136938120Y-98282149D01*
X137281896Y-98140104D01*
X137545145Y-97877314D01*
X137687791Y-97533786D01*
X137687968Y-97330707D01*
X137778943Y-97293117D01*
X137939052Y-97133287D01*
X138063201Y-97184838D01*
X138435167Y-97185162D01*
X138778943Y-97043117D01*
X139042192Y-96780327D01*
X139184838Y-96436799D01*
X139184970Y-96285134D01*
X149564838Y-96285134D01*
X149706883Y-96628910D01*
X149969673Y-96892159D01*
X150313201Y-97034805D01*
X150685167Y-97035129D01*
X151028943Y-96893084D01*
X151292192Y-96630294D01*
X151373216Y-96435167D01*
X178564838Y-96435167D01*
X178706883Y-96778943D01*
X178969673Y-97042192D01*
X179313201Y-97184838D01*
X179685167Y-97185162D01*
X180028943Y-97043117D01*
X180292192Y-96780327D01*
X180434838Y-96436799D01*
X180435162Y-96064833D01*
X180293117Y-95721057D01*
X180030327Y-95457808D01*
X179686799Y-95315162D01*
X179314833Y-95314838D01*
X178971057Y-95456883D01*
X178707808Y-95719673D01*
X178565162Y-96063201D01*
X178564838Y-96435167D01*
X151373216Y-96435167D01*
X151434838Y-96286766D01*
X151435162Y-95914800D01*
X151293117Y-95571024D01*
X151030327Y-95307775D01*
X150686799Y-95165129D01*
X150314833Y-95164805D01*
X149971057Y-95306850D01*
X149707808Y-95569640D01*
X149565162Y-95913168D01*
X149564838Y-96285134D01*
X139184970Y-96285134D01*
X139185162Y-96064833D01*
X139043117Y-95721057D01*
X138780327Y-95457808D01*
X138436799Y-95315162D01*
X138064833Y-95314838D01*
X137721057Y-95456883D01*
X137560948Y-95616713D01*
X137481616Y-95583772D01*
X137542854Y-95542854D01*
X137844169Y-95091906D01*
X137949975Y-94559976D01*
X137849153Y-94053101D01*
X138356028Y-94153923D01*
X138887958Y-94048117D01*
X139338906Y-93746802D01*
X139380089Y-93685167D01*
X140564838Y-93685167D01*
X140706883Y-94028943D01*
X140969673Y-94292192D01*
X141313201Y-94434838D01*
X141685167Y-94435162D01*
X142028943Y-94293117D01*
X142292192Y-94030327D01*
X142434838Y-93686799D01*
X142434956Y-93550415D01*
X145711951Y-93550415D01*
X145853996Y-93894191D01*
X146116786Y-94157440D01*
X146460314Y-94300086D01*
X146832280Y-94300410D01*
X147176056Y-94158365D01*
X147439305Y-93895575D01*
X147581951Y-93552047D01*
X147582270Y-93185167D01*
X176064838Y-93185167D01*
X176206883Y-93528943D01*
X176469673Y-93792192D01*
X176813201Y-93934838D01*
X177185167Y-93935162D01*
X177528943Y-93793117D01*
X177792192Y-93530327D01*
X177934838Y-93186799D01*
X177935162Y-92814833D01*
X177793117Y-92471057D01*
X177530327Y-92207808D01*
X177186799Y-92065162D01*
X176814833Y-92064838D01*
X176471057Y-92206883D01*
X176207808Y-92469673D01*
X176065162Y-92813201D01*
X176064838Y-93185167D01*
X147582270Y-93185167D01*
X147582275Y-93180081D01*
X147440230Y-92836305D01*
X147177440Y-92573056D01*
X146833912Y-92430410D01*
X146461946Y-92430086D01*
X146118170Y-92572131D01*
X145854921Y-92834921D01*
X145712275Y-93178449D01*
X145711951Y-93550415D01*
X142434956Y-93550415D01*
X142435162Y-93314833D01*
X142293117Y-92971057D01*
X142030327Y-92707808D01*
X141686799Y-92565162D01*
X141314833Y-92564838D01*
X140971057Y-92706883D01*
X140707808Y-92969673D01*
X140565162Y-93313201D01*
X140564838Y-93685167D01*
X139380089Y-93685167D01*
X139640221Y-93295854D01*
X139746027Y-92763924D01*
X139645205Y-92257050D01*
X140152079Y-92357872D01*
X140684009Y-92252066D01*
X141134957Y-91950751D01*
X141436272Y-91499803D01*
X141542078Y-90967873D01*
X141441256Y-90460999D01*
X141948130Y-90561821D01*
X142480060Y-90456015D01*
X142931008Y-90154700D01*
X143232323Y-89703752D01*
X143338129Y-89171822D01*
X143232323Y-88639892D01*
X142931008Y-88188943D01*
X141811056Y-87068992D01*
X141360108Y-86767677D01*
X140828178Y-86661871D01*
X140296248Y-86767677D01*
X139934993Y-87009061D01*
X139935162Y-86814833D01*
X139793117Y-86471057D01*
X139567507Y-86245052D01*
X144228309Y-86245052D01*
X144370354Y-86588828D01*
X144633144Y-86852077D01*
X144976672Y-86994723D01*
X145348638Y-86995047D01*
X145692414Y-86853002D01*
X145955663Y-86590212D01*
X146098309Y-86246684D01*
X146098633Y-85874718D01*
X146048346Y-85753013D01*
X147086262Y-85753013D01*
X147228307Y-86096789D01*
X147491097Y-86360038D01*
X147834625Y-86502684D01*
X148206591Y-86503008D01*
X148550367Y-86360963D01*
X148813616Y-86098173D01*
X148956262Y-85754645D01*
X148956586Y-85382679D01*
X148814541Y-85038903D01*
X148551751Y-84775654D01*
X148208223Y-84633008D01*
X147836257Y-84632684D01*
X147492481Y-84774729D01*
X147229232Y-85037519D01*
X147086586Y-85381047D01*
X147086262Y-85753013D01*
X146048346Y-85753013D01*
X145956588Y-85530942D01*
X145693798Y-85267693D01*
X145350270Y-85125047D01*
X144978304Y-85124723D01*
X144634528Y-85266768D01*
X144371279Y-85529558D01*
X144228633Y-85873086D01*
X144228309Y-86245052D01*
X139567507Y-86245052D01*
X139530327Y-86207808D01*
X139186799Y-86065162D01*
X138814833Y-86064838D01*
X138471057Y-86206883D01*
X138237506Y-86440027D01*
X137936799Y-86315162D01*
X137564833Y-86314838D01*
X137221057Y-86456883D01*
X136957808Y-86719673D01*
X136815162Y-87063201D01*
X136814838Y-87435167D01*
X136956883Y-87778943D01*
X137219673Y-88042192D01*
X137274650Y-88065021D01*
X137064833Y-88064838D01*
X136721057Y-88206883D01*
X136457808Y-88469673D01*
X136315162Y-88813201D01*
X136314838Y-89185167D01*
X136456883Y-89528943D01*
X136719673Y-89792192D01*
X137063201Y-89934838D01*
X137435167Y-89935162D01*
X137642445Y-89849517D01*
X137742950Y-90354795D01*
X137236076Y-90253973D01*
X136704146Y-90359779D01*
X136253198Y-90661094D01*
X135951883Y-91112042D01*
X135846077Y-91643972D01*
X135946899Y-92150847D01*
X135440024Y-92050025D01*
X134908094Y-92155831D01*
X134457146Y-92457146D01*
X134155831Y-92908094D01*
X134050025Y-93440024D01*
X134150847Y-93946898D01*
X133643973Y-93846076D01*
X133112043Y-93951882D01*
X132661095Y-94253197D01*
X132359780Y-94704145D01*
X132253974Y-95236075D01*
X132312658Y-95531105D01*
X132237266Y-95455713D01*
X132003877Y-95359040D01*
X131751258Y-95359041D01*
X131517869Y-95455714D01*
X131096745Y-95876838D01*
X93210000Y-95876838D01*
X93210000Y-91653944D01*
X124460859Y-91653944D01*
X124602904Y-91997720D01*
X124865694Y-92260969D01*
X125019852Y-92324981D01*
X124981615Y-92417066D01*
X124981291Y-92789032D01*
X125123336Y-93132808D01*
X125386126Y-93396057D01*
X125729654Y-93538703D01*
X126101620Y-93539027D01*
X126348849Y-93436874D01*
X126348777Y-93520107D01*
X126490822Y-93863883D01*
X126753612Y-94127132D01*
X127097140Y-94269778D01*
X127469106Y-94270102D01*
X127812882Y-94128057D01*
X128016954Y-93924340D01*
X130883772Y-93924340D01*
X131025817Y-94268116D01*
X131288607Y-94531365D01*
X131632135Y-94674011D01*
X132004101Y-94674335D01*
X132347877Y-94532290D01*
X132611126Y-94269500D01*
X132753772Y-93925972D01*
X132754096Y-93554006D01*
X132612051Y-93210230D01*
X132349261Y-92946981D01*
X132005733Y-92804335D01*
X131633767Y-92804011D01*
X131289991Y-92946056D01*
X131026742Y-93208846D01*
X130884096Y-93552374D01*
X130883772Y-93924340D01*
X128016954Y-93924340D01*
X128076131Y-93865267D01*
X128218777Y-93521739D01*
X128219101Y-93149773D01*
X128077056Y-92805997D01*
X127814266Y-92542748D01*
X127470738Y-92400102D01*
X127098772Y-92399778D01*
X126851543Y-92501931D01*
X126851615Y-92418698D01*
X126709570Y-92074922D01*
X126446780Y-91811673D01*
X126292622Y-91747661D01*
X126318571Y-91685167D01*
X131564838Y-91685167D01*
X131706883Y-92028943D01*
X131969673Y-92292192D01*
X132313201Y-92434838D01*
X132685167Y-92435162D01*
X133028943Y-92293117D01*
X133292192Y-92030327D01*
X133434838Y-91686799D01*
X133435162Y-91314833D01*
X133293117Y-90971057D01*
X133030327Y-90707808D01*
X132686799Y-90565162D01*
X132314833Y-90564838D01*
X131971057Y-90706883D01*
X131707808Y-90969673D01*
X131565162Y-91313201D01*
X131564838Y-91685167D01*
X126318571Y-91685167D01*
X126330859Y-91655576D01*
X126331148Y-91324083D01*
X126486129Y-91324218D01*
X126829905Y-91182173D01*
X127093154Y-90919383D01*
X127235800Y-90575855D01*
X127236124Y-90203889D01*
X127094079Y-89860113D01*
X126831289Y-89596864D01*
X126487761Y-89454218D01*
X126115795Y-89453894D01*
X125772019Y-89595939D01*
X125508770Y-89858729D01*
X125366124Y-90202257D01*
X125365835Y-90533750D01*
X125210854Y-90533615D01*
X124867078Y-90675660D01*
X124603829Y-90938450D01*
X124461183Y-91281978D01*
X124460859Y-91653944D01*
X93210000Y-91653944D01*
X93210000Y-90185167D01*
X123139859Y-90185167D01*
X123281904Y-90528943D01*
X123544694Y-90792192D01*
X123888222Y-90934838D01*
X124260188Y-90935162D01*
X124603964Y-90793117D01*
X124867213Y-90530327D01*
X125009859Y-90186799D01*
X125010183Y-89814833D01*
X124868138Y-89471057D01*
X124605348Y-89207808D01*
X124261820Y-89065162D01*
X123889854Y-89064838D01*
X123546078Y-89206883D01*
X123282829Y-89469673D01*
X123140183Y-89813201D01*
X123139859Y-90185167D01*
X93210000Y-90185167D01*
X93210000Y-89041199D01*
X117900870Y-89041199D01*
X118042915Y-89384975D01*
X118305705Y-89648224D01*
X118649233Y-89790870D01*
X119021199Y-89791194D01*
X119364975Y-89649149D01*
X119628224Y-89386359D01*
X119770870Y-89042831D01*
X119771194Y-88670865D01*
X119629149Y-88327089D01*
X119366359Y-88063840D01*
X119022831Y-87921194D01*
X118650865Y-87920870D01*
X118307089Y-88062915D01*
X118043840Y-88325705D01*
X117901194Y-88669233D01*
X117900870Y-89041199D01*
X93210000Y-89041199D01*
X93210000Y-86185167D01*
X122064838Y-86185167D01*
X122195069Y-86500351D01*
X122065162Y-86813201D01*
X122064838Y-87185167D01*
X122195069Y-87500351D01*
X122065162Y-87813201D01*
X122064838Y-88185167D01*
X122206883Y-88528943D01*
X122469673Y-88792192D01*
X122813201Y-88934838D01*
X123185167Y-88935162D01*
X123528943Y-88793117D01*
X123792192Y-88530327D01*
X123934838Y-88186799D01*
X123935162Y-87814833D01*
X123804931Y-87499649D01*
X123932956Y-87191330D01*
X133286295Y-87191330D01*
X133428340Y-87535106D01*
X133691130Y-87798355D01*
X134034658Y-87941001D01*
X134406624Y-87941325D01*
X134750400Y-87799280D01*
X135013649Y-87536490D01*
X135056232Y-87433938D01*
X135081873Y-87495993D01*
X135344663Y-87759242D01*
X135688191Y-87901888D01*
X136060157Y-87902212D01*
X136403933Y-87760167D01*
X136667182Y-87497377D01*
X136809828Y-87153849D01*
X136810152Y-86781883D01*
X136668107Y-86438107D01*
X136405317Y-86174858D01*
X136061789Y-86032212D01*
X135689823Y-86031888D01*
X135346047Y-86173933D01*
X135082798Y-86436723D01*
X135040215Y-86539275D01*
X135014574Y-86477220D01*
X134751784Y-86213971D01*
X134408256Y-86071325D01*
X134036290Y-86071001D01*
X133692514Y-86213046D01*
X133429265Y-86475836D01*
X133286619Y-86819364D01*
X133286295Y-87191330D01*
X123932956Y-87191330D01*
X123934838Y-87186799D01*
X123935162Y-86814833D01*
X123804931Y-86499649D01*
X123934838Y-86186799D01*
X123935162Y-85814833D01*
X123793117Y-85471057D01*
X123530327Y-85207808D01*
X123186799Y-85065162D01*
X122814833Y-85064838D01*
X122471057Y-85206883D01*
X122207808Y-85469673D01*
X122065162Y-85813201D01*
X122064838Y-86185167D01*
X93210000Y-86185167D01*
X93210000Y-84002077D01*
X106096502Y-84002077D01*
X106238547Y-84345853D01*
X106501337Y-84609102D01*
X106844865Y-84751748D01*
X107216831Y-84752072D01*
X107560607Y-84610027D01*
X107823856Y-84347237D01*
X107966502Y-84003709D01*
X107966826Y-83631743D01*
X107885603Y-83435167D01*
X119064838Y-83435167D01*
X119206883Y-83778943D01*
X119469673Y-84042192D01*
X119813201Y-84184838D01*
X120185167Y-84185162D01*
X120528943Y-84043117D01*
X120792192Y-83780327D01*
X120934838Y-83436799D01*
X120935162Y-83064833D01*
X120793117Y-82721057D01*
X120530327Y-82457808D01*
X120186799Y-82315162D01*
X119814833Y-82314838D01*
X119471057Y-82456883D01*
X119207808Y-82719673D01*
X119065162Y-83063201D01*
X119064838Y-83435167D01*
X107885603Y-83435167D01*
X107824781Y-83287967D01*
X107561991Y-83024718D01*
X107218463Y-82882072D01*
X106846497Y-82881748D01*
X106502721Y-83023793D01*
X106239472Y-83286583D01*
X106096826Y-83630111D01*
X106096502Y-84002077D01*
X93210000Y-84002077D01*
X93210000Y-82185167D01*
X139064838Y-82185167D01*
X139206883Y-82528943D01*
X139469673Y-82792192D01*
X139813201Y-82934838D01*
X140185167Y-82935162D01*
X140528943Y-82793117D01*
X140792192Y-82530327D01*
X140934838Y-82186799D01*
X140935162Y-81814833D01*
X140793117Y-81471057D01*
X140530327Y-81207808D01*
X140186799Y-81065162D01*
X139814833Y-81064838D01*
X139471057Y-81206883D01*
X139207808Y-81469673D01*
X139065162Y-81813201D01*
X139064838Y-82185167D01*
X93210000Y-82185167D01*
X93210000Y-80980507D01*
X129999130Y-80980507D01*
X130141175Y-81324283D01*
X130403965Y-81587532D01*
X130747493Y-81730178D01*
X131119459Y-81730502D01*
X131463235Y-81588457D01*
X131726484Y-81325667D01*
X131869130Y-80982139D01*
X131869388Y-80685167D01*
X183064838Y-80685167D01*
X183206883Y-81028943D01*
X183469673Y-81292192D01*
X183813201Y-81434838D01*
X184185167Y-81435162D01*
X184528943Y-81293117D01*
X184792192Y-81030327D01*
X184934838Y-80686799D01*
X184935162Y-80314833D01*
X184793117Y-79971057D01*
X184530327Y-79707808D01*
X184186799Y-79565162D01*
X183814833Y-79564838D01*
X183471057Y-79706883D01*
X183207808Y-79969673D01*
X183065162Y-80313201D01*
X183064838Y-80685167D01*
X131869388Y-80685167D01*
X131869454Y-80610173D01*
X131727409Y-80266397D01*
X131464619Y-80003148D01*
X131121091Y-79860502D01*
X130749125Y-79860178D01*
X130405349Y-80002223D01*
X130142100Y-80265013D01*
X129999454Y-80608541D01*
X129999130Y-80980507D01*
X93210000Y-80980507D01*
X93210000Y-77199288D01*
X178561094Y-77199288D01*
X178703139Y-77543064D01*
X178965929Y-77806313D01*
X179309457Y-77948959D01*
X179681423Y-77949283D01*
X180025199Y-77807238D01*
X180288448Y-77544448D01*
X180333675Y-77435528D01*
X185569548Y-77435528D01*
X185711593Y-77779304D01*
X185974383Y-78042553D01*
X186317911Y-78185199D01*
X186689877Y-78185523D01*
X187033653Y-78043478D01*
X187296902Y-77780688D01*
X187439548Y-77437160D01*
X187439872Y-77065194D01*
X187297827Y-76721418D01*
X187035037Y-76458169D01*
X186691509Y-76315523D01*
X186319543Y-76315199D01*
X185975767Y-76457244D01*
X185712518Y-76720034D01*
X185569872Y-77063562D01*
X185569548Y-77435528D01*
X180333675Y-77435528D01*
X180431094Y-77200920D01*
X180431418Y-76828954D01*
X180289373Y-76485178D01*
X180026583Y-76221929D01*
X179683055Y-76079283D01*
X179311089Y-76078959D01*
X178967313Y-76221004D01*
X178704064Y-76483794D01*
X178561418Y-76827322D01*
X178561094Y-77199288D01*
X93210000Y-77199288D01*
X93210000Y-75185167D01*
X182064838Y-75185167D01*
X182206883Y-75528943D01*
X182469673Y-75792192D01*
X182813201Y-75934838D01*
X183185167Y-75935162D01*
X183528943Y-75793117D01*
X183792192Y-75530327D01*
X183934838Y-75186799D01*
X183935162Y-74814833D01*
X183793117Y-74471057D01*
X183530327Y-74207808D01*
X183186799Y-74065162D01*
X182814833Y-74064838D01*
X182471057Y-74206883D01*
X182207808Y-74469673D01*
X182065162Y-74813201D01*
X182064838Y-75185167D01*
X93210000Y-75185167D01*
X93210000Y-72210000D01*
X191790000Y-72210000D01*
X191790000Y-118790000D01*
M02*
