G04 #@! TF.FileFunction,Soldermask,Bot*
%FSLAX46Y46*%
G04 Gerber Fmt 4.6, Leading zero omitted, Abs format (unit mm)*
G04 Created by KiCad (PCBNEW 4.0.7) date 02/07/19 17:37:47*
%MOMM*%
%LPD*%
G01*
G04 APERTURE LIST*
%ADD10C,0.100000*%
%ADD11R,1.150000X1.600000*%
%ADD12R,1.600000X1.150000*%
%ADD13R,2.180000X14.400000*%
%ADD14C,1.910000*%
%ADD15C,5.400000*%
%ADD16C,1.800000*%
G04 APERTURE END LIST*
D10*
D11*
X131500000Y-91450000D03*
X131500000Y-89550000D03*
D12*
X137100000Y-98500000D03*
X139000000Y-98500000D03*
D11*
X142500000Y-93600000D03*
X142500000Y-95500000D03*
X147000000Y-85600000D03*
X147000000Y-87500000D03*
D12*
X131050000Y-82250000D03*
X132950000Y-82250000D03*
X180900000Y-93000000D03*
X179000000Y-93000000D03*
X180950000Y-75000000D03*
X179050000Y-75000000D03*
D13*
X164180000Y-128000000D03*
X161640000Y-128000000D03*
X159100000Y-128000000D03*
X156560000Y-128000000D03*
X154020000Y-128000000D03*
X151480000Y-128000000D03*
X148940000Y-128000000D03*
X146400000Y-128000000D03*
X143860000Y-128000000D03*
X141320000Y-128000000D03*
X138780000Y-128000000D03*
X136240000Y-128000000D03*
X133700000Y-128000000D03*
X131160000Y-128000000D03*
X128620000Y-128000000D03*
X126080000Y-128000000D03*
X123540000Y-128000000D03*
X121000000Y-128000000D03*
D10*
G36*
X132938228Y-99473006D02*
X130526994Y-97061772D01*
X131877568Y-95711198D01*
X134288802Y-98122432D01*
X132938228Y-99473006D01*
X132938228Y-99473006D01*
G37*
D14*
X133673619Y-95265721D02*
X134734279Y-96326381D01*
X135469670Y-93469670D02*
X136530330Y-94530330D01*
X137265722Y-91673618D02*
X138326382Y-92734278D01*
X139061773Y-89877567D02*
X140122433Y-90938227D01*
X140857824Y-88081516D02*
X141918484Y-89142176D01*
D15*
X142000000Y-110500000D03*
D11*
X149250000Y-96500000D03*
X149250000Y-98400000D03*
D12*
X141350000Y-82000000D03*
X143250000Y-82000000D03*
X139100000Y-104250000D03*
X141000000Y-104250000D03*
D11*
X126750000Y-98900000D03*
X126750000Y-97000000D03*
D12*
X131350000Y-104000000D03*
X133250000Y-104000000D03*
D16*
X167750000Y-114000000D03*
X172250000Y-114000000D03*
X163250000Y-114000000D03*
M02*
