G04 #@! TF.FileFunction,Copper,L2,Inr,Plane*
%FSLAX46Y46*%
G04 Gerber Fmt 4.6, Leading zero omitted, Abs format (unit mm)*
G04 Created by KiCad (PCBNEW 4.0.7) date 02/07/19 17:37:46*
%MOMM*%
%LPD*%
G01*
G04 APERTURE LIST*
%ADD10C,0.100000*%
%ADD11C,1.400000*%
%ADD12C,1.510000*%
%ADD13C,0.600000*%
%ADD14C,0.250000*%
%ADD15C,0.254000*%
G04 APERTURE END LIST*
D10*
D11*
X180500000Y-114000000D03*
X157250000Y-110750000D03*
D10*
G36*
X132938228Y-99190163D02*
X130809837Y-97061772D01*
X131877568Y-95994041D01*
X134005959Y-98122432D01*
X132938228Y-99190163D01*
X132938228Y-99190163D01*
G37*
D12*
X133673619Y-95265721D02*
X134734279Y-96326381D01*
X135469670Y-93469670D02*
X136530330Y-94530330D01*
X137265722Y-91673618D02*
X138326382Y-92734278D01*
X139061773Y-89877567D02*
X140122433Y-90938227D01*
X140857824Y-88081516D02*
X141918484Y-89142176D01*
D11*
X167750000Y-114000000D03*
X172250000Y-114000000D03*
X163250000Y-114000000D03*
D13*
X135874990Y-86967050D03*
X107031664Y-83816910D03*
X127500000Y-100000000D03*
X131500000Y-103000000D03*
X150500000Y-96099967D03*
X140000000Y-82000000D03*
X128003118Y-101554848D03*
X137874990Y-102289841D03*
X131818934Y-93739173D03*
X135610695Y-98676201D03*
X140542554Y-98335716D03*
X130934292Y-80795340D03*
X136752953Y-97346987D03*
X145163471Y-86059885D03*
X134221457Y-87006163D03*
X148021424Y-85567846D03*
X139000000Y-87000000D03*
X146647113Y-93365248D03*
X132500000Y-91500000D03*
X141500000Y-93500000D03*
X177000000Y-93000000D03*
X186504710Y-77250361D03*
X179496256Y-77014121D03*
X183000000Y-75000000D03*
X139368726Y-97234828D03*
X184984203Y-77283804D03*
X106999406Y-77720173D03*
X125750000Y-97250000D03*
X134250000Y-105000000D03*
X142250000Y-104250000D03*
X150500000Y-98250000D03*
X144549124Y-81911278D03*
X133013069Y-80684095D03*
X129941947Y-102058049D03*
X175000000Y-77000000D03*
X141730825Y-98031133D03*
X131154388Y-94723500D03*
X134449950Y-98645248D03*
X126977540Y-89377295D03*
X144674017Y-84961333D03*
X139975553Y-83778773D03*
X148033637Y-87473014D03*
X164248305Y-119141288D03*
X133000000Y-87000000D03*
X148000000Y-91000000D03*
X147000000Y-96000000D03*
X146000000Y-99000000D03*
X129000000Y-86000000D03*
X132500000Y-89500000D03*
X141500000Y-95500000D03*
X118000000Y-112000000D03*
X118000000Y-118000000D03*
X180506838Y-97044952D03*
X177000000Y-75000000D03*
X183000000Y-93000000D03*
X124000000Y-81000000D03*
X120000000Y-83250000D03*
X127283939Y-93334940D03*
X125916453Y-92603865D03*
X125396021Y-91468777D03*
X124075021Y-90000000D03*
X126300962Y-90389056D03*
X123000000Y-88000000D03*
X123000000Y-87000000D03*
X123000000Y-86000000D03*
X118836032Y-88856032D03*
X179500000Y-96250000D03*
X184000000Y-80500000D03*
X137250000Y-89000000D03*
X138250000Y-96250000D03*
X137750000Y-87250000D03*
X137250000Y-96500000D03*
X138802906Y-118003653D03*
X140396325Y-102012426D03*
X137038711Y-104540107D03*
X131250000Y-118500000D03*
X179250000Y-100000000D03*
X142614179Y-98901302D03*
D14*
X138802906Y-117579389D02*
X138802906Y-118003653D01*
X138802906Y-103605845D02*
X138802906Y-117579389D01*
X140396325Y-102012426D02*
X138802906Y-103605845D01*
X137038711Y-104964371D02*
X137038711Y-104540107D01*
X137038711Y-112711289D02*
X137038711Y-104964371D01*
X131250000Y-118500000D02*
X137038711Y-112711289D01*
D15*
G36*
X191790000Y-118790000D02*
X166500000Y-118790000D01*
X166228295Y-118844046D01*
X165997954Y-118997954D01*
X165844046Y-119228295D01*
X165790000Y-119500000D01*
X165790000Y-119873000D01*
X164838760Y-119873000D01*
X165040497Y-119671615D01*
X165183143Y-119328087D01*
X165183467Y-118956121D01*
X165041422Y-118612345D01*
X164778632Y-118349096D01*
X164435104Y-118206450D01*
X164063138Y-118206126D01*
X163719362Y-118348171D01*
X163456113Y-118610961D01*
X163313467Y-118954489D01*
X163313143Y-119326455D01*
X163455188Y-119670231D01*
X163657603Y-119873000D01*
X119210000Y-119873000D01*
X119210000Y-119500000D01*
X119155954Y-119228295D01*
X119002046Y-118997954D01*
X118771705Y-118844046D01*
X118524630Y-118794899D01*
X118528943Y-118793117D01*
X118637081Y-118685167D01*
X130314838Y-118685167D01*
X130456883Y-119028943D01*
X130719673Y-119292192D01*
X131063201Y-119434838D01*
X131435167Y-119435162D01*
X131778943Y-119293117D01*
X132042192Y-119030327D01*
X132184838Y-118686799D01*
X132184879Y-118639923D01*
X132635982Y-118188820D01*
X137867744Y-118188820D01*
X138009789Y-118532596D01*
X138272579Y-118795845D01*
X138616107Y-118938491D01*
X138988073Y-118938815D01*
X139331849Y-118796770D01*
X139595098Y-118533980D01*
X139737744Y-118190452D01*
X139738068Y-117818486D01*
X139596023Y-117474710D01*
X139562906Y-117441535D01*
X139562906Y-114264383D01*
X161914769Y-114264383D01*
X162117582Y-114755229D01*
X162492796Y-115131098D01*
X162983287Y-115334768D01*
X163514383Y-115335231D01*
X164005229Y-115132418D01*
X164381098Y-114757204D01*
X164584768Y-114266713D01*
X164584770Y-114264383D01*
X166414769Y-114264383D01*
X166617582Y-114755229D01*
X166992796Y-115131098D01*
X167483287Y-115334768D01*
X168014383Y-115335231D01*
X168505229Y-115132418D01*
X168881098Y-114757204D01*
X169084768Y-114266713D01*
X169084770Y-114264383D01*
X170914769Y-114264383D01*
X171117582Y-114755229D01*
X171492796Y-115131098D01*
X171983287Y-115334768D01*
X172514383Y-115335231D01*
X173005229Y-115132418D01*
X173202716Y-114935275D01*
X179744331Y-114935275D01*
X179806169Y-115171042D01*
X180307122Y-115347419D01*
X180837440Y-115318664D01*
X181193831Y-115171042D01*
X181255669Y-114935275D01*
X180500000Y-114179605D01*
X179744331Y-114935275D01*
X173202716Y-114935275D01*
X173381098Y-114757204D01*
X173584768Y-114266713D01*
X173585168Y-113807122D01*
X179152581Y-113807122D01*
X179181336Y-114337440D01*
X179328958Y-114693831D01*
X179564725Y-114755669D01*
X180320395Y-114000000D01*
X180679605Y-114000000D01*
X181435275Y-114755669D01*
X181671042Y-114693831D01*
X181847419Y-114192878D01*
X181818664Y-113662560D01*
X181671042Y-113306169D01*
X181435275Y-113244331D01*
X180679605Y-114000000D01*
X180320395Y-114000000D01*
X179564725Y-113244331D01*
X179328958Y-113306169D01*
X179152581Y-113807122D01*
X173585168Y-113807122D01*
X173585231Y-113735617D01*
X173382418Y-113244771D01*
X173202686Y-113064725D01*
X179744331Y-113064725D01*
X180500000Y-113820395D01*
X181255669Y-113064725D01*
X181193831Y-112828958D01*
X180692878Y-112652581D01*
X180162560Y-112681336D01*
X179806169Y-112828958D01*
X179744331Y-113064725D01*
X173202686Y-113064725D01*
X173007204Y-112868902D01*
X172516713Y-112665232D01*
X171985617Y-112664769D01*
X171494771Y-112867582D01*
X171118902Y-113242796D01*
X170915232Y-113733287D01*
X170914769Y-114264383D01*
X169084770Y-114264383D01*
X169085231Y-113735617D01*
X168882418Y-113244771D01*
X168507204Y-112868902D01*
X168016713Y-112665232D01*
X167485617Y-112664769D01*
X166994771Y-112867582D01*
X166618902Y-113242796D01*
X166415232Y-113733287D01*
X166414769Y-114264383D01*
X164584770Y-114264383D01*
X164585231Y-113735617D01*
X164382418Y-113244771D01*
X164007204Y-112868902D01*
X163516713Y-112665232D01*
X162985617Y-112664769D01*
X162494771Y-112867582D01*
X162118902Y-113242796D01*
X161915232Y-113733287D01*
X161914769Y-114264383D01*
X139562906Y-114264383D01*
X139562906Y-112496082D01*
X140221847Y-113156174D01*
X141373674Y-113634454D01*
X142620854Y-113635543D01*
X143773515Y-113159273D01*
X144656174Y-112278153D01*
X145134454Y-111126326D01*
X145134551Y-111014383D01*
X155914769Y-111014383D01*
X156117582Y-111505229D01*
X156492796Y-111881098D01*
X156983287Y-112084768D01*
X157514383Y-112085231D01*
X158005229Y-111882418D01*
X158381098Y-111507204D01*
X158584768Y-111016713D01*
X158585231Y-110485617D01*
X158382418Y-109994771D01*
X158007204Y-109618902D01*
X157516713Y-109415232D01*
X156985617Y-109414769D01*
X156494771Y-109617582D01*
X156118902Y-109992796D01*
X155915232Y-110483287D01*
X155914769Y-111014383D01*
X145134551Y-111014383D01*
X145135543Y-109879146D01*
X144659273Y-108726485D01*
X143778153Y-107843826D01*
X142626326Y-107365546D01*
X141379146Y-107364457D01*
X140226485Y-107840727D01*
X139562906Y-108503149D01*
X139562906Y-104435167D01*
X141314838Y-104435167D01*
X141456883Y-104778943D01*
X141719673Y-105042192D01*
X142063201Y-105184838D01*
X142435167Y-105185162D01*
X142778943Y-105043117D01*
X143042192Y-104780327D01*
X143184838Y-104436799D01*
X143185162Y-104064833D01*
X143043117Y-103721057D01*
X142780327Y-103457808D01*
X142436799Y-103315162D01*
X142064833Y-103314838D01*
X141721057Y-103456883D01*
X141457808Y-103719673D01*
X141315162Y-104063201D01*
X141314838Y-104435167D01*
X139562906Y-104435167D01*
X139562906Y-103920647D01*
X140536005Y-102947548D01*
X140581492Y-102947588D01*
X140925268Y-102805543D01*
X141188517Y-102542753D01*
X141331163Y-102199225D01*
X141331487Y-101827259D01*
X141189442Y-101483483D01*
X140926652Y-101220234D01*
X140583124Y-101077588D01*
X140211158Y-101077264D01*
X139867382Y-101219309D01*
X139604133Y-101482099D01*
X139461487Y-101825627D01*
X139461446Y-101872503D01*
X138265505Y-103068444D01*
X138100758Y-103315006D01*
X138042906Y-103605845D01*
X138042906Y-117441190D01*
X138010714Y-117473326D01*
X137868068Y-117816854D01*
X137867744Y-118188820D01*
X132635982Y-118188820D01*
X137576112Y-113248690D01*
X137740859Y-113002128D01*
X137798711Y-112711289D01*
X137798711Y-105102570D01*
X137830903Y-105070434D01*
X137973549Y-104726906D01*
X137973873Y-104354940D01*
X137831828Y-104011164D01*
X137569038Y-103747915D01*
X137225510Y-103605269D01*
X136853544Y-103604945D01*
X136509768Y-103746990D01*
X136246519Y-104009780D01*
X136103873Y-104353308D01*
X136103549Y-104725274D01*
X136245594Y-105069050D01*
X136278711Y-105102225D01*
X136278711Y-112396487D01*
X131110320Y-117564878D01*
X131064833Y-117564838D01*
X130721057Y-117706883D01*
X130457808Y-117969673D01*
X130315162Y-118313201D01*
X130314838Y-118685167D01*
X118637081Y-118685167D01*
X118792192Y-118530327D01*
X118934838Y-118186799D01*
X118935162Y-117814833D01*
X118793117Y-117471057D01*
X118530327Y-117207808D01*
X118186799Y-117065162D01*
X117814833Y-117064838D01*
X117471057Y-117206883D01*
X117207808Y-117469673D01*
X117065162Y-117813201D01*
X117064838Y-118185167D01*
X117206883Y-118528943D01*
X117467485Y-118790000D01*
X93210000Y-118790000D01*
X93210000Y-112185167D01*
X117064838Y-112185167D01*
X117206883Y-112528943D01*
X117469673Y-112792192D01*
X117813201Y-112934838D01*
X118185167Y-112935162D01*
X118528943Y-112793117D01*
X118792192Y-112530327D01*
X118934838Y-112186799D01*
X118935162Y-111814833D01*
X118793117Y-111471057D01*
X118530327Y-111207808D01*
X118186799Y-111065162D01*
X117814833Y-111064838D01*
X117471057Y-111206883D01*
X117207808Y-111469673D01*
X117065162Y-111813201D01*
X117064838Y-112185167D01*
X93210000Y-112185167D01*
X93210000Y-105185167D01*
X133314838Y-105185167D01*
X133456883Y-105528943D01*
X133719673Y-105792192D01*
X134063201Y-105934838D01*
X134435167Y-105935162D01*
X134778943Y-105793117D01*
X135042192Y-105530327D01*
X135184838Y-105186799D01*
X135185162Y-104814833D01*
X135043117Y-104471057D01*
X134780327Y-104207808D01*
X134436799Y-104065162D01*
X134064833Y-104064838D01*
X133721057Y-104206883D01*
X133457808Y-104469673D01*
X133315162Y-104813201D01*
X133314838Y-105185167D01*
X93210000Y-105185167D01*
X93210000Y-102243216D01*
X129006785Y-102243216D01*
X129148830Y-102586992D01*
X129411620Y-102850241D01*
X129755148Y-102992887D01*
X130127114Y-102993211D01*
X130470890Y-102851166D01*
X130734139Y-102588376D01*
X130876785Y-102244848D01*
X130877109Y-101872882D01*
X130735064Y-101529106D01*
X130472274Y-101265857D01*
X130128746Y-101123211D01*
X129756780Y-101122887D01*
X129413004Y-101264932D01*
X129149755Y-101527722D01*
X129007109Y-101871250D01*
X129006785Y-102243216D01*
X93210000Y-102243216D01*
X93210000Y-100185167D01*
X178314838Y-100185167D01*
X178456883Y-100528943D01*
X178719673Y-100792192D01*
X179063201Y-100934838D01*
X179435167Y-100935162D01*
X179778943Y-100793117D01*
X180042192Y-100530327D01*
X180184838Y-100186799D01*
X180185162Y-99814833D01*
X180043117Y-99471057D01*
X179780327Y-99207808D01*
X179436799Y-99065162D01*
X179064833Y-99064838D01*
X178721057Y-99206883D01*
X178457808Y-99469673D01*
X178315162Y-99813201D01*
X178314838Y-100185167D01*
X93210000Y-100185167D01*
X93210000Y-97435167D01*
X124814838Y-97435167D01*
X124956883Y-97778943D01*
X125219673Y-98042192D01*
X125563201Y-98184838D01*
X125935167Y-98185162D01*
X126278943Y-98043117D01*
X126542192Y-97780327D01*
X126684838Y-97436799D01*
X126685162Y-97064833D01*
X126680202Y-97052828D01*
X130162459Y-97052828D01*
X130209983Y-97305399D01*
X130352028Y-97519581D01*
X132480419Y-99647972D01*
X132678122Y-99783057D01*
X132929284Y-99837541D01*
X133181855Y-99790017D01*
X133396037Y-99647972D01*
X133763233Y-99280776D01*
X133919623Y-99437440D01*
X134263151Y-99580086D01*
X134635117Y-99580410D01*
X134978893Y-99438365D01*
X135242142Y-99175575D01*
X135384788Y-98832047D01*
X135385112Y-98460081D01*
X135284384Y-98216300D01*
X140795663Y-98216300D01*
X140937708Y-98560076D01*
X141200498Y-98823325D01*
X141544026Y-98965971D01*
X141679122Y-98966089D01*
X141679017Y-99086469D01*
X141821062Y-99430245D01*
X142083852Y-99693494D01*
X142427380Y-99836140D01*
X142799346Y-99836464D01*
X143143122Y-99694419D01*
X143406371Y-99431629D01*
X143508711Y-99185167D01*
X145064838Y-99185167D01*
X145206883Y-99528943D01*
X145469673Y-99792192D01*
X145813201Y-99934838D01*
X146185167Y-99935162D01*
X146528943Y-99793117D01*
X146792192Y-99530327D01*
X146934838Y-99186799D01*
X146935162Y-98814833D01*
X146793117Y-98471057D01*
X146757290Y-98435167D01*
X149564838Y-98435167D01*
X149706883Y-98778943D01*
X149969673Y-99042192D01*
X150313201Y-99184838D01*
X150685167Y-99185162D01*
X151028943Y-99043117D01*
X151292192Y-98780327D01*
X151434838Y-98436799D01*
X151435162Y-98064833D01*
X151293117Y-97721057D01*
X151030327Y-97457808D01*
X150686799Y-97315162D01*
X150314833Y-97314838D01*
X149971057Y-97456883D01*
X149707808Y-97719673D01*
X149565162Y-98063201D01*
X149564838Y-98435167D01*
X146757290Y-98435167D01*
X146530327Y-98207808D01*
X146186799Y-98065162D01*
X145814833Y-98064838D01*
X145471057Y-98206883D01*
X145207808Y-98469673D01*
X145065162Y-98813201D01*
X145064838Y-99185167D01*
X143508711Y-99185167D01*
X143549017Y-99088101D01*
X143549341Y-98716135D01*
X143407296Y-98372359D01*
X143144506Y-98109110D01*
X142800978Y-97966464D01*
X142665882Y-97966346D01*
X142665987Y-97845966D01*
X142523942Y-97502190D01*
X142261152Y-97238941D01*
X141917624Y-97096295D01*
X141545658Y-97095971D01*
X141201882Y-97238016D01*
X140938633Y-97500806D01*
X140795987Y-97844334D01*
X140795663Y-98216300D01*
X135284384Y-98216300D01*
X135243067Y-98116305D01*
X134980277Y-97853056D01*
X134684452Y-97730218D01*
X134763925Y-97746026D01*
X135295855Y-97640220D01*
X135746803Y-97338905D01*
X136048118Y-96887957D01*
X136153924Y-96356027D01*
X136053102Y-95849153D01*
X136491237Y-95936302D01*
X136457808Y-95969673D01*
X136315162Y-96313201D01*
X136314838Y-96685167D01*
X136456883Y-97028943D01*
X136719673Y-97292192D01*
X137063201Y-97434838D01*
X137435167Y-97435162D01*
X137778943Y-97293117D01*
X137939052Y-97133287D01*
X138063201Y-97184838D01*
X138433769Y-97185161D01*
X138433564Y-97419995D01*
X138575609Y-97763771D01*
X138838399Y-98027020D01*
X139181927Y-98169666D01*
X139553893Y-98169990D01*
X139897669Y-98027945D01*
X140160918Y-97765155D01*
X140303564Y-97421627D01*
X140303888Y-97049661D01*
X140161843Y-96705885D01*
X139899053Y-96442636D01*
X139555525Y-96299990D01*
X139184957Y-96299667D01*
X139185162Y-96064833D01*
X139043117Y-95721057D01*
X139007290Y-95685167D01*
X140564838Y-95685167D01*
X140706883Y-96028943D01*
X140969673Y-96292192D01*
X141313201Y-96434838D01*
X141685167Y-96435162D01*
X142028943Y-96293117D01*
X142137081Y-96185167D01*
X146064838Y-96185167D01*
X146206883Y-96528943D01*
X146469673Y-96792192D01*
X146813201Y-96934838D01*
X147185167Y-96935162D01*
X147528943Y-96793117D01*
X147792192Y-96530327D01*
X147831706Y-96435167D01*
X178564838Y-96435167D01*
X178706883Y-96778943D01*
X178969673Y-97042192D01*
X179313201Y-97184838D01*
X179571715Y-97185063D01*
X179571676Y-97230119D01*
X179713721Y-97573895D01*
X179976511Y-97837144D01*
X180320039Y-97979790D01*
X180692005Y-97980114D01*
X181035781Y-97838069D01*
X181299030Y-97575279D01*
X181441676Y-97231751D01*
X181442000Y-96859785D01*
X181299955Y-96516009D01*
X181037165Y-96252760D01*
X180693637Y-96110114D01*
X180435123Y-96109889D01*
X180435162Y-96064833D01*
X180293117Y-95721057D01*
X180030327Y-95457808D01*
X179686799Y-95315162D01*
X179314833Y-95314838D01*
X178971057Y-95456883D01*
X178707808Y-95719673D01*
X178565162Y-96063201D01*
X178564838Y-96435167D01*
X147831706Y-96435167D01*
X147934838Y-96186799D01*
X147935162Y-95814833D01*
X147793117Y-95471057D01*
X147530327Y-95207808D01*
X147186799Y-95065162D01*
X146814833Y-95064838D01*
X146471057Y-95206883D01*
X146207808Y-95469673D01*
X146065162Y-95813201D01*
X146064838Y-96185167D01*
X142137081Y-96185167D01*
X142292192Y-96030327D01*
X142434838Y-95686799D01*
X142435162Y-95314833D01*
X142293117Y-94971057D01*
X142030327Y-94707808D01*
X141686799Y-94565162D01*
X141314833Y-94564838D01*
X140971057Y-94706883D01*
X140707808Y-94969673D01*
X140565162Y-95313201D01*
X140564838Y-95685167D01*
X139007290Y-95685167D01*
X138780327Y-95457808D01*
X138436799Y-95315162D01*
X138064833Y-95314838D01*
X137721057Y-95456883D01*
X137560948Y-95616713D01*
X137481616Y-95583772D01*
X137542854Y-95542854D01*
X137844169Y-95091906D01*
X137949975Y-94559976D01*
X137849153Y-94053101D01*
X138356028Y-94153923D01*
X138887958Y-94048117D01*
X139338906Y-93746802D01*
X139640221Y-93295854D01*
X139662237Y-93185167D01*
X182064838Y-93185167D01*
X182206883Y-93528943D01*
X182469673Y-93792192D01*
X182813201Y-93934838D01*
X183185167Y-93935162D01*
X183528943Y-93793117D01*
X183792192Y-93530327D01*
X183934838Y-93186799D01*
X183935162Y-92814833D01*
X183793117Y-92471057D01*
X183530327Y-92207808D01*
X183186799Y-92065162D01*
X182814833Y-92064838D01*
X182471057Y-92206883D01*
X182207808Y-92469673D01*
X182065162Y-92813201D01*
X182064838Y-93185167D01*
X139662237Y-93185167D01*
X139746027Y-92763924D01*
X139645205Y-92257050D01*
X140152079Y-92357872D01*
X140684009Y-92252066D01*
X141134957Y-91950751D01*
X141436272Y-91499803D01*
X141498856Y-91185167D01*
X147064838Y-91185167D01*
X147206883Y-91528943D01*
X147469673Y-91792192D01*
X147813201Y-91934838D01*
X148185167Y-91935162D01*
X148528943Y-91793117D01*
X148792192Y-91530327D01*
X148934838Y-91186799D01*
X148935162Y-90814833D01*
X148793117Y-90471057D01*
X148530327Y-90207808D01*
X148186799Y-90065162D01*
X147814833Y-90064838D01*
X147471057Y-90206883D01*
X147207808Y-90469673D01*
X147065162Y-90813201D01*
X147064838Y-91185167D01*
X141498856Y-91185167D01*
X141542078Y-90967873D01*
X141436778Y-90438488D01*
X141503887Y-90474970D01*
X142045484Y-90532176D01*
X142567747Y-90377767D01*
X142629343Y-90336655D01*
X142694663Y-90097960D01*
X141388154Y-88791451D01*
X141374012Y-88805594D01*
X141194407Y-88625989D01*
X141208549Y-88611846D01*
X141567759Y-88611846D01*
X142874268Y-89918355D01*
X143112963Y-89853035D01*
X143154075Y-89791439D01*
X143308484Y-89269176D01*
X143251278Y-88727579D01*
X142991165Y-88249100D01*
X142460835Y-87718770D01*
X141567759Y-88611846D01*
X141208549Y-88611846D01*
X139902040Y-87305337D01*
X139663345Y-87370657D01*
X139622233Y-87432253D01*
X139467824Y-87954516D01*
X139525030Y-88496113D01*
X139561512Y-88563222D01*
X139032127Y-88457922D01*
X138500197Y-88563728D01*
X138172014Y-88783013D01*
X138043117Y-88471057D01*
X137780327Y-88207808D01*
X137725350Y-88184979D01*
X137935167Y-88185162D01*
X138278943Y-88043117D01*
X138542192Y-87780327D01*
X138684838Y-87436799D01*
X138685108Y-87125732D01*
X140081645Y-87125732D01*
X141388154Y-88432241D01*
X142162214Y-87658181D01*
X147098475Y-87658181D01*
X147240520Y-88001957D01*
X147503310Y-88265206D01*
X147846838Y-88407852D01*
X148218804Y-88408176D01*
X148562580Y-88266131D01*
X148825829Y-88003341D01*
X148968475Y-87659813D01*
X148968799Y-87287847D01*
X148826754Y-86944071D01*
X148563964Y-86680822D01*
X148220436Y-86538176D01*
X147848470Y-86537852D01*
X147504694Y-86679897D01*
X147241445Y-86942687D01*
X147098799Y-87286215D01*
X147098475Y-87658181D01*
X142162214Y-87658181D01*
X142281230Y-87539165D01*
X141750900Y-87008835D01*
X141272421Y-86748722D01*
X140730824Y-86691516D01*
X140208561Y-86845925D01*
X140146965Y-86887037D01*
X140081645Y-87125732D01*
X138685108Y-87125732D01*
X138685162Y-87064833D01*
X138543117Y-86721057D01*
X138280327Y-86457808D01*
X137936799Y-86315162D01*
X137564833Y-86314838D01*
X137221057Y-86456883D01*
X136957808Y-86719673D01*
X136815162Y-87063201D01*
X136814838Y-87435167D01*
X136956883Y-87778943D01*
X137219673Y-88042192D01*
X137274650Y-88065021D01*
X137064833Y-88064838D01*
X136721057Y-88206883D01*
X136457808Y-88469673D01*
X136315162Y-88813201D01*
X136314838Y-89185167D01*
X136456883Y-89528943D01*
X136719673Y-89792192D01*
X137063201Y-89934838D01*
X137435167Y-89935162D01*
X137642445Y-89849517D01*
X137742950Y-90354795D01*
X137236076Y-90253973D01*
X136704146Y-90359779D01*
X136253198Y-90661094D01*
X135951883Y-91112042D01*
X135846077Y-91643972D01*
X135946899Y-92150847D01*
X135440024Y-92050025D01*
X134908094Y-92155831D01*
X134457146Y-92457146D01*
X134155831Y-92908094D01*
X134050025Y-93440024D01*
X134150847Y-93946898D01*
X133643973Y-93846076D01*
X133112043Y-93951882D01*
X132661095Y-94253197D01*
X132359780Y-94704145D01*
X132253974Y-95236075D01*
X132310265Y-95519074D01*
X132137674Y-95401147D01*
X131886512Y-95346663D01*
X131845933Y-95354298D01*
X131946580Y-95253827D01*
X132089226Y-94910299D01*
X132089550Y-94538333D01*
X131947505Y-94194557D01*
X131684715Y-93931308D01*
X131341187Y-93788662D01*
X130969221Y-93788338D01*
X130625445Y-93930383D01*
X130362196Y-94193173D01*
X130219550Y-94536701D01*
X130219226Y-94908667D01*
X130361271Y-95252443D01*
X130624061Y-95515692D01*
X130967589Y-95658338D01*
X131297366Y-95658625D01*
X130352028Y-96603963D01*
X130216943Y-96801666D01*
X130162459Y-97052828D01*
X126680202Y-97052828D01*
X126543117Y-96721057D01*
X126280327Y-96457808D01*
X125936799Y-96315162D01*
X125564833Y-96314838D01*
X125221057Y-96456883D01*
X124957808Y-96719673D01*
X124815162Y-97063201D01*
X124814838Y-97435167D01*
X93210000Y-97435167D01*
X93210000Y-91653944D01*
X124460859Y-91653944D01*
X124602904Y-91997720D01*
X124865694Y-92260969D01*
X125019852Y-92324981D01*
X124981615Y-92417066D01*
X124981291Y-92789032D01*
X125123336Y-93132808D01*
X125386126Y-93396057D01*
X125729654Y-93538703D01*
X126101620Y-93539027D01*
X126348849Y-93436874D01*
X126348777Y-93520107D01*
X126490822Y-93863883D01*
X126753612Y-94127132D01*
X127097140Y-94269778D01*
X127469106Y-94270102D01*
X127812882Y-94128057D01*
X128076131Y-93865267D01*
X128218777Y-93521739D01*
X128219101Y-93149773D01*
X128077056Y-92805997D01*
X127814266Y-92542748D01*
X127470738Y-92400102D01*
X127098772Y-92399778D01*
X126851543Y-92501931D01*
X126851615Y-92418698D01*
X126709570Y-92074922D01*
X126446780Y-91811673D01*
X126292622Y-91747661D01*
X126330859Y-91655576D01*
X126331148Y-91324083D01*
X126486129Y-91324218D01*
X126829905Y-91182173D01*
X127093154Y-90919383D01*
X127235800Y-90575855D01*
X127236056Y-90282150D01*
X127506483Y-90170412D01*
X127769732Y-89907622D01*
X127862103Y-89685167D01*
X131564838Y-89685167D01*
X131706883Y-90028943D01*
X131969673Y-90292192D01*
X132313201Y-90434838D01*
X132685167Y-90435162D01*
X133028943Y-90293117D01*
X133292192Y-90030327D01*
X133434838Y-89686799D01*
X133435162Y-89314833D01*
X133293117Y-88971057D01*
X133030327Y-88707808D01*
X132686799Y-88565162D01*
X132314833Y-88564838D01*
X131971057Y-88706883D01*
X131707808Y-88969673D01*
X131565162Y-89313201D01*
X131564838Y-89685167D01*
X127862103Y-89685167D01*
X127912378Y-89564094D01*
X127912702Y-89192128D01*
X127770657Y-88848352D01*
X127507867Y-88585103D01*
X127164339Y-88442457D01*
X126792373Y-88442133D01*
X126448597Y-88584178D01*
X126185348Y-88846968D01*
X126042702Y-89190496D01*
X126042446Y-89484201D01*
X125772019Y-89595939D01*
X125508770Y-89858729D01*
X125366124Y-90202257D01*
X125365835Y-90533750D01*
X125210854Y-90533615D01*
X124867078Y-90675660D01*
X124603829Y-90938450D01*
X124461183Y-91281978D01*
X124460859Y-91653944D01*
X93210000Y-91653944D01*
X93210000Y-90185167D01*
X123139859Y-90185167D01*
X123281904Y-90528943D01*
X123544694Y-90792192D01*
X123888222Y-90934838D01*
X124260188Y-90935162D01*
X124603964Y-90793117D01*
X124867213Y-90530327D01*
X125009859Y-90186799D01*
X125010183Y-89814833D01*
X124868138Y-89471057D01*
X124605348Y-89207808D01*
X124261820Y-89065162D01*
X123889854Y-89064838D01*
X123546078Y-89206883D01*
X123282829Y-89469673D01*
X123140183Y-89813201D01*
X123139859Y-90185167D01*
X93210000Y-90185167D01*
X93210000Y-89041199D01*
X117900870Y-89041199D01*
X118042915Y-89384975D01*
X118305705Y-89648224D01*
X118649233Y-89790870D01*
X119021199Y-89791194D01*
X119364975Y-89649149D01*
X119628224Y-89386359D01*
X119770870Y-89042831D01*
X119771194Y-88670865D01*
X119629149Y-88327089D01*
X119366359Y-88063840D01*
X119022831Y-87921194D01*
X118650865Y-87920870D01*
X118307089Y-88062915D01*
X118043840Y-88325705D01*
X117901194Y-88669233D01*
X117900870Y-89041199D01*
X93210000Y-89041199D01*
X93210000Y-86185167D01*
X122064838Y-86185167D01*
X122195069Y-86500351D01*
X122065162Y-86813201D01*
X122064838Y-87185167D01*
X122195069Y-87500351D01*
X122065162Y-87813201D01*
X122064838Y-88185167D01*
X122206883Y-88528943D01*
X122469673Y-88792192D01*
X122813201Y-88934838D01*
X123185167Y-88935162D01*
X123528943Y-88793117D01*
X123792192Y-88530327D01*
X123934838Y-88186799D01*
X123935162Y-87814833D01*
X123804931Y-87499649D01*
X123934838Y-87186799D01*
X123934839Y-87185167D01*
X132064838Y-87185167D01*
X132206883Y-87528943D01*
X132469673Y-87792192D01*
X132813201Y-87934838D01*
X133185167Y-87935162D01*
X133528943Y-87793117D01*
X133792192Y-87530327D01*
X133934838Y-87186799D01*
X133935162Y-86814833D01*
X133793117Y-86471057D01*
X133530327Y-86207808D01*
X133186799Y-86065162D01*
X132814833Y-86064838D01*
X132471057Y-86206883D01*
X132207808Y-86469673D01*
X132065162Y-86813201D01*
X132064838Y-87185167D01*
X123934839Y-87185167D01*
X123935162Y-86814833D01*
X123804931Y-86499649D01*
X123934838Y-86186799D01*
X123934839Y-86185167D01*
X128064838Y-86185167D01*
X128206883Y-86528943D01*
X128469673Y-86792192D01*
X128813201Y-86934838D01*
X129185167Y-86935162D01*
X129528943Y-86793117D01*
X129792192Y-86530327D01*
X129934838Y-86186799D01*
X129935162Y-85814833D01*
X129793117Y-85471057D01*
X129530327Y-85207808D01*
X129382682Y-85146500D01*
X143738855Y-85146500D01*
X143880900Y-85490276D01*
X144143690Y-85753525D01*
X144487218Y-85896171D01*
X144859184Y-85896495D01*
X145202960Y-85754450D01*
X145466209Y-85491660D01*
X145608855Y-85148132D01*
X145609179Y-84776166D01*
X145467134Y-84432390D01*
X145204344Y-84169141D01*
X144860816Y-84026495D01*
X144488850Y-84026171D01*
X144145074Y-84168216D01*
X143881825Y-84431006D01*
X143739179Y-84774534D01*
X143738855Y-85146500D01*
X129382682Y-85146500D01*
X129186799Y-85065162D01*
X128814833Y-85064838D01*
X128471057Y-85206883D01*
X128207808Y-85469673D01*
X128065162Y-85813201D01*
X128064838Y-86185167D01*
X123934839Y-86185167D01*
X123935162Y-85814833D01*
X123793117Y-85471057D01*
X123530327Y-85207808D01*
X123186799Y-85065162D01*
X122814833Y-85064838D01*
X122471057Y-85206883D01*
X122207808Y-85469673D01*
X122065162Y-85813201D01*
X122064838Y-86185167D01*
X93210000Y-86185167D01*
X93210000Y-83435167D01*
X119064838Y-83435167D01*
X119206883Y-83778943D01*
X119469673Y-84042192D01*
X119813201Y-84184838D01*
X120185167Y-84185162D01*
X120528943Y-84043117D01*
X120608258Y-83963940D01*
X139040391Y-83963940D01*
X139182436Y-84307716D01*
X139445226Y-84570965D01*
X139788754Y-84713611D01*
X140160720Y-84713935D01*
X140504496Y-84571890D01*
X140767745Y-84309100D01*
X140910391Y-83965572D01*
X140910715Y-83593606D01*
X140768670Y-83249830D01*
X140505880Y-82986581D01*
X140162352Y-82843935D01*
X139790386Y-82843611D01*
X139446610Y-82985656D01*
X139183361Y-83248446D01*
X139040715Y-83591974D01*
X139040391Y-83963940D01*
X120608258Y-83963940D01*
X120792192Y-83780327D01*
X120934838Y-83436799D01*
X120935162Y-83064833D01*
X120793117Y-82721057D01*
X120530327Y-82457808D01*
X120186799Y-82315162D01*
X119814833Y-82314838D01*
X119471057Y-82456883D01*
X119207808Y-82719673D01*
X119065162Y-83063201D01*
X119064838Y-83435167D01*
X93210000Y-83435167D01*
X93210000Y-82096445D01*
X143613962Y-82096445D01*
X143756007Y-82440221D01*
X144018797Y-82703470D01*
X144362325Y-82846116D01*
X144734291Y-82846440D01*
X145078067Y-82704395D01*
X145341316Y-82441605D01*
X145483962Y-82098077D01*
X145484286Y-81726111D01*
X145342241Y-81382335D01*
X145079451Y-81119086D01*
X144735923Y-80976440D01*
X144363957Y-80976116D01*
X144020181Y-81118161D01*
X143756932Y-81380951D01*
X143614286Y-81724479D01*
X143613962Y-82096445D01*
X93210000Y-82096445D01*
X93210000Y-81185167D01*
X123064838Y-81185167D01*
X123206883Y-81528943D01*
X123469673Y-81792192D01*
X123813201Y-81934838D01*
X124185167Y-81935162D01*
X124528943Y-81793117D01*
X124792192Y-81530327D01*
X124934838Y-81186799D01*
X124935114Y-80869262D01*
X132077907Y-80869262D01*
X132219952Y-81213038D01*
X132482742Y-81476287D01*
X132826270Y-81618933D01*
X133198236Y-81619257D01*
X133542012Y-81477212D01*
X133805261Y-81214422D01*
X133947907Y-80870894D01*
X133948068Y-80685167D01*
X183064838Y-80685167D01*
X183206883Y-81028943D01*
X183469673Y-81292192D01*
X183813201Y-81434838D01*
X184185167Y-81435162D01*
X184528943Y-81293117D01*
X184792192Y-81030327D01*
X184934838Y-80686799D01*
X184935162Y-80314833D01*
X184793117Y-79971057D01*
X184530327Y-79707808D01*
X184186799Y-79565162D01*
X183814833Y-79564838D01*
X183471057Y-79706883D01*
X183207808Y-79969673D01*
X183065162Y-80313201D01*
X183064838Y-80685167D01*
X133948068Y-80685167D01*
X133948231Y-80498928D01*
X133806186Y-80155152D01*
X133543396Y-79891903D01*
X133199868Y-79749257D01*
X132827902Y-79748933D01*
X132484126Y-79890978D01*
X132220877Y-80153768D01*
X132078231Y-80497296D01*
X132077907Y-80869262D01*
X124935114Y-80869262D01*
X124935162Y-80814833D01*
X124793117Y-80471057D01*
X124530327Y-80207808D01*
X124186799Y-80065162D01*
X123814833Y-80064838D01*
X123471057Y-80206883D01*
X123207808Y-80469673D01*
X123065162Y-80813201D01*
X123064838Y-81185167D01*
X93210000Y-81185167D01*
X93210000Y-77905340D01*
X106064244Y-77905340D01*
X106206289Y-78249116D01*
X106469079Y-78512365D01*
X106812607Y-78655011D01*
X107184573Y-78655335D01*
X107528349Y-78513290D01*
X107791598Y-78250500D01*
X107934244Y-77906972D01*
X107934568Y-77535006D01*
X107792523Y-77191230D01*
X107786471Y-77185167D01*
X174064838Y-77185167D01*
X174206883Y-77528943D01*
X174469673Y-77792192D01*
X174813201Y-77934838D01*
X175185167Y-77935162D01*
X175528943Y-77793117D01*
X175792192Y-77530327D01*
X175817669Y-77468971D01*
X184049041Y-77468971D01*
X184191086Y-77812747D01*
X184453876Y-78075996D01*
X184797404Y-78218642D01*
X185169370Y-78218966D01*
X185513146Y-78076921D01*
X185776395Y-77814131D01*
X185919041Y-77470603D01*
X185919365Y-77098637D01*
X185777320Y-76754861D01*
X185514530Y-76491612D01*
X185171002Y-76348966D01*
X184799036Y-76348642D01*
X184455260Y-76490687D01*
X184192011Y-76753477D01*
X184049365Y-77097005D01*
X184049041Y-77468971D01*
X175817669Y-77468971D01*
X175934838Y-77186799D01*
X175935162Y-76814833D01*
X175793117Y-76471057D01*
X175530327Y-76207808D01*
X175186799Y-76065162D01*
X174814833Y-76064838D01*
X174471057Y-76206883D01*
X174207808Y-76469673D01*
X174065162Y-76813201D01*
X174064838Y-77185167D01*
X107786471Y-77185167D01*
X107529733Y-76927981D01*
X107186205Y-76785335D01*
X106814239Y-76785011D01*
X106470463Y-76927056D01*
X106207214Y-77189846D01*
X106064568Y-77533374D01*
X106064244Y-77905340D01*
X93210000Y-77905340D01*
X93210000Y-75185167D01*
X176064838Y-75185167D01*
X176206883Y-75528943D01*
X176469673Y-75792192D01*
X176813201Y-75934838D01*
X177185167Y-75935162D01*
X177528943Y-75793117D01*
X177792192Y-75530327D01*
X177934838Y-75186799D01*
X177935162Y-74814833D01*
X177793117Y-74471057D01*
X177530327Y-74207808D01*
X177186799Y-74065162D01*
X176814833Y-74064838D01*
X176471057Y-74206883D01*
X176207808Y-74469673D01*
X176065162Y-74813201D01*
X176064838Y-75185167D01*
X93210000Y-75185167D01*
X93210000Y-72210000D01*
X191790000Y-72210000D01*
X191790000Y-118790000D01*
X191790000Y-118790000D01*
G37*
X191790000Y-118790000D02*
X166500000Y-118790000D01*
X166228295Y-118844046D01*
X165997954Y-118997954D01*
X165844046Y-119228295D01*
X165790000Y-119500000D01*
X165790000Y-119873000D01*
X164838760Y-119873000D01*
X165040497Y-119671615D01*
X165183143Y-119328087D01*
X165183467Y-118956121D01*
X165041422Y-118612345D01*
X164778632Y-118349096D01*
X164435104Y-118206450D01*
X164063138Y-118206126D01*
X163719362Y-118348171D01*
X163456113Y-118610961D01*
X163313467Y-118954489D01*
X163313143Y-119326455D01*
X163455188Y-119670231D01*
X163657603Y-119873000D01*
X119210000Y-119873000D01*
X119210000Y-119500000D01*
X119155954Y-119228295D01*
X119002046Y-118997954D01*
X118771705Y-118844046D01*
X118524630Y-118794899D01*
X118528943Y-118793117D01*
X118637081Y-118685167D01*
X130314838Y-118685167D01*
X130456883Y-119028943D01*
X130719673Y-119292192D01*
X131063201Y-119434838D01*
X131435167Y-119435162D01*
X131778943Y-119293117D01*
X132042192Y-119030327D01*
X132184838Y-118686799D01*
X132184879Y-118639923D01*
X132635982Y-118188820D01*
X137867744Y-118188820D01*
X138009789Y-118532596D01*
X138272579Y-118795845D01*
X138616107Y-118938491D01*
X138988073Y-118938815D01*
X139331849Y-118796770D01*
X139595098Y-118533980D01*
X139737744Y-118190452D01*
X139738068Y-117818486D01*
X139596023Y-117474710D01*
X139562906Y-117441535D01*
X139562906Y-114264383D01*
X161914769Y-114264383D01*
X162117582Y-114755229D01*
X162492796Y-115131098D01*
X162983287Y-115334768D01*
X163514383Y-115335231D01*
X164005229Y-115132418D01*
X164381098Y-114757204D01*
X164584768Y-114266713D01*
X164584770Y-114264383D01*
X166414769Y-114264383D01*
X166617582Y-114755229D01*
X166992796Y-115131098D01*
X167483287Y-115334768D01*
X168014383Y-115335231D01*
X168505229Y-115132418D01*
X168881098Y-114757204D01*
X169084768Y-114266713D01*
X169084770Y-114264383D01*
X170914769Y-114264383D01*
X171117582Y-114755229D01*
X171492796Y-115131098D01*
X171983287Y-115334768D01*
X172514383Y-115335231D01*
X173005229Y-115132418D01*
X173202716Y-114935275D01*
X179744331Y-114935275D01*
X179806169Y-115171042D01*
X180307122Y-115347419D01*
X180837440Y-115318664D01*
X181193831Y-115171042D01*
X181255669Y-114935275D01*
X180500000Y-114179605D01*
X179744331Y-114935275D01*
X173202716Y-114935275D01*
X173381098Y-114757204D01*
X173584768Y-114266713D01*
X173585168Y-113807122D01*
X179152581Y-113807122D01*
X179181336Y-114337440D01*
X179328958Y-114693831D01*
X179564725Y-114755669D01*
X180320395Y-114000000D01*
X180679605Y-114000000D01*
X181435275Y-114755669D01*
X181671042Y-114693831D01*
X181847419Y-114192878D01*
X181818664Y-113662560D01*
X181671042Y-113306169D01*
X181435275Y-113244331D01*
X180679605Y-114000000D01*
X180320395Y-114000000D01*
X179564725Y-113244331D01*
X179328958Y-113306169D01*
X179152581Y-113807122D01*
X173585168Y-113807122D01*
X173585231Y-113735617D01*
X173382418Y-113244771D01*
X173202686Y-113064725D01*
X179744331Y-113064725D01*
X180500000Y-113820395D01*
X181255669Y-113064725D01*
X181193831Y-112828958D01*
X180692878Y-112652581D01*
X180162560Y-112681336D01*
X179806169Y-112828958D01*
X179744331Y-113064725D01*
X173202686Y-113064725D01*
X173007204Y-112868902D01*
X172516713Y-112665232D01*
X171985617Y-112664769D01*
X171494771Y-112867582D01*
X171118902Y-113242796D01*
X170915232Y-113733287D01*
X170914769Y-114264383D01*
X169084770Y-114264383D01*
X169085231Y-113735617D01*
X168882418Y-113244771D01*
X168507204Y-112868902D01*
X168016713Y-112665232D01*
X167485617Y-112664769D01*
X166994771Y-112867582D01*
X166618902Y-113242796D01*
X166415232Y-113733287D01*
X166414769Y-114264383D01*
X164584770Y-114264383D01*
X164585231Y-113735617D01*
X164382418Y-113244771D01*
X164007204Y-112868902D01*
X163516713Y-112665232D01*
X162985617Y-112664769D01*
X162494771Y-112867582D01*
X162118902Y-113242796D01*
X161915232Y-113733287D01*
X161914769Y-114264383D01*
X139562906Y-114264383D01*
X139562906Y-112496082D01*
X140221847Y-113156174D01*
X141373674Y-113634454D01*
X142620854Y-113635543D01*
X143773515Y-113159273D01*
X144656174Y-112278153D01*
X145134454Y-111126326D01*
X145134551Y-111014383D01*
X155914769Y-111014383D01*
X156117582Y-111505229D01*
X156492796Y-111881098D01*
X156983287Y-112084768D01*
X157514383Y-112085231D01*
X158005229Y-111882418D01*
X158381098Y-111507204D01*
X158584768Y-111016713D01*
X158585231Y-110485617D01*
X158382418Y-109994771D01*
X158007204Y-109618902D01*
X157516713Y-109415232D01*
X156985617Y-109414769D01*
X156494771Y-109617582D01*
X156118902Y-109992796D01*
X155915232Y-110483287D01*
X155914769Y-111014383D01*
X145134551Y-111014383D01*
X145135543Y-109879146D01*
X144659273Y-108726485D01*
X143778153Y-107843826D01*
X142626326Y-107365546D01*
X141379146Y-107364457D01*
X140226485Y-107840727D01*
X139562906Y-108503149D01*
X139562906Y-104435167D01*
X141314838Y-104435167D01*
X141456883Y-104778943D01*
X141719673Y-105042192D01*
X142063201Y-105184838D01*
X142435167Y-105185162D01*
X142778943Y-105043117D01*
X143042192Y-104780327D01*
X143184838Y-104436799D01*
X143185162Y-104064833D01*
X143043117Y-103721057D01*
X142780327Y-103457808D01*
X142436799Y-103315162D01*
X142064833Y-103314838D01*
X141721057Y-103456883D01*
X141457808Y-103719673D01*
X141315162Y-104063201D01*
X141314838Y-104435167D01*
X139562906Y-104435167D01*
X139562906Y-103920647D01*
X140536005Y-102947548D01*
X140581492Y-102947588D01*
X140925268Y-102805543D01*
X141188517Y-102542753D01*
X141331163Y-102199225D01*
X141331487Y-101827259D01*
X141189442Y-101483483D01*
X140926652Y-101220234D01*
X140583124Y-101077588D01*
X140211158Y-101077264D01*
X139867382Y-101219309D01*
X139604133Y-101482099D01*
X139461487Y-101825627D01*
X139461446Y-101872503D01*
X138265505Y-103068444D01*
X138100758Y-103315006D01*
X138042906Y-103605845D01*
X138042906Y-117441190D01*
X138010714Y-117473326D01*
X137868068Y-117816854D01*
X137867744Y-118188820D01*
X132635982Y-118188820D01*
X137576112Y-113248690D01*
X137740859Y-113002128D01*
X137798711Y-112711289D01*
X137798711Y-105102570D01*
X137830903Y-105070434D01*
X137973549Y-104726906D01*
X137973873Y-104354940D01*
X137831828Y-104011164D01*
X137569038Y-103747915D01*
X137225510Y-103605269D01*
X136853544Y-103604945D01*
X136509768Y-103746990D01*
X136246519Y-104009780D01*
X136103873Y-104353308D01*
X136103549Y-104725274D01*
X136245594Y-105069050D01*
X136278711Y-105102225D01*
X136278711Y-112396487D01*
X131110320Y-117564878D01*
X131064833Y-117564838D01*
X130721057Y-117706883D01*
X130457808Y-117969673D01*
X130315162Y-118313201D01*
X130314838Y-118685167D01*
X118637081Y-118685167D01*
X118792192Y-118530327D01*
X118934838Y-118186799D01*
X118935162Y-117814833D01*
X118793117Y-117471057D01*
X118530327Y-117207808D01*
X118186799Y-117065162D01*
X117814833Y-117064838D01*
X117471057Y-117206883D01*
X117207808Y-117469673D01*
X117065162Y-117813201D01*
X117064838Y-118185167D01*
X117206883Y-118528943D01*
X117467485Y-118790000D01*
X93210000Y-118790000D01*
X93210000Y-112185167D01*
X117064838Y-112185167D01*
X117206883Y-112528943D01*
X117469673Y-112792192D01*
X117813201Y-112934838D01*
X118185167Y-112935162D01*
X118528943Y-112793117D01*
X118792192Y-112530327D01*
X118934838Y-112186799D01*
X118935162Y-111814833D01*
X118793117Y-111471057D01*
X118530327Y-111207808D01*
X118186799Y-111065162D01*
X117814833Y-111064838D01*
X117471057Y-111206883D01*
X117207808Y-111469673D01*
X117065162Y-111813201D01*
X117064838Y-112185167D01*
X93210000Y-112185167D01*
X93210000Y-105185167D01*
X133314838Y-105185167D01*
X133456883Y-105528943D01*
X133719673Y-105792192D01*
X134063201Y-105934838D01*
X134435167Y-105935162D01*
X134778943Y-105793117D01*
X135042192Y-105530327D01*
X135184838Y-105186799D01*
X135185162Y-104814833D01*
X135043117Y-104471057D01*
X134780327Y-104207808D01*
X134436799Y-104065162D01*
X134064833Y-104064838D01*
X133721057Y-104206883D01*
X133457808Y-104469673D01*
X133315162Y-104813201D01*
X133314838Y-105185167D01*
X93210000Y-105185167D01*
X93210000Y-102243216D01*
X129006785Y-102243216D01*
X129148830Y-102586992D01*
X129411620Y-102850241D01*
X129755148Y-102992887D01*
X130127114Y-102993211D01*
X130470890Y-102851166D01*
X130734139Y-102588376D01*
X130876785Y-102244848D01*
X130877109Y-101872882D01*
X130735064Y-101529106D01*
X130472274Y-101265857D01*
X130128746Y-101123211D01*
X129756780Y-101122887D01*
X129413004Y-101264932D01*
X129149755Y-101527722D01*
X129007109Y-101871250D01*
X129006785Y-102243216D01*
X93210000Y-102243216D01*
X93210000Y-100185167D01*
X178314838Y-100185167D01*
X178456883Y-100528943D01*
X178719673Y-100792192D01*
X179063201Y-100934838D01*
X179435167Y-100935162D01*
X179778943Y-100793117D01*
X180042192Y-100530327D01*
X180184838Y-100186799D01*
X180185162Y-99814833D01*
X180043117Y-99471057D01*
X179780327Y-99207808D01*
X179436799Y-99065162D01*
X179064833Y-99064838D01*
X178721057Y-99206883D01*
X178457808Y-99469673D01*
X178315162Y-99813201D01*
X178314838Y-100185167D01*
X93210000Y-100185167D01*
X93210000Y-97435167D01*
X124814838Y-97435167D01*
X124956883Y-97778943D01*
X125219673Y-98042192D01*
X125563201Y-98184838D01*
X125935167Y-98185162D01*
X126278943Y-98043117D01*
X126542192Y-97780327D01*
X126684838Y-97436799D01*
X126685162Y-97064833D01*
X126680202Y-97052828D01*
X130162459Y-97052828D01*
X130209983Y-97305399D01*
X130352028Y-97519581D01*
X132480419Y-99647972D01*
X132678122Y-99783057D01*
X132929284Y-99837541D01*
X133181855Y-99790017D01*
X133396037Y-99647972D01*
X133763233Y-99280776D01*
X133919623Y-99437440D01*
X134263151Y-99580086D01*
X134635117Y-99580410D01*
X134978893Y-99438365D01*
X135242142Y-99175575D01*
X135384788Y-98832047D01*
X135385112Y-98460081D01*
X135284384Y-98216300D01*
X140795663Y-98216300D01*
X140937708Y-98560076D01*
X141200498Y-98823325D01*
X141544026Y-98965971D01*
X141679122Y-98966089D01*
X141679017Y-99086469D01*
X141821062Y-99430245D01*
X142083852Y-99693494D01*
X142427380Y-99836140D01*
X142799346Y-99836464D01*
X143143122Y-99694419D01*
X143406371Y-99431629D01*
X143508711Y-99185167D01*
X145064838Y-99185167D01*
X145206883Y-99528943D01*
X145469673Y-99792192D01*
X145813201Y-99934838D01*
X146185167Y-99935162D01*
X146528943Y-99793117D01*
X146792192Y-99530327D01*
X146934838Y-99186799D01*
X146935162Y-98814833D01*
X146793117Y-98471057D01*
X146757290Y-98435167D01*
X149564838Y-98435167D01*
X149706883Y-98778943D01*
X149969673Y-99042192D01*
X150313201Y-99184838D01*
X150685167Y-99185162D01*
X151028943Y-99043117D01*
X151292192Y-98780327D01*
X151434838Y-98436799D01*
X151435162Y-98064833D01*
X151293117Y-97721057D01*
X151030327Y-97457808D01*
X150686799Y-97315162D01*
X150314833Y-97314838D01*
X149971057Y-97456883D01*
X149707808Y-97719673D01*
X149565162Y-98063201D01*
X149564838Y-98435167D01*
X146757290Y-98435167D01*
X146530327Y-98207808D01*
X146186799Y-98065162D01*
X145814833Y-98064838D01*
X145471057Y-98206883D01*
X145207808Y-98469673D01*
X145065162Y-98813201D01*
X145064838Y-99185167D01*
X143508711Y-99185167D01*
X143549017Y-99088101D01*
X143549341Y-98716135D01*
X143407296Y-98372359D01*
X143144506Y-98109110D01*
X142800978Y-97966464D01*
X142665882Y-97966346D01*
X142665987Y-97845966D01*
X142523942Y-97502190D01*
X142261152Y-97238941D01*
X141917624Y-97096295D01*
X141545658Y-97095971D01*
X141201882Y-97238016D01*
X140938633Y-97500806D01*
X140795987Y-97844334D01*
X140795663Y-98216300D01*
X135284384Y-98216300D01*
X135243067Y-98116305D01*
X134980277Y-97853056D01*
X134684452Y-97730218D01*
X134763925Y-97746026D01*
X135295855Y-97640220D01*
X135746803Y-97338905D01*
X136048118Y-96887957D01*
X136153924Y-96356027D01*
X136053102Y-95849153D01*
X136491237Y-95936302D01*
X136457808Y-95969673D01*
X136315162Y-96313201D01*
X136314838Y-96685167D01*
X136456883Y-97028943D01*
X136719673Y-97292192D01*
X137063201Y-97434838D01*
X137435167Y-97435162D01*
X137778943Y-97293117D01*
X137939052Y-97133287D01*
X138063201Y-97184838D01*
X138433769Y-97185161D01*
X138433564Y-97419995D01*
X138575609Y-97763771D01*
X138838399Y-98027020D01*
X139181927Y-98169666D01*
X139553893Y-98169990D01*
X139897669Y-98027945D01*
X140160918Y-97765155D01*
X140303564Y-97421627D01*
X140303888Y-97049661D01*
X140161843Y-96705885D01*
X139899053Y-96442636D01*
X139555525Y-96299990D01*
X139184957Y-96299667D01*
X139185162Y-96064833D01*
X139043117Y-95721057D01*
X139007290Y-95685167D01*
X140564838Y-95685167D01*
X140706883Y-96028943D01*
X140969673Y-96292192D01*
X141313201Y-96434838D01*
X141685167Y-96435162D01*
X142028943Y-96293117D01*
X142137081Y-96185167D01*
X146064838Y-96185167D01*
X146206883Y-96528943D01*
X146469673Y-96792192D01*
X146813201Y-96934838D01*
X147185167Y-96935162D01*
X147528943Y-96793117D01*
X147792192Y-96530327D01*
X147831706Y-96435167D01*
X178564838Y-96435167D01*
X178706883Y-96778943D01*
X178969673Y-97042192D01*
X179313201Y-97184838D01*
X179571715Y-97185063D01*
X179571676Y-97230119D01*
X179713721Y-97573895D01*
X179976511Y-97837144D01*
X180320039Y-97979790D01*
X180692005Y-97980114D01*
X181035781Y-97838069D01*
X181299030Y-97575279D01*
X181441676Y-97231751D01*
X181442000Y-96859785D01*
X181299955Y-96516009D01*
X181037165Y-96252760D01*
X180693637Y-96110114D01*
X180435123Y-96109889D01*
X180435162Y-96064833D01*
X180293117Y-95721057D01*
X180030327Y-95457808D01*
X179686799Y-95315162D01*
X179314833Y-95314838D01*
X178971057Y-95456883D01*
X178707808Y-95719673D01*
X178565162Y-96063201D01*
X178564838Y-96435167D01*
X147831706Y-96435167D01*
X147934838Y-96186799D01*
X147935162Y-95814833D01*
X147793117Y-95471057D01*
X147530327Y-95207808D01*
X147186799Y-95065162D01*
X146814833Y-95064838D01*
X146471057Y-95206883D01*
X146207808Y-95469673D01*
X146065162Y-95813201D01*
X146064838Y-96185167D01*
X142137081Y-96185167D01*
X142292192Y-96030327D01*
X142434838Y-95686799D01*
X142435162Y-95314833D01*
X142293117Y-94971057D01*
X142030327Y-94707808D01*
X141686799Y-94565162D01*
X141314833Y-94564838D01*
X140971057Y-94706883D01*
X140707808Y-94969673D01*
X140565162Y-95313201D01*
X140564838Y-95685167D01*
X139007290Y-95685167D01*
X138780327Y-95457808D01*
X138436799Y-95315162D01*
X138064833Y-95314838D01*
X137721057Y-95456883D01*
X137560948Y-95616713D01*
X137481616Y-95583772D01*
X137542854Y-95542854D01*
X137844169Y-95091906D01*
X137949975Y-94559976D01*
X137849153Y-94053101D01*
X138356028Y-94153923D01*
X138887958Y-94048117D01*
X139338906Y-93746802D01*
X139640221Y-93295854D01*
X139662237Y-93185167D01*
X182064838Y-93185167D01*
X182206883Y-93528943D01*
X182469673Y-93792192D01*
X182813201Y-93934838D01*
X183185167Y-93935162D01*
X183528943Y-93793117D01*
X183792192Y-93530327D01*
X183934838Y-93186799D01*
X183935162Y-92814833D01*
X183793117Y-92471057D01*
X183530327Y-92207808D01*
X183186799Y-92065162D01*
X182814833Y-92064838D01*
X182471057Y-92206883D01*
X182207808Y-92469673D01*
X182065162Y-92813201D01*
X182064838Y-93185167D01*
X139662237Y-93185167D01*
X139746027Y-92763924D01*
X139645205Y-92257050D01*
X140152079Y-92357872D01*
X140684009Y-92252066D01*
X141134957Y-91950751D01*
X141436272Y-91499803D01*
X141498856Y-91185167D01*
X147064838Y-91185167D01*
X147206883Y-91528943D01*
X147469673Y-91792192D01*
X147813201Y-91934838D01*
X148185167Y-91935162D01*
X148528943Y-91793117D01*
X148792192Y-91530327D01*
X148934838Y-91186799D01*
X148935162Y-90814833D01*
X148793117Y-90471057D01*
X148530327Y-90207808D01*
X148186799Y-90065162D01*
X147814833Y-90064838D01*
X147471057Y-90206883D01*
X147207808Y-90469673D01*
X147065162Y-90813201D01*
X147064838Y-91185167D01*
X141498856Y-91185167D01*
X141542078Y-90967873D01*
X141436778Y-90438488D01*
X141503887Y-90474970D01*
X142045484Y-90532176D01*
X142567747Y-90377767D01*
X142629343Y-90336655D01*
X142694663Y-90097960D01*
X141388154Y-88791451D01*
X141374012Y-88805594D01*
X141194407Y-88625989D01*
X141208549Y-88611846D01*
X141567759Y-88611846D01*
X142874268Y-89918355D01*
X143112963Y-89853035D01*
X143154075Y-89791439D01*
X143308484Y-89269176D01*
X143251278Y-88727579D01*
X142991165Y-88249100D01*
X142460835Y-87718770D01*
X141567759Y-88611846D01*
X141208549Y-88611846D01*
X139902040Y-87305337D01*
X139663345Y-87370657D01*
X139622233Y-87432253D01*
X139467824Y-87954516D01*
X139525030Y-88496113D01*
X139561512Y-88563222D01*
X139032127Y-88457922D01*
X138500197Y-88563728D01*
X138172014Y-88783013D01*
X138043117Y-88471057D01*
X137780327Y-88207808D01*
X137725350Y-88184979D01*
X137935167Y-88185162D01*
X138278943Y-88043117D01*
X138542192Y-87780327D01*
X138684838Y-87436799D01*
X138685108Y-87125732D01*
X140081645Y-87125732D01*
X141388154Y-88432241D01*
X142162214Y-87658181D01*
X147098475Y-87658181D01*
X147240520Y-88001957D01*
X147503310Y-88265206D01*
X147846838Y-88407852D01*
X148218804Y-88408176D01*
X148562580Y-88266131D01*
X148825829Y-88003341D01*
X148968475Y-87659813D01*
X148968799Y-87287847D01*
X148826754Y-86944071D01*
X148563964Y-86680822D01*
X148220436Y-86538176D01*
X147848470Y-86537852D01*
X147504694Y-86679897D01*
X147241445Y-86942687D01*
X147098799Y-87286215D01*
X147098475Y-87658181D01*
X142162214Y-87658181D01*
X142281230Y-87539165D01*
X141750900Y-87008835D01*
X141272421Y-86748722D01*
X140730824Y-86691516D01*
X140208561Y-86845925D01*
X140146965Y-86887037D01*
X140081645Y-87125732D01*
X138685108Y-87125732D01*
X138685162Y-87064833D01*
X138543117Y-86721057D01*
X138280327Y-86457808D01*
X137936799Y-86315162D01*
X137564833Y-86314838D01*
X137221057Y-86456883D01*
X136957808Y-86719673D01*
X136815162Y-87063201D01*
X136814838Y-87435167D01*
X136956883Y-87778943D01*
X137219673Y-88042192D01*
X137274650Y-88065021D01*
X137064833Y-88064838D01*
X136721057Y-88206883D01*
X136457808Y-88469673D01*
X136315162Y-88813201D01*
X136314838Y-89185167D01*
X136456883Y-89528943D01*
X136719673Y-89792192D01*
X137063201Y-89934838D01*
X137435167Y-89935162D01*
X137642445Y-89849517D01*
X137742950Y-90354795D01*
X137236076Y-90253973D01*
X136704146Y-90359779D01*
X136253198Y-90661094D01*
X135951883Y-91112042D01*
X135846077Y-91643972D01*
X135946899Y-92150847D01*
X135440024Y-92050025D01*
X134908094Y-92155831D01*
X134457146Y-92457146D01*
X134155831Y-92908094D01*
X134050025Y-93440024D01*
X134150847Y-93946898D01*
X133643973Y-93846076D01*
X133112043Y-93951882D01*
X132661095Y-94253197D01*
X132359780Y-94704145D01*
X132253974Y-95236075D01*
X132310265Y-95519074D01*
X132137674Y-95401147D01*
X131886512Y-95346663D01*
X131845933Y-95354298D01*
X131946580Y-95253827D01*
X132089226Y-94910299D01*
X132089550Y-94538333D01*
X131947505Y-94194557D01*
X131684715Y-93931308D01*
X131341187Y-93788662D01*
X130969221Y-93788338D01*
X130625445Y-93930383D01*
X130362196Y-94193173D01*
X130219550Y-94536701D01*
X130219226Y-94908667D01*
X130361271Y-95252443D01*
X130624061Y-95515692D01*
X130967589Y-95658338D01*
X131297366Y-95658625D01*
X130352028Y-96603963D01*
X130216943Y-96801666D01*
X130162459Y-97052828D01*
X126680202Y-97052828D01*
X126543117Y-96721057D01*
X126280327Y-96457808D01*
X125936799Y-96315162D01*
X125564833Y-96314838D01*
X125221057Y-96456883D01*
X124957808Y-96719673D01*
X124815162Y-97063201D01*
X124814838Y-97435167D01*
X93210000Y-97435167D01*
X93210000Y-91653944D01*
X124460859Y-91653944D01*
X124602904Y-91997720D01*
X124865694Y-92260969D01*
X125019852Y-92324981D01*
X124981615Y-92417066D01*
X124981291Y-92789032D01*
X125123336Y-93132808D01*
X125386126Y-93396057D01*
X125729654Y-93538703D01*
X126101620Y-93539027D01*
X126348849Y-93436874D01*
X126348777Y-93520107D01*
X126490822Y-93863883D01*
X126753612Y-94127132D01*
X127097140Y-94269778D01*
X127469106Y-94270102D01*
X127812882Y-94128057D01*
X128076131Y-93865267D01*
X128218777Y-93521739D01*
X128219101Y-93149773D01*
X128077056Y-92805997D01*
X127814266Y-92542748D01*
X127470738Y-92400102D01*
X127098772Y-92399778D01*
X126851543Y-92501931D01*
X126851615Y-92418698D01*
X126709570Y-92074922D01*
X126446780Y-91811673D01*
X126292622Y-91747661D01*
X126330859Y-91655576D01*
X126331148Y-91324083D01*
X126486129Y-91324218D01*
X126829905Y-91182173D01*
X127093154Y-90919383D01*
X127235800Y-90575855D01*
X127236056Y-90282150D01*
X127506483Y-90170412D01*
X127769732Y-89907622D01*
X127862103Y-89685167D01*
X131564838Y-89685167D01*
X131706883Y-90028943D01*
X131969673Y-90292192D01*
X132313201Y-90434838D01*
X132685167Y-90435162D01*
X133028943Y-90293117D01*
X133292192Y-90030327D01*
X133434838Y-89686799D01*
X133435162Y-89314833D01*
X133293117Y-88971057D01*
X133030327Y-88707808D01*
X132686799Y-88565162D01*
X132314833Y-88564838D01*
X131971057Y-88706883D01*
X131707808Y-88969673D01*
X131565162Y-89313201D01*
X131564838Y-89685167D01*
X127862103Y-89685167D01*
X127912378Y-89564094D01*
X127912702Y-89192128D01*
X127770657Y-88848352D01*
X127507867Y-88585103D01*
X127164339Y-88442457D01*
X126792373Y-88442133D01*
X126448597Y-88584178D01*
X126185348Y-88846968D01*
X126042702Y-89190496D01*
X126042446Y-89484201D01*
X125772019Y-89595939D01*
X125508770Y-89858729D01*
X125366124Y-90202257D01*
X125365835Y-90533750D01*
X125210854Y-90533615D01*
X124867078Y-90675660D01*
X124603829Y-90938450D01*
X124461183Y-91281978D01*
X124460859Y-91653944D01*
X93210000Y-91653944D01*
X93210000Y-90185167D01*
X123139859Y-90185167D01*
X123281904Y-90528943D01*
X123544694Y-90792192D01*
X123888222Y-90934838D01*
X124260188Y-90935162D01*
X124603964Y-90793117D01*
X124867213Y-90530327D01*
X125009859Y-90186799D01*
X125010183Y-89814833D01*
X124868138Y-89471057D01*
X124605348Y-89207808D01*
X124261820Y-89065162D01*
X123889854Y-89064838D01*
X123546078Y-89206883D01*
X123282829Y-89469673D01*
X123140183Y-89813201D01*
X123139859Y-90185167D01*
X93210000Y-90185167D01*
X93210000Y-89041199D01*
X117900870Y-89041199D01*
X118042915Y-89384975D01*
X118305705Y-89648224D01*
X118649233Y-89790870D01*
X119021199Y-89791194D01*
X119364975Y-89649149D01*
X119628224Y-89386359D01*
X119770870Y-89042831D01*
X119771194Y-88670865D01*
X119629149Y-88327089D01*
X119366359Y-88063840D01*
X119022831Y-87921194D01*
X118650865Y-87920870D01*
X118307089Y-88062915D01*
X118043840Y-88325705D01*
X117901194Y-88669233D01*
X117900870Y-89041199D01*
X93210000Y-89041199D01*
X93210000Y-86185167D01*
X122064838Y-86185167D01*
X122195069Y-86500351D01*
X122065162Y-86813201D01*
X122064838Y-87185167D01*
X122195069Y-87500351D01*
X122065162Y-87813201D01*
X122064838Y-88185167D01*
X122206883Y-88528943D01*
X122469673Y-88792192D01*
X122813201Y-88934838D01*
X123185167Y-88935162D01*
X123528943Y-88793117D01*
X123792192Y-88530327D01*
X123934838Y-88186799D01*
X123935162Y-87814833D01*
X123804931Y-87499649D01*
X123934838Y-87186799D01*
X123934839Y-87185167D01*
X132064838Y-87185167D01*
X132206883Y-87528943D01*
X132469673Y-87792192D01*
X132813201Y-87934838D01*
X133185167Y-87935162D01*
X133528943Y-87793117D01*
X133792192Y-87530327D01*
X133934838Y-87186799D01*
X133935162Y-86814833D01*
X133793117Y-86471057D01*
X133530327Y-86207808D01*
X133186799Y-86065162D01*
X132814833Y-86064838D01*
X132471057Y-86206883D01*
X132207808Y-86469673D01*
X132065162Y-86813201D01*
X132064838Y-87185167D01*
X123934839Y-87185167D01*
X123935162Y-86814833D01*
X123804931Y-86499649D01*
X123934838Y-86186799D01*
X123934839Y-86185167D01*
X128064838Y-86185167D01*
X128206883Y-86528943D01*
X128469673Y-86792192D01*
X128813201Y-86934838D01*
X129185167Y-86935162D01*
X129528943Y-86793117D01*
X129792192Y-86530327D01*
X129934838Y-86186799D01*
X129935162Y-85814833D01*
X129793117Y-85471057D01*
X129530327Y-85207808D01*
X129382682Y-85146500D01*
X143738855Y-85146500D01*
X143880900Y-85490276D01*
X144143690Y-85753525D01*
X144487218Y-85896171D01*
X144859184Y-85896495D01*
X145202960Y-85754450D01*
X145466209Y-85491660D01*
X145608855Y-85148132D01*
X145609179Y-84776166D01*
X145467134Y-84432390D01*
X145204344Y-84169141D01*
X144860816Y-84026495D01*
X144488850Y-84026171D01*
X144145074Y-84168216D01*
X143881825Y-84431006D01*
X143739179Y-84774534D01*
X143738855Y-85146500D01*
X129382682Y-85146500D01*
X129186799Y-85065162D01*
X128814833Y-85064838D01*
X128471057Y-85206883D01*
X128207808Y-85469673D01*
X128065162Y-85813201D01*
X128064838Y-86185167D01*
X123934839Y-86185167D01*
X123935162Y-85814833D01*
X123793117Y-85471057D01*
X123530327Y-85207808D01*
X123186799Y-85065162D01*
X122814833Y-85064838D01*
X122471057Y-85206883D01*
X122207808Y-85469673D01*
X122065162Y-85813201D01*
X122064838Y-86185167D01*
X93210000Y-86185167D01*
X93210000Y-83435167D01*
X119064838Y-83435167D01*
X119206883Y-83778943D01*
X119469673Y-84042192D01*
X119813201Y-84184838D01*
X120185167Y-84185162D01*
X120528943Y-84043117D01*
X120608258Y-83963940D01*
X139040391Y-83963940D01*
X139182436Y-84307716D01*
X139445226Y-84570965D01*
X139788754Y-84713611D01*
X140160720Y-84713935D01*
X140504496Y-84571890D01*
X140767745Y-84309100D01*
X140910391Y-83965572D01*
X140910715Y-83593606D01*
X140768670Y-83249830D01*
X140505880Y-82986581D01*
X140162352Y-82843935D01*
X139790386Y-82843611D01*
X139446610Y-82985656D01*
X139183361Y-83248446D01*
X139040715Y-83591974D01*
X139040391Y-83963940D01*
X120608258Y-83963940D01*
X120792192Y-83780327D01*
X120934838Y-83436799D01*
X120935162Y-83064833D01*
X120793117Y-82721057D01*
X120530327Y-82457808D01*
X120186799Y-82315162D01*
X119814833Y-82314838D01*
X119471057Y-82456883D01*
X119207808Y-82719673D01*
X119065162Y-83063201D01*
X119064838Y-83435167D01*
X93210000Y-83435167D01*
X93210000Y-82096445D01*
X143613962Y-82096445D01*
X143756007Y-82440221D01*
X144018797Y-82703470D01*
X144362325Y-82846116D01*
X144734291Y-82846440D01*
X145078067Y-82704395D01*
X145341316Y-82441605D01*
X145483962Y-82098077D01*
X145484286Y-81726111D01*
X145342241Y-81382335D01*
X145079451Y-81119086D01*
X144735923Y-80976440D01*
X144363957Y-80976116D01*
X144020181Y-81118161D01*
X143756932Y-81380951D01*
X143614286Y-81724479D01*
X143613962Y-82096445D01*
X93210000Y-82096445D01*
X93210000Y-81185167D01*
X123064838Y-81185167D01*
X123206883Y-81528943D01*
X123469673Y-81792192D01*
X123813201Y-81934838D01*
X124185167Y-81935162D01*
X124528943Y-81793117D01*
X124792192Y-81530327D01*
X124934838Y-81186799D01*
X124935114Y-80869262D01*
X132077907Y-80869262D01*
X132219952Y-81213038D01*
X132482742Y-81476287D01*
X132826270Y-81618933D01*
X133198236Y-81619257D01*
X133542012Y-81477212D01*
X133805261Y-81214422D01*
X133947907Y-80870894D01*
X133948068Y-80685167D01*
X183064838Y-80685167D01*
X183206883Y-81028943D01*
X183469673Y-81292192D01*
X183813201Y-81434838D01*
X184185167Y-81435162D01*
X184528943Y-81293117D01*
X184792192Y-81030327D01*
X184934838Y-80686799D01*
X184935162Y-80314833D01*
X184793117Y-79971057D01*
X184530327Y-79707808D01*
X184186799Y-79565162D01*
X183814833Y-79564838D01*
X183471057Y-79706883D01*
X183207808Y-79969673D01*
X183065162Y-80313201D01*
X183064838Y-80685167D01*
X133948068Y-80685167D01*
X133948231Y-80498928D01*
X133806186Y-80155152D01*
X133543396Y-79891903D01*
X133199868Y-79749257D01*
X132827902Y-79748933D01*
X132484126Y-79890978D01*
X132220877Y-80153768D01*
X132078231Y-80497296D01*
X132077907Y-80869262D01*
X124935114Y-80869262D01*
X124935162Y-80814833D01*
X124793117Y-80471057D01*
X124530327Y-80207808D01*
X124186799Y-80065162D01*
X123814833Y-80064838D01*
X123471057Y-80206883D01*
X123207808Y-80469673D01*
X123065162Y-80813201D01*
X123064838Y-81185167D01*
X93210000Y-81185167D01*
X93210000Y-77905340D01*
X106064244Y-77905340D01*
X106206289Y-78249116D01*
X106469079Y-78512365D01*
X106812607Y-78655011D01*
X107184573Y-78655335D01*
X107528349Y-78513290D01*
X107791598Y-78250500D01*
X107934244Y-77906972D01*
X107934568Y-77535006D01*
X107792523Y-77191230D01*
X107786471Y-77185167D01*
X174064838Y-77185167D01*
X174206883Y-77528943D01*
X174469673Y-77792192D01*
X174813201Y-77934838D01*
X175185167Y-77935162D01*
X175528943Y-77793117D01*
X175792192Y-77530327D01*
X175817669Y-77468971D01*
X184049041Y-77468971D01*
X184191086Y-77812747D01*
X184453876Y-78075996D01*
X184797404Y-78218642D01*
X185169370Y-78218966D01*
X185513146Y-78076921D01*
X185776395Y-77814131D01*
X185919041Y-77470603D01*
X185919365Y-77098637D01*
X185777320Y-76754861D01*
X185514530Y-76491612D01*
X185171002Y-76348966D01*
X184799036Y-76348642D01*
X184455260Y-76490687D01*
X184192011Y-76753477D01*
X184049365Y-77097005D01*
X184049041Y-77468971D01*
X175817669Y-77468971D01*
X175934838Y-77186799D01*
X175935162Y-76814833D01*
X175793117Y-76471057D01*
X175530327Y-76207808D01*
X175186799Y-76065162D01*
X174814833Y-76064838D01*
X174471057Y-76206883D01*
X174207808Y-76469673D01*
X174065162Y-76813201D01*
X174064838Y-77185167D01*
X107786471Y-77185167D01*
X107529733Y-76927981D01*
X107186205Y-76785335D01*
X106814239Y-76785011D01*
X106470463Y-76927056D01*
X106207214Y-77189846D01*
X106064568Y-77533374D01*
X106064244Y-77905340D01*
X93210000Y-77905340D01*
X93210000Y-75185167D01*
X176064838Y-75185167D01*
X176206883Y-75528943D01*
X176469673Y-75792192D01*
X176813201Y-75934838D01*
X177185167Y-75935162D01*
X177528943Y-75793117D01*
X177792192Y-75530327D01*
X177934838Y-75186799D01*
X177935162Y-74814833D01*
X177793117Y-74471057D01*
X177530327Y-74207808D01*
X177186799Y-74065162D01*
X176814833Y-74064838D01*
X176471057Y-74206883D01*
X176207808Y-74469673D01*
X176065162Y-74813201D01*
X176064838Y-75185167D01*
X93210000Y-75185167D01*
X93210000Y-72210000D01*
X191790000Y-72210000D01*
X191790000Y-118790000D01*
M02*
