G04 #@! TF.FileFunction,Copper,L3,Inr,Plane*
%FSLAX46Y46*%
G04 Gerber Fmt 4.6, Leading zero omitted, Abs format (unit mm)*
G04 Created by KiCad (PCBNEW 4.0.7) date 12/03/18 22:41:55*
%MOMM*%
%LPD*%
G01*
G04 APERTURE LIST*
%ADD10C,0.100000*%
%ADD11C,1.510000*%
%ADD12O,0.900000X1.500000*%
%ADD13R,0.900000X1.500000*%
%ADD14C,1.400000*%
%ADD15C,1.600000*%
%ADD16O,1.600000X1.600000*%
%ADD17C,0.600000*%
%ADD18C,0.254000*%
G04 APERTURE END LIST*
D10*
G36*
X132938228Y-99190163D02*
X130809837Y-97061772D01*
X131877568Y-95994041D01*
X134005959Y-98122432D01*
X132938228Y-99190163D01*
X132938228Y-99190163D01*
G37*
D11*
X133673619Y-95265721D02*
X134734279Y-96326381D01*
X135469670Y-93469670D02*
X136530330Y-94530330D01*
X137265722Y-91673618D02*
X138326382Y-92734278D01*
X139061773Y-89877567D02*
X140122433Y-90938227D01*
X140857824Y-88081516D02*
X141918484Y-89142176D01*
D12*
X112000000Y-81000000D03*
X113270000Y-81000000D03*
D13*
X110730000Y-81000000D03*
D14*
X165500000Y-114000000D03*
X167750000Y-114000000D03*
X170000000Y-114000000D03*
X172250000Y-114000000D03*
X163250000Y-114000000D03*
D15*
X189250000Y-98250000D03*
X189250000Y-95750000D03*
X189250000Y-79250000D03*
X189250000Y-81750000D03*
X121500000Y-104000000D03*
X119000000Y-104000000D03*
X122500000Y-114620000D03*
D16*
X122500000Y-107000000D03*
D15*
X113250000Y-86500000D03*
X110750000Y-86500000D03*
X117500000Y-80750000D03*
X120000000Y-80750000D03*
X126750000Y-82250000D03*
X129250000Y-82250000D03*
X141750000Y-81000000D03*
X144250000Y-81000000D03*
X148000000Y-86250000D03*
X150500000Y-86250000D03*
X150500000Y-98750000D03*
X153000000Y-98750000D03*
X150000000Y-105500000D03*
X152500000Y-105500000D03*
X140500000Y-105250000D03*
X143000000Y-105250000D03*
X127482233Y-101232233D03*
X129250000Y-103000000D03*
X123250000Y-94250000D03*
X123250000Y-91750000D03*
X164750000Y-86500000D03*
X167250000Y-86500000D03*
X150500000Y-92750000D03*
X153000000Y-92750000D03*
D17*
X136048187Y-98617047D03*
X128867323Y-100544016D03*
X137874990Y-102289841D03*
X131818934Y-93739173D03*
X178365644Y-96911871D03*
X140542554Y-98335716D03*
X145163471Y-86059885D03*
X134221457Y-87006163D03*
X136000000Y-87000000D03*
X139000000Y-87000000D03*
X146647113Y-93365248D03*
X186504710Y-77250361D03*
X179496256Y-77014121D03*
X134669627Y-98661472D03*
X147477277Y-89974786D03*
X129965568Y-101488506D03*
X183233692Y-75758482D03*
X185818194Y-75806343D03*
X141730825Y-98031133D03*
X131154388Y-94723500D03*
X126977540Y-89377295D03*
X144674017Y-84961333D03*
X139975553Y-83778773D03*
X164248305Y-119141288D03*
X133000000Y-87000000D03*
X147000000Y-96000000D03*
X146000000Y-99000000D03*
X129000000Y-86000000D03*
X118000000Y-118000000D03*
X180506838Y-97044952D03*
X184496669Y-77289734D03*
X175000000Y-77000000D03*
X127966763Y-93462315D03*
X127263886Y-92693544D03*
X126517080Y-91617265D03*
X125572590Y-91199932D03*
X126346650Y-90344519D03*
X123000000Y-88000000D03*
X123000000Y-87000000D03*
X123000000Y-86000000D03*
X117687194Y-88849688D03*
X138246332Y-118165789D03*
X140396325Y-101993799D03*
X137215812Y-104363006D03*
X131250000Y-118500000D03*
X179250000Y-100000000D03*
X142614179Y-98901302D03*
D18*
G36*
X191790000Y-118790000D02*
X166500000Y-118790000D01*
X166228295Y-118844046D01*
X165997954Y-118997954D01*
X165844046Y-119228295D01*
X165790000Y-119500000D01*
X165790000Y-119873000D01*
X119210000Y-119873000D01*
X119210000Y-119500000D01*
X119155954Y-119228295D01*
X119002046Y-118997954D01*
X118771705Y-118844046D01*
X118500000Y-118790000D01*
X93210000Y-118790000D01*
X93210000Y-118685167D01*
X130314838Y-118685167D01*
X130456883Y-119028943D01*
X130719673Y-119292192D01*
X131063201Y-119434838D01*
X131435167Y-119435162D01*
X131778943Y-119293117D01*
X132042192Y-119030327D01*
X132184838Y-118686799D01*
X132185130Y-118350956D01*
X137311170Y-118350956D01*
X137453215Y-118694732D01*
X137716005Y-118957981D01*
X138059533Y-119100627D01*
X138431499Y-119100951D01*
X138775275Y-118958906D01*
X139038524Y-118696116D01*
X139181170Y-118352588D01*
X139181494Y-117980622D01*
X139039449Y-117636846D01*
X138776659Y-117373597D01*
X138433131Y-117230951D01*
X138061165Y-117230627D01*
X137717389Y-117372672D01*
X137454140Y-117635462D01*
X137311494Y-117978990D01*
X137311170Y-118350956D01*
X132185130Y-118350956D01*
X132185162Y-118314833D01*
X132043117Y-117971057D01*
X131780327Y-117707808D01*
X131436799Y-117565162D01*
X131064833Y-117564838D01*
X130721057Y-117706883D01*
X130457808Y-117969673D01*
X130315162Y-118313201D01*
X130314838Y-118685167D01*
X93210000Y-118685167D01*
X93210000Y-114904187D01*
X121064752Y-114904187D01*
X121282757Y-115431800D01*
X121686077Y-115835824D01*
X122213309Y-116054750D01*
X122784187Y-116055248D01*
X123311800Y-115837243D01*
X123715824Y-115433923D01*
X123934750Y-114906691D01*
X123935248Y-114335813D01*
X123905734Y-114264383D01*
X161914769Y-114264383D01*
X162117582Y-114755229D01*
X162492796Y-115131098D01*
X162983287Y-115334768D01*
X163514383Y-115335231D01*
X164005229Y-115132418D01*
X164375316Y-114762976D01*
X164742796Y-115131098D01*
X165233287Y-115334768D01*
X165764383Y-115335231D01*
X166255229Y-115132418D01*
X166625316Y-114762976D01*
X166992796Y-115131098D01*
X167483287Y-115334768D01*
X168014383Y-115335231D01*
X168505229Y-115132418D01*
X168875316Y-114762976D01*
X169242796Y-115131098D01*
X169733287Y-115334768D01*
X170264383Y-115335231D01*
X170755229Y-115132418D01*
X171125316Y-114762976D01*
X171492796Y-115131098D01*
X171983287Y-115334768D01*
X172514383Y-115335231D01*
X173005229Y-115132418D01*
X173381098Y-114757204D01*
X173584768Y-114266713D01*
X173585231Y-113735617D01*
X173382418Y-113244771D01*
X173007204Y-112868902D01*
X172516713Y-112665232D01*
X171985617Y-112664769D01*
X171494771Y-112867582D01*
X171124684Y-113237024D01*
X170757204Y-112868902D01*
X170266713Y-112665232D01*
X169735617Y-112664769D01*
X169244771Y-112867582D01*
X168874684Y-113237024D01*
X168507204Y-112868902D01*
X168016713Y-112665232D01*
X167485617Y-112664769D01*
X166994771Y-112867582D01*
X166624684Y-113237024D01*
X166257204Y-112868902D01*
X165766713Y-112665232D01*
X165235617Y-112664769D01*
X164744771Y-112867582D01*
X164374684Y-113237024D01*
X164007204Y-112868902D01*
X163516713Y-112665232D01*
X162985617Y-112664769D01*
X162494771Y-112867582D01*
X162118902Y-113242796D01*
X161915232Y-113733287D01*
X161914769Y-114264383D01*
X123905734Y-114264383D01*
X123717243Y-113808200D01*
X123313923Y-113404176D01*
X122786691Y-113185250D01*
X122215813Y-113184752D01*
X121688200Y-113402757D01*
X121284176Y-113806077D01*
X121065250Y-114333309D01*
X121064752Y-114904187D01*
X93210000Y-114904187D01*
X93210000Y-111120854D01*
X138864457Y-111120854D01*
X139340727Y-112273515D01*
X140221847Y-113156174D01*
X141373674Y-113634454D01*
X142620854Y-113635543D01*
X143773515Y-113159273D01*
X144656174Y-112278153D01*
X145134454Y-111126326D01*
X145135543Y-109879146D01*
X144659273Y-108726485D01*
X143778153Y-107843826D01*
X142626326Y-107365546D01*
X141379146Y-107364457D01*
X140226485Y-107840727D01*
X139343826Y-108721847D01*
X138865546Y-109873674D01*
X138864457Y-111120854D01*
X93210000Y-111120854D01*
X93210000Y-106971887D01*
X121065000Y-106971887D01*
X121065000Y-107028113D01*
X121174233Y-107577264D01*
X121485302Y-108042811D01*
X121950849Y-108353880D01*
X122500000Y-108463113D01*
X123049151Y-108353880D01*
X123514698Y-108042811D01*
X123825767Y-107577264D01*
X123935000Y-107028113D01*
X123935000Y-106971887D01*
X123825767Y-106422736D01*
X123514698Y-105957189D01*
X123049151Y-105646120D01*
X122500000Y-105536887D01*
X121950849Y-105646120D01*
X121485302Y-105957189D01*
X121174233Y-106422736D01*
X121065000Y-106971887D01*
X93210000Y-106971887D01*
X93210000Y-105534187D01*
X139064752Y-105534187D01*
X139282757Y-106061800D01*
X139686077Y-106465824D01*
X140213309Y-106684750D01*
X140784187Y-106685248D01*
X141311800Y-106467243D01*
X141521663Y-106257745D01*
X142171861Y-106257745D01*
X142245995Y-106503864D01*
X142783223Y-106696965D01*
X143353454Y-106669778D01*
X143754005Y-106503864D01*
X143828139Y-106257745D01*
X143000000Y-105429605D01*
X142171861Y-106257745D01*
X141521663Y-106257745D01*
X141715824Y-106063923D01*
X141743423Y-105997456D01*
X141746136Y-106004005D01*
X141992255Y-106078139D01*
X142820395Y-105250000D01*
X143179605Y-105250000D01*
X144007745Y-106078139D01*
X144253864Y-106004005D01*
X144332875Y-105784187D01*
X148564752Y-105784187D01*
X148782757Y-106311800D01*
X149186077Y-106715824D01*
X149713309Y-106934750D01*
X150284187Y-106935248D01*
X150811800Y-106717243D01*
X151021663Y-106507745D01*
X151671861Y-106507745D01*
X151745995Y-106753864D01*
X152283223Y-106946965D01*
X152853454Y-106919778D01*
X153254005Y-106753864D01*
X153328139Y-106507745D01*
X152500000Y-105679605D01*
X151671861Y-106507745D01*
X151021663Y-106507745D01*
X151215824Y-106313923D01*
X151243423Y-106247456D01*
X151246136Y-106254005D01*
X151492255Y-106328139D01*
X152320395Y-105500000D01*
X152679605Y-105500000D01*
X153507745Y-106328139D01*
X153753864Y-106254005D01*
X153946965Y-105716777D01*
X153919778Y-105146546D01*
X153753864Y-104745995D01*
X153507745Y-104671861D01*
X152679605Y-105500000D01*
X152320395Y-105500000D01*
X151492255Y-104671861D01*
X151246136Y-104745995D01*
X151243804Y-104752483D01*
X151217243Y-104688200D01*
X151021640Y-104492255D01*
X151671861Y-104492255D01*
X152500000Y-105320395D01*
X153328139Y-104492255D01*
X153254005Y-104246136D01*
X152716777Y-104053035D01*
X152146546Y-104080222D01*
X151745995Y-104246136D01*
X151671861Y-104492255D01*
X151021640Y-104492255D01*
X150813923Y-104284176D01*
X150286691Y-104065250D01*
X149715813Y-104064752D01*
X149188200Y-104282757D01*
X148784176Y-104686077D01*
X148565250Y-105213309D01*
X148564752Y-105784187D01*
X144332875Y-105784187D01*
X144446965Y-105466777D01*
X144419778Y-104896546D01*
X144253864Y-104495995D01*
X144007745Y-104421861D01*
X143179605Y-105250000D01*
X142820395Y-105250000D01*
X141992255Y-104421861D01*
X141746136Y-104495995D01*
X141743804Y-104502483D01*
X141717243Y-104438200D01*
X141521640Y-104242255D01*
X142171861Y-104242255D01*
X143000000Y-105070395D01*
X143828139Y-104242255D01*
X143754005Y-103996136D01*
X143216777Y-103803035D01*
X142646546Y-103830222D01*
X142245995Y-103996136D01*
X142171861Y-104242255D01*
X141521640Y-104242255D01*
X141313923Y-104034176D01*
X140786691Y-103815250D01*
X140215813Y-103814752D01*
X139688200Y-104032757D01*
X139284176Y-104436077D01*
X139065250Y-104963309D01*
X139064752Y-105534187D01*
X93210000Y-105534187D01*
X93210000Y-105007745D01*
X118171861Y-105007745D01*
X118245995Y-105253864D01*
X118783223Y-105446965D01*
X119353454Y-105419778D01*
X119754005Y-105253864D01*
X119828139Y-105007745D01*
X119000000Y-104179605D01*
X118171861Y-105007745D01*
X93210000Y-105007745D01*
X93210000Y-103783223D01*
X117553035Y-103783223D01*
X117580222Y-104353454D01*
X117746136Y-104754005D01*
X117992255Y-104828139D01*
X118820395Y-104000000D01*
X119179605Y-104000000D01*
X120007745Y-104828139D01*
X120253864Y-104754005D01*
X120256196Y-104747517D01*
X120282757Y-104811800D01*
X120686077Y-105215824D01*
X121213309Y-105434750D01*
X121784187Y-105435248D01*
X122311800Y-105217243D01*
X122715824Y-104813923D01*
X122826173Y-104548173D01*
X136280650Y-104548173D01*
X136422695Y-104891949D01*
X136685485Y-105155198D01*
X137029013Y-105297844D01*
X137400979Y-105298168D01*
X137744755Y-105156123D01*
X138008004Y-104893333D01*
X138150650Y-104549805D01*
X138150974Y-104177839D01*
X138008929Y-103834063D01*
X137746139Y-103570814D01*
X137402611Y-103428168D01*
X137030645Y-103427844D01*
X136686869Y-103569889D01*
X136423620Y-103832679D01*
X136280974Y-104176207D01*
X136280650Y-104548173D01*
X122826173Y-104548173D01*
X122934750Y-104286691D01*
X122935248Y-103715813D01*
X122785525Y-103353454D01*
X127830222Y-103353454D01*
X128073557Y-103869874D01*
X128495995Y-104253864D01*
X128896546Y-104419778D01*
X129123000Y-104298166D01*
X129123000Y-103127000D01*
X129377000Y-103127000D01*
X129377000Y-104298166D01*
X129603454Y-104419778D01*
X130119874Y-104176443D01*
X130503864Y-103754005D01*
X130669778Y-103353454D01*
X130548166Y-103127000D01*
X129377000Y-103127000D01*
X129123000Y-103127000D01*
X127951834Y-103127000D01*
X127830222Y-103353454D01*
X122785525Y-103353454D01*
X122717243Y-103188200D01*
X122313923Y-102784176D01*
X121786691Y-102565250D01*
X121215813Y-102564752D01*
X120688200Y-102782757D01*
X120284176Y-103186077D01*
X120256577Y-103252544D01*
X120253864Y-103245995D01*
X120007745Y-103171861D01*
X119179605Y-104000000D01*
X118820395Y-104000000D01*
X117992255Y-103171861D01*
X117746136Y-103245995D01*
X117553035Y-103783223D01*
X93210000Y-103783223D01*
X93210000Y-102992255D01*
X118171861Y-102992255D01*
X119000000Y-103820395D01*
X119828139Y-102992255D01*
X119754005Y-102746136D01*
X119216777Y-102553035D01*
X118646546Y-102580222D01*
X118245995Y-102746136D01*
X118171861Y-102992255D01*
X93210000Y-102992255D01*
X93210000Y-101516420D01*
X126046985Y-101516420D01*
X126264990Y-102044033D01*
X126668310Y-102448057D01*
X127195542Y-102666983D01*
X127766420Y-102667481D01*
X127832934Y-102639998D01*
X127830222Y-102646546D01*
X127951834Y-102873000D01*
X128943392Y-102873000D01*
X129056251Y-102985859D01*
X129235859Y-102806251D01*
X129123000Y-102693392D01*
X129123000Y-101701834D01*
X129377000Y-101701834D01*
X129377000Y-102873000D01*
X130548166Y-102873000D01*
X130669778Y-102646546D01*
X130588950Y-102475008D01*
X136939828Y-102475008D01*
X137081873Y-102818784D01*
X137344663Y-103082033D01*
X137688191Y-103224679D01*
X138060157Y-103225003D01*
X138403933Y-103082958D01*
X138667182Y-102820168D01*
X138809828Y-102476640D01*
X138810087Y-102178966D01*
X139461163Y-102178966D01*
X139603208Y-102522742D01*
X139865998Y-102785991D01*
X140209526Y-102928637D01*
X140581492Y-102928961D01*
X140925268Y-102786916D01*
X141188517Y-102524126D01*
X141331163Y-102180598D01*
X141331487Y-101808632D01*
X141189442Y-101464856D01*
X140926652Y-101201607D01*
X140583124Y-101058961D01*
X140211158Y-101058637D01*
X139867382Y-101200682D01*
X139604133Y-101463472D01*
X139461487Y-101807000D01*
X139461163Y-102178966D01*
X138810087Y-102178966D01*
X138810152Y-102104674D01*
X138668107Y-101760898D01*
X138405317Y-101497649D01*
X138061789Y-101355003D01*
X137689823Y-101354679D01*
X137346047Y-101496724D01*
X137082798Y-101759514D01*
X136940152Y-102103042D01*
X136939828Y-102475008D01*
X130588950Y-102475008D01*
X130426443Y-102130126D01*
X130004005Y-101746136D01*
X129603454Y-101580222D01*
X129377000Y-101701834D01*
X129123000Y-101701834D01*
X128896546Y-101580222D01*
X128890310Y-101583161D01*
X128916983Y-101518924D01*
X128917018Y-101479060D01*
X129052490Y-101479178D01*
X129396266Y-101337133D01*
X129659515Y-101074343D01*
X129802161Y-100730815D01*
X129802485Y-100358849D01*
X129660440Y-100015073D01*
X129397650Y-99751824D01*
X129054122Y-99609178D01*
X128682156Y-99608854D01*
X128338380Y-99750899D01*
X128138136Y-99950793D01*
X127768924Y-99797483D01*
X127198046Y-99796985D01*
X126670433Y-100014990D01*
X126266409Y-100418310D01*
X126047483Y-100945542D01*
X126046985Y-101516420D01*
X93210000Y-101516420D01*
X93210000Y-98552530D01*
X131627075Y-98552530D01*
X131627075Y-98777036D01*
X132578530Y-99728491D01*
X132811919Y-99825164D01*
X133064538Y-99825163D01*
X133297927Y-99728490D01*
X133719051Y-99307366D01*
X133719051Y-99082860D01*
X132407898Y-97771707D01*
X131627075Y-98552530D01*
X93210000Y-98552530D01*
X93210000Y-97188081D01*
X130174836Y-97188081D01*
X130271509Y-97421470D01*
X131222964Y-98372925D01*
X131447470Y-98372925D01*
X132228293Y-97592102D01*
X130917140Y-96280949D01*
X130692634Y-96280949D01*
X130271510Y-96702073D01*
X130174837Y-96935462D01*
X130174836Y-97188081D01*
X93210000Y-97188081D01*
X93210000Y-95876838D01*
X131096745Y-95876838D01*
X131096745Y-96101344D01*
X132407898Y-97412497D01*
X132422041Y-97398355D01*
X132601646Y-97577960D01*
X132587503Y-97592102D01*
X133898656Y-98903255D01*
X134123162Y-98903255D01*
X134224203Y-98802214D01*
X135113025Y-98802214D01*
X135255070Y-99145990D01*
X135517860Y-99409239D01*
X135861388Y-99551885D01*
X136233354Y-99552209D01*
X136577130Y-99410164D01*
X136840379Y-99147374D01*
X136983025Y-98803846D01*
X136983271Y-98520883D01*
X139607392Y-98520883D01*
X139749437Y-98864659D01*
X140012227Y-99127908D01*
X140355755Y-99270554D01*
X140727721Y-99270878D01*
X141071497Y-99128833D01*
X141113934Y-99086469D01*
X141679017Y-99086469D01*
X141821062Y-99430245D01*
X142083852Y-99693494D01*
X142427380Y-99836140D01*
X142799346Y-99836464D01*
X143143122Y-99694419D01*
X143406371Y-99431629D01*
X143549017Y-99088101D01*
X143549063Y-99034187D01*
X149064752Y-99034187D01*
X149282757Y-99561800D01*
X149686077Y-99965824D01*
X150213309Y-100184750D01*
X150784187Y-100185248D01*
X151311800Y-99967243D01*
X151521663Y-99757745D01*
X152171861Y-99757745D01*
X152245995Y-100003864D01*
X152783223Y-100196965D01*
X153030678Y-100185167D01*
X178314838Y-100185167D01*
X178456883Y-100528943D01*
X178719673Y-100792192D01*
X179063201Y-100934838D01*
X179435167Y-100935162D01*
X179778943Y-100793117D01*
X180042192Y-100530327D01*
X180184838Y-100186799D01*
X180185162Y-99814833D01*
X180043117Y-99471057D01*
X179830177Y-99257745D01*
X188421861Y-99257745D01*
X188495995Y-99503864D01*
X189033223Y-99696965D01*
X189603454Y-99669778D01*
X190004005Y-99503864D01*
X190078139Y-99257745D01*
X189250000Y-98429605D01*
X188421861Y-99257745D01*
X179830177Y-99257745D01*
X179780327Y-99207808D01*
X179436799Y-99065162D01*
X179064833Y-99064838D01*
X178721057Y-99206883D01*
X178457808Y-99469673D01*
X178315162Y-99813201D01*
X178314838Y-100185167D01*
X153030678Y-100185167D01*
X153353454Y-100169778D01*
X153754005Y-100003864D01*
X153828139Y-99757745D01*
X153000000Y-98929605D01*
X152171861Y-99757745D01*
X151521663Y-99757745D01*
X151715824Y-99563923D01*
X151743423Y-99497456D01*
X151746136Y-99504005D01*
X151992255Y-99578139D01*
X152820395Y-98750000D01*
X153179605Y-98750000D01*
X154007745Y-99578139D01*
X154253864Y-99504005D01*
X154446965Y-98966777D01*
X154419778Y-98396546D01*
X154269285Y-98033223D01*
X187803035Y-98033223D01*
X187830222Y-98603454D01*
X187996136Y-99004005D01*
X188242255Y-99078139D01*
X189070395Y-98250000D01*
X189429605Y-98250000D01*
X190257745Y-99078139D01*
X190503864Y-99004005D01*
X190696965Y-98466777D01*
X190669778Y-97896546D01*
X190503864Y-97495995D01*
X190257745Y-97421861D01*
X189429605Y-98250000D01*
X189070395Y-98250000D01*
X188242255Y-97421861D01*
X187996136Y-97495995D01*
X187803035Y-98033223D01*
X154269285Y-98033223D01*
X154253864Y-97995995D01*
X154007745Y-97921861D01*
X153179605Y-98750000D01*
X152820395Y-98750000D01*
X151992255Y-97921861D01*
X151746136Y-97995995D01*
X151743804Y-98002483D01*
X151717243Y-97938200D01*
X151521640Y-97742255D01*
X152171861Y-97742255D01*
X153000000Y-98570395D01*
X153828139Y-97742255D01*
X153754005Y-97496136D01*
X153216777Y-97303035D01*
X152646546Y-97330222D01*
X152245995Y-97496136D01*
X152171861Y-97742255D01*
X151521640Y-97742255D01*
X151313923Y-97534176D01*
X150786691Y-97315250D01*
X150215813Y-97314752D01*
X149688200Y-97532757D01*
X149284176Y-97936077D01*
X149065250Y-98463309D01*
X149064752Y-99034187D01*
X143549063Y-99034187D01*
X143549341Y-98716135D01*
X143407296Y-98372359D01*
X143144506Y-98109110D01*
X142800978Y-97966464D01*
X142429012Y-97966140D01*
X142085236Y-98108185D01*
X141821987Y-98370975D01*
X141679341Y-98714503D01*
X141679017Y-99086469D01*
X141113934Y-99086469D01*
X141334746Y-98866043D01*
X141477392Y-98522515D01*
X141477716Y-98150549D01*
X141335671Y-97806773D01*
X141072881Y-97543524D01*
X140729353Y-97400878D01*
X140357387Y-97400554D01*
X140013611Y-97542599D01*
X139750362Y-97805389D01*
X139607716Y-98148917D01*
X139607392Y-98520883D01*
X136983271Y-98520883D01*
X136983349Y-98431880D01*
X136841304Y-98088104D01*
X136578514Y-97824855D01*
X136234986Y-97682209D01*
X135863020Y-97681885D01*
X135519244Y-97823930D01*
X135255995Y-98086720D01*
X135113349Y-98430248D01*
X135113025Y-98802214D01*
X134224203Y-98802214D01*
X134544286Y-98482131D01*
X134640959Y-98248742D01*
X134640960Y-97996123D01*
X134544287Y-97762734D01*
X134468895Y-97687342D01*
X134763925Y-97746026D01*
X135295855Y-97640220D01*
X135746803Y-97338905D01*
X135908413Y-97097038D01*
X177430482Y-97097038D01*
X177572527Y-97440814D01*
X177835317Y-97704063D01*
X178178845Y-97846709D01*
X178550811Y-97847033D01*
X178894587Y-97704988D01*
X179157836Y-97442198D01*
X179300482Y-97098670D01*
X179300806Y-96726704D01*
X179158761Y-96382928D01*
X178895971Y-96119679D01*
X178690085Y-96034187D01*
X187814752Y-96034187D01*
X188032757Y-96561800D01*
X188436077Y-96965824D01*
X188502544Y-96993423D01*
X188495995Y-96996136D01*
X188421861Y-97242255D01*
X189250000Y-98070395D01*
X190078139Y-97242255D01*
X190004005Y-96996136D01*
X189997517Y-96993804D01*
X190061800Y-96967243D01*
X190465824Y-96563923D01*
X190684750Y-96036691D01*
X190685248Y-95465813D01*
X190467243Y-94938200D01*
X190063923Y-94534176D01*
X189536691Y-94315250D01*
X188965813Y-94314752D01*
X188438200Y-94532757D01*
X188034176Y-94936077D01*
X187815250Y-95463309D01*
X187814752Y-96034187D01*
X178690085Y-96034187D01*
X178552443Y-95977033D01*
X178180477Y-95976709D01*
X177836701Y-96118754D01*
X177573452Y-96381544D01*
X177430806Y-96725072D01*
X177430482Y-97097038D01*
X135908413Y-97097038D01*
X136048118Y-96887957D01*
X136153924Y-96356027D01*
X136053102Y-95849153D01*
X136559976Y-95949975D01*
X137091906Y-95844169D01*
X137542854Y-95542854D01*
X137844169Y-95091906D01*
X137949975Y-94559976D01*
X137849153Y-94053101D01*
X138356028Y-94153923D01*
X138887958Y-94048117D01*
X139338906Y-93746802D01*
X139470128Y-93550415D01*
X145711951Y-93550415D01*
X145853996Y-93894191D01*
X146116786Y-94157440D01*
X146460314Y-94300086D01*
X146832280Y-94300410D01*
X147176056Y-94158365D01*
X147439305Y-93895575D01*
X147581951Y-93552047D01*
X147582275Y-93180081D01*
X147521993Y-93034187D01*
X149064752Y-93034187D01*
X149282757Y-93561800D01*
X149686077Y-93965824D01*
X150213309Y-94184750D01*
X150784187Y-94185248D01*
X151311800Y-93967243D01*
X151521663Y-93757745D01*
X152171861Y-93757745D01*
X152245995Y-94003864D01*
X152783223Y-94196965D01*
X153353454Y-94169778D01*
X153754005Y-94003864D01*
X153828139Y-93757745D01*
X153000000Y-92929605D01*
X152171861Y-93757745D01*
X151521663Y-93757745D01*
X151715824Y-93563923D01*
X151743423Y-93497456D01*
X151746136Y-93504005D01*
X151992255Y-93578139D01*
X152820395Y-92750000D01*
X153179605Y-92750000D01*
X154007745Y-93578139D01*
X154253864Y-93504005D01*
X154446965Y-92966777D01*
X154419778Y-92396546D01*
X154253864Y-91995995D01*
X154007745Y-91921861D01*
X153179605Y-92750000D01*
X152820395Y-92750000D01*
X151992255Y-91921861D01*
X151746136Y-91995995D01*
X151743804Y-92002483D01*
X151717243Y-91938200D01*
X151521640Y-91742255D01*
X152171861Y-91742255D01*
X153000000Y-92570395D01*
X153828139Y-91742255D01*
X153754005Y-91496136D01*
X153216777Y-91303035D01*
X152646546Y-91330222D01*
X152245995Y-91496136D01*
X152171861Y-91742255D01*
X151521640Y-91742255D01*
X151313923Y-91534176D01*
X150786691Y-91315250D01*
X150215813Y-91314752D01*
X149688200Y-91532757D01*
X149284176Y-91936077D01*
X149065250Y-92463309D01*
X149064752Y-93034187D01*
X147521993Y-93034187D01*
X147440230Y-92836305D01*
X147177440Y-92573056D01*
X146833912Y-92430410D01*
X146461946Y-92430086D01*
X146118170Y-92572131D01*
X145854921Y-92834921D01*
X145712275Y-93178449D01*
X145711951Y-93550415D01*
X139470128Y-93550415D01*
X139640221Y-93295854D01*
X139746027Y-92763924D01*
X139645205Y-92257050D01*
X140152079Y-92357872D01*
X140684009Y-92252066D01*
X141134957Y-91950751D01*
X141436272Y-91499803D01*
X141542078Y-90967873D01*
X141441256Y-90460999D01*
X141948130Y-90561821D01*
X142480060Y-90456015D01*
X142931008Y-90154700D01*
X143232323Y-89703752D01*
X143338129Y-89171822D01*
X143232323Y-88639892D01*
X142931008Y-88188943D01*
X141811056Y-87068992D01*
X141360108Y-86767677D01*
X140828178Y-86661871D01*
X140296248Y-86767677D01*
X139934993Y-87009061D01*
X139935162Y-86814833D01*
X139793117Y-86471057D01*
X139567507Y-86245052D01*
X144228309Y-86245052D01*
X144370354Y-86588828D01*
X144633144Y-86852077D01*
X144976672Y-86994723D01*
X145348638Y-86995047D01*
X145692414Y-86853002D01*
X145955663Y-86590212D01*
X145978926Y-86534187D01*
X146564752Y-86534187D01*
X146782757Y-87061800D01*
X147186077Y-87465824D01*
X147713309Y-87684750D01*
X148284187Y-87685248D01*
X148811800Y-87467243D01*
X149021663Y-87257745D01*
X149671861Y-87257745D01*
X149745995Y-87503864D01*
X150283223Y-87696965D01*
X150853454Y-87669778D01*
X151254005Y-87503864D01*
X151328139Y-87257745D01*
X150500000Y-86429605D01*
X149671861Y-87257745D01*
X149021663Y-87257745D01*
X149215824Y-87063923D01*
X149243423Y-86997456D01*
X149246136Y-87004005D01*
X149492255Y-87078139D01*
X150320395Y-86250000D01*
X150679605Y-86250000D01*
X151507745Y-87078139D01*
X151753864Y-87004005D01*
X151832875Y-86784187D01*
X163314752Y-86784187D01*
X163532757Y-87311800D01*
X163936077Y-87715824D01*
X164463309Y-87934750D01*
X165034187Y-87935248D01*
X165561800Y-87717243D01*
X165771663Y-87507745D01*
X166421861Y-87507745D01*
X166495995Y-87753864D01*
X167033223Y-87946965D01*
X167603454Y-87919778D01*
X168004005Y-87753864D01*
X168078139Y-87507745D01*
X167250000Y-86679605D01*
X166421861Y-87507745D01*
X165771663Y-87507745D01*
X165965824Y-87313923D01*
X165993423Y-87247456D01*
X165996136Y-87254005D01*
X166242255Y-87328139D01*
X167070395Y-86500000D01*
X167429605Y-86500000D01*
X168257745Y-87328139D01*
X168503864Y-87254005D01*
X168696965Y-86716777D01*
X168669778Y-86146546D01*
X168503864Y-85745995D01*
X168257745Y-85671861D01*
X167429605Y-86500000D01*
X167070395Y-86500000D01*
X166242255Y-85671861D01*
X165996136Y-85745995D01*
X165993804Y-85752483D01*
X165967243Y-85688200D01*
X165771640Y-85492255D01*
X166421861Y-85492255D01*
X167250000Y-86320395D01*
X168078139Y-85492255D01*
X168004005Y-85246136D01*
X167466777Y-85053035D01*
X166896546Y-85080222D01*
X166495995Y-85246136D01*
X166421861Y-85492255D01*
X165771640Y-85492255D01*
X165563923Y-85284176D01*
X165036691Y-85065250D01*
X164465813Y-85064752D01*
X163938200Y-85282757D01*
X163534176Y-85686077D01*
X163315250Y-86213309D01*
X163314752Y-86784187D01*
X151832875Y-86784187D01*
X151946965Y-86466777D01*
X151919778Y-85896546D01*
X151753864Y-85495995D01*
X151507745Y-85421861D01*
X150679605Y-86250000D01*
X150320395Y-86250000D01*
X149492255Y-85421861D01*
X149246136Y-85495995D01*
X149243804Y-85502483D01*
X149217243Y-85438200D01*
X149021640Y-85242255D01*
X149671861Y-85242255D01*
X150500000Y-86070395D01*
X151328139Y-85242255D01*
X151254005Y-84996136D01*
X150716777Y-84803035D01*
X150146546Y-84830222D01*
X149745995Y-84996136D01*
X149671861Y-85242255D01*
X149021640Y-85242255D01*
X148813923Y-85034176D01*
X148286691Y-84815250D01*
X147715813Y-84814752D01*
X147188200Y-85032757D01*
X146784176Y-85436077D01*
X146565250Y-85963309D01*
X146564752Y-86534187D01*
X145978926Y-86534187D01*
X146098309Y-86246684D01*
X146098633Y-85874718D01*
X145956588Y-85530942D01*
X145693798Y-85267693D01*
X145350270Y-85125047D01*
X144978304Y-85124723D01*
X144634528Y-85266768D01*
X144371279Y-85529558D01*
X144228633Y-85873086D01*
X144228309Y-86245052D01*
X139567507Y-86245052D01*
X139530327Y-86207808D01*
X139186799Y-86065162D01*
X138814833Y-86064838D01*
X138471057Y-86206883D01*
X138207808Y-86469673D01*
X138065162Y-86813201D01*
X138064838Y-87185167D01*
X138206883Y-87528943D01*
X138469673Y-87792192D01*
X138813201Y-87934838D01*
X139185167Y-87935162D01*
X139486129Y-87810807D01*
X139438179Y-88051870D01*
X139539001Y-88558744D01*
X139032127Y-88457922D01*
X138500197Y-88563728D01*
X138049249Y-88865043D01*
X137747934Y-89315991D01*
X137642128Y-89847921D01*
X137742950Y-90354795D01*
X137236076Y-90253973D01*
X136704146Y-90359779D01*
X136253198Y-90661094D01*
X135951883Y-91112042D01*
X135846077Y-91643972D01*
X135946899Y-92150847D01*
X135440024Y-92050025D01*
X134908094Y-92155831D01*
X134457146Y-92457146D01*
X134155831Y-92908094D01*
X134050025Y-93440024D01*
X134150847Y-93946898D01*
X133643973Y-93846076D01*
X133112043Y-93951882D01*
X132661095Y-94253197D01*
X132359780Y-94704145D01*
X132253974Y-95236075D01*
X132312658Y-95531105D01*
X132237266Y-95455713D01*
X132003877Y-95359040D01*
X131751258Y-95359041D01*
X131517869Y-95455714D01*
X131096745Y-95876838D01*
X93210000Y-95876838D01*
X93210000Y-94534187D01*
X121814752Y-94534187D01*
X122032757Y-95061800D01*
X122436077Y-95465824D01*
X122963309Y-95684750D01*
X123534187Y-95685248D01*
X124061800Y-95467243D01*
X124465824Y-95063923D01*
X124684750Y-94536691D01*
X124685248Y-93965813D01*
X124467243Y-93438200D01*
X124063923Y-93034176D01*
X123997456Y-93006577D01*
X124004005Y-93003864D01*
X124078139Y-92757745D01*
X123250000Y-91929605D01*
X122421861Y-92757745D01*
X122495995Y-93003864D01*
X122502483Y-93006196D01*
X122438200Y-93032757D01*
X122034176Y-93436077D01*
X121815250Y-93963309D01*
X121814752Y-94534187D01*
X93210000Y-94534187D01*
X93210000Y-91533223D01*
X121803035Y-91533223D01*
X121830222Y-92103454D01*
X121996136Y-92504005D01*
X122242255Y-92578139D01*
X123070395Y-91750000D01*
X123429605Y-91750000D01*
X124257745Y-92578139D01*
X124503864Y-92504005D01*
X124696965Y-91966777D01*
X124673381Y-91472112D01*
X124779473Y-91728875D01*
X125042263Y-91992124D01*
X125385791Y-92134770D01*
X125719357Y-92135061D01*
X125723963Y-92146208D01*
X125986753Y-92409457D01*
X126329009Y-92551575D01*
X126328724Y-92878711D01*
X126470769Y-93222487D01*
X126733559Y-93485736D01*
X127031634Y-93609508D01*
X127031601Y-93647482D01*
X127173646Y-93991258D01*
X127436436Y-94254507D01*
X127779964Y-94397153D01*
X128151930Y-94397477D01*
X128495706Y-94255432D01*
X128758955Y-93992642D01*
X128787316Y-93924340D01*
X130883772Y-93924340D01*
X131025817Y-94268116D01*
X131288607Y-94531365D01*
X131632135Y-94674011D01*
X132004101Y-94674335D01*
X132347877Y-94532290D01*
X132611126Y-94269500D01*
X132753772Y-93925972D01*
X132754096Y-93554006D01*
X132612051Y-93210230D01*
X132349261Y-92946981D01*
X132005733Y-92804335D01*
X131633767Y-92804011D01*
X131289991Y-92946056D01*
X131026742Y-93208846D01*
X130884096Y-93552374D01*
X130883772Y-93924340D01*
X128787316Y-93924340D01*
X128901601Y-93649114D01*
X128901925Y-93277148D01*
X128759880Y-92933372D01*
X128497090Y-92670123D01*
X128199015Y-92546351D01*
X128199048Y-92508377D01*
X128057003Y-92164601D01*
X127794213Y-91901352D01*
X127451957Y-91759234D01*
X127452242Y-91432098D01*
X127310197Y-91088322D01*
X127117931Y-90895720D01*
X127138842Y-90874846D01*
X127281488Y-90531318D01*
X127281812Y-90159352D01*
X127139767Y-89815576D01*
X126876977Y-89552327D01*
X126533449Y-89409681D01*
X126161483Y-89409357D01*
X125817707Y-89551402D01*
X125554458Y-89814192D01*
X125411812Y-90157720D01*
X125411719Y-90264791D01*
X125387423Y-90264770D01*
X125043647Y-90406815D01*
X124780398Y-90669605D01*
X124637752Y-91013133D01*
X124637486Y-91318586D01*
X124503864Y-90995995D01*
X124257745Y-90921861D01*
X123429605Y-91750000D01*
X123070395Y-91750000D01*
X122242255Y-90921861D01*
X121996136Y-90995995D01*
X121803035Y-91533223D01*
X93210000Y-91533223D01*
X93210000Y-90742255D01*
X122421861Y-90742255D01*
X123250000Y-91570395D01*
X124078139Y-90742255D01*
X124004005Y-90496136D01*
X123466777Y-90303035D01*
X122896546Y-90330222D01*
X122495995Y-90496136D01*
X122421861Y-90742255D01*
X93210000Y-90742255D01*
X93210000Y-89034855D01*
X116752032Y-89034855D01*
X116894077Y-89378631D01*
X117156867Y-89641880D01*
X117500395Y-89784526D01*
X117872361Y-89784850D01*
X118216137Y-89642805D01*
X118479386Y-89380015D01*
X118622032Y-89036487D01*
X118622356Y-88664521D01*
X118480311Y-88320745D01*
X118217521Y-88057496D01*
X117873993Y-87914850D01*
X117502027Y-87914526D01*
X117158251Y-88056571D01*
X116895002Y-88319361D01*
X116752356Y-88662889D01*
X116752032Y-89034855D01*
X93210000Y-89034855D01*
X93210000Y-87507745D01*
X109921861Y-87507745D01*
X109995995Y-87753864D01*
X110533223Y-87946965D01*
X111103454Y-87919778D01*
X111504005Y-87753864D01*
X111578139Y-87507745D01*
X110750000Y-86679605D01*
X109921861Y-87507745D01*
X93210000Y-87507745D01*
X93210000Y-86283223D01*
X109303035Y-86283223D01*
X109330222Y-86853454D01*
X109496136Y-87254005D01*
X109742255Y-87328139D01*
X110570395Y-86500000D01*
X110929605Y-86500000D01*
X111757745Y-87328139D01*
X112003864Y-87254005D01*
X112006196Y-87247517D01*
X112032757Y-87311800D01*
X112436077Y-87715824D01*
X112963309Y-87934750D01*
X113534187Y-87935248D01*
X114061800Y-87717243D01*
X114465824Y-87313923D01*
X114684750Y-86786691D01*
X114685248Y-86215813D01*
X114672586Y-86185167D01*
X122064838Y-86185167D01*
X122195069Y-86500351D01*
X122065162Y-86813201D01*
X122064838Y-87185167D01*
X122195069Y-87500351D01*
X122065162Y-87813201D01*
X122064838Y-88185167D01*
X122206883Y-88528943D01*
X122469673Y-88792192D01*
X122813201Y-88934838D01*
X123185167Y-88935162D01*
X123528943Y-88793117D01*
X123792192Y-88530327D01*
X123934838Y-88186799D01*
X123935162Y-87814833D01*
X123804931Y-87499649D01*
X123932956Y-87191330D01*
X133286295Y-87191330D01*
X133428340Y-87535106D01*
X133691130Y-87798355D01*
X134034658Y-87941001D01*
X134406624Y-87941325D01*
X134750400Y-87799280D01*
X135013649Y-87536490D01*
X135112068Y-87299472D01*
X135206883Y-87528943D01*
X135469673Y-87792192D01*
X135813201Y-87934838D01*
X136185167Y-87935162D01*
X136528943Y-87793117D01*
X136792192Y-87530327D01*
X136934838Y-87186799D01*
X136935162Y-86814833D01*
X136793117Y-86471057D01*
X136530327Y-86207808D01*
X136186799Y-86065162D01*
X135814833Y-86064838D01*
X135471057Y-86206883D01*
X135207808Y-86469673D01*
X135109389Y-86706691D01*
X135014574Y-86477220D01*
X134751784Y-86213971D01*
X134408256Y-86071325D01*
X134036290Y-86071001D01*
X133692514Y-86213046D01*
X133429265Y-86475836D01*
X133286619Y-86819364D01*
X133286295Y-87191330D01*
X123932956Y-87191330D01*
X123934838Y-87186799D01*
X123935162Y-86814833D01*
X123804931Y-86499649D01*
X123934838Y-86186799D01*
X123935162Y-85814833D01*
X123793117Y-85471057D01*
X123530327Y-85207808D01*
X123186799Y-85065162D01*
X122814833Y-85064838D01*
X122471057Y-85206883D01*
X122207808Y-85469673D01*
X122065162Y-85813201D01*
X122064838Y-86185167D01*
X114672586Y-86185167D01*
X114467243Y-85688200D01*
X114063923Y-85284176D01*
X113536691Y-85065250D01*
X112965813Y-85064752D01*
X112438200Y-85282757D01*
X112034176Y-85686077D01*
X112006577Y-85752544D01*
X112003864Y-85745995D01*
X111757745Y-85671861D01*
X110929605Y-86500000D01*
X110570395Y-86500000D01*
X109742255Y-85671861D01*
X109496136Y-85745995D01*
X109303035Y-86283223D01*
X93210000Y-86283223D01*
X93210000Y-85492255D01*
X109921861Y-85492255D01*
X110750000Y-86320395D01*
X111578139Y-85492255D01*
X111504005Y-85246136D01*
X110966777Y-85053035D01*
X110396546Y-85080222D01*
X109995995Y-85246136D01*
X109921861Y-85492255D01*
X93210000Y-85492255D01*
X93210000Y-82534187D01*
X125314752Y-82534187D01*
X125532757Y-83061800D01*
X125936077Y-83465824D01*
X126463309Y-83684750D01*
X127034187Y-83685248D01*
X127561800Y-83467243D01*
X127771663Y-83257745D01*
X128421861Y-83257745D01*
X128495995Y-83503864D01*
X129033223Y-83696965D01*
X129603454Y-83669778D01*
X130004005Y-83503864D01*
X130078139Y-83257745D01*
X129250000Y-82429605D01*
X128421861Y-83257745D01*
X127771663Y-83257745D01*
X127965824Y-83063923D01*
X127993423Y-82997456D01*
X127996136Y-83004005D01*
X128242255Y-83078139D01*
X129070395Y-82250000D01*
X129429605Y-82250000D01*
X130257745Y-83078139D01*
X130503864Y-83004005D01*
X130592379Y-82757745D01*
X188421861Y-82757745D01*
X188495995Y-83003864D01*
X189033223Y-83196965D01*
X189603454Y-83169778D01*
X190004005Y-83003864D01*
X190078139Y-82757745D01*
X189250000Y-81929605D01*
X188421861Y-82757745D01*
X130592379Y-82757745D01*
X130696965Y-82466777D01*
X130669778Y-81896546D01*
X130503864Y-81495995D01*
X130257745Y-81421861D01*
X129429605Y-82250000D01*
X129070395Y-82250000D01*
X128242255Y-81421861D01*
X127996136Y-81495995D01*
X127993804Y-81502483D01*
X127967243Y-81438200D01*
X127771640Y-81242255D01*
X128421861Y-81242255D01*
X129250000Y-82070395D01*
X130036207Y-81284187D01*
X140314752Y-81284187D01*
X140532757Y-81811800D01*
X140936077Y-82215824D01*
X141463309Y-82434750D01*
X142034187Y-82435248D01*
X142561800Y-82217243D01*
X142771663Y-82007745D01*
X143421861Y-82007745D01*
X143495995Y-82253864D01*
X144033223Y-82446965D01*
X144603454Y-82419778D01*
X145004005Y-82253864D01*
X145078139Y-82007745D01*
X144250000Y-81179605D01*
X143421861Y-82007745D01*
X142771663Y-82007745D01*
X142965824Y-81813923D01*
X142993423Y-81747456D01*
X142996136Y-81754005D01*
X143242255Y-81828139D01*
X144070395Y-81000000D01*
X144429605Y-81000000D01*
X145257745Y-81828139D01*
X145503864Y-81754005D01*
X145583221Y-81533223D01*
X187803035Y-81533223D01*
X187830222Y-82103454D01*
X187996136Y-82504005D01*
X188242255Y-82578139D01*
X189070395Y-81750000D01*
X189429605Y-81750000D01*
X190257745Y-82578139D01*
X190503864Y-82504005D01*
X190696965Y-81966777D01*
X190669778Y-81396546D01*
X190503864Y-80995995D01*
X190257745Y-80921861D01*
X189429605Y-81750000D01*
X189070395Y-81750000D01*
X188242255Y-80921861D01*
X187996136Y-80995995D01*
X187803035Y-81533223D01*
X145583221Y-81533223D01*
X145696965Y-81216777D01*
X145669778Y-80646546D01*
X145503864Y-80245995D01*
X145257745Y-80171861D01*
X144429605Y-81000000D01*
X144070395Y-81000000D01*
X143242255Y-80171861D01*
X142996136Y-80245995D01*
X142993804Y-80252483D01*
X142967243Y-80188200D01*
X142771640Y-79992255D01*
X143421861Y-79992255D01*
X144250000Y-80820395D01*
X145078139Y-79992255D01*
X145004005Y-79746136D01*
X144466777Y-79553035D01*
X143896546Y-79580222D01*
X143495995Y-79746136D01*
X143421861Y-79992255D01*
X142771640Y-79992255D01*
X142563923Y-79784176D01*
X142036691Y-79565250D01*
X141465813Y-79564752D01*
X140938200Y-79782757D01*
X140534176Y-80186077D01*
X140315250Y-80713309D01*
X140314752Y-81284187D01*
X130036207Y-81284187D01*
X130078139Y-81242255D01*
X130004005Y-80996136D01*
X129466777Y-80803035D01*
X128896546Y-80830222D01*
X128495995Y-80996136D01*
X128421861Y-81242255D01*
X127771640Y-81242255D01*
X127563923Y-81034176D01*
X127036691Y-80815250D01*
X126465813Y-80814752D01*
X125938200Y-81032757D01*
X125534176Y-81436077D01*
X125315250Y-81963309D01*
X125314752Y-82534187D01*
X93210000Y-82534187D01*
X93210000Y-81285750D01*
X109645000Y-81285750D01*
X109645000Y-81876310D01*
X109741673Y-82109699D01*
X109920302Y-82288327D01*
X110153691Y-82385000D01*
X110444250Y-82385000D01*
X110603000Y-82226250D01*
X110603000Y-81127000D01*
X109803750Y-81127000D01*
X109645000Y-81285750D01*
X93210000Y-81285750D01*
X93210000Y-80123690D01*
X109645000Y-80123690D01*
X109645000Y-80714250D01*
X109803750Y-80873000D01*
X110603000Y-80873000D01*
X110603000Y-79773750D01*
X110857000Y-79773750D01*
X110857000Y-80873000D01*
X110877000Y-80873000D01*
X110877000Y-81127000D01*
X110857000Y-81127000D01*
X110857000Y-82226250D01*
X111015750Y-82385000D01*
X111306309Y-82385000D01*
X111529454Y-82292570D01*
X111584788Y-82329543D01*
X112000000Y-82412134D01*
X112415212Y-82329543D01*
X112635000Y-82182685D01*
X112854788Y-82329543D01*
X113270000Y-82412134D01*
X113685212Y-82329543D01*
X114037211Y-82094345D01*
X114272409Y-81742346D01*
X114355000Y-81327134D01*
X114355000Y-81034187D01*
X116064752Y-81034187D01*
X116282757Y-81561800D01*
X116686077Y-81965824D01*
X117213309Y-82184750D01*
X117784187Y-82185248D01*
X118311800Y-81967243D01*
X118521663Y-81757745D01*
X119171861Y-81757745D01*
X119245995Y-82003864D01*
X119783223Y-82196965D01*
X120353454Y-82169778D01*
X120754005Y-82003864D01*
X120828139Y-81757745D01*
X120000000Y-80929605D01*
X119171861Y-81757745D01*
X118521663Y-81757745D01*
X118715824Y-81563923D01*
X118743423Y-81497456D01*
X118746136Y-81504005D01*
X118992255Y-81578139D01*
X119820395Y-80750000D01*
X120179605Y-80750000D01*
X121007745Y-81578139D01*
X121253864Y-81504005D01*
X121446965Y-80966777D01*
X121419778Y-80396546D01*
X121253864Y-79995995D01*
X121007745Y-79921861D01*
X120179605Y-80750000D01*
X119820395Y-80750000D01*
X118992255Y-79921861D01*
X118746136Y-79995995D01*
X118743804Y-80002483D01*
X118717243Y-79938200D01*
X118521640Y-79742255D01*
X119171861Y-79742255D01*
X120000000Y-80570395D01*
X120828139Y-79742255D01*
X120765467Y-79534187D01*
X187814752Y-79534187D01*
X188032757Y-80061800D01*
X188436077Y-80465824D01*
X188502544Y-80493423D01*
X188495995Y-80496136D01*
X188421861Y-80742255D01*
X189250000Y-81570395D01*
X190078139Y-80742255D01*
X190004005Y-80496136D01*
X189997517Y-80493804D01*
X190061800Y-80467243D01*
X190465824Y-80063923D01*
X190684750Y-79536691D01*
X190685248Y-78965813D01*
X190467243Y-78438200D01*
X190063923Y-78034176D01*
X189536691Y-77815250D01*
X188965813Y-77814752D01*
X188438200Y-78032757D01*
X188034176Y-78436077D01*
X187815250Y-78963309D01*
X187814752Y-79534187D01*
X120765467Y-79534187D01*
X120754005Y-79496136D01*
X120216777Y-79303035D01*
X119646546Y-79330222D01*
X119245995Y-79496136D01*
X119171861Y-79742255D01*
X118521640Y-79742255D01*
X118313923Y-79534176D01*
X117786691Y-79315250D01*
X117215813Y-79314752D01*
X116688200Y-79532757D01*
X116284176Y-79936077D01*
X116065250Y-80463309D01*
X116064752Y-81034187D01*
X114355000Y-81034187D01*
X114355000Y-80672866D01*
X114272409Y-80257654D01*
X114037211Y-79905655D01*
X113685212Y-79670457D01*
X113270000Y-79587866D01*
X112854788Y-79670457D01*
X112635000Y-79817315D01*
X112415212Y-79670457D01*
X112000000Y-79587866D01*
X111584788Y-79670457D01*
X111529454Y-79707430D01*
X111306309Y-79615000D01*
X111015750Y-79615000D01*
X110857000Y-79773750D01*
X110603000Y-79773750D01*
X110444250Y-79615000D01*
X110153691Y-79615000D01*
X109920302Y-79711673D01*
X109741673Y-79890301D01*
X109645000Y-80123690D01*
X93210000Y-80123690D01*
X93210000Y-77199288D01*
X178561094Y-77199288D01*
X178703139Y-77543064D01*
X178965929Y-77806313D01*
X179309457Y-77948959D01*
X179681423Y-77949283D01*
X180025199Y-77807238D01*
X180288448Y-77544448D01*
X180333675Y-77435528D01*
X185569548Y-77435528D01*
X185711593Y-77779304D01*
X185974383Y-78042553D01*
X186317911Y-78185199D01*
X186689877Y-78185523D01*
X187033653Y-78043478D01*
X187296902Y-77780688D01*
X187439548Y-77437160D01*
X187439872Y-77065194D01*
X187297827Y-76721418D01*
X187035037Y-76458169D01*
X186691509Y-76315523D01*
X186319543Y-76315199D01*
X185975767Y-76457244D01*
X185712518Y-76720034D01*
X185569872Y-77063562D01*
X185569548Y-77435528D01*
X180333675Y-77435528D01*
X180431094Y-77200920D01*
X180431418Y-76828954D01*
X180289373Y-76485178D01*
X180026583Y-76221929D01*
X179683055Y-76079283D01*
X179311089Y-76078959D01*
X178967313Y-76221004D01*
X178704064Y-76483794D01*
X178561418Y-76827322D01*
X178561094Y-77199288D01*
X93210000Y-77199288D01*
X93210000Y-72210000D01*
X191790000Y-72210000D01*
X191790000Y-118790000D01*
X191790000Y-118790000D01*
G37*
X191790000Y-118790000D02*
X166500000Y-118790000D01*
X166228295Y-118844046D01*
X165997954Y-118997954D01*
X165844046Y-119228295D01*
X165790000Y-119500000D01*
X165790000Y-119873000D01*
X119210000Y-119873000D01*
X119210000Y-119500000D01*
X119155954Y-119228295D01*
X119002046Y-118997954D01*
X118771705Y-118844046D01*
X118500000Y-118790000D01*
X93210000Y-118790000D01*
X93210000Y-118685167D01*
X130314838Y-118685167D01*
X130456883Y-119028943D01*
X130719673Y-119292192D01*
X131063201Y-119434838D01*
X131435167Y-119435162D01*
X131778943Y-119293117D01*
X132042192Y-119030327D01*
X132184838Y-118686799D01*
X132185130Y-118350956D01*
X137311170Y-118350956D01*
X137453215Y-118694732D01*
X137716005Y-118957981D01*
X138059533Y-119100627D01*
X138431499Y-119100951D01*
X138775275Y-118958906D01*
X139038524Y-118696116D01*
X139181170Y-118352588D01*
X139181494Y-117980622D01*
X139039449Y-117636846D01*
X138776659Y-117373597D01*
X138433131Y-117230951D01*
X138061165Y-117230627D01*
X137717389Y-117372672D01*
X137454140Y-117635462D01*
X137311494Y-117978990D01*
X137311170Y-118350956D01*
X132185130Y-118350956D01*
X132185162Y-118314833D01*
X132043117Y-117971057D01*
X131780327Y-117707808D01*
X131436799Y-117565162D01*
X131064833Y-117564838D01*
X130721057Y-117706883D01*
X130457808Y-117969673D01*
X130315162Y-118313201D01*
X130314838Y-118685167D01*
X93210000Y-118685167D01*
X93210000Y-114904187D01*
X121064752Y-114904187D01*
X121282757Y-115431800D01*
X121686077Y-115835824D01*
X122213309Y-116054750D01*
X122784187Y-116055248D01*
X123311800Y-115837243D01*
X123715824Y-115433923D01*
X123934750Y-114906691D01*
X123935248Y-114335813D01*
X123905734Y-114264383D01*
X161914769Y-114264383D01*
X162117582Y-114755229D01*
X162492796Y-115131098D01*
X162983287Y-115334768D01*
X163514383Y-115335231D01*
X164005229Y-115132418D01*
X164375316Y-114762976D01*
X164742796Y-115131098D01*
X165233287Y-115334768D01*
X165764383Y-115335231D01*
X166255229Y-115132418D01*
X166625316Y-114762976D01*
X166992796Y-115131098D01*
X167483287Y-115334768D01*
X168014383Y-115335231D01*
X168505229Y-115132418D01*
X168875316Y-114762976D01*
X169242796Y-115131098D01*
X169733287Y-115334768D01*
X170264383Y-115335231D01*
X170755229Y-115132418D01*
X171125316Y-114762976D01*
X171492796Y-115131098D01*
X171983287Y-115334768D01*
X172514383Y-115335231D01*
X173005229Y-115132418D01*
X173381098Y-114757204D01*
X173584768Y-114266713D01*
X173585231Y-113735617D01*
X173382418Y-113244771D01*
X173007204Y-112868902D01*
X172516713Y-112665232D01*
X171985617Y-112664769D01*
X171494771Y-112867582D01*
X171124684Y-113237024D01*
X170757204Y-112868902D01*
X170266713Y-112665232D01*
X169735617Y-112664769D01*
X169244771Y-112867582D01*
X168874684Y-113237024D01*
X168507204Y-112868902D01*
X168016713Y-112665232D01*
X167485617Y-112664769D01*
X166994771Y-112867582D01*
X166624684Y-113237024D01*
X166257204Y-112868902D01*
X165766713Y-112665232D01*
X165235617Y-112664769D01*
X164744771Y-112867582D01*
X164374684Y-113237024D01*
X164007204Y-112868902D01*
X163516713Y-112665232D01*
X162985617Y-112664769D01*
X162494771Y-112867582D01*
X162118902Y-113242796D01*
X161915232Y-113733287D01*
X161914769Y-114264383D01*
X123905734Y-114264383D01*
X123717243Y-113808200D01*
X123313923Y-113404176D01*
X122786691Y-113185250D01*
X122215813Y-113184752D01*
X121688200Y-113402757D01*
X121284176Y-113806077D01*
X121065250Y-114333309D01*
X121064752Y-114904187D01*
X93210000Y-114904187D01*
X93210000Y-111120854D01*
X138864457Y-111120854D01*
X139340727Y-112273515D01*
X140221847Y-113156174D01*
X141373674Y-113634454D01*
X142620854Y-113635543D01*
X143773515Y-113159273D01*
X144656174Y-112278153D01*
X145134454Y-111126326D01*
X145135543Y-109879146D01*
X144659273Y-108726485D01*
X143778153Y-107843826D01*
X142626326Y-107365546D01*
X141379146Y-107364457D01*
X140226485Y-107840727D01*
X139343826Y-108721847D01*
X138865546Y-109873674D01*
X138864457Y-111120854D01*
X93210000Y-111120854D01*
X93210000Y-106971887D01*
X121065000Y-106971887D01*
X121065000Y-107028113D01*
X121174233Y-107577264D01*
X121485302Y-108042811D01*
X121950849Y-108353880D01*
X122500000Y-108463113D01*
X123049151Y-108353880D01*
X123514698Y-108042811D01*
X123825767Y-107577264D01*
X123935000Y-107028113D01*
X123935000Y-106971887D01*
X123825767Y-106422736D01*
X123514698Y-105957189D01*
X123049151Y-105646120D01*
X122500000Y-105536887D01*
X121950849Y-105646120D01*
X121485302Y-105957189D01*
X121174233Y-106422736D01*
X121065000Y-106971887D01*
X93210000Y-106971887D01*
X93210000Y-105534187D01*
X139064752Y-105534187D01*
X139282757Y-106061800D01*
X139686077Y-106465824D01*
X140213309Y-106684750D01*
X140784187Y-106685248D01*
X141311800Y-106467243D01*
X141521663Y-106257745D01*
X142171861Y-106257745D01*
X142245995Y-106503864D01*
X142783223Y-106696965D01*
X143353454Y-106669778D01*
X143754005Y-106503864D01*
X143828139Y-106257745D01*
X143000000Y-105429605D01*
X142171861Y-106257745D01*
X141521663Y-106257745D01*
X141715824Y-106063923D01*
X141743423Y-105997456D01*
X141746136Y-106004005D01*
X141992255Y-106078139D01*
X142820395Y-105250000D01*
X143179605Y-105250000D01*
X144007745Y-106078139D01*
X144253864Y-106004005D01*
X144332875Y-105784187D01*
X148564752Y-105784187D01*
X148782757Y-106311800D01*
X149186077Y-106715824D01*
X149713309Y-106934750D01*
X150284187Y-106935248D01*
X150811800Y-106717243D01*
X151021663Y-106507745D01*
X151671861Y-106507745D01*
X151745995Y-106753864D01*
X152283223Y-106946965D01*
X152853454Y-106919778D01*
X153254005Y-106753864D01*
X153328139Y-106507745D01*
X152500000Y-105679605D01*
X151671861Y-106507745D01*
X151021663Y-106507745D01*
X151215824Y-106313923D01*
X151243423Y-106247456D01*
X151246136Y-106254005D01*
X151492255Y-106328139D01*
X152320395Y-105500000D01*
X152679605Y-105500000D01*
X153507745Y-106328139D01*
X153753864Y-106254005D01*
X153946965Y-105716777D01*
X153919778Y-105146546D01*
X153753864Y-104745995D01*
X153507745Y-104671861D01*
X152679605Y-105500000D01*
X152320395Y-105500000D01*
X151492255Y-104671861D01*
X151246136Y-104745995D01*
X151243804Y-104752483D01*
X151217243Y-104688200D01*
X151021640Y-104492255D01*
X151671861Y-104492255D01*
X152500000Y-105320395D01*
X153328139Y-104492255D01*
X153254005Y-104246136D01*
X152716777Y-104053035D01*
X152146546Y-104080222D01*
X151745995Y-104246136D01*
X151671861Y-104492255D01*
X151021640Y-104492255D01*
X150813923Y-104284176D01*
X150286691Y-104065250D01*
X149715813Y-104064752D01*
X149188200Y-104282757D01*
X148784176Y-104686077D01*
X148565250Y-105213309D01*
X148564752Y-105784187D01*
X144332875Y-105784187D01*
X144446965Y-105466777D01*
X144419778Y-104896546D01*
X144253864Y-104495995D01*
X144007745Y-104421861D01*
X143179605Y-105250000D01*
X142820395Y-105250000D01*
X141992255Y-104421861D01*
X141746136Y-104495995D01*
X141743804Y-104502483D01*
X141717243Y-104438200D01*
X141521640Y-104242255D01*
X142171861Y-104242255D01*
X143000000Y-105070395D01*
X143828139Y-104242255D01*
X143754005Y-103996136D01*
X143216777Y-103803035D01*
X142646546Y-103830222D01*
X142245995Y-103996136D01*
X142171861Y-104242255D01*
X141521640Y-104242255D01*
X141313923Y-104034176D01*
X140786691Y-103815250D01*
X140215813Y-103814752D01*
X139688200Y-104032757D01*
X139284176Y-104436077D01*
X139065250Y-104963309D01*
X139064752Y-105534187D01*
X93210000Y-105534187D01*
X93210000Y-105007745D01*
X118171861Y-105007745D01*
X118245995Y-105253864D01*
X118783223Y-105446965D01*
X119353454Y-105419778D01*
X119754005Y-105253864D01*
X119828139Y-105007745D01*
X119000000Y-104179605D01*
X118171861Y-105007745D01*
X93210000Y-105007745D01*
X93210000Y-103783223D01*
X117553035Y-103783223D01*
X117580222Y-104353454D01*
X117746136Y-104754005D01*
X117992255Y-104828139D01*
X118820395Y-104000000D01*
X119179605Y-104000000D01*
X120007745Y-104828139D01*
X120253864Y-104754005D01*
X120256196Y-104747517D01*
X120282757Y-104811800D01*
X120686077Y-105215824D01*
X121213309Y-105434750D01*
X121784187Y-105435248D01*
X122311800Y-105217243D01*
X122715824Y-104813923D01*
X122826173Y-104548173D01*
X136280650Y-104548173D01*
X136422695Y-104891949D01*
X136685485Y-105155198D01*
X137029013Y-105297844D01*
X137400979Y-105298168D01*
X137744755Y-105156123D01*
X138008004Y-104893333D01*
X138150650Y-104549805D01*
X138150974Y-104177839D01*
X138008929Y-103834063D01*
X137746139Y-103570814D01*
X137402611Y-103428168D01*
X137030645Y-103427844D01*
X136686869Y-103569889D01*
X136423620Y-103832679D01*
X136280974Y-104176207D01*
X136280650Y-104548173D01*
X122826173Y-104548173D01*
X122934750Y-104286691D01*
X122935248Y-103715813D01*
X122785525Y-103353454D01*
X127830222Y-103353454D01*
X128073557Y-103869874D01*
X128495995Y-104253864D01*
X128896546Y-104419778D01*
X129123000Y-104298166D01*
X129123000Y-103127000D01*
X129377000Y-103127000D01*
X129377000Y-104298166D01*
X129603454Y-104419778D01*
X130119874Y-104176443D01*
X130503864Y-103754005D01*
X130669778Y-103353454D01*
X130548166Y-103127000D01*
X129377000Y-103127000D01*
X129123000Y-103127000D01*
X127951834Y-103127000D01*
X127830222Y-103353454D01*
X122785525Y-103353454D01*
X122717243Y-103188200D01*
X122313923Y-102784176D01*
X121786691Y-102565250D01*
X121215813Y-102564752D01*
X120688200Y-102782757D01*
X120284176Y-103186077D01*
X120256577Y-103252544D01*
X120253864Y-103245995D01*
X120007745Y-103171861D01*
X119179605Y-104000000D01*
X118820395Y-104000000D01*
X117992255Y-103171861D01*
X117746136Y-103245995D01*
X117553035Y-103783223D01*
X93210000Y-103783223D01*
X93210000Y-102992255D01*
X118171861Y-102992255D01*
X119000000Y-103820395D01*
X119828139Y-102992255D01*
X119754005Y-102746136D01*
X119216777Y-102553035D01*
X118646546Y-102580222D01*
X118245995Y-102746136D01*
X118171861Y-102992255D01*
X93210000Y-102992255D01*
X93210000Y-101516420D01*
X126046985Y-101516420D01*
X126264990Y-102044033D01*
X126668310Y-102448057D01*
X127195542Y-102666983D01*
X127766420Y-102667481D01*
X127832934Y-102639998D01*
X127830222Y-102646546D01*
X127951834Y-102873000D01*
X128943392Y-102873000D01*
X129056251Y-102985859D01*
X129235859Y-102806251D01*
X129123000Y-102693392D01*
X129123000Y-101701834D01*
X129377000Y-101701834D01*
X129377000Y-102873000D01*
X130548166Y-102873000D01*
X130669778Y-102646546D01*
X130588950Y-102475008D01*
X136939828Y-102475008D01*
X137081873Y-102818784D01*
X137344663Y-103082033D01*
X137688191Y-103224679D01*
X138060157Y-103225003D01*
X138403933Y-103082958D01*
X138667182Y-102820168D01*
X138809828Y-102476640D01*
X138810087Y-102178966D01*
X139461163Y-102178966D01*
X139603208Y-102522742D01*
X139865998Y-102785991D01*
X140209526Y-102928637D01*
X140581492Y-102928961D01*
X140925268Y-102786916D01*
X141188517Y-102524126D01*
X141331163Y-102180598D01*
X141331487Y-101808632D01*
X141189442Y-101464856D01*
X140926652Y-101201607D01*
X140583124Y-101058961D01*
X140211158Y-101058637D01*
X139867382Y-101200682D01*
X139604133Y-101463472D01*
X139461487Y-101807000D01*
X139461163Y-102178966D01*
X138810087Y-102178966D01*
X138810152Y-102104674D01*
X138668107Y-101760898D01*
X138405317Y-101497649D01*
X138061789Y-101355003D01*
X137689823Y-101354679D01*
X137346047Y-101496724D01*
X137082798Y-101759514D01*
X136940152Y-102103042D01*
X136939828Y-102475008D01*
X130588950Y-102475008D01*
X130426443Y-102130126D01*
X130004005Y-101746136D01*
X129603454Y-101580222D01*
X129377000Y-101701834D01*
X129123000Y-101701834D01*
X128896546Y-101580222D01*
X128890310Y-101583161D01*
X128916983Y-101518924D01*
X128917018Y-101479060D01*
X129052490Y-101479178D01*
X129396266Y-101337133D01*
X129659515Y-101074343D01*
X129802161Y-100730815D01*
X129802485Y-100358849D01*
X129660440Y-100015073D01*
X129397650Y-99751824D01*
X129054122Y-99609178D01*
X128682156Y-99608854D01*
X128338380Y-99750899D01*
X128138136Y-99950793D01*
X127768924Y-99797483D01*
X127198046Y-99796985D01*
X126670433Y-100014990D01*
X126266409Y-100418310D01*
X126047483Y-100945542D01*
X126046985Y-101516420D01*
X93210000Y-101516420D01*
X93210000Y-98552530D01*
X131627075Y-98552530D01*
X131627075Y-98777036D01*
X132578530Y-99728491D01*
X132811919Y-99825164D01*
X133064538Y-99825163D01*
X133297927Y-99728490D01*
X133719051Y-99307366D01*
X133719051Y-99082860D01*
X132407898Y-97771707D01*
X131627075Y-98552530D01*
X93210000Y-98552530D01*
X93210000Y-97188081D01*
X130174836Y-97188081D01*
X130271509Y-97421470D01*
X131222964Y-98372925D01*
X131447470Y-98372925D01*
X132228293Y-97592102D01*
X130917140Y-96280949D01*
X130692634Y-96280949D01*
X130271510Y-96702073D01*
X130174837Y-96935462D01*
X130174836Y-97188081D01*
X93210000Y-97188081D01*
X93210000Y-95876838D01*
X131096745Y-95876838D01*
X131096745Y-96101344D01*
X132407898Y-97412497D01*
X132422041Y-97398355D01*
X132601646Y-97577960D01*
X132587503Y-97592102D01*
X133898656Y-98903255D01*
X134123162Y-98903255D01*
X134224203Y-98802214D01*
X135113025Y-98802214D01*
X135255070Y-99145990D01*
X135517860Y-99409239D01*
X135861388Y-99551885D01*
X136233354Y-99552209D01*
X136577130Y-99410164D01*
X136840379Y-99147374D01*
X136983025Y-98803846D01*
X136983271Y-98520883D01*
X139607392Y-98520883D01*
X139749437Y-98864659D01*
X140012227Y-99127908D01*
X140355755Y-99270554D01*
X140727721Y-99270878D01*
X141071497Y-99128833D01*
X141113934Y-99086469D01*
X141679017Y-99086469D01*
X141821062Y-99430245D01*
X142083852Y-99693494D01*
X142427380Y-99836140D01*
X142799346Y-99836464D01*
X143143122Y-99694419D01*
X143406371Y-99431629D01*
X143549017Y-99088101D01*
X143549063Y-99034187D01*
X149064752Y-99034187D01*
X149282757Y-99561800D01*
X149686077Y-99965824D01*
X150213309Y-100184750D01*
X150784187Y-100185248D01*
X151311800Y-99967243D01*
X151521663Y-99757745D01*
X152171861Y-99757745D01*
X152245995Y-100003864D01*
X152783223Y-100196965D01*
X153030678Y-100185167D01*
X178314838Y-100185167D01*
X178456883Y-100528943D01*
X178719673Y-100792192D01*
X179063201Y-100934838D01*
X179435167Y-100935162D01*
X179778943Y-100793117D01*
X180042192Y-100530327D01*
X180184838Y-100186799D01*
X180185162Y-99814833D01*
X180043117Y-99471057D01*
X179830177Y-99257745D01*
X188421861Y-99257745D01*
X188495995Y-99503864D01*
X189033223Y-99696965D01*
X189603454Y-99669778D01*
X190004005Y-99503864D01*
X190078139Y-99257745D01*
X189250000Y-98429605D01*
X188421861Y-99257745D01*
X179830177Y-99257745D01*
X179780327Y-99207808D01*
X179436799Y-99065162D01*
X179064833Y-99064838D01*
X178721057Y-99206883D01*
X178457808Y-99469673D01*
X178315162Y-99813201D01*
X178314838Y-100185167D01*
X153030678Y-100185167D01*
X153353454Y-100169778D01*
X153754005Y-100003864D01*
X153828139Y-99757745D01*
X153000000Y-98929605D01*
X152171861Y-99757745D01*
X151521663Y-99757745D01*
X151715824Y-99563923D01*
X151743423Y-99497456D01*
X151746136Y-99504005D01*
X151992255Y-99578139D01*
X152820395Y-98750000D01*
X153179605Y-98750000D01*
X154007745Y-99578139D01*
X154253864Y-99504005D01*
X154446965Y-98966777D01*
X154419778Y-98396546D01*
X154269285Y-98033223D01*
X187803035Y-98033223D01*
X187830222Y-98603454D01*
X187996136Y-99004005D01*
X188242255Y-99078139D01*
X189070395Y-98250000D01*
X189429605Y-98250000D01*
X190257745Y-99078139D01*
X190503864Y-99004005D01*
X190696965Y-98466777D01*
X190669778Y-97896546D01*
X190503864Y-97495995D01*
X190257745Y-97421861D01*
X189429605Y-98250000D01*
X189070395Y-98250000D01*
X188242255Y-97421861D01*
X187996136Y-97495995D01*
X187803035Y-98033223D01*
X154269285Y-98033223D01*
X154253864Y-97995995D01*
X154007745Y-97921861D01*
X153179605Y-98750000D01*
X152820395Y-98750000D01*
X151992255Y-97921861D01*
X151746136Y-97995995D01*
X151743804Y-98002483D01*
X151717243Y-97938200D01*
X151521640Y-97742255D01*
X152171861Y-97742255D01*
X153000000Y-98570395D01*
X153828139Y-97742255D01*
X153754005Y-97496136D01*
X153216777Y-97303035D01*
X152646546Y-97330222D01*
X152245995Y-97496136D01*
X152171861Y-97742255D01*
X151521640Y-97742255D01*
X151313923Y-97534176D01*
X150786691Y-97315250D01*
X150215813Y-97314752D01*
X149688200Y-97532757D01*
X149284176Y-97936077D01*
X149065250Y-98463309D01*
X149064752Y-99034187D01*
X143549063Y-99034187D01*
X143549341Y-98716135D01*
X143407296Y-98372359D01*
X143144506Y-98109110D01*
X142800978Y-97966464D01*
X142429012Y-97966140D01*
X142085236Y-98108185D01*
X141821987Y-98370975D01*
X141679341Y-98714503D01*
X141679017Y-99086469D01*
X141113934Y-99086469D01*
X141334746Y-98866043D01*
X141477392Y-98522515D01*
X141477716Y-98150549D01*
X141335671Y-97806773D01*
X141072881Y-97543524D01*
X140729353Y-97400878D01*
X140357387Y-97400554D01*
X140013611Y-97542599D01*
X139750362Y-97805389D01*
X139607716Y-98148917D01*
X139607392Y-98520883D01*
X136983271Y-98520883D01*
X136983349Y-98431880D01*
X136841304Y-98088104D01*
X136578514Y-97824855D01*
X136234986Y-97682209D01*
X135863020Y-97681885D01*
X135519244Y-97823930D01*
X135255995Y-98086720D01*
X135113349Y-98430248D01*
X135113025Y-98802214D01*
X134224203Y-98802214D01*
X134544286Y-98482131D01*
X134640959Y-98248742D01*
X134640960Y-97996123D01*
X134544287Y-97762734D01*
X134468895Y-97687342D01*
X134763925Y-97746026D01*
X135295855Y-97640220D01*
X135746803Y-97338905D01*
X135908413Y-97097038D01*
X177430482Y-97097038D01*
X177572527Y-97440814D01*
X177835317Y-97704063D01*
X178178845Y-97846709D01*
X178550811Y-97847033D01*
X178894587Y-97704988D01*
X179157836Y-97442198D01*
X179300482Y-97098670D01*
X179300806Y-96726704D01*
X179158761Y-96382928D01*
X178895971Y-96119679D01*
X178690085Y-96034187D01*
X187814752Y-96034187D01*
X188032757Y-96561800D01*
X188436077Y-96965824D01*
X188502544Y-96993423D01*
X188495995Y-96996136D01*
X188421861Y-97242255D01*
X189250000Y-98070395D01*
X190078139Y-97242255D01*
X190004005Y-96996136D01*
X189997517Y-96993804D01*
X190061800Y-96967243D01*
X190465824Y-96563923D01*
X190684750Y-96036691D01*
X190685248Y-95465813D01*
X190467243Y-94938200D01*
X190063923Y-94534176D01*
X189536691Y-94315250D01*
X188965813Y-94314752D01*
X188438200Y-94532757D01*
X188034176Y-94936077D01*
X187815250Y-95463309D01*
X187814752Y-96034187D01*
X178690085Y-96034187D01*
X178552443Y-95977033D01*
X178180477Y-95976709D01*
X177836701Y-96118754D01*
X177573452Y-96381544D01*
X177430806Y-96725072D01*
X177430482Y-97097038D01*
X135908413Y-97097038D01*
X136048118Y-96887957D01*
X136153924Y-96356027D01*
X136053102Y-95849153D01*
X136559976Y-95949975D01*
X137091906Y-95844169D01*
X137542854Y-95542854D01*
X137844169Y-95091906D01*
X137949975Y-94559976D01*
X137849153Y-94053101D01*
X138356028Y-94153923D01*
X138887958Y-94048117D01*
X139338906Y-93746802D01*
X139470128Y-93550415D01*
X145711951Y-93550415D01*
X145853996Y-93894191D01*
X146116786Y-94157440D01*
X146460314Y-94300086D01*
X146832280Y-94300410D01*
X147176056Y-94158365D01*
X147439305Y-93895575D01*
X147581951Y-93552047D01*
X147582275Y-93180081D01*
X147521993Y-93034187D01*
X149064752Y-93034187D01*
X149282757Y-93561800D01*
X149686077Y-93965824D01*
X150213309Y-94184750D01*
X150784187Y-94185248D01*
X151311800Y-93967243D01*
X151521663Y-93757745D01*
X152171861Y-93757745D01*
X152245995Y-94003864D01*
X152783223Y-94196965D01*
X153353454Y-94169778D01*
X153754005Y-94003864D01*
X153828139Y-93757745D01*
X153000000Y-92929605D01*
X152171861Y-93757745D01*
X151521663Y-93757745D01*
X151715824Y-93563923D01*
X151743423Y-93497456D01*
X151746136Y-93504005D01*
X151992255Y-93578139D01*
X152820395Y-92750000D01*
X153179605Y-92750000D01*
X154007745Y-93578139D01*
X154253864Y-93504005D01*
X154446965Y-92966777D01*
X154419778Y-92396546D01*
X154253864Y-91995995D01*
X154007745Y-91921861D01*
X153179605Y-92750000D01*
X152820395Y-92750000D01*
X151992255Y-91921861D01*
X151746136Y-91995995D01*
X151743804Y-92002483D01*
X151717243Y-91938200D01*
X151521640Y-91742255D01*
X152171861Y-91742255D01*
X153000000Y-92570395D01*
X153828139Y-91742255D01*
X153754005Y-91496136D01*
X153216777Y-91303035D01*
X152646546Y-91330222D01*
X152245995Y-91496136D01*
X152171861Y-91742255D01*
X151521640Y-91742255D01*
X151313923Y-91534176D01*
X150786691Y-91315250D01*
X150215813Y-91314752D01*
X149688200Y-91532757D01*
X149284176Y-91936077D01*
X149065250Y-92463309D01*
X149064752Y-93034187D01*
X147521993Y-93034187D01*
X147440230Y-92836305D01*
X147177440Y-92573056D01*
X146833912Y-92430410D01*
X146461946Y-92430086D01*
X146118170Y-92572131D01*
X145854921Y-92834921D01*
X145712275Y-93178449D01*
X145711951Y-93550415D01*
X139470128Y-93550415D01*
X139640221Y-93295854D01*
X139746027Y-92763924D01*
X139645205Y-92257050D01*
X140152079Y-92357872D01*
X140684009Y-92252066D01*
X141134957Y-91950751D01*
X141436272Y-91499803D01*
X141542078Y-90967873D01*
X141441256Y-90460999D01*
X141948130Y-90561821D01*
X142480060Y-90456015D01*
X142931008Y-90154700D01*
X143232323Y-89703752D01*
X143338129Y-89171822D01*
X143232323Y-88639892D01*
X142931008Y-88188943D01*
X141811056Y-87068992D01*
X141360108Y-86767677D01*
X140828178Y-86661871D01*
X140296248Y-86767677D01*
X139934993Y-87009061D01*
X139935162Y-86814833D01*
X139793117Y-86471057D01*
X139567507Y-86245052D01*
X144228309Y-86245052D01*
X144370354Y-86588828D01*
X144633144Y-86852077D01*
X144976672Y-86994723D01*
X145348638Y-86995047D01*
X145692414Y-86853002D01*
X145955663Y-86590212D01*
X145978926Y-86534187D01*
X146564752Y-86534187D01*
X146782757Y-87061800D01*
X147186077Y-87465824D01*
X147713309Y-87684750D01*
X148284187Y-87685248D01*
X148811800Y-87467243D01*
X149021663Y-87257745D01*
X149671861Y-87257745D01*
X149745995Y-87503864D01*
X150283223Y-87696965D01*
X150853454Y-87669778D01*
X151254005Y-87503864D01*
X151328139Y-87257745D01*
X150500000Y-86429605D01*
X149671861Y-87257745D01*
X149021663Y-87257745D01*
X149215824Y-87063923D01*
X149243423Y-86997456D01*
X149246136Y-87004005D01*
X149492255Y-87078139D01*
X150320395Y-86250000D01*
X150679605Y-86250000D01*
X151507745Y-87078139D01*
X151753864Y-87004005D01*
X151832875Y-86784187D01*
X163314752Y-86784187D01*
X163532757Y-87311800D01*
X163936077Y-87715824D01*
X164463309Y-87934750D01*
X165034187Y-87935248D01*
X165561800Y-87717243D01*
X165771663Y-87507745D01*
X166421861Y-87507745D01*
X166495995Y-87753864D01*
X167033223Y-87946965D01*
X167603454Y-87919778D01*
X168004005Y-87753864D01*
X168078139Y-87507745D01*
X167250000Y-86679605D01*
X166421861Y-87507745D01*
X165771663Y-87507745D01*
X165965824Y-87313923D01*
X165993423Y-87247456D01*
X165996136Y-87254005D01*
X166242255Y-87328139D01*
X167070395Y-86500000D01*
X167429605Y-86500000D01*
X168257745Y-87328139D01*
X168503864Y-87254005D01*
X168696965Y-86716777D01*
X168669778Y-86146546D01*
X168503864Y-85745995D01*
X168257745Y-85671861D01*
X167429605Y-86500000D01*
X167070395Y-86500000D01*
X166242255Y-85671861D01*
X165996136Y-85745995D01*
X165993804Y-85752483D01*
X165967243Y-85688200D01*
X165771640Y-85492255D01*
X166421861Y-85492255D01*
X167250000Y-86320395D01*
X168078139Y-85492255D01*
X168004005Y-85246136D01*
X167466777Y-85053035D01*
X166896546Y-85080222D01*
X166495995Y-85246136D01*
X166421861Y-85492255D01*
X165771640Y-85492255D01*
X165563923Y-85284176D01*
X165036691Y-85065250D01*
X164465813Y-85064752D01*
X163938200Y-85282757D01*
X163534176Y-85686077D01*
X163315250Y-86213309D01*
X163314752Y-86784187D01*
X151832875Y-86784187D01*
X151946965Y-86466777D01*
X151919778Y-85896546D01*
X151753864Y-85495995D01*
X151507745Y-85421861D01*
X150679605Y-86250000D01*
X150320395Y-86250000D01*
X149492255Y-85421861D01*
X149246136Y-85495995D01*
X149243804Y-85502483D01*
X149217243Y-85438200D01*
X149021640Y-85242255D01*
X149671861Y-85242255D01*
X150500000Y-86070395D01*
X151328139Y-85242255D01*
X151254005Y-84996136D01*
X150716777Y-84803035D01*
X150146546Y-84830222D01*
X149745995Y-84996136D01*
X149671861Y-85242255D01*
X149021640Y-85242255D01*
X148813923Y-85034176D01*
X148286691Y-84815250D01*
X147715813Y-84814752D01*
X147188200Y-85032757D01*
X146784176Y-85436077D01*
X146565250Y-85963309D01*
X146564752Y-86534187D01*
X145978926Y-86534187D01*
X146098309Y-86246684D01*
X146098633Y-85874718D01*
X145956588Y-85530942D01*
X145693798Y-85267693D01*
X145350270Y-85125047D01*
X144978304Y-85124723D01*
X144634528Y-85266768D01*
X144371279Y-85529558D01*
X144228633Y-85873086D01*
X144228309Y-86245052D01*
X139567507Y-86245052D01*
X139530327Y-86207808D01*
X139186799Y-86065162D01*
X138814833Y-86064838D01*
X138471057Y-86206883D01*
X138207808Y-86469673D01*
X138065162Y-86813201D01*
X138064838Y-87185167D01*
X138206883Y-87528943D01*
X138469673Y-87792192D01*
X138813201Y-87934838D01*
X139185167Y-87935162D01*
X139486129Y-87810807D01*
X139438179Y-88051870D01*
X139539001Y-88558744D01*
X139032127Y-88457922D01*
X138500197Y-88563728D01*
X138049249Y-88865043D01*
X137747934Y-89315991D01*
X137642128Y-89847921D01*
X137742950Y-90354795D01*
X137236076Y-90253973D01*
X136704146Y-90359779D01*
X136253198Y-90661094D01*
X135951883Y-91112042D01*
X135846077Y-91643972D01*
X135946899Y-92150847D01*
X135440024Y-92050025D01*
X134908094Y-92155831D01*
X134457146Y-92457146D01*
X134155831Y-92908094D01*
X134050025Y-93440024D01*
X134150847Y-93946898D01*
X133643973Y-93846076D01*
X133112043Y-93951882D01*
X132661095Y-94253197D01*
X132359780Y-94704145D01*
X132253974Y-95236075D01*
X132312658Y-95531105D01*
X132237266Y-95455713D01*
X132003877Y-95359040D01*
X131751258Y-95359041D01*
X131517869Y-95455714D01*
X131096745Y-95876838D01*
X93210000Y-95876838D01*
X93210000Y-94534187D01*
X121814752Y-94534187D01*
X122032757Y-95061800D01*
X122436077Y-95465824D01*
X122963309Y-95684750D01*
X123534187Y-95685248D01*
X124061800Y-95467243D01*
X124465824Y-95063923D01*
X124684750Y-94536691D01*
X124685248Y-93965813D01*
X124467243Y-93438200D01*
X124063923Y-93034176D01*
X123997456Y-93006577D01*
X124004005Y-93003864D01*
X124078139Y-92757745D01*
X123250000Y-91929605D01*
X122421861Y-92757745D01*
X122495995Y-93003864D01*
X122502483Y-93006196D01*
X122438200Y-93032757D01*
X122034176Y-93436077D01*
X121815250Y-93963309D01*
X121814752Y-94534187D01*
X93210000Y-94534187D01*
X93210000Y-91533223D01*
X121803035Y-91533223D01*
X121830222Y-92103454D01*
X121996136Y-92504005D01*
X122242255Y-92578139D01*
X123070395Y-91750000D01*
X123429605Y-91750000D01*
X124257745Y-92578139D01*
X124503864Y-92504005D01*
X124696965Y-91966777D01*
X124673381Y-91472112D01*
X124779473Y-91728875D01*
X125042263Y-91992124D01*
X125385791Y-92134770D01*
X125719357Y-92135061D01*
X125723963Y-92146208D01*
X125986753Y-92409457D01*
X126329009Y-92551575D01*
X126328724Y-92878711D01*
X126470769Y-93222487D01*
X126733559Y-93485736D01*
X127031634Y-93609508D01*
X127031601Y-93647482D01*
X127173646Y-93991258D01*
X127436436Y-94254507D01*
X127779964Y-94397153D01*
X128151930Y-94397477D01*
X128495706Y-94255432D01*
X128758955Y-93992642D01*
X128787316Y-93924340D01*
X130883772Y-93924340D01*
X131025817Y-94268116D01*
X131288607Y-94531365D01*
X131632135Y-94674011D01*
X132004101Y-94674335D01*
X132347877Y-94532290D01*
X132611126Y-94269500D01*
X132753772Y-93925972D01*
X132754096Y-93554006D01*
X132612051Y-93210230D01*
X132349261Y-92946981D01*
X132005733Y-92804335D01*
X131633767Y-92804011D01*
X131289991Y-92946056D01*
X131026742Y-93208846D01*
X130884096Y-93552374D01*
X130883772Y-93924340D01*
X128787316Y-93924340D01*
X128901601Y-93649114D01*
X128901925Y-93277148D01*
X128759880Y-92933372D01*
X128497090Y-92670123D01*
X128199015Y-92546351D01*
X128199048Y-92508377D01*
X128057003Y-92164601D01*
X127794213Y-91901352D01*
X127451957Y-91759234D01*
X127452242Y-91432098D01*
X127310197Y-91088322D01*
X127117931Y-90895720D01*
X127138842Y-90874846D01*
X127281488Y-90531318D01*
X127281812Y-90159352D01*
X127139767Y-89815576D01*
X126876977Y-89552327D01*
X126533449Y-89409681D01*
X126161483Y-89409357D01*
X125817707Y-89551402D01*
X125554458Y-89814192D01*
X125411812Y-90157720D01*
X125411719Y-90264791D01*
X125387423Y-90264770D01*
X125043647Y-90406815D01*
X124780398Y-90669605D01*
X124637752Y-91013133D01*
X124637486Y-91318586D01*
X124503864Y-90995995D01*
X124257745Y-90921861D01*
X123429605Y-91750000D01*
X123070395Y-91750000D01*
X122242255Y-90921861D01*
X121996136Y-90995995D01*
X121803035Y-91533223D01*
X93210000Y-91533223D01*
X93210000Y-90742255D01*
X122421861Y-90742255D01*
X123250000Y-91570395D01*
X124078139Y-90742255D01*
X124004005Y-90496136D01*
X123466777Y-90303035D01*
X122896546Y-90330222D01*
X122495995Y-90496136D01*
X122421861Y-90742255D01*
X93210000Y-90742255D01*
X93210000Y-89034855D01*
X116752032Y-89034855D01*
X116894077Y-89378631D01*
X117156867Y-89641880D01*
X117500395Y-89784526D01*
X117872361Y-89784850D01*
X118216137Y-89642805D01*
X118479386Y-89380015D01*
X118622032Y-89036487D01*
X118622356Y-88664521D01*
X118480311Y-88320745D01*
X118217521Y-88057496D01*
X117873993Y-87914850D01*
X117502027Y-87914526D01*
X117158251Y-88056571D01*
X116895002Y-88319361D01*
X116752356Y-88662889D01*
X116752032Y-89034855D01*
X93210000Y-89034855D01*
X93210000Y-87507745D01*
X109921861Y-87507745D01*
X109995995Y-87753864D01*
X110533223Y-87946965D01*
X111103454Y-87919778D01*
X111504005Y-87753864D01*
X111578139Y-87507745D01*
X110750000Y-86679605D01*
X109921861Y-87507745D01*
X93210000Y-87507745D01*
X93210000Y-86283223D01*
X109303035Y-86283223D01*
X109330222Y-86853454D01*
X109496136Y-87254005D01*
X109742255Y-87328139D01*
X110570395Y-86500000D01*
X110929605Y-86500000D01*
X111757745Y-87328139D01*
X112003864Y-87254005D01*
X112006196Y-87247517D01*
X112032757Y-87311800D01*
X112436077Y-87715824D01*
X112963309Y-87934750D01*
X113534187Y-87935248D01*
X114061800Y-87717243D01*
X114465824Y-87313923D01*
X114684750Y-86786691D01*
X114685248Y-86215813D01*
X114672586Y-86185167D01*
X122064838Y-86185167D01*
X122195069Y-86500351D01*
X122065162Y-86813201D01*
X122064838Y-87185167D01*
X122195069Y-87500351D01*
X122065162Y-87813201D01*
X122064838Y-88185167D01*
X122206883Y-88528943D01*
X122469673Y-88792192D01*
X122813201Y-88934838D01*
X123185167Y-88935162D01*
X123528943Y-88793117D01*
X123792192Y-88530327D01*
X123934838Y-88186799D01*
X123935162Y-87814833D01*
X123804931Y-87499649D01*
X123932956Y-87191330D01*
X133286295Y-87191330D01*
X133428340Y-87535106D01*
X133691130Y-87798355D01*
X134034658Y-87941001D01*
X134406624Y-87941325D01*
X134750400Y-87799280D01*
X135013649Y-87536490D01*
X135112068Y-87299472D01*
X135206883Y-87528943D01*
X135469673Y-87792192D01*
X135813201Y-87934838D01*
X136185167Y-87935162D01*
X136528943Y-87793117D01*
X136792192Y-87530327D01*
X136934838Y-87186799D01*
X136935162Y-86814833D01*
X136793117Y-86471057D01*
X136530327Y-86207808D01*
X136186799Y-86065162D01*
X135814833Y-86064838D01*
X135471057Y-86206883D01*
X135207808Y-86469673D01*
X135109389Y-86706691D01*
X135014574Y-86477220D01*
X134751784Y-86213971D01*
X134408256Y-86071325D01*
X134036290Y-86071001D01*
X133692514Y-86213046D01*
X133429265Y-86475836D01*
X133286619Y-86819364D01*
X133286295Y-87191330D01*
X123932956Y-87191330D01*
X123934838Y-87186799D01*
X123935162Y-86814833D01*
X123804931Y-86499649D01*
X123934838Y-86186799D01*
X123935162Y-85814833D01*
X123793117Y-85471057D01*
X123530327Y-85207808D01*
X123186799Y-85065162D01*
X122814833Y-85064838D01*
X122471057Y-85206883D01*
X122207808Y-85469673D01*
X122065162Y-85813201D01*
X122064838Y-86185167D01*
X114672586Y-86185167D01*
X114467243Y-85688200D01*
X114063923Y-85284176D01*
X113536691Y-85065250D01*
X112965813Y-85064752D01*
X112438200Y-85282757D01*
X112034176Y-85686077D01*
X112006577Y-85752544D01*
X112003864Y-85745995D01*
X111757745Y-85671861D01*
X110929605Y-86500000D01*
X110570395Y-86500000D01*
X109742255Y-85671861D01*
X109496136Y-85745995D01*
X109303035Y-86283223D01*
X93210000Y-86283223D01*
X93210000Y-85492255D01*
X109921861Y-85492255D01*
X110750000Y-86320395D01*
X111578139Y-85492255D01*
X111504005Y-85246136D01*
X110966777Y-85053035D01*
X110396546Y-85080222D01*
X109995995Y-85246136D01*
X109921861Y-85492255D01*
X93210000Y-85492255D01*
X93210000Y-82534187D01*
X125314752Y-82534187D01*
X125532757Y-83061800D01*
X125936077Y-83465824D01*
X126463309Y-83684750D01*
X127034187Y-83685248D01*
X127561800Y-83467243D01*
X127771663Y-83257745D01*
X128421861Y-83257745D01*
X128495995Y-83503864D01*
X129033223Y-83696965D01*
X129603454Y-83669778D01*
X130004005Y-83503864D01*
X130078139Y-83257745D01*
X129250000Y-82429605D01*
X128421861Y-83257745D01*
X127771663Y-83257745D01*
X127965824Y-83063923D01*
X127993423Y-82997456D01*
X127996136Y-83004005D01*
X128242255Y-83078139D01*
X129070395Y-82250000D01*
X129429605Y-82250000D01*
X130257745Y-83078139D01*
X130503864Y-83004005D01*
X130592379Y-82757745D01*
X188421861Y-82757745D01*
X188495995Y-83003864D01*
X189033223Y-83196965D01*
X189603454Y-83169778D01*
X190004005Y-83003864D01*
X190078139Y-82757745D01*
X189250000Y-81929605D01*
X188421861Y-82757745D01*
X130592379Y-82757745D01*
X130696965Y-82466777D01*
X130669778Y-81896546D01*
X130503864Y-81495995D01*
X130257745Y-81421861D01*
X129429605Y-82250000D01*
X129070395Y-82250000D01*
X128242255Y-81421861D01*
X127996136Y-81495995D01*
X127993804Y-81502483D01*
X127967243Y-81438200D01*
X127771640Y-81242255D01*
X128421861Y-81242255D01*
X129250000Y-82070395D01*
X130036207Y-81284187D01*
X140314752Y-81284187D01*
X140532757Y-81811800D01*
X140936077Y-82215824D01*
X141463309Y-82434750D01*
X142034187Y-82435248D01*
X142561800Y-82217243D01*
X142771663Y-82007745D01*
X143421861Y-82007745D01*
X143495995Y-82253864D01*
X144033223Y-82446965D01*
X144603454Y-82419778D01*
X145004005Y-82253864D01*
X145078139Y-82007745D01*
X144250000Y-81179605D01*
X143421861Y-82007745D01*
X142771663Y-82007745D01*
X142965824Y-81813923D01*
X142993423Y-81747456D01*
X142996136Y-81754005D01*
X143242255Y-81828139D01*
X144070395Y-81000000D01*
X144429605Y-81000000D01*
X145257745Y-81828139D01*
X145503864Y-81754005D01*
X145583221Y-81533223D01*
X187803035Y-81533223D01*
X187830222Y-82103454D01*
X187996136Y-82504005D01*
X188242255Y-82578139D01*
X189070395Y-81750000D01*
X189429605Y-81750000D01*
X190257745Y-82578139D01*
X190503864Y-82504005D01*
X190696965Y-81966777D01*
X190669778Y-81396546D01*
X190503864Y-80995995D01*
X190257745Y-80921861D01*
X189429605Y-81750000D01*
X189070395Y-81750000D01*
X188242255Y-80921861D01*
X187996136Y-80995995D01*
X187803035Y-81533223D01*
X145583221Y-81533223D01*
X145696965Y-81216777D01*
X145669778Y-80646546D01*
X145503864Y-80245995D01*
X145257745Y-80171861D01*
X144429605Y-81000000D01*
X144070395Y-81000000D01*
X143242255Y-80171861D01*
X142996136Y-80245995D01*
X142993804Y-80252483D01*
X142967243Y-80188200D01*
X142771640Y-79992255D01*
X143421861Y-79992255D01*
X144250000Y-80820395D01*
X145078139Y-79992255D01*
X145004005Y-79746136D01*
X144466777Y-79553035D01*
X143896546Y-79580222D01*
X143495995Y-79746136D01*
X143421861Y-79992255D01*
X142771640Y-79992255D01*
X142563923Y-79784176D01*
X142036691Y-79565250D01*
X141465813Y-79564752D01*
X140938200Y-79782757D01*
X140534176Y-80186077D01*
X140315250Y-80713309D01*
X140314752Y-81284187D01*
X130036207Y-81284187D01*
X130078139Y-81242255D01*
X130004005Y-80996136D01*
X129466777Y-80803035D01*
X128896546Y-80830222D01*
X128495995Y-80996136D01*
X128421861Y-81242255D01*
X127771640Y-81242255D01*
X127563923Y-81034176D01*
X127036691Y-80815250D01*
X126465813Y-80814752D01*
X125938200Y-81032757D01*
X125534176Y-81436077D01*
X125315250Y-81963309D01*
X125314752Y-82534187D01*
X93210000Y-82534187D01*
X93210000Y-81285750D01*
X109645000Y-81285750D01*
X109645000Y-81876310D01*
X109741673Y-82109699D01*
X109920302Y-82288327D01*
X110153691Y-82385000D01*
X110444250Y-82385000D01*
X110603000Y-82226250D01*
X110603000Y-81127000D01*
X109803750Y-81127000D01*
X109645000Y-81285750D01*
X93210000Y-81285750D01*
X93210000Y-80123690D01*
X109645000Y-80123690D01*
X109645000Y-80714250D01*
X109803750Y-80873000D01*
X110603000Y-80873000D01*
X110603000Y-79773750D01*
X110857000Y-79773750D01*
X110857000Y-80873000D01*
X110877000Y-80873000D01*
X110877000Y-81127000D01*
X110857000Y-81127000D01*
X110857000Y-82226250D01*
X111015750Y-82385000D01*
X111306309Y-82385000D01*
X111529454Y-82292570D01*
X111584788Y-82329543D01*
X112000000Y-82412134D01*
X112415212Y-82329543D01*
X112635000Y-82182685D01*
X112854788Y-82329543D01*
X113270000Y-82412134D01*
X113685212Y-82329543D01*
X114037211Y-82094345D01*
X114272409Y-81742346D01*
X114355000Y-81327134D01*
X114355000Y-81034187D01*
X116064752Y-81034187D01*
X116282757Y-81561800D01*
X116686077Y-81965824D01*
X117213309Y-82184750D01*
X117784187Y-82185248D01*
X118311800Y-81967243D01*
X118521663Y-81757745D01*
X119171861Y-81757745D01*
X119245995Y-82003864D01*
X119783223Y-82196965D01*
X120353454Y-82169778D01*
X120754005Y-82003864D01*
X120828139Y-81757745D01*
X120000000Y-80929605D01*
X119171861Y-81757745D01*
X118521663Y-81757745D01*
X118715824Y-81563923D01*
X118743423Y-81497456D01*
X118746136Y-81504005D01*
X118992255Y-81578139D01*
X119820395Y-80750000D01*
X120179605Y-80750000D01*
X121007745Y-81578139D01*
X121253864Y-81504005D01*
X121446965Y-80966777D01*
X121419778Y-80396546D01*
X121253864Y-79995995D01*
X121007745Y-79921861D01*
X120179605Y-80750000D01*
X119820395Y-80750000D01*
X118992255Y-79921861D01*
X118746136Y-79995995D01*
X118743804Y-80002483D01*
X118717243Y-79938200D01*
X118521640Y-79742255D01*
X119171861Y-79742255D01*
X120000000Y-80570395D01*
X120828139Y-79742255D01*
X120765467Y-79534187D01*
X187814752Y-79534187D01*
X188032757Y-80061800D01*
X188436077Y-80465824D01*
X188502544Y-80493423D01*
X188495995Y-80496136D01*
X188421861Y-80742255D01*
X189250000Y-81570395D01*
X190078139Y-80742255D01*
X190004005Y-80496136D01*
X189997517Y-80493804D01*
X190061800Y-80467243D01*
X190465824Y-80063923D01*
X190684750Y-79536691D01*
X190685248Y-78965813D01*
X190467243Y-78438200D01*
X190063923Y-78034176D01*
X189536691Y-77815250D01*
X188965813Y-77814752D01*
X188438200Y-78032757D01*
X188034176Y-78436077D01*
X187815250Y-78963309D01*
X187814752Y-79534187D01*
X120765467Y-79534187D01*
X120754005Y-79496136D01*
X120216777Y-79303035D01*
X119646546Y-79330222D01*
X119245995Y-79496136D01*
X119171861Y-79742255D01*
X118521640Y-79742255D01*
X118313923Y-79534176D01*
X117786691Y-79315250D01*
X117215813Y-79314752D01*
X116688200Y-79532757D01*
X116284176Y-79936077D01*
X116065250Y-80463309D01*
X116064752Y-81034187D01*
X114355000Y-81034187D01*
X114355000Y-80672866D01*
X114272409Y-80257654D01*
X114037211Y-79905655D01*
X113685212Y-79670457D01*
X113270000Y-79587866D01*
X112854788Y-79670457D01*
X112635000Y-79817315D01*
X112415212Y-79670457D01*
X112000000Y-79587866D01*
X111584788Y-79670457D01*
X111529454Y-79707430D01*
X111306309Y-79615000D01*
X111015750Y-79615000D01*
X110857000Y-79773750D01*
X110603000Y-79773750D01*
X110444250Y-79615000D01*
X110153691Y-79615000D01*
X109920302Y-79711673D01*
X109741673Y-79890301D01*
X109645000Y-80123690D01*
X93210000Y-80123690D01*
X93210000Y-77199288D01*
X178561094Y-77199288D01*
X178703139Y-77543064D01*
X178965929Y-77806313D01*
X179309457Y-77948959D01*
X179681423Y-77949283D01*
X180025199Y-77807238D01*
X180288448Y-77544448D01*
X180333675Y-77435528D01*
X185569548Y-77435528D01*
X185711593Y-77779304D01*
X185974383Y-78042553D01*
X186317911Y-78185199D01*
X186689877Y-78185523D01*
X187033653Y-78043478D01*
X187296902Y-77780688D01*
X187439548Y-77437160D01*
X187439872Y-77065194D01*
X187297827Y-76721418D01*
X187035037Y-76458169D01*
X186691509Y-76315523D01*
X186319543Y-76315199D01*
X185975767Y-76457244D01*
X185712518Y-76720034D01*
X185569872Y-77063562D01*
X185569548Y-77435528D01*
X180333675Y-77435528D01*
X180431094Y-77200920D01*
X180431418Y-76828954D01*
X180289373Y-76485178D01*
X180026583Y-76221929D01*
X179683055Y-76079283D01*
X179311089Y-76078959D01*
X178967313Y-76221004D01*
X178704064Y-76483794D01*
X178561418Y-76827322D01*
X178561094Y-77199288D01*
X93210000Y-77199288D01*
X93210000Y-72210000D01*
X191790000Y-72210000D01*
X191790000Y-118790000D01*
M02*
