G04 #@! TF.FileFunction,Copper,L1,Top,Signal*
%FSLAX46Y46*%
G04 Gerber Fmt 4.6, Leading zero omitted, Abs format (unit mm)*
G04 Created by KiCad (PCBNEW 4.0.7) date 12/03/18 22:41:55*
%MOMM*%
%LPD*%
G01*
G04 APERTURE LIST*
%ADD10C,0.100000*%
%ADD11R,0.269240X1.391920*%
%ADD12R,0.271780X1.391920*%
%ADD13R,1.780000X14.000000*%
%ADD14C,1.510000*%
%ADD15O,0.900000X1.500000*%
%ADD16R,0.900000X1.500000*%
%ADD17R,1.500000X0.300000*%
%ADD18R,0.300000X1.500000*%
%ADD19C,1.400000*%
%ADD20C,1.600000*%
%ADD21O,1.600000X1.600000*%
%ADD22C,0.600000*%
%ADD23C,0.250000*%
%ADD24C,0.400000*%
G04 APERTURE END LIST*
D10*
D11*
X173004080Y-79000000D03*
X173004080Y-98486880D03*
X173504460Y-79000000D03*
X173504460Y-98486880D03*
X174004840Y-79000000D03*
X174004840Y-98486880D03*
D12*
X174505220Y-79000000D03*
X174505220Y-98486880D03*
X175005600Y-79000000D03*
X175005600Y-98486880D03*
D11*
X175503440Y-79000000D03*
X175503440Y-98486880D03*
X176003820Y-79000000D03*
X176003820Y-98486880D03*
X176504200Y-79000000D03*
X176504200Y-98486880D03*
X177004580Y-79000000D03*
X177004580Y-98486880D03*
X177504960Y-79000000D03*
X177504960Y-98486880D03*
D12*
X178005340Y-79000000D03*
X178005340Y-98486880D03*
X178505720Y-79000000D03*
X178505720Y-98486880D03*
D11*
X179003560Y-79000000D03*
X179003560Y-98486880D03*
X179503940Y-79000000D03*
X179503940Y-98486880D03*
X180001780Y-79000000D03*
X180001780Y-98486880D03*
X180502160Y-79000000D03*
X180502160Y-98486880D03*
D12*
X181000000Y-79000000D03*
X181000000Y-98486880D03*
X181500380Y-79000000D03*
X181500380Y-98486880D03*
D11*
X182000760Y-79000000D03*
X182000760Y-98486880D03*
X182501140Y-79000000D03*
X182501140Y-98486880D03*
X183001520Y-79000000D03*
X183001520Y-98486880D03*
X183501900Y-79000000D03*
X183501900Y-98486880D03*
X184002280Y-79000000D03*
X184002280Y-98486880D03*
D12*
X184500120Y-79000000D03*
X184500120Y-98486880D03*
X185000500Y-79000000D03*
X185000500Y-98486880D03*
D11*
X185500880Y-79000000D03*
X185500880Y-98486880D03*
X186001260Y-79000000D03*
X186001260Y-98486880D03*
X186501640Y-79000000D03*
X186501640Y-98486880D03*
D13*
X164180000Y-128000000D03*
X161640000Y-128000000D03*
X159100000Y-128000000D03*
X156560000Y-128000000D03*
X154020000Y-128000000D03*
X151480000Y-128000000D03*
X148940000Y-128000000D03*
X146400000Y-128000000D03*
X143860000Y-128000000D03*
X141320000Y-128000000D03*
X138780000Y-128000000D03*
X136240000Y-128000000D03*
X133700000Y-128000000D03*
X131160000Y-128000000D03*
X128620000Y-128000000D03*
X126080000Y-128000000D03*
X123540000Y-128000000D03*
X121000000Y-128000000D03*
D10*
G36*
X132938228Y-99190163D02*
X130809837Y-97061772D01*
X131877568Y-95994041D01*
X134005959Y-98122432D01*
X132938228Y-99190163D01*
X132938228Y-99190163D01*
G37*
D14*
X133673619Y-95265721D02*
X134734279Y-96326381D01*
X135469670Y-93469670D02*
X136530330Y-94530330D01*
X137265722Y-91673618D02*
X138326382Y-92734278D01*
X139061773Y-89877567D02*
X140122433Y-90938227D01*
X140857824Y-88081516D02*
X141918484Y-89142176D01*
D15*
X112000000Y-81000000D03*
X113270000Y-81000000D03*
D16*
X110730000Y-81000000D03*
D17*
X129300000Y-87000000D03*
X129300000Y-87500000D03*
X129300000Y-88000000D03*
X129300000Y-88500000D03*
X129300000Y-89000000D03*
X129300000Y-89500000D03*
X129300000Y-90000000D03*
X129300000Y-90500000D03*
X129300000Y-91000000D03*
X129300000Y-91500000D03*
X129300000Y-92000000D03*
X129300000Y-92500000D03*
X129300000Y-93000000D03*
X129300000Y-93500000D03*
X129300000Y-94000000D03*
X129300000Y-94500000D03*
X129300000Y-95000000D03*
X129300000Y-95500000D03*
X129300000Y-96000000D03*
X129300000Y-96500000D03*
X129300000Y-97000000D03*
X129300000Y-97500000D03*
X129300000Y-98000000D03*
X129300000Y-98500000D03*
X129300000Y-99000000D03*
D18*
X131000000Y-100700000D03*
X131500000Y-100700000D03*
X132000000Y-100700000D03*
X132500000Y-100700000D03*
X133000000Y-100700000D03*
X133500000Y-100700000D03*
X134000000Y-100700000D03*
X134500000Y-100700000D03*
X135000000Y-100700000D03*
X135500000Y-100700000D03*
X136000000Y-100700000D03*
X136500000Y-100700000D03*
X137000000Y-100700000D03*
X137500000Y-100700000D03*
X138000000Y-100700000D03*
X138500000Y-100700000D03*
X139000000Y-100700000D03*
X139500000Y-100700000D03*
X140000000Y-100700000D03*
X140500000Y-100700000D03*
X141000000Y-100700000D03*
X141500000Y-100700000D03*
X142000000Y-100700000D03*
X142500000Y-100700000D03*
X143000000Y-100700000D03*
D17*
X144700000Y-99000000D03*
X144700000Y-98500000D03*
X144700000Y-98000000D03*
X144700000Y-97500000D03*
X144700000Y-97000000D03*
X144700000Y-96500000D03*
X144700000Y-96000000D03*
X144700000Y-95500000D03*
X144700000Y-95000000D03*
X144700000Y-94500000D03*
X144700000Y-94000000D03*
X144700000Y-93500000D03*
X144700000Y-93000000D03*
X144700000Y-92500000D03*
X144700000Y-92000000D03*
X144700000Y-91500000D03*
X144700000Y-91000000D03*
X144700000Y-90500000D03*
X144700000Y-90000000D03*
X144700000Y-89500000D03*
X144700000Y-89000000D03*
X144700000Y-88500000D03*
X144700000Y-88000000D03*
X144700000Y-87500000D03*
X144700000Y-87000000D03*
D18*
X143000000Y-85300000D03*
X142500000Y-85300000D03*
X142000000Y-85300000D03*
X141500000Y-85300000D03*
X141000000Y-85300000D03*
X140500000Y-85300000D03*
X140000000Y-85300000D03*
X139500000Y-85300000D03*
X139000000Y-85300000D03*
X138500000Y-85300000D03*
X138000000Y-85300000D03*
X137500000Y-85300000D03*
X137000000Y-85300000D03*
X136500000Y-85300000D03*
X136000000Y-85300000D03*
X135500000Y-85300000D03*
X135000000Y-85300000D03*
X134500000Y-85300000D03*
X134000000Y-85300000D03*
X133500000Y-85300000D03*
X133000000Y-85300000D03*
X132500000Y-85300000D03*
X132000000Y-85300000D03*
X131500000Y-85300000D03*
X131000000Y-85300000D03*
D19*
X165500000Y-114000000D03*
X167750000Y-114000000D03*
X170000000Y-114000000D03*
X172250000Y-114000000D03*
X163250000Y-114000000D03*
D20*
X189250000Y-98250000D03*
X189250000Y-95750000D03*
X189250000Y-79250000D03*
X189250000Y-81750000D03*
X121500000Y-104000000D03*
X119000000Y-104000000D03*
X122500000Y-114620000D03*
D21*
X122500000Y-107000000D03*
D20*
X113250000Y-86500000D03*
X110750000Y-86500000D03*
X117500000Y-80750000D03*
X120000000Y-80750000D03*
X126750000Y-82250000D03*
X129250000Y-82250000D03*
X141750000Y-81000000D03*
X144250000Y-81000000D03*
X148000000Y-86250000D03*
X150500000Y-86250000D03*
X150500000Y-98750000D03*
X153000000Y-98750000D03*
X150000000Y-105500000D03*
X152500000Y-105500000D03*
X140500000Y-105250000D03*
X143000000Y-105250000D03*
X127482233Y-101232233D03*
X129250000Y-103000000D03*
X123250000Y-94250000D03*
X123250000Y-91750000D03*
X164750000Y-86500000D03*
X167250000Y-86500000D03*
X150500000Y-92750000D03*
X153000000Y-92750000D03*
D22*
X136048187Y-98617047D03*
X128867323Y-100544016D03*
X137874990Y-102289841D03*
X131818934Y-93739173D03*
X178365644Y-96911871D03*
X140542554Y-98335716D03*
X145163471Y-86059885D03*
X134221457Y-87006163D03*
X136000000Y-87000000D03*
X139000000Y-87000000D03*
X146647113Y-93365248D03*
X186504710Y-77250361D03*
X179496256Y-77014121D03*
X134669627Y-98661472D03*
X147477277Y-89974786D03*
X129965568Y-101488506D03*
X183233692Y-75758482D03*
X185818194Y-75806343D03*
X141730825Y-98031133D03*
X131154388Y-94723500D03*
X126977540Y-89377295D03*
X144674017Y-84961333D03*
X139975553Y-83778773D03*
X164248305Y-119141288D03*
X133000000Y-87000000D03*
X147000000Y-96000000D03*
X146000000Y-99000000D03*
X129000000Y-86000000D03*
X118000000Y-118000000D03*
X180506838Y-97044952D03*
X184496669Y-77289734D03*
X175000000Y-77000000D03*
X127966763Y-93462315D03*
X127263886Y-92693544D03*
X126517080Y-91617265D03*
X125572590Y-91199932D03*
X126346650Y-90344519D03*
X123000000Y-88000000D03*
X123000000Y-87000000D03*
X123000000Y-86000000D03*
X117687194Y-88849688D03*
X138246332Y-118165789D03*
X140396325Y-101993799D03*
X137215812Y-104363006D03*
X131250000Y-118500000D03*
X179250000Y-100000000D03*
X142614179Y-98901302D03*
D23*
X134500000Y-100700000D02*
X134500000Y-99714998D01*
X134500000Y-99714998D02*
X135597951Y-98617047D01*
X135597951Y-98617047D02*
X135623923Y-98617047D01*
X135623923Y-98617047D02*
X136048187Y-98617047D01*
X129167322Y-100244017D02*
X128867323Y-100544016D01*
X129300000Y-100111339D02*
X129167322Y-100244017D01*
X129300000Y-99000000D02*
X129300000Y-100111339D01*
X138000000Y-102164831D02*
X137874990Y-102289841D01*
X138000000Y-100700000D02*
X138000000Y-102164831D01*
X131518935Y-93439174D02*
X131818934Y-93739173D01*
X131079761Y-93000000D02*
X131518935Y-93439174D01*
X129300000Y-93000000D02*
X131079761Y-93000000D01*
X178374511Y-96911871D02*
X178365644Y-96911871D01*
X179003560Y-98486880D02*
X179003560Y-97540920D01*
X179003560Y-97540920D02*
X178374511Y-96911871D01*
X140500000Y-100700000D02*
X140500000Y-98378270D01*
X140500000Y-98378270D02*
X140542554Y-98335716D01*
X144863472Y-86359884D02*
X145163471Y-86059885D01*
X144700000Y-87000000D02*
X144700000Y-86523356D01*
X144700000Y-86523356D02*
X144863472Y-86359884D01*
X134206163Y-87006163D02*
X134221457Y-87006163D01*
X133500000Y-86300000D02*
X134206163Y-87006163D01*
X133500000Y-85300000D02*
X133500000Y-86300000D01*
X136000000Y-85300000D02*
X136000000Y-87000000D01*
X139500000Y-85300000D02*
X139500000Y-86500000D01*
X139500000Y-86500000D02*
X139000000Y-87000000D01*
X144700000Y-93000000D02*
X146281865Y-93000000D01*
X146281865Y-93000000D02*
X146647113Y-93365248D01*
X186501640Y-77253431D02*
X186504710Y-77250361D01*
X186501640Y-79000000D02*
X186501640Y-77253431D01*
X179503940Y-77021805D02*
X179496256Y-77014121D01*
X179503940Y-79000000D02*
X179503940Y-77021805D01*
D24*
X113273981Y-81259571D02*
X113270000Y-81263552D01*
X141388154Y-88611846D02*
X141388154Y-89357394D01*
X141388154Y-88611846D02*
X140863808Y-88611846D01*
X141388154Y-88611846D02*
X140826941Y-88611846D01*
D23*
X134369628Y-98961471D02*
X134669627Y-98661472D01*
X134000000Y-99331099D02*
X134369628Y-98961471D01*
X134000000Y-100700000D02*
X134000000Y-99331099D01*
X144700000Y-90500000D02*
X146952063Y-90500000D01*
X147177278Y-90274785D02*
X147477277Y-89974786D01*
X146952063Y-90500000D02*
X147177278Y-90274785D01*
X129965568Y-101334432D02*
X129965568Y-101488506D01*
X130600000Y-100700000D02*
X129965568Y-101334432D01*
X131000000Y-100700000D02*
X130600000Y-100700000D01*
X184002280Y-79000000D02*
X183961521Y-78959241D01*
X183961521Y-78959241D02*
X183961521Y-78044039D01*
X183961521Y-78044039D02*
X183688373Y-77770891D01*
X183688373Y-77770891D02*
X183688373Y-76213163D01*
X183688373Y-76213163D02*
X183533691Y-76058481D01*
X183533691Y-76058481D02*
X183233692Y-75758482D01*
X185000500Y-79000000D02*
X185041259Y-78959241D01*
X185041259Y-78959241D02*
X185041259Y-78044039D01*
X185041259Y-78044039D02*
X185283744Y-77801554D01*
X185283744Y-77801554D02*
X185283744Y-76308885D01*
X185786286Y-75806343D02*
X185818194Y-75806343D01*
X185283744Y-76308885D02*
X185786286Y-75806343D01*
X174500000Y-77000000D02*
X174505220Y-77005220D01*
X174505220Y-77005220D02*
X174505220Y-79000000D01*
X175000000Y-77000000D02*
X174500000Y-77000000D01*
X141430826Y-98331132D02*
X141730825Y-98031133D01*
X141000000Y-98761958D02*
X141430826Y-98331132D01*
X141000000Y-100700000D02*
X141000000Y-98761958D01*
X130854389Y-95023499D02*
X131154388Y-94723500D01*
X130377888Y-95500000D02*
X130854389Y-95023499D01*
X129300000Y-95500000D02*
X130377888Y-95500000D01*
X127277539Y-89677294D02*
X126977540Y-89377295D01*
X129300000Y-90000000D02*
X127600245Y-90000000D01*
X127600245Y-90000000D02*
X127277539Y-89677294D01*
X144335350Y-85300000D02*
X144374018Y-85261332D01*
X144374018Y-85261332D02*
X144674017Y-84961333D01*
X143000000Y-85300000D02*
X144335350Y-85300000D01*
X140000000Y-83803220D02*
X139975553Y-83778773D01*
X140000000Y-85300000D02*
X140000000Y-83803220D01*
D24*
X164248305Y-119141288D02*
X164248305Y-127931695D01*
D23*
X164248305Y-127931695D02*
X164180000Y-128000000D01*
X133000000Y-85300000D02*
X133000000Y-87000000D01*
X144700000Y-96000000D02*
X147000000Y-96000000D01*
X144700000Y-99000000D02*
X146000000Y-99000000D01*
X129300000Y-87000000D02*
X129300000Y-86300000D01*
X129300000Y-86300000D02*
X129000000Y-86000000D01*
X180502160Y-97049630D02*
X180506838Y-97044952D01*
X180502160Y-98486880D02*
X180502160Y-97049630D01*
X184500120Y-77293185D02*
X184496669Y-77289734D01*
X184500120Y-79000000D02*
X184500120Y-77293185D01*
X175005600Y-79000000D02*
X175005600Y-77005600D01*
X175005600Y-77005600D02*
X175000000Y-77000000D01*
X128490491Y-94500000D02*
X128453164Y-94537327D01*
X121500000Y-102868630D02*
X121500000Y-104000000D01*
X121500000Y-100973726D02*
X121500000Y-102868630D01*
X128453164Y-94537327D02*
X127936399Y-94537327D01*
X127936399Y-94537327D02*
X121500000Y-100973726D01*
X129300000Y-94500000D02*
X128490491Y-94500000D01*
X122500000Y-107000000D02*
X122500000Y-105000000D01*
X122500000Y-105000000D02*
X121500000Y-104000000D01*
X128004448Y-93500000D02*
X127966763Y-93462315D01*
X129300000Y-93500000D02*
X128004448Y-93500000D01*
X127957430Y-92000000D02*
X127563885Y-92393545D01*
X129300000Y-92000000D02*
X127957430Y-92000000D01*
X127563885Y-92393545D02*
X127263886Y-92693544D01*
X129300000Y-91500000D02*
X126634345Y-91500000D01*
X126634345Y-91500000D02*
X126517080Y-91617265D01*
X125996854Y-91199932D02*
X125572590Y-91199932D01*
X128280283Y-90980283D02*
X126216503Y-90980283D01*
X129300000Y-91000000D02*
X128300000Y-91000000D01*
X126216503Y-90980283D02*
X125996854Y-91199932D01*
X128300000Y-91000000D02*
X128280283Y-90980283D01*
X129300000Y-90500000D02*
X126502131Y-90500000D01*
X126502131Y-90500000D02*
X126346650Y-90344519D01*
X126492619Y-88000000D02*
X127992619Y-89500000D01*
X123000000Y-88000000D02*
X126492619Y-88000000D01*
X127992619Y-89500000D02*
X128300000Y-89500000D01*
X128300000Y-89500000D02*
X129300000Y-89500000D01*
X128300000Y-89000000D02*
X129300000Y-89000000D01*
X123000000Y-87000000D02*
X126129030Y-87000000D01*
X128129030Y-89000000D02*
X128300000Y-89000000D01*
X126129030Y-87000000D02*
X128129030Y-89000000D01*
X125765441Y-86000000D02*
X128265441Y-88500000D01*
X128300000Y-88500000D02*
X129300000Y-88500000D01*
X128265441Y-88500000D02*
X128300000Y-88500000D01*
X123000000Y-86000000D02*
X125765441Y-86000000D01*
X117987193Y-88549689D02*
X117687194Y-88849688D01*
X121359499Y-85177383D02*
X117987193Y-88549689D01*
X128401851Y-88000000D02*
X125579234Y-85177383D01*
X129300000Y-88000000D02*
X128401851Y-88000000D01*
X125579234Y-85177383D02*
X121359499Y-85177383D01*
X156560000Y-120750000D02*
X156560000Y-128000000D01*
X138288588Y-107674999D02*
X143484999Y-107674999D01*
X135000000Y-100700000D02*
X135000000Y-104386411D01*
X143484999Y-107674999D02*
X156560000Y-120750000D01*
X135000000Y-104386411D02*
X138288588Y-107674999D01*
X143154071Y-115825003D02*
X149395046Y-115825003D01*
X149395046Y-115825003D02*
X154020000Y-120449957D01*
X133500000Y-100700000D02*
X133500000Y-106170932D01*
X133500000Y-106170932D02*
X143154071Y-115825003D01*
X154020000Y-120449957D02*
X154020000Y-120750000D01*
X154020000Y-120750000D02*
X154020000Y-128000000D01*
X151480000Y-121890000D02*
X151480000Y-128000000D01*
X133000000Y-106307343D02*
X142967671Y-116275014D01*
X145865014Y-116275014D02*
X151480000Y-121890000D01*
X142967671Y-116275014D02*
X145865014Y-116275014D01*
X133000000Y-100700000D02*
X133000000Y-106307343D01*
X142781271Y-116725025D02*
X143775025Y-116725025D01*
X132500000Y-106443754D02*
X142781271Y-116725025D01*
X132500000Y-100700000D02*
X132500000Y-106443754D01*
X148940000Y-121890000D02*
X148940000Y-128000000D01*
X143775025Y-116725025D02*
X148940000Y-121890000D01*
X145260000Y-120750000D02*
X146400000Y-121890000D01*
X132000000Y-106580162D02*
X145260000Y-119840162D01*
X145260000Y-119840162D02*
X145260000Y-120750000D01*
X146400000Y-121890000D02*
X146400000Y-128000000D01*
X132000000Y-100700000D02*
X132000000Y-106580162D01*
X131500000Y-100700000D02*
X131500000Y-106753570D01*
X131500000Y-106753570D02*
X143860000Y-119113570D01*
X143860000Y-119113570D02*
X143860000Y-120750000D01*
X143860000Y-120750000D02*
X143860000Y-128000000D01*
X141320000Y-120750000D02*
X141320000Y-128000000D01*
X141320000Y-117628902D02*
X141320000Y-120750000D01*
X128314998Y-98000000D02*
X125817723Y-100497275D01*
X129300000Y-98000000D02*
X128314998Y-98000000D01*
X125817723Y-102126625D02*
X141320000Y-117628902D01*
X125817723Y-100497275D02*
X125817723Y-102126625D01*
X138780000Y-119901653D02*
X138780000Y-128000000D01*
X126199526Y-107321179D02*
X138780000Y-119901653D01*
X125367712Y-102313025D02*
X126199526Y-103144839D01*
X128178588Y-97500000D02*
X125367712Y-100310876D01*
X129300000Y-97500000D02*
X128178588Y-97500000D01*
X126199526Y-103144839D02*
X126199526Y-107321179D01*
X125367712Y-100310876D02*
X125367712Y-102313025D01*
X129300000Y-97000000D02*
X128042178Y-97000000D01*
X128042178Y-97000000D02*
X124917701Y-100124477D01*
X124917701Y-100124477D02*
X124917701Y-102499425D01*
X124917701Y-102499425D02*
X125749515Y-103331239D01*
X125749515Y-103331239D02*
X125749515Y-107584654D01*
X125749515Y-107584654D02*
X136240000Y-118075139D01*
X136240000Y-118075139D02*
X136240000Y-120750000D01*
X136240000Y-120750000D02*
X136240000Y-128000000D01*
X128300000Y-96500000D02*
X129300000Y-96500000D01*
X127882958Y-96500000D02*
X128300000Y-96500000D01*
X124451842Y-102669977D02*
X124451842Y-99931115D01*
X125299504Y-107848129D02*
X125299504Y-103517639D01*
X133700000Y-116248625D02*
X125299504Y-107848129D01*
X133700000Y-128000000D02*
X133700000Y-116248625D01*
X125299504Y-103517639D02*
X124451842Y-102669977D01*
X124451842Y-99931115D02*
X127882958Y-96500000D01*
X128300000Y-96000000D02*
X129300000Y-96000000D01*
X127746548Y-96000000D02*
X128300000Y-96000000D01*
X131160000Y-120750000D02*
X124849493Y-114439493D01*
X124001831Y-99744716D02*
X127746548Y-96000000D01*
X124849493Y-114439493D02*
X124849493Y-103704039D01*
X131160000Y-128000000D02*
X131160000Y-120750000D01*
X124001831Y-102856377D02*
X124001831Y-99744716D01*
X124849493Y-103704039D02*
X124001831Y-102856377D01*
X123551820Y-99558318D02*
X128110137Y-95000000D01*
X128300000Y-95000000D02*
X129300000Y-95000000D01*
X124399482Y-114740122D02*
X124399482Y-103890439D01*
X123551820Y-103042777D02*
X123551820Y-99558318D01*
X128620000Y-118960640D02*
X124399482Y-114740122D01*
X128620000Y-128000000D02*
X128620000Y-118960640D01*
X128110137Y-95000000D02*
X128300000Y-95000000D01*
X124399482Y-103890439D02*
X123551820Y-103042777D01*
X122500000Y-114620000D02*
X122500000Y-116848825D01*
X122500000Y-116848825D02*
X126080000Y-120428825D01*
X126080000Y-120428825D02*
X126080000Y-128000000D01*
X123540000Y-128000000D02*
X123540000Y-120565756D01*
X123041668Y-98795648D02*
X127750000Y-94087316D01*
X123540000Y-120565756D02*
X116476654Y-113502410D01*
X116476654Y-113502410D02*
X116476654Y-100818994D01*
X116476654Y-100818994D02*
X118500000Y-98795648D01*
X118500000Y-98795648D02*
X123041668Y-98795648D01*
X127750000Y-94087316D02*
X128212684Y-94087316D01*
X128212684Y-94087316D02*
X128300000Y-94000000D01*
X128300000Y-94000000D02*
X129300000Y-94000000D01*
X134203949Y-95796051D02*
X134203949Y-93208023D01*
X134203949Y-93208023D02*
X135411972Y-92000000D01*
X135411972Y-92000000D02*
X135821481Y-92000000D01*
X135821481Y-92000000D02*
X137783244Y-93961763D01*
X137783244Y-93961763D02*
X138857954Y-93961763D01*
X143624999Y-89194718D02*
X143624999Y-87575001D01*
X138857954Y-93961763D02*
X143624999Y-89194718D01*
X143624999Y-87575001D02*
X143700000Y-87500000D01*
X143700000Y-87500000D02*
X144700000Y-87500000D01*
X136000000Y-94000000D02*
X137104199Y-95104199D01*
X137104199Y-95104199D02*
X138271362Y-95104199D01*
X138271362Y-95104199D02*
X140062045Y-96894882D01*
X140062045Y-96894882D02*
X142094882Y-96894882D01*
X142094882Y-96894882D02*
X143700000Y-98500000D01*
X143700000Y-98500000D02*
X144700000Y-98500000D01*
X130300000Y-98500000D02*
X129300000Y-98500000D01*
X131572557Y-95441976D02*
X130375001Y-96639532D01*
X130375001Y-98424999D02*
X130300000Y-98500000D01*
X135706519Y-91069042D02*
X131572557Y-95203004D01*
X136661146Y-91069042D02*
X135706519Y-91069042D01*
X137796052Y-92203948D02*
X136661146Y-91069042D01*
X130375001Y-96639532D02*
X130375001Y-98424999D01*
X131572557Y-95203004D02*
X131572557Y-95441976D01*
X132574996Y-87500000D02*
X129300000Y-87500000D01*
X135482893Y-90407897D02*
X132574996Y-87500000D01*
X139592103Y-90407897D02*
X135482893Y-90407897D01*
X155084726Y-103584726D02*
X165500000Y-114000000D01*
X139518831Y-103518831D02*
X141788185Y-103518831D01*
X141844399Y-103575045D02*
X144155601Y-103575045D01*
X138500000Y-100700000D02*
X138500000Y-102500000D01*
X141788185Y-103518831D02*
X141844399Y-103575045D01*
X138500000Y-102500000D02*
X139518831Y-103518831D01*
X144155601Y-103575045D02*
X144211815Y-103518831D01*
X144211815Y-103518831D02*
X155018831Y-103518831D01*
X155018831Y-103518831D02*
X155084726Y-103584726D01*
X141974585Y-103068820D02*
X142030799Y-103125034D01*
X139818820Y-103068820D02*
X141974585Y-103068820D01*
X143969201Y-103125034D02*
X144025415Y-103068820D01*
X139000000Y-102250000D02*
X139818820Y-103068820D01*
X167050001Y-113300001D02*
X167750000Y-114000000D01*
X156818820Y-103068820D02*
X167050001Y-113300001D01*
X142030799Y-103125034D02*
X143969201Y-103125034D01*
X139000000Y-100700000D02*
X139000000Y-102250000D01*
X144025415Y-103068820D02*
X156818820Y-103068820D01*
X139500000Y-102000000D02*
X140118809Y-102618809D01*
X158618809Y-102618809D02*
X169300001Y-113300001D01*
X142217199Y-102675023D02*
X143782801Y-102675023D01*
X143839015Y-102618809D02*
X158618809Y-102618809D01*
X143782801Y-102675023D02*
X143839015Y-102618809D01*
X142160985Y-102618809D02*
X142217199Y-102675023D01*
X139500000Y-100700000D02*
X139500000Y-102000000D01*
X140118809Y-102618809D02*
X142160985Y-102618809D01*
X169300001Y-113300001D02*
X170000000Y-114000000D01*
X142403599Y-102225012D02*
X143596401Y-102225012D01*
X143652615Y-102168798D02*
X160418798Y-102168798D01*
X142000000Y-100700000D02*
X142000000Y-101821413D01*
X143596401Y-102225012D02*
X143652615Y-102168798D01*
X171550001Y-113300001D02*
X172250000Y-114000000D01*
X142000000Y-101821413D02*
X142403599Y-102225012D01*
X160418798Y-102168798D02*
X171550001Y-113300001D01*
X135500000Y-100700000D02*
X135500000Y-104250000D01*
X135500000Y-104250000D02*
X138474988Y-107224988D01*
X143974988Y-107224988D02*
X150750000Y-114000000D01*
X138474988Y-107224988D02*
X143974988Y-107224988D01*
X150750000Y-114000000D02*
X163250000Y-114000000D01*
X131000000Y-82315487D02*
X138821006Y-74494481D01*
X172619460Y-79000000D02*
X173004080Y-79000000D01*
X138821006Y-74494481D02*
X168113941Y-74494481D01*
X131000000Y-85300000D02*
X131000000Y-82315487D01*
X168113941Y-74494481D02*
X172619460Y-79000000D01*
X140599979Y-83805787D02*
X140599982Y-83805783D01*
X141530800Y-82874966D02*
X143969201Y-82874966D01*
X140599982Y-83805783D02*
X141530800Y-82874966D01*
X172619460Y-98486880D02*
X173004080Y-98486880D01*
X157118879Y-82986299D02*
X172619460Y-98486880D01*
X144080534Y-82986299D02*
X157118879Y-82986299D01*
X140500000Y-84178587D02*
X140599979Y-84078608D01*
X140500000Y-85300000D02*
X140500000Y-84178587D01*
X140599979Y-84078608D02*
X140599979Y-83805787D01*
X143969201Y-82874966D02*
X144080534Y-82986299D01*
X173398702Y-80020961D02*
X173504460Y-79915203D01*
X131500000Y-85300000D02*
X131500000Y-82451898D01*
X131500000Y-82451898D02*
X139007406Y-74944492D01*
X167645926Y-74944492D02*
X172722395Y-80020961D01*
X173504460Y-79915203D02*
X173504460Y-79000000D01*
X139007406Y-74944492D02*
X167645926Y-74944492D01*
X172722395Y-80020961D02*
X173398702Y-80020961D01*
X156537928Y-83436310D02*
X172609459Y-99507841D01*
X172609459Y-99507841D02*
X173319410Y-99507841D01*
X141049991Y-83992185D02*
X141717200Y-83324977D01*
X173504460Y-99322791D02*
X173504460Y-98486880D01*
X141717200Y-83324977D02*
X143782801Y-83324977D01*
X173319410Y-99507841D02*
X173504460Y-99322791D01*
X143782801Y-83324977D02*
X143894134Y-83436310D01*
X141000000Y-85300000D02*
X141000000Y-84300000D01*
X141000000Y-84300000D02*
X141049991Y-84250009D01*
X141049991Y-84250009D02*
X141049991Y-83992185D01*
X143894134Y-83436310D02*
X156537928Y-83436310D01*
X132000000Y-82588309D02*
X139193806Y-75394503D01*
X174004840Y-79945960D02*
X174004840Y-79000000D01*
X174004840Y-80051233D02*
X174004840Y-79945960D01*
X172423059Y-80470972D02*
X173585101Y-80470972D01*
X139193806Y-75394503D02*
X167346590Y-75394503D01*
X173585101Y-80470972D02*
X174004840Y-80051233D01*
X167346590Y-75394503D02*
X172423059Y-80470972D01*
X132000000Y-85300000D02*
X132000000Y-82588309D01*
X173585101Y-99957852D02*
X174004840Y-99538113D01*
X141903600Y-83774988D02*
X143596401Y-83774988D01*
X172423059Y-99957852D02*
X173585101Y-99957852D01*
X143707734Y-83886321D02*
X156351528Y-83886321D01*
X141500001Y-84178586D02*
X141903600Y-83774988D01*
X141500000Y-85300000D02*
X141500001Y-84178586D01*
X143596401Y-83774988D02*
X143707734Y-83886321D01*
X174004840Y-99538113D02*
X174004840Y-99432840D01*
X174004840Y-99432840D02*
X174004840Y-98486880D01*
X156351528Y-83886321D02*
X172423059Y-99957852D01*
X142000000Y-85300000D02*
X142000000Y-84314998D01*
X142090000Y-84224999D02*
X143410001Y-84224999D01*
X174464461Y-99752013D02*
X174464461Y-98486880D01*
X173808611Y-100407863D02*
X174464461Y-99752013D01*
X172236659Y-100407863D02*
X173808611Y-100407863D01*
X156165128Y-84336332D02*
X172236659Y-100407863D01*
X143521334Y-84336332D02*
X156165128Y-84336332D01*
X143410001Y-84224999D02*
X143521334Y-84336332D01*
X142000000Y-84314998D02*
X142090000Y-84224999D01*
X175005600Y-99916593D02*
X175005600Y-99432840D01*
X144700000Y-88500000D02*
X145574475Y-88500000D01*
X145574475Y-88500000D02*
X146074732Y-87999743D01*
X146074732Y-87999743D02*
X159192128Y-87999743D01*
X159192128Y-87999743D02*
X172050259Y-100857874D01*
X172050259Y-100857874D02*
X174064319Y-100857874D01*
X174064319Y-100857874D02*
X175005600Y-99916593D01*
X175005600Y-99432840D02*
X175005600Y-98486880D01*
X175503440Y-79945960D02*
X175503440Y-79000000D01*
X139380206Y-75844514D02*
X167160190Y-75844514D01*
X174528417Y-80920983D02*
X175503440Y-79945960D01*
X132500000Y-85300000D02*
X132500000Y-82724720D01*
X167160190Y-75844514D02*
X172236659Y-80920983D01*
X132500000Y-82724720D02*
X139380206Y-75844514D01*
X172236659Y-80920983D02*
X174528417Y-80920983D01*
X144700000Y-89000000D02*
X145710886Y-89000000D01*
X175503440Y-100080385D02*
X175503440Y-99432840D01*
X175503440Y-99432840D02*
X175503440Y-98486880D01*
X174275940Y-101307885D02*
X175503440Y-100080385D01*
X171863859Y-101307885D02*
X174275940Y-101307885D01*
X145710886Y-89000000D02*
X146261132Y-88449754D01*
X159005728Y-88449754D02*
X171863859Y-101307885D01*
X146261132Y-88449754D02*
X159005728Y-88449754D01*
X166973790Y-76294525D02*
X172059582Y-81380317D01*
X174892505Y-81380317D02*
X176003820Y-80269002D01*
X139566606Y-76294525D02*
X166973790Y-76294525D01*
X172059582Y-81380317D02*
X174892505Y-81380317D01*
X134000000Y-81861131D02*
X139566606Y-76294525D01*
X176003820Y-80269002D02*
X176003820Y-79945960D01*
X176003820Y-79945960D02*
X176003820Y-79000000D01*
X134000000Y-85300000D02*
X134000000Y-81861131D01*
X146447532Y-88899765D02*
X158819328Y-88899765D01*
X158819328Y-88899765D02*
X171677459Y-101757896D01*
X176003820Y-99432840D02*
X176003820Y-98486880D01*
X144700000Y-89500000D02*
X145847297Y-89500000D01*
X145847297Y-89500000D02*
X146447532Y-88899765D01*
X174487562Y-101757896D02*
X176003820Y-100241638D01*
X176003820Y-100241638D02*
X176003820Y-99432840D01*
X171677459Y-101757896D02*
X174487562Y-101757896D01*
X174699184Y-102207907D02*
X176504200Y-100402891D01*
X176504200Y-99432840D02*
X176504200Y-98486880D01*
X176504200Y-100402891D02*
X176504200Y-99432840D01*
X144700000Y-90000000D02*
X145983708Y-90000000D01*
X171491059Y-102207907D02*
X174699184Y-102207907D01*
X145983708Y-90000000D02*
X146633932Y-89349776D01*
X158632928Y-89349776D02*
X171491059Y-102207907D01*
X146633932Y-89349776D02*
X158632928Y-89349776D01*
X134524999Y-81972543D02*
X139753006Y-76744536D01*
X166787390Y-76744536D02*
X171873182Y-81830328D01*
X134524999Y-84289999D02*
X134524999Y-81972543D01*
X139753006Y-76744536D02*
X166787390Y-76744536D01*
X175120212Y-81830328D02*
X177004580Y-79945960D01*
X171873182Y-81830328D02*
X175120212Y-81830328D01*
X177004580Y-79945960D02*
X177004580Y-79000000D01*
X134524999Y-85275001D02*
X134524999Y-84289999D01*
X134500000Y-85300000D02*
X134524999Y-85275001D01*
X134524999Y-84289999D02*
X134500000Y-85300000D01*
X148617630Y-89799787D02*
X158446528Y-89799787D01*
X177004580Y-100564143D02*
X177004580Y-99432840D01*
X147417417Y-91000000D02*
X148617630Y-89799787D01*
X158446528Y-89799787D02*
X171304659Y-102657918D01*
X174910805Y-102657918D02*
X177004580Y-100564143D01*
X171304659Y-102657918D02*
X174910805Y-102657918D01*
X177004580Y-99432840D02*
X177004580Y-98486880D01*
X144700000Y-91000000D02*
X147417417Y-91000000D01*
X177504960Y-99432840D02*
X177504960Y-98486880D01*
X177504960Y-100725399D02*
X177504960Y-99432840D01*
X158260128Y-90249798D02*
X171118259Y-103107929D01*
X147553828Y-91500000D02*
X148804030Y-90249798D01*
X175122430Y-103107929D02*
X177504960Y-100725399D01*
X171118259Y-103107929D02*
X175122430Y-103107929D01*
X144700000Y-91500000D02*
X147553828Y-91500000D01*
X148804030Y-90249798D02*
X158260128Y-90249798D01*
X166600990Y-77194547D02*
X171686782Y-82280339D01*
X171686782Y-82280339D02*
X175670961Y-82280339D01*
X139939406Y-77194547D02*
X166600990Y-77194547D01*
X135000000Y-82133953D02*
X139939406Y-77194547D01*
X135000000Y-85300000D02*
X135000000Y-82133953D01*
X175670961Y-82280339D02*
X178005340Y-79945960D01*
X178005340Y-79945960D02*
X178005340Y-79000000D01*
X147690239Y-92000000D02*
X145700000Y-92000000D01*
X178005340Y-100861447D02*
X175308847Y-103557940D01*
X148990430Y-90699809D02*
X147690239Y-92000000D01*
X178005340Y-98486880D02*
X178005340Y-100861447D01*
X175308847Y-103557940D02*
X170931858Y-103557940D01*
X158073727Y-90699809D02*
X148990430Y-90699809D01*
X170931858Y-103557940D02*
X158073727Y-90699809D01*
X145700000Y-92000000D02*
X144700000Y-92000000D01*
X178505720Y-99432840D02*
X178505720Y-98486880D01*
X170745458Y-104007951D02*
X175520480Y-104007951D01*
X149176830Y-91149820D02*
X157887327Y-91149820D01*
X178505720Y-101022711D02*
X178505720Y-99432840D01*
X175520480Y-104007951D02*
X178505720Y-101022711D01*
X157887327Y-91149820D02*
X170745458Y-104007951D01*
X147826650Y-92500000D02*
X149176830Y-91149820D01*
X144700000Y-92500000D02*
X147826650Y-92500000D01*
X135524999Y-84289999D02*
X135524999Y-82245365D01*
X140125806Y-77644558D02*
X166414590Y-77644558D01*
X176219170Y-82730350D02*
X179003560Y-79945960D01*
X179003560Y-79945960D02*
X179003560Y-79000000D01*
X171500382Y-82730350D02*
X176219170Y-82730350D01*
X166414590Y-77644558D02*
X171500382Y-82730350D01*
X135524999Y-82245365D02*
X140125806Y-77644558D01*
X135500000Y-85300000D02*
X135524999Y-85275001D01*
X135524999Y-84289999D02*
X135500000Y-85300000D01*
X135524999Y-85275001D02*
X135524999Y-84289999D01*
X180001780Y-99432840D02*
X180001780Y-98486880D01*
X180001780Y-100213482D02*
X180001780Y-99432840D01*
X175757300Y-104457962D02*
X180001780Y-100213482D01*
X144700000Y-94000000D02*
X145700000Y-94000000D01*
X145701773Y-93998227D02*
X160099324Y-93998227D01*
X160099324Y-93998227D02*
X170559060Y-104457962D01*
X170559060Y-104457962D02*
X175757300Y-104457962D01*
X145700000Y-94000000D02*
X145701773Y-93998227D01*
X180502160Y-79945960D02*
X180502160Y-79000000D01*
X177267759Y-83180361D02*
X180502160Y-79945960D01*
X140312206Y-78094569D02*
X166228190Y-78094569D01*
X166228190Y-78094569D02*
X171313982Y-83180361D01*
X136500000Y-81906775D02*
X140312206Y-78094569D01*
X136500000Y-85300000D02*
X136500000Y-81906775D01*
X171313982Y-83180361D02*
X177267759Y-83180361D01*
X177815968Y-83630372D02*
X181500380Y-79945960D01*
X181500380Y-79945960D02*
X181500380Y-79000000D01*
X171127582Y-83630372D02*
X177815968Y-83630372D01*
X166041790Y-78544580D02*
X171127582Y-83630372D01*
X137000000Y-82043186D02*
X140498606Y-78544580D01*
X137000000Y-85300000D02*
X137000000Y-82043186D01*
X140498606Y-78544580D02*
X166041790Y-78544580D01*
X170372660Y-104907973D02*
X175995745Y-104907973D01*
X181500380Y-99403338D02*
X181500380Y-98486880D01*
X146353936Y-94448238D02*
X159912924Y-94448238D01*
X146302174Y-94500000D02*
X146353936Y-94448238D01*
X175995745Y-104907973D02*
X181500380Y-99403338D01*
X144700000Y-94500000D02*
X146302174Y-94500000D01*
X159912924Y-94448238D02*
X170372660Y-104907973D01*
X182000760Y-99432840D02*
X182000760Y-98486880D01*
X182000760Y-99539368D02*
X182000760Y-99432840D01*
X176182144Y-105357984D02*
X182000760Y-99539368D01*
X170186261Y-105357984D02*
X176182144Y-105357984D01*
X146438585Y-95000000D02*
X146540336Y-94898249D01*
X144700000Y-95000000D02*
X146438585Y-95000000D01*
X146540336Y-94898249D02*
X159726524Y-94898249D01*
X159726524Y-94898249D02*
X170186261Y-105357984D01*
X182501140Y-79945960D02*
X182501140Y-79000000D01*
X140685006Y-78994591D02*
X165855390Y-78994591D01*
X165855390Y-78994591D02*
X170941182Y-84080383D01*
X137524999Y-82154598D02*
X140685006Y-78994591D01*
X137524999Y-84289999D02*
X137524999Y-82154598D01*
X170941182Y-84080383D02*
X178366717Y-84080383D01*
X178366717Y-84080383D02*
X182501140Y-79945960D01*
X137524999Y-85275001D02*
X137524999Y-84289999D01*
X137524999Y-84289999D02*
X137500000Y-85300000D01*
X137500000Y-85300000D02*
X137524999Y-85275001D01*
X146726736Y-95348260D02*
X159540124Y-95348260D01*
X169999861Y-105807995D02*
X176368543Y-105807995D01*
X182501140Y-99432840D02*
X182501140Y-98486880D01*
X182501140Y-99675398D02*
X182501140Y-99432840D01*
X146574996Y-95500000D02*
X146726736Y-95348260D01*
X144700000Y-95500000D02*
X146574996Y-95500000D01*
X159540124Y-95348260D02*
X169999861Y-105807995D01*
X176368543Y-105807995D02*
X182501140Y-99675398D01*
X176554942Y-106258006D02*
X183001520Y-99811428D01*
X159353724Y-95798271D02*
X169813459Y-106258006D01*
X148570434Y-95798271D02*
X159353724Y-95798271D01*
X146699998Y-96625002D02*
X147743703Y-96625002D01*
X183001520Y-99811428D02*
X183001520Y-99432840D01*
X144700000Y-96500000D02*
X146574996Y-96500000D01*
X146574996Y-96500000D02*
X146699998Y-96625002D01*
X183001520Y-99432840D02*
X183001520Y-98486880D01*
X147743703Y-96625002D02*
X148570434Y-95798271D01*
X169813459Y-106258006D02*
X176554942Y-106258006D01*
X138000000Y-85300000D02*
X138000000Y-82316008D01*
X139874999Y-80459999D02*
X140835214Y-79499784D01*
X170754782Y-84530394D02*
X178917466Y-84530394D01*
X183501900Y-79945960D02*
X183501900Y-79000000D01*
X138000000Y-82316008D02*
X139856009Y-80459999D01*
X139856009Y-80459999D02*
X139874999Y-80459999D01*
X140835214Y-79499784D02*
X165724172Y-79499784D01*
X165724172Y-79499784D02*
X170754782Y-84530394D01*
X178917466Y-84530394D02*
X183501900Y-79945960D01*
X144700000Y-97000000D02*
X146438585Y-97000000D01*
X183501900Y-99947462D02*
X183501900Y-99432840D01*
X169627059Y-106708017D02*
X176741345Y-106708017D01*
X159167324Y-96248282D02*
X169627059Y-106708017D01*
X148756834Y-96248282D02*
X159167324Y-96248282D01*
X147930104Y-97075013D02*
X148756834Y-96248282D01*
X176741345Y-106708017D02*
X183501900Y-99947462D01*
X146438585Y-97000000D02*
X146513599Y-97075013D01*
X183501900Y-99432840D02*
X183501900Y-98486880D01*
X146513599Y-97075013D02*
X147930104Y-97075013D01*
X184002280Y-99432840D02*
X184002280Y-98486880D01*
X158980924Y-96698293D02*
X169440659Y-107158028D01*
X169440659Y-107158028D02*
X176927746Y-107158028D01*
X144700000Y-97500000D02*
X146302175Y-97500000D01*
X184002280Y-100083494D02*
X184002280Y-99432840D01*
X146302175Y-97500000D02*
X146352163Y-97549988D01*
X146352163Y-97549988D02*
X148091539Y-97549988D01*
X148091539Y-97549988D02*
X148943234Y-96698293D01*
X148943234Y-96698293D02*
X158980924Y-96698293D01*
X176927746Y-107158028D02*
X184002280Y-100083494D01*
X144700000Y-98000000D02*
X144724999Y-97975001D01*
X158827741Y-97181521D02*
X169254259Y-107608039D01*
X144724999Y-97975001D02*
X145710001Y-97975001D01*
X145710001Y-97975001D02*
X145734992Y-97950010D01*
X145734992Y-97950010D02*
X146115775Y-97950010D01*
X146165764Y-97999997D02*
X148322442Y-97999997D01*
X146115775Y-97950010D02*
X146165764Y-97999997D01*
X149140918Y-97181521D02*
X158827741Y-97181521D01*
X184500120Y-99432840D02*
X184500120Y-98486880D01*
X148322442Y-97999997D02*
X149140918Y-97181521D01*
X184500120Y-100222064D02*
X184500120Y-99432840D01*
X169254259Y-107608039D02*
X177114146Y-107608039D01*
X177114146Y-107608039D02*
X184500120Y-100222064D01*
X185000500Y-100358094D02*
X185000500Y-99432840D01*
X169067859Y-108058050D02*
X177300544Y-108058050D01*
X143000000Y-100700000D02*
X161709809Y-100700000D01*
X177300544Y-108058050D02*
X185000500Y-100358094D01*
X161709809Y-100700000D02*
X169067859Y-108058050D01*
X185000500Y-99432840D02*
X185000500Y-98486880D01*
X139000000Y-85300000D02*
X139000000Y-83854405D01*
X139000000Y-83854405D02*
X140229404Y-82625001D01*
X140229404Y-82625001D02*
X140229404Y-82612567D01*
X140229404Y-82612567D02*
X140442821Y-82399150D01*
X144155601Y-82424955D02*
X144266934Y-82536288D01*
X180009844Y-85436996D02*
X185500880Y-79945960D01*
X140442821Y-82399150D02*
X140468626Y-82424955D01*
X144266934Y-82536288D02*
X167487854Y-82536288D01*
X170388562Y-85436996D02*
X180009844Y-85436996D01*
X140468626Y-82424955D02*
X144155601Y-82424955D01*
X167487854Y-82536288D02*
X170388562Y-85436996D01*
X185500880Y-79945960D02*
X185500880Y-79000000D01*
X178260572Y-107734432D02*
X185500880Y-100494124D01*
X185500880Y-99432840D02*
X185500880Y-98486880D01*
X168881459Y-108508061D02*
X177486954Y-108508061D01*
X161523408Y-101150010D02*
X168881459Y-108508061D01*
X144034992Y-101150010D02*
X161523408Y-101150010D01*
X142500000Y-100700000D02*
X142500000Y-101685002D01*
X185500880Y-100494124D02*
X185500880Y-99432840D01*
X143410001Y-101775001D02*
X144034992Y-101150010D01*
X142500000Y-101685002D02*
X142589999Y-101775001D01*
X177500000Y-108495015D02*
X178260572Y-107734432D01*
X142589999Y-101775001D02*
X143410001Y-101775001D01*
X177486954Y-108508061D02*
X177500000Y-108495015D01*
X140000000Y-100700000D02*
X140000000Y-101700000D01*
X140000000Y-101700000D02*
X140293799Y-101993799D01*
X140293799Y-101993799D02*
X140396325Y-101993799D01*
X136915813Y-104063007D02*
X137215812Y-104363006D01*
X136000000Y-103147194D02*
X136915813Y-104063007D01*
X136000000Y-100700000D02*
X136000000Y-103147194D01*
X131250000Y-118500000D02*
X131394296Y-118355704D01*
X179250000Y-100000000D02*
X179503940Y-99746060D01*
X179503940Y-99746060D02*
X179503940Y-98486880D01*
X141500000Y-99700000D02*
X142298698Y-98901302D01*
X141500000Y-100700000D02*
X141500000Y-99700000D01*
X142298698Y-98901302D02*
X142614179Y-98901302D01*
M02*
