G04 #@! TF.FileFunction,Copper,L4,Bot,Signal*
%FSLAX46Y46*%
G04 Gerber Fmt 4.6, Leading zero omitted, Abs format (unit mm)*
G04 Created by KiCad (PCBNEW 4.0.7) date 12/03/18 22:41:55*
%MOMM*%
%LPD*%
G01*
G04 APERTURE LIST*
%ADD10C,0.100000*%
%ADD11R,1.780000X14.000000*%
%ADD12C,1.510000*%
%ADD13O,0.900000X1.500000*%
%ADD14R,0.900000X1.500000*%
%ADD15C,1.400000*%
%ADD16C,1.600000*%
%ADD17O,1.600000X1.600000*%
%ADD18C,0.600000*%
%ADD19C,0.250000*%
%ADD20C,0.400000*%
G04 APERTURE END LIST*
D10*
D11*
X164180000Y-128000000D03*
X161640000Y-128000000D03*
X159100000Y-128000000D03*
X156560000Y-128000000D03*
X154020000Y-128000000D03*
X151480000Y-128000000D03*
X148940000Y-128000000D03*
X146400000Y-128000000D03*
X143860000Y-128000000D03*
X141320000Y-128000000D03*
X138780000Y-128000000D03*
X136240000Y-128000000D03*
X133700000Y-128000000D03*
X131160000Y-128000000D03*
X128620000Y-128000000D03*
X126080000Y-128000000D03*
X123540000Y-128000000D03*
X121000000Y-128000000D03*
D10*
G36*
X132938228Y-99190163D02*
X130809837Y-97061772D01*
X131877568Y-95994041D01*
X134005959Y-98122432D01*
X132938228Y-99190163D01*
X132938228Y-99190163D01*
G37*
D12*
X133673619Y-95265721D02*
X134734279Y-96326381D01*
X135469670Y-93469670D02*
X136530330Y-94530330D01*
X137265722Y-91673618D02*
X138326382Y-92734278D01*
X139061773Y-89877567D02*
X140122433Y-90938227D01*
X140857824Y-88081516D02*
X141918484Y-89142176D01*
D13*
X112000000Y-81000000D03*
X113270000Y-81000000D03*
D14*
X110730000Y-81000000D03*
D15*
X165500000Y-114000000D03*
X167750000Y-114000000D03*
X170000000Y-114000000D03*
X172250000Y-114000000D03*
X163250000Y-114000000D03*
D16*
X189250000Y-98250000D03*
X189250000Y-95750000D03*
X189250000Y-79250000D03*
X189250000Y-81750000D03*
X121500000Y-104000000D03*
X119000000Y-104000000D03*
X122500000Y-114620000D03*
D17*
X122500000Y-107000000D03*
D16*
X113250000Y-86500000D03*
X110750000Y-86500000D03*
X117500000Y-80750000D03*
X120000000Y-80750000D03*
X126750000Y-82250000D03*
X129250000Y-82250000D03*
X141750000Y-81000000D03*
X144250000Y-81000000D03*
X148000000Y-86250000D03*
X150500000Y-86250000D03*
X150500000Y-98750000D03*
X153000000Y-98750000D03*
X150000000Y-105500000D03*
X152500000Y-105500000D03*
X140500000Y-105250000D03*
X143000000Y-105250000D03*
X127482233Y-101232233D03*
X129250000Y-103000000D03*
X123250000Y-94250000D03*
X123250000Y-91750000D03*
X164750000Y-86500000D03*
X167250000Y-86500000D03*
X150500000Y-92750000D03*
X153000000Y-92750000D03*
D18*
X136048187Y-98617047D03*
X128867323Y-100544016D03*
X137874990Y-102289841D03*
X131818934Y-93739173D03*
X178365644Y-96911871D03*
X140542554Y-98335716D03*
X145163471Y-86059885D03*
X134221457Y-87006163D03*
X136000000Y-87000000D03*
X139000000Y-87000000D03*
X146647113Y-93365248D03*
X186504710Y-77250361D03*
X179496256Y-77014121D03*
X134669627Y-98661472D03*
X147477277Y-89974786D03*
X129965568Y-101488506D03*
X183233692Y-75758482D03*
X185818194Y-75806343D03*
X141730825Y-98031133D03*
X131154388Y-94723500D03*
X126977540Y-89377295D03*
X144674017Y-84961333D03*
X139975553Y-83778773D03*
X164248305Y-119141288D03*
X133000000Y-87000000D03*
X147000000Y-96000000D03*
X146000000Y-99000000D03*
X129000000Y-86000000D03*
X118000000Y-118000000D03*
X180506838Y-97044952D03*
X184496669Y-77289734D03*
X175000000Y-77000000D03*
X127966763Y-93462315D03*
X127263886Y-92693544D03*
X126517080Y-91617265D03*
X125572590Y-91199932D03*
X126346650Y-90344519D03*
X123000000Y-88000000D03*
X123000000Y-87000000D03*
X123000000Y-86000000D03*
X117687194Y-88849688D03*
X138246332Y-118165789D03*
X140396325Y-101993799D03*
X137215812Y-104363006D03*
X131250000Y-118500000D03*
X179250000Y-100000000D03*
X142614179Y-98901302D03*
D19*
X164750000Y-86500000D02*
X164500000Y-86500000D01*
X129965568Y-102284432D02*
X129250000Y-103000000D01*
D20*
X121000000Y-121890000D02*
X121000000Y-121002242D01*
X121000000Y-121002242D02*
X118000000Y-118002242D01*
X118000000Y-118002242D02*
X118000000Y-118000000D01*
D19*
X121000000Y-128000000D02*
X121000000Y-121890000D01*
X110730000Y-81000000D02*
X110730000Y-81300000D01*
D20*
X141320000Y-128000000D02*
X141320000Y-120093004D01*
X141320000Y-120093004D02*
X118609720Y-97382724D01*
X118609720Y-97382724D02*
X118609720Y-81859720D01*
X118609720Y-81859720D02*
X118299999Y-81549999D01*
X118299999Y-81549999D02*
X117500000Y-80750000D01*
X112000000Y-81000000D02*
X112000000Y-79756181D01*
X115205576Y-78455576D02*
X117500000Y-80750000D01*
X113300605Y-78455576D02*
X115205576Y-78455576D01*
X112000000Y-79756181D02*
X113300605Y-78455576D01*
D19*
X117500000Y-80072406D02*
X117500000Y-80750000D01*
X161640000Y-120697006D02*
X141017983Y-100074989D01*
X161640000Y-128000000D02*
X161640000Y-120697006D01*
X141017983Y-100074989D02*
X133363419Y-100074989D01*
X127966763Y-94678333D02*
X127966763Y-93886579D01*
X127966763Y-93886579D02*
X127966763Y-93462315D01*
X133363419Y-100074989D02*
X127966763Y-94678333D01*
X159100000Y-118793417D02*
X140831583Y-100525000D01*
X127263886Y-94633385D02*
X127263886Y-93117808D01*
X159100000Y-128000000D02*
X159100000Y-118793417D01*
X140831583Y-100525000D02*
X133155501Y-100525000D01*
X127263886Y-93117808D02*
X127263886Y-92693544D01*
X133155501Y-100525000D02*
X127263886Y-94633385D01*
X126517080Y-94738757D02*
X126517080Y-92041529D01*
X138784415Y-107006092D02*
X126517080Y-94738757D01*
X143823505Y-107006092D02*
X138784415Y-107006092D01*
X156560000Y-128000000D02*
X156560000Y-119742587D01*
X156560000Y-119742587D02*
X143823505Y-107006092D01*
X126517080Y-92041529D02*
X126517080Y-91617265D01*
X154020000Y-121890000D02*
X154020000Y-117838998D01*
X138598015Y-107456103D02*
X125572590Y-94430678D01*
X154020000Y-117838998D02*
X143637105Y-107456103D01*
X143637105Y-107456103D02*
X138598015Y-107456103D01*
X125572590Y-94430678D02*
X125572590Y-91624196D01*
X125572590Y-91624196D02*
X125572590Y-91199932D01*
X154020000Y-121890000D02*
X154127123Y-121782877D01*
X154020000Y-128000000D02*
X154020000Y-121890000D01*
X122396748Y-89165539D02*
X125167670Y-89165539D01*
X120740314Y-90821973D02*
X122396748Y-89165539D01*
X151480000Y-121890000D02*
X145415001Y-115825001D01*
X126046651Y-90044520D02*
X126346650Y-90344519D01*
X151480000Y-128000000D02*
X151480000Y-121890000D01*
X145415001Y-115825001D02*
X140042575Y-115825001D01*
X140042575Y-115825001D02*
X120740314Y-96522740D01*
X120740314Y-96522740D02*
X120740314Y-90821973D01*
X125167670Y-89165539D02*
X126046651Y-90044520D01*
X120290303Y-90285433D02*
X122575736Y-88000000D01*
X122575736Y-88000000D02*
X123000000Y-88000000D01*
X148940000Y-128000000D02*
X148940000Y-121890000D01*
X143325012Y-116275012D02*
X139856176Y-116275012D01*
X148940000Y-121890000D02*
X143325012Y-116275012D01*
X120290303Y-96709139D02*
X120290303Y-90285433D01*
X139856176Y-116275012D02*
X120290303Y-96709139D01*
X122575736Y-87000000D02*
X123000000Y-87000000D01*
X119840292Y-89289018D02*
X122129310Y-87000000D01*
X139669777Y-116725023D02*
X119840292Y-96895538D01*
X141235023Y-116725023D02*
X139669777Y-116725023D01*
X146400000Y-128000000D02*
X146400000Y-121890000D01*
X122129310Y-87000000D02*
X122575736Y-87000000D01*
X119840292Y-96895538D02*
X119840292Y-89289018D01*
X146400000Y-121890000D02*
X141235023Y-116725023D01*
X143860000Y-128000000D02*
X143860000Y-121551656D01*
X119390281Y-89102618D02*
X122492899Y-86000000D01*
X119390281Y-97081937D02*
X119390281Y-89102618D01*
X143860000Y-121551656D02*
X119390281Y-97081937D01*
X122492899Y-86000000D02*
X122575736Y-86000000D01*
X122575736Y-86000000D02*
X123000000Y-86000000D01*
X136240000Y-128000000D02*
X136240000Y-116161936D01*
X136240000Y-116161936D02*
X117687194Y-97609130D01*
X117687194Y-97609130D02*
X117687194Y-89273952D01*
X117687194Y-89273952D02*
X117687194Y-88849688D01*
X138546331Y-118465788D02*
X138246332Y-118165789D01*
X138780000Y-118699457D02*
X138546331Y-118465788D01*
X138780000Y-128000000D02*
X138780000Y-118699457D01*
X131160000Y-118590000D02*
X131250000Y-118500000D01*
X131160000Y-128000000D02*
X131160000Y-118590000D01*
X179051164Y-100000000D02*
X179250000Y-100000000D01*
X179051164Y-100000000D02*
X143712877Y-100000000D01*
X143712877Y-100000000D02*
X142914178Y-99201301D01*
X142914178Y-99201301D02*
X142614179Y-98901302D01*
M02*
