G04 #@! TF.FileFunction,Soldermask,Bot*
%FSLAX46Y46*%
G04 Gerber Fmt 4.6, Leading zero omitted, Abs format (unit mm)*
G04 Created by KiCad (PCBNEW 4.0.7) date 12/03/18 22:41:55*
%MOMM*%
%LPD*%
G01*
G04 APERTURE LIST*
%ADD10C,0.100000*%
%ADD11R,2.180000X14.400000*%
%ADD12C,1.910000*%
%ADD13O,1.300000X1.900000*%
%ADD14R,1.300000X1.900000*%
%ADD15C,5.400000*%
%ADD16C,1.800000*%
%ADD17C,2.000000*%
%ADD18O,2.000000X2.000000*%
G04 APERTURE END LIST*
D10*
D11*
X164180000Y-128000000D03*
X161640000Y-128000000D03*
X159100000Y-128000000D03*
X156560000Y-128000000D03*
X154020000Y-128000000D03*
X151480000Y-128000000D03*
X148940000Y-128000000D03*
X146400000Y-128000000D03*
X143860000Y-128000000D03*
X141320000Y-128000000D03*
X138780000Y-128000000D03*
X136240000Y-128000000D03*
X133700000Y-128000000D03*
X131160000Y-128000000D03*
X128620000Y-128000000D03*
X126080000Y-128000000D03*
X123540000Y-128000000D03*
X121000000Y-128000000D03*
D10*
G36*
X132938228Y-99473006D02*
X130526994Y-97061772D01*
X131877568Y-95711198D01*
X134288802Y-98122432D01*
X132938228Y-99473006D01*
X132938228Y-99473006D01*
G37*
D12*
X133673619Y-95265721D02*
X134734279Y-96326381D01*
X135469670Y-93469670D02*
X136530330Y-94530330D01*
X137265722Y-91673618D02*
X138326382Y-92734278D01*
X139061773Y-89877567D02*
X140122433Y-90938227D01*
X140857824Y-88081516D02*
X141918484Y-89142176D01*
D13*
X112000000Y-81000000D03*
X113270000Y-81000000D03*
D14*
X110730000Y-81000000D03*
D15*
X142000000Y-110500000D03*
D16*
X165500000Y-114000000D03*
X167750000Y-114000000D03*
X170000000Y-114000000D03*
X172250000Y-114000000D03*
X163250000Y-114000000D03*
D17*
X189250000Y-98250000D03*
X189250000Y-95750000D03*
X189250000Y-79250000D03*
X189250000Y-81750000D03*
X121500000Y-104000000D03*
X119000000Y-104000000D03*
X122500000Y-114620000D03*
D18*
X122500000Y-107000000D03*
D17*
X113250000Y-86500000D03*
X110750000Y-86500000D03*
X117500000Y-80750000D03*
X120000000Y-80750000D03*
X126750000Y-82250000D03*
X129250000Y-82250000D03*
X141750000Y-81000000D03*
X144250000Y-81000000D03*
X148000000Y-86250000D03*
X150500000Y-86250000D03*
X150500000Y-98750000D03*
X153000000Y-98750000D03*
X150000000Y-105500000D03*
X152500000Y-105500000D03*
X140500000Y-105250000D03*
X143000000Y-105250000D03*
X127482233Y-101232233D03*
X129250000Y-103000000D03*
X123250000Y-94250000D03*
X123250000Y-91750000D03*
X164750000Y-86500000D03*
X167250000Y-86500000D03*
X150500000Y-92750000D03*
X153000000Y-92750000D03*
M02*
