G04 #@! TF.FileFunction,Legend,Bot*
%FSLAX46Y46*%
G04 Gerber Fmt 4.6, Leading zero omitted, Abs format (unit mm)*
G04 Created by KiCad (PCBNEW 4.0.7) date 12/03/18 22:41:55*
%MOMM*%
%LPD*%
G01*
G04 APERTURE LIST*
%ADD10C,0.100000*%
%ADD11C,0.250000*%
%ADD12C,0.300000*%
%ADD13C,0.010000*%
G04 APERTURE END LIST*
D10*
D11*
X121809524Y-118952381D02*
X121190476Y-118952381D01*
X121523810Y-119333333D01*
X121380952Y-119333333D01*
X121285714Y-119380952D01*
X121238095Y-119428571D01*
X121190476Y-119523810D01*
X121190476Y-119761905D01*
X121238095Y-119857143D01*
X121285714Y-119904762D01*
X121380952Y-119952381D01*
X121666667Y-119952381D01*
X121761905Y-119904762D01*
X121809524Y-119857143D01*
X120285714Y-118952381D02*
X120761905Y-118952381D01*
X120809524Y-119428571D01*
X120761905Y-119380952D01*
X120666667Y-119333333D01*
X120428571Y-119333333D01*
X120333333Y-119380952D01*
X120285714Y-119428571D01*
X120238095Y-119523810D01*
X120238095Y-119761905D01*
X120285714Y-119857143D01*
X120333333Y-119904762D01*
X120428571Y-119952381D01*
X120666667Y-119952381D01*
X120761905Y-119904762D01*
X120809524Y-119857143D01*
X164714285Y-119952381D02*
X165285714Y-119952381D01*
X165000000Y-119952381D02*
X165000000Y-118952381D01*
X165095238Y-119095238D01*
X165190476Y-119190476D01*
X165285714Y-119238095D01*
D12*
X102285714Y-73028571D02*
X102285714Y-74100000D01*
X102357142Y-74314286D01*
X102499999Y-74457143D01*
X102714285Y-74528571D01*
X102857142Y-74528571D01*
X101785714Y-73028571D02*
X100928571Y-73028571D01*
X101357142Y-74528571D02*
X101357142Y-73028571D01*
X100500000Y-74100000D02*
X99785714Y-74100000D01*
X100642857Y-74528571D02*
X100142857Y-73028571D01*
X99642857Y-74528571D01*
X98357143Y-73100000D02*
X98500000Y-73028571D01*
X98714286Y-73028571D01*
X98928571Y-73100000D01*
X99071429Y-73242857D01*
X99142857Y-73385714D01*
X99214286Y-73671429D01*
X99214286Y-73885714D01*
X99142857Y-74171429D01*
X99071429Y-74314286D01*
X98928571Y-74457143D01*
X98714286Y-74528571D01*
X98571429Y-74528571D01*
X98357143Y-74457143D01*
X98285714Y-74385714D01*
X98285714Y-73885714D01*
X98571429Y-73885714D01*
X97642857Y-74385714D02*
X97571429Y-74457143D01*
X97642857Y-74528571D01*
X97714286Y-74457143D01*
X97642857Y-74385714D01*
X97642857Y-74528571D01*
X96928571Y-74528571D02*
X96928571Y-73028571D01*
X96928571Y-73742857D02*
X96071428Y-73742857D01*
X96071428Y-74528571D02*
X96071428Y-73028571D01*
X94714285Y-74528571D02*
X94714285Y-73028571D01*
X94714285Y-74457143D02*
X94857142Y-74528571D01*
X95142856Y-74528571D01*
X95285714Y-74457143D01*
X95357142Y-74385714D01*
X95428571Y-74242857D01*
X95428571Y-73814286D01*
X95357142Y-73671429D01*
X95285714Y-73600000D01*
X95142856Y-73528571D01*
X94857142Y-73528571D01*
X94714285Y-73600000D01*
X93999999Y-74528571D02*
X93999999Y-73528571D01*
X93999999Y-73814286D02*
X93928571Y-73671429D01*
X93857142Y-73600000D01*
X93714285Y-73528571D01*
X93571428Y-73528571D01*
X100535713Y-75578571D02*
X100821427Y-75578571D01*
X100964284Y-75650000D01*
X101035713Y-75721429D01*
X101178570Y-75935714D01*
X101249999Y-76221429D01*
X101249999Y-76792857D01*
X101178570Y-76935714D01*
X101107142Y-77007143D01*
X100964284Y-77078571D01*
X100678570Y-77078571D01*
X100535713Y-77007143D01*
X100464284Y-76935714D01*
X100392856Y-76792857D01*
X100392856Y-76435714D01*
X100464284Y-76292857D01*
X100535713Y-76221429D01*
X100678570Y-76150000D01*
X100964284Y-76150000D01*
X101107142Y-76221429D01*
X101178570Y-76292857D01*
X101249999Y-76435714D01*
X98749999Y-75578571D02*
X97821428Y-75578571D01*
X98321428Y-76150000D01*
X98107142Y-76150000D01*
X97964285Y-76221429D01*
X97892856Y-76292857D01*
X97821428Y-76435714D01*
X97821428Y-76792857D01*
X97892856Y-76935714D01*
X97964285Y-77007143D01*
X98107142Y-77078571D01*
X98535714Y-77078571D01*
X98678571Y-77007143D01*
X98749999Y-76935714D01*
X97321428Y-76078571D02*
X96964285Y-77078571D01*
X96607143Y-76078571D01*
X96178571Y-75578571D02*
X95250000Y-75578571D01*
X95750000Y-76150000D01*
X95535714Y-76150000D01*
X95392857Y-76221429D01*
X95321428Y-76292857D01*
X95250000Y-76435714D01*
X95250000Y-76792857D01*
X95321428Y-76935714D01*
X95392857Y-77007143D01*
X95535714Y-77078571D01*
X95964286Y-77078571D01*
X96107143Y-77007143D01*
X96178571Y-76935714D01*
X100714285Y-78128571D02*
X101428571Y-78128571D01*
X101500000Y-78842857D01*
X101428571Y-78771429D01*
X101285714Y-78700000D01*
X100928571Y-78700000D01*
X100785714Y-78771429D01*
X100714285Y-78842857D01*
X100642857Y-78985714D01*
X100642857Y-79342857D01*
X100714285Y-79485714D01*
X100785714Y-79557143D01*
X100928571Y-79628571D01*
X101285714Y-79628571D01*
X101428571Y-79557143D01*
X101500000Y-79485714D01*
X99071429Y-78128571D02*
X98214286Y-78128571D01*
X98642857Y-79628571D02*
X98642857Y-78128571D01*
X97714286Y-79628571D02*
X97714286Y-78128571D01*
X97357143Y-78128571D01*
X97142858Y-78200000D01*
X97000000Y-78342857D01*
X96928572Y-78485714D01*
X96857143Y-78771429D01*
X96857143Y-78985714D01*
X96928572Y-79271429D01*
X97000000Y-79414286D01*
X97142858Y-79557143D01*
X97357143Y-79628571D01*
X97714286Y-79628571D01*
X96214286Y-79628571D02*
X96214286Y-78128571D01*
X100607142Y-81178571D02*
X100607142Y-82178571D01*
X100964285Y-80607143D02*
X101321428Y-81678571D01*
X100392856Y-81678571D01*
X98892857Y-80678571D02*
X98035714Y-80678571D01*
X98464285Y-82178571D02*
X98464285Y-80678571D01*
X96678571Y-82035714D02*
X96750000Y-82107143D01*
X96964286Y-82178571D01*
X97107143Y-82178571D01*
X97321428Y-82107143D01*
X97464286Y-81964286D01*
X97535714Y-81821429D01*
X97607143Y-81535714D01*
X97607143Y-81321429D01*
X97535714Y-81035714D01*
X97464286Y-80892857D01*
X97321428Y-80750000D01*
X97107143Y-80678571D01*
X96964286Y-80678571D01*
X96750000Y-80750000D01*
X96678571Y-80821429D01*
X96035714Y-82178571D02*
X96035714Y-80678571D01*
X95178571Y-82178571D02*
X95821428Y-81321429D01*
X95178571Y-80678571D02*
X96035714Y-81535714D01*
X101464285Y-83228571D02*
X100535714Y-83228571D01*
X101035714Y-83800000D01*
X100821428Y-83800000D01*
X100678571Y-83871429D01*
X100607142Y-83942857D01*
X100535714Y-84085714D01*
X100535714Y-84442857D01*
X100607142Y-84585714D01*
X100678571Y-84657143D01*
X100821428Y-84728571D01*
X101250000Y-84728571D01*
X101392857Y-84657143D01*
X101464285Y-84585714D01*
X98964286Y-83228571D02*
X98107143Y-83228571D01*
X98535714Y-84728571D02*
X98535714Y-83228571D01*
X97607143Y-84728571D02*
X97607143Y-83228571D01*
X97107143Y-84300000D01*
X96607143Y-83228571D01*
X96607143Y-84728571D01*
X95964286Y-84657143D02*
X95750000Y-84728571D01*
X95392857Y-84728571D01*
X95250000Y-84657143D01*
X95178571Y-84585714D01*
X95107143Y-84442857D01*
X95107143Y-84300000D01*
X95178571Y-84157143D01*
X95250000Y-84085714D01*
X95392857Y-84014286D01*
X95678571Y-83942857D01*
X95821429Y-83871429D01*
X95892857Y-83800000D01*
X95964286Y-83657143D01*
X95964286Y-83514286D01*
X95892857Y-83371429D01*
X95821429Y-83300000D01*
X95678571Y-83228571D01*
X95321429Y-83228571D01*
X95107143Y-83300000D01*
X101357143Y-85921429D02*
X101285714Y-85850000D01*
X101142857Y-85778571D01*
X100785714Y-85778571D01*
X100642857Y-85850000D01*
X100571428Y-85921429D01*
X100500000Y-86064286D01*
X100500000Y-86207143D01*
X100571428Y-86421429D01*
X101428571Y-87278571D01*
X100500000Y-87278571D01*
X98928572Y-85778571D02*
X98071429Y-85778571D01*
X98500000Y-87278571D02*
X98500000Y-85778571D01*
X97571429Y-87278571D02*
X97571429Y-85778571D01*
X97214286Y-85778571D01*
X97000001Y-85850000D01*
X96857143Y-85992857D01*
X96785715Y-86135714D01*
X96714286Y-86421429D01*
X96714286Y-86635714D01*
X96785715Y-86921429D01*
X96857143Y-87064286D01*
X97000001Y-87207143D01*
X97214286Y-87278571D01*
X97571429Y-87278571D01*
X95785715Y-85778571D02*
X95500001Y-85778571D01*
X95357143Y-85850000D01*
X95214286Y-85992857D01*
X95142858Y-86278571D01*
X95142858Y-86778571D01*
X95214286Y-87064286D01*
X95357143Y-87207143D01*
X95500001Y-87278571D01*
X95785715Y-87278571D01*
X95928572Y-87207143D01*
X96071429Y-87064286D01*
X96142858Y-86778571D01*
X96142858Y-86278571D01*
X96071429Y-85992857D01*
X95928572Y-85850000D01*
X95785715Y-85778571D01*
X100678571Y-89828571D02*
X101535714Y-89828571D01*
X101107142Y-89828571D02*
X101107142Y-88328571D01*
X101249999Y-88542857D01*
X101392857Y-88685714D01*
X101535714Y-88757143D01*
X98107143Y-88400000D02*
X98250000Y-88328571D01*
X98464286Y-88328571D01*
X98678571Y-88400000D01*
X98821429Y-88542857D01*
X98892857Y-88685714D01*
X98964286Y-88971429D01*
X98964286Y-89185714D01*
X98892857Y-89471429D01*
X98821429Y-89614286D01*
X98678571Y-89757143D01*
X98464286Y-89828571D01*
X98321429Y-89828571D01*
X98107143Y-89757143D01*
X98035714Y-89685714D01*
X98035714Y-89185714D01*
X98321429Y-89185714D01*
X97392857Y-89828571D02*
X97392857Y-88328571D01*
X96535714Y-89828571D01*
X96535714Y-88328571D01*
X95821428Y-89828571D02*
X95821428Y-88328571D01*
X95464285Y-88328571D01*
X95250000Y-88400000D01*
X95107142Y-88542857D01*
X95035714Y-88685714D01*
X94964285Y-88971429D01*
X94964285Y-89185714D01*
X95035714Y-89471429D01*
X95107142Y-89614286D01*
X95250000Y-89757143D01*
X95464285Y-89828571D01*
X95821428Y-89828571D01*
D13*
G36*
X160976667Y-108233333D02*
X174523333Y-108233333D01*
X174523333Y-107102491D01*
X174354000Y-107102491D01*
X174354000Y-108064000D01*
X164448000Y-108064000D01*
X164448000Y-107852333D01*
X164422988Y-107753555D01*
X164335111Y-107753555D01*
X164323489Y-107803890D01*
X164278667Y-107810000D01*
X164208977Y-107779022D01*
X164222222Y-107753555D01*
X164322702Y-107743422D01*
X164335111Y-107753555D01*
X164422988Y-107753555D01*
X164405488Y-107684447D01*
X164325997Y-107640667D01*
X164186041Y-107686158D01*
X164147978Y-107781431D01*
X164230967Y-107861990D01*
X164354302Y-107926895D01*
X164343894Y-107978038D01*
X164192812Y-108016367D01*
X163894127Y-108042830D01*
X163440906Y-108058377D01*
X162826220Y-108063954D01*
X162754667Y-108064000D01*
X161146000Y-108064000D01*
X161146000Y-107247834D01*
X161151457Y-106849574D01*
X161171177Y-106587376D01*
X161210189Y-106428220D01*
X161273520Y-106339088D01*
X161285826Y-106329424D01*
X161374797Y-106234530D01*
X161316681Y-106159837D01*
X161315078Y-106158842D01*
X161244307Y-106136857D01*
X161264915Y-106188251D01*
X161273869Y-106275546D01*
X161243720Y-106286000D01*
X161211943Y-106213080D01*
X161204151Y-106036832D01*
X161216886Y-105821022D01*
X161246692Y-105629417D01*
X161284649Y-105531055D01*
X161330666Y-105516515D01*
X161367944Y-105604960D01*
X161400415Y-105816179D01*
X161432012Y-106169963D01*
X161443582Y-106330987D01*
X161470856Y-106682536D01*
X161499132Y-106975368D01*
X161523789Y-107164009D01*
X161532052Y-107201533D01*
X161594439Y-107290676D01*
X161661083Y-107242126D01*
X161714841Y-107086167D01*
X161738572Y-106853082D01*
X161738667Y-106836524D01*
X161738667Y-106465709D01*
X162111858Y-106409745D01*
X162407674Y-106386790D01*
X162679766Y-106399192D01*
X162735732Y-106408841D01*
X162904997Y-106472548D01*
X163001616Y-106603205D01*
X163061041Y-106817655D01*
X163136722Y-107051368D01*
X163215116Y-107122077D01*
X163273673Y-107034217D01*
X163289844Y-106792221D01*
X163288970Y-106772833D01*
X163272941Y-106455333D01*
X163669970Y-106442032D01*
X164058945Y-106429000D01*
X164070845Y-106466461D01*
X164085608Y-106554579D01*
X164149840Y-106871897D01*
X164232550Y-107059236D01*
X164313896Y-107111080D01*
X164374038Y-107021912D01*
X164393137Y-106786218D01*
X164383694Y-106637448D01*
X164363640Y-106428730D01*
X164067000Y-106428730D01*
X164058945Y-106429000D01*
X164058540Y-106427727D01*
X163934344Y-106413000D01*
X162935898Y-106413000D01*
X162753004Y-106213348D01*
X162613227Y-106213348D01*
X162599503Y-106231878D01*
X162467955Y-106265856D01*
X162268175Y-106305310D01*
X162049754Y-106340267D01*
X161890670Y-106358652D01*
X161770167Y-106302910D01*
X161699746Y-106099363D01*
X161699076Y-106095500D01*
X161640020Y-105678478D01*
X161633522Y-105403390D01*
X161680786Y-105250811D01*
X161754415Y-105204619D01*
X161854061Y-105223823D01*
X161907003Y-105358036D01*
X161923748Y-105497669D01*
X161966855Y-105723967D01*
X162031646Y-105791686D01*
X162097297Y-105706159D01*
X162142985Y-105472718D01*
X162145702Y-105440827D01*
X162178278Y-105202391D01*
X162184591Y-105193933D01*
X161297594Y-105193933D01*
X161270357Y-105329848D01*
X161214927Y-105435907D01*
X161181831Y-105383680D01*
X161167746Y-105326873D01*
X161159951Y-105172982D01*
X161180849Y-105122262D01*
X161261508Y-105102082D01*
X161297594Y-105193933D01*
X162184591Y-105193933D01*
X162244314Y-105113929D01*
X162369705Y-105156253D01*
X162452871Y-105213202D01*
X162555793Y-105325123D01*
X162531170Y-105464150D01*
X162505750Y-105514502D01*
X162452944Y-105710969D01*
X162459659Y-105936145D01*
X162515917Y-106125162D01*
X162611743Y-106213153D01*
X162613227Y-106213348D01*
X162753004Y-106213348D01*
X162718282Y-106175445D01*
X162574611Y-105979974D01*
X162502608Y-105806333D01*
X162500667Y-105783645D01*
X162545037Y-105642385D01*
X162644907Y-105508685D01*
X162750416Y-105439355D01*
X162793526Y-105449970D01*
X162821674Y-105546592D01*
X162857429Y-105758729D01*
X162882095Y-105948868D01*
X162935898Y-106413000D01*
X163934344Y-106413000D01*
X163643667Y-106378532D01*
X163386059Y-106336764D01*
X163252697Y-106274223D01*
X163198543Y-106165966D01*
X163192047Y-106128436D01*
X163198211Y-105991919D01*
X163249696Y-105981650D01*
X163360474Y-105971881D01*
X163452353Y-105797513D01*
X163501441Y-105579514D01*
X163261906Y-105579514D01*
X163242178Y-105739711D01*
X163206222Y-105806222D01*
X163132324Y-105855867D01*
X163099866Y-105787290D01*
X163093333Y-105608667D01*
X163117858Y-105430325D01*
X163176947Y-105354686D01*
X163178000Y-105354667D01*
X163238835Y-105424308D01*
X163261906Y-105579514D01*
X163501441Y-105579514D01*
X163513089Y-105527787D01*
X163581532Y-105305082D01*
X163629890Y-105270000D01*
X162797000Y-105270000D01*
X162790287Y-105348019D01*
X162759664Y-105354667D01*
X162673446Y-105293206D01*
X162670000Y-105270000D01*
X162698887Y-105187534D01*
X162707337Y-105185333D01*
X162779623Y-105244662D01*
X162797000Y-105270000D01*
X163629890Y-105270000D01*
X163657793Y-105249758D01*
X163225945Y-105249758D01*
X163142722Y-105263316D01*
X163032908Y-105247749D01*
X163031597Y-105218847D01*
X163144914Y-105198636D01*
X163193875Y-105212163D01*
X163225945Y-105249758D01*
X163657793Y-105249758D01*
X163704061Y-105216193D01*
X163729622Y-105212273D01*
X163819966Y-105210910D01*
X163761579Y-105236410D01*
X163678856Y-105295236D01*
X163661661Y-105431071D01*
X163689663Y-105628697D01*
X163762842Y-105874886D01*
X163865919Y-106055159D01*
X163896424Y-106083894D01*
X163995453Y-106229134D01*
X164058540Y-106427727D01*
X164067000Y-106428730D01*
X164363640Y-106428730D01*
X164343759Y-106221828D01*
X164772384Y-106306578D01*
X165024640Y-106363712D01*
X165155107Y-106431287D01*
X165208913Y-106548237D01*
X165226672Y-106698497D01*
X165271203Y-106927366D01*
X165338396Y-106995918D01*
X165406353Y-106907201D01*
X165452927Y-106667000D01*
X165484188Y-106328333D01*
X165579927Y-106709333D01*
X165666959Y-106954086D01*
X165750591Y-107038221D01*
X165810134Y-106963544D01*
X165824898Y-106731863D01*
X165822297Y-106688167D01*
X165826633Y-106465459D01*
X165888552Y-106375939D01*
X165923020Y-106370667D01*
X166022192Y-106451348D01*
X166072723Y-106688167D01*
X166109597Y-106892406D01*
X166168056Y-107000516D01*
X166183667Y-107005667D01*
X166244565Y-106931770D01*
X166295739Y-106753161D01*
X166327798Y-106534461D01*
X166331350Y-106340289D01*
X166297003Y-106235266D01*
X166295753Y-106234449D01*
X166292954Y-106229555D01*
X166028445Y-106229555D01*
X166016822Y-106279890D01*
X165972000Y-106286000D01*
X165902310Y-106255022D01*
X165915556Y-106229555D01*
X166016035Y-106219422D01*
X166028445Y-106229555D01*
X166292954Y-106229555D01*
X166230807Y-106120897D01*
X166228693Y-106090503D01*
X166270989Y-106068126D01*
X166350060Y-106146312D01*
X166476890Y-106246025D01*
X166563380Y-106244462D01*
X166596668Y-106271595D01*
X166557592Y-106421784D01*
X166527242Y-106498978D01*
X166450390Y-106743525D01*
X166452383Y-106897584D01*
X166529887Y-106934616D01*
X166579156Y-106912045D01*
X166667891Y-106803028D01*
X166771386Y-106606150D01*
X166786109Y-106571997D01*
X166899259Y-106371498D01*
X167045313Y-106293349D01*
X167145014Y-106286000D01*
X167369529Y-106261096D01*
X167663087Y-106198049D01*
X167800044Y-106159916D01*
X168126636Y-106082767D01*
X168457133Y-106037659D01*
X168564082Y-106032916D01*
X168898308Y-105978872D01*
X167899496Y-105978872D01*
X167872767Y-106023782D01*
X167665878Y-106126918D01*
X167325503Y-106184633D01*
X167211775Y-106191512D01*
X167044059Y-106178071D01*
X167009979Y-106104449D01*
X167021275Y-106067408D01*
X167050255Y-105910360D01*
X167061977Y-105748362D01*
X166809736Y-105748362D01*
X166792065Y-105912051D01*
X166767275Y-105982742D01*
X166656630Y-106102490D01*
X166480991Y-106069212D01*
X166388219Y-106008140D01*
X166286480Y-105859666D01*
X166281786Y-105845375D01*
X165718000Y-105845375D01*
X165691287Y-106070238D01*
X165624859Y-106216180D01*
X165539795Y-106238183D01*
X165513900Y-106192352D01*
X165210000Y-106192352D01*
X165186533Y-106260895D01*
X165093881Y-106279908D01*
X164898667Y-106249328D01*
X164654826Y-106191282D01*
X164278667Y-106096564D01*
X164278667Y-105651000D01*
X164024667Y-105651000D01*
X164017857Y-105886940D01*
X163989042Y-105983156D01*
X163925645Y-105968996D01*
X163897667Y-105947333D01*
X163794379Y-105781439D01*
X163770667Y-105651000D01*
X163823994Y-105451458D01*
X163897667Y-105354667D01*
X163974041Y-105312823D01*
X164012018Y-105372454D01*
X164024174Y-105562905D01*
X164024667Y-105651000D01*
X164278667Y-105651000D01*
X164278667Y-105640949D01*
X164291551Y-105359820D01*
X164335284Y-105217881D01*
X164400302Y-105185333D01*
X164498752Y-105263320D01*
X164548469Y-105460500D01*
X164589919Y-105647936D01*
X164655231Y-105734912D01*
X164661737Y-105735667D01*
X164796276Y-105788464D01*
X164972253Y-105913552D01*
X165129695Y-106060975D01*
X165208628Y-106180779D01*
X165210000Y-106192352D01*
X165513900Y-106192352D01*
X165474865Y-106123269D01*
X165464000Y-106037370D01*
X165525289Y-105854898D01*
X165591000Y-105778000D01*
X165689260Y-105722899D01*
X165717519Y-105812028D01*
X165718000Y-105845375D01*
X166281786Y-105845375D01*
X166210629Y-105628763D01*
X166203062Y-105587620D01*
X166201880Y-105572026D01*
X165210000Y-105572026D01*
X165206877Y-105815330D01*
X165185584Y-105915571D01*
X165128234Y-105899017D01*
X165042725Y-105817687D01*
X164905326Y-105612568D01*
X164820475Y-105375539D01*
X164802787Y-105171053D01*
X164862892Y-105100993D01*
X164870625Y-105100667D01*
X164939626Y-105166929D01*
X164929430Y-105277793D01*
X164905465Y-105398083D01*
X164952052Y-105389173D01*
X165046555Y-105307004D01*
X165143861Y-105228418D01*
X165192030Y-105242315D01*
X165208320Y-105376679D01*
X165210000Y-105572026D01*
X166201880Y-105572026D01*
X166185818Y-105360204D01*
X166239915Y-105234662D01*
X166259880Y-105220611D01*
X165626649Y-105220611D01*
X165611083Y-105330425D01*
X165582181Y-105331736D01*
X165561969Y-105218419D01*
X165575497Y-105169458D01*
X165613091Y-105137388D01*
X165626649Y-105220611D01*
X166259880Y-105220611D01*
X166307918Y-105186804D01*
X166415241Y-105155030D01*
X166484123Y-105228345D01*
X166542325Y-105419518D01*
X166615087Y-105615912D01*
X166698725Y-105712468D01*
X166719750Y-105714500D01*
X166809736Y-105748362D01*
X167061977Y-105748362D01*
X167068892Y-105652803D01*
X167072667Y-105468534D01*
X167080277Y-105200580D01*
X167083767Y-105185333D01*
X166805298Y-105185333D01*
X166791993Y-105305529D01*
X166762594Y-105291167D01*
X166751411Y-105117824D01*
X166762594Y-105079500D01*
X166793496Y-105068864D01*
X166805298Y-105185333D01*
X167083767Y-105185333D01*
X167111186Y-105065571D01*
X167177507Y-105027489D01*
X167219545Y-105031870D01*
X167345785Y-105140042D01*
X167417163Y-105372308D01*
X167513162Y-105699203D01*
X167666481Y-105896533D01*
X167819634Y-105947333D01*
X167899496Y-105978872D01*
X168898308Y-105978872D01*
X168910622Y-105976881D01*
X169123516Y-105866012D01*
X169304264Y-105723836D01*
X169151882Y-105723836D01*
X169098318Y-105785885D01*
X169057349Y-105817640D01*
X168820524Y-105914405D01*
X168494566Y-105949524D01*
X168147130Y-105925312D01*
X167845872Y-105844083D01*
X167719085Y-105771855D01*
X167605306Y-105640267D01*
X167522827Y-105473798D01*
X167483417Y-105318718D01*
X167498846Y-105221295D01*
X167580667Y-105227667D01*
X167721560Y-105238045D01*
X167762826Y-105219739D01*
X167798720Y-105138945D01*
X167713502Y-105052130D01*
X167617315Y-104963758D01*
X167661357Y-104896982D01*
X167694306Y-104878188D01*
X166342753Y-104878188D01*
X166337693Y-105036755D01*
X166261208Y-105073873D01*
X166220150Y-105054717D01*
X166216384Y-105046210D01*
X165099813Y-105046210D01*
X165069276Y-105099370D01*
X164938598Y-105056806D01*
X164902247Y-105035870D01*
X164835468Y-104919874D01*
X164821995Y-104866867D01*
X164490684Y-104866867D01*
X164483302Y-105023395D01*
X164469672Y-105050772D01*
X164366670Y-105099729D01*
X164304101Y-104994794D01*
X164288429Y-104827666D01*
X163767434Y-104827666D01*
X163745422Y-105019772D01*
X163694193Y-105100499D01*
X163691188Y-105100667D01*
X163631722Y-105025465D01*
X163575080Y-104835985D01*
X163558882Y-104746267D01*
X163264466Y-104746267D01*
X163232464Y-104969326D01*
X163165983Y-105091017D01*
X163135667Y-105100667D01*
X163064431Y-105063926D01*
X163024837Y-104932644D01*
X163009597Y-104675232D01*
X163008667Y-104550333D01*
X163023125Y-104238229D01*
X163061606Y-104050475D01*
X163116776Y-104000231D01*
X163181295Y-104100654D01*
X163209303Y-104190500D01*
X163258057Y-104470455D01*
X163264466Y-104746267D01*
X163558882Y-104746267D01*
X163557002Y-104735855D01*
X163529595Y-104441515D01*
X163530516Y-104171244D01*
X163535480Y-104122021D01*
X163568665Y-103873000D01*
X163669666Y-104111345D01*
X163728407Y-104320625D01*
X163761380Y-104577008D01*
X163767434Y-104827666D01*
X164288429Y-104827666D01*
X164279322Y-104730559D01*
X164278667Y-104660400D01*
X164290859Y-104421297D01*
X164323267Y-104300758D01*
X164352307Y-104300567D01*
X164413985Y-104433852D01*
X164463845Y-104646485D01*
X164490684Y-104866867D01*
X164821995Y-104866867D01*
X164779670Y-104700356D01*
X164764373Y-104592667D01*
X164724387Y-104312086D01*
X164675249Y-104073925D01*
X164660085Y-104021167D01*
X164637477Y-103866002D01*
X164690538Y-103829087D01*
X164785957Y-103899068D01*
X164890422Y-104064591D01*
X164908514Y-104105833D01*
X164993141Y-104355729D01*
X165058384Y-104627595D01*
X165096517Y-104873673D01*
X165099813Y-105046210D01*
X166216384Y-105046210D01*
X166172431Y-104946926D01*
X166148110Y-104735931D01*
X166147299Y-104651170D01*
X166147570Y-104635000D01*
X165379333Y-104635000D01*
X165337000Y-104677333D01*
X165294667Y-104635000D01*
X165337000Y-104592667D01*
X165379333Y-104635000D01*
X166147570Y-104635000D01*
X166153265Y-104296333D01*
X166273253Y-104623612D01*
X166342753Y-104878188D01*
X167694306Y-104878188D01*
X167743009Y-104850408D01*
X167875347Y-104800070D01*
X167917338Y-104868778D01*
X167919333Y-104924370D01*
X167990041Y-105267157D01*
X168195941Y-105514162D01*
X168527697Y-105657842D01*
X168870833Y-105693333D01*
X169084030Y-105698301D01*
X169151882Y-105723836D01*
X169304264Y-105723836D01*
X169334535Y-105700025D01*
X169431628Y-105913120D01*
X169537908Y-106058609D01*
X169628498Y-106055991D01*
X169670382Y-105925603D01*
X169654523Y-105775827D01*
X169644486Y-105578383D01*
X169743906Y-105460758D01*
X169771893Y-105444743D01*
X169898075Y-105406156D01*
X170011473Y-105467031D01*
X170145806Y-105629355D01*
X170292892Y-105848857D01*
X170395951Y-106039043D01*
X170407255Y-106067324D01*
X170476075Y-106173920D01*
X170561412Y-106133121D01*
X170605183Y-105992097D01*
X170524893Y-105769063D01*
X170357109Y-105506894D01*
X170291398Y-105378307D01*
X170341005Y-105296777D01*
X170529345Y-105235721D01*
X170536078Y-105234301D01*
X169782000Y-105234301D01*
X169722434Y-105371094D01*
X169591932Y-105475787D01*
X169462784Y-105492744D01*
X169452893Y-105487574D01*
X169342054Y-105498064D01*
X169311267Y-105532198D01*
X169193687Y-105584809D01*
X168971145Y-105598696D01*
X168702166Y-105579236D01*
X168445277Y-105531803D01*
X168259007Y-105461773D01*
X168220455Y-105432011D01*
X168105574Y-105255775D01*
X168045650Y-105109025D01*
X168017860Y-104967140D01*
X168078984Y-104948532D01*
X168142396Y-104971961D01*
X168397143Y-105047235D01*
X168745570Y-105112645D01*
X169112026Y-105157454D01*
X169420862Y-105170922D01*
X169506833Y-105165650D01*
X169711205Y-105169913D01*
X169782000Y-105234301D01*
X170536078Y-105234301D01*
X170611165Y-105218467D01*
X170758027Y-105203048D01*
X170888764Y-105239052D01*
X171042525Y-105349087D01*
X171258461Y-105555760D01*
X171341332Y-105640103D01*
X171599524Y-105881221D01*
X171776621Y-106003070D01*
X171860718Y-106009160D01*
X171839910Y-105902998D01*
X171702292Y-105688095D01*
X171603899Y-105562714D01*
X171435078Y-105339404D01*
X171381983Y-105218537D01*
X171429223Y-105185333D01*
X171553145Y-105239671D01*
X171755586Y-105380271D01*
X171995474Y-105573516D01*
X172231735Y-105785786D01*
X172423296Y-105983465D01*
X172463629Y-106032000D01*
X172551236Y-106112107D01*
X172609913Y-106039315D01*
X172621345Y-106010833D01*
X172645681Y-105838389D01*
X172607339Y-105687493D01*
X172526006Y-105626175D01*
X172510863Y-105629048D01*
X172408699Y-105592929D01*
X172235544Y-105476104D01*
X172163345Y-105418167D01*
X171885675Y-105185333D01*
X172271744Y-105185333D01*
X172495546Y-105193149D01*
X172634993Y-105241420D01*
X172742913Y-105367383D01*
X172872136Y-105608276D01*
X172872333Y-105608667D01*
X173002548Y-105840298D01*
X173113590Y-105994062D01*
X173165096Y-106032000D01*
X173275508Y-105976207D01*
X173261052Y-105814372D01*
X173164279Y-105621805D01*
X173034427Y-105379367D01*
X173013655Y-105242930D01*
X173101880Y-105189044D01*
X173162727Y-105185333D01*
X173320344Y-105267836D01*
X173490703Y-105516684D01*
X173519492Y-105572522D01*
X173665590Y-105845227D01*
X173773059Y-105985037D01*
X173865989Y-106016346D01*
X173931137Y-105989376D01*
X173943774Y-105888860D01*
X173864030Y-105685485D01*
X173796092Y-105561046D01*
X173672407Y-105322513D01*
X173653771Y-105204998D01*
X173689788Y-105188507D01*
X173788107Y-105258497D01*
X173932674Y-105438092D01*
X174078833Y-105666331D01*
X174198309Y-105880293D01*
X174277003Y-106059449D01*
X174323414Y-106248166D01*
X174346043Y-106490808D01*
X174353390Y-106831742D01*
X174354000Y-107102491D01*
X174523333Y-107102491D01*
X174523333Y-105413182D01*
X174354000Y-105413182D01*
X174346855Y-105568145D01*
X174304816Y-105569607D01*
X174229693Y-105476682D01*
X174132236Y-105325594D01*
X174102693Y-105248833D01*
X174168885Y-105192496D01*
X174227000Y-105185333D01*
X174328616Y-105259773D01*
X174354000Y-105413182D01*
X174523333Y-105413182D01*
X174523333Y-99936000D01*
X174354000Y-99936000D01*
X174354000Y-105112444D01*
X174198687Y-105089358D01*
X173697565Y-105089358D01*
X173662406Y-105100014D01*
X173565502Y-105037167D01*
X173252444Y-105037167D01*
X173181405Y-105085495D01*
X173062833Y-105097405D01*
X172889755Y-105024771D01*
X172576000Y-105024771D01*
X172500068Y-105068940D01*
X172306896Y-105096090D01*
X172173833Y-105100246D01*
X171900699Y-105070823D01*
X171371205Y-105070823D01*
X171339615Y-105098602D01*
X171242513Y-105100667D01*
X171075532Y-105067699D01*
X171041210Y-105042419D01*
X170205333Y-105042419D01*
X170179897Y-105056221D01*
X170013719Y-105063146D01*
X169735270Y-105062692D01*
X169431492Y-105056124D01*
X168896709Y-105027010D01*
X168514486Y-104973990D01*
X168269458Y-104894919D01*
X168267325Y-104893822D01*
X168065979Y-104764091D01*
X168018790Y-104689294D01*
X167675171Y-104689294D01*
X167653024Y-104766454D01*
X167597935Y-104814320D01*
X167436246Y-104848504D01*
X167277777Y-104762000D01*
X166818667Y-104762000D01*
X166787689Y-104831690D01*
X166762222Y-104818444D01*
X166752089Y-104717965D01*
X166762222Y-104705555D01*
X166812557Y-104717178D01*
X166818667Y-104762000D01*
X167277777Y-104762000D01*
X167270822Y-104758204D01*
X167140499Y-104582830D01*
X167084119Y-104361792D01*
X167087011Y-104295893D01*
X167087792Y-104289278D01*
X165711316Y-104289278D01*
X165695749Y-104399092D01*
X165666847Y-104400403D01*
X165646636Y-104287086D01*
X165660163Y-104238125D01*
X165697758Y-104206055D01*
X165711316Y-104289278D01*
X167087792Y-104289278D01*
X167115000Y-104058946D01*
X167428601Y-104382823D01*
X167605533Y-104574591D01*
X167675171Y-104689294D01*
X168018790Y-104689294D01*
X168010566Y-104676260D01*
X168094849Y-104653588D01*
X168312591Y-104719332D01*
X168313970Y-104719908D01*
X168594943Y-104798474D01*
X168810699Y-104785539D01*
X168925555Y-104686306D01*
X168935333Y-104629294D01*
X169005300Y-104528884D01*
X169094083Y-104508000D01*
X169289473Y-104491543D01*
X169527096Y-104453147D01*
X169709909Y-104426123D01*
X169767325Y-104465531D01*
X169739575Y-104592955D01*
X169712311Y-104729761D01*
X169778694Y-104744767D01*
X169835730Y-104724352D01*
X170066646Y-104638052D01*
X170154546Y-104625003D01*
X170109681Y-104686455D01*
X170036553Y-104748865D01*
X169913199Y-104855822D01*
X169896842Y-104921166D01*
X170006618Y-104978178D01*
X170205333Y-105042419D01*
X171041210Y-105042419D01*
X171013283Y-105021850D01*
X170999950Y-104924405D01*
X171092748Y-104904373D01*
X171243365Y-104969730D01*
X171259616Y-104981174D01*
X171371205Y-105070823D01*
X171900699Y-105070823D01*
X171837082Y-105063970D01*
X171576080Y-104938982D01*
X171517667Y-104894567D01*
X171263667Y-104689308D01*
X171300821Y-104673611D01*
X170870598Y-104673611D01*
X170842961Y-104757748D01*
X170737298Y-104809508D01*
X170700106Y-104796158D01*
X170664471Y-104706395D01*
X170704545Y-104652255D01*
X170818373Y-104603760D01*
X170870598Y-104673611D01*
X171300821Y-104673611D01*
X171578447Y-104556321D01*
X171786529Y-104472424D01*
X171919232Y-104426363D01*
X171935335Y-104423333D01*
X172031545Y-104477681D01*
X172192244Y-104610344D01*
X172368889Y-104775754D01*
X172512940Y-104928342D01*
X172575854Y-105022539D01*
X172576000Y-105024771D01*
X172889755Y-105024771D01*
X172866150Y-105014865D01*
X172703000Y-104825397D01*
X172409255Y-104471199D01*
X172080138Y-104275178D01*
X171727079Y-104240950D01*
X171361507Y-104372131D01*
X171330146Y-104391072D01*
X171104360Y-104502405D01*
X170989318Y-104494169D01*
X170987920Y-104387621D01*
X170600824Y-104387621D01*
X170522618Y-104476263D01*
X170350118Y-104540139D01*
X170165113Y-104556763D01*
X169968776Y-104541930D01*
X169870770Y-104513745D01*
X169868213Y-104508000D01*
X169908650Y-104408847D01*
X169948202Y-104340834D01*
X169964138Y-104201385D01*
X169873483Y-104201385D01*
X169844309Y-104271383D01*
X169724545Y-104340092D01*
X169633833Y-104362690D01*
X169242773Y-104406282D01*
X168975712Y-104393103D01*
X168795612Y-104318729D01*
X168723667Y-104254000D01*
X168637966Y-104126713D01*
X168673208Y-104084667D01*
X168736025Y-104034631D01*
X168723667Y-104000000D01*
X168768726Y-103950556D01*
X168964649Y-103921636D01*
X169184337Y-103915333D01*
X169480950Y-103924919D01*
X169640906Y-103958936D01*
X169696069Y-104025274D01*
X169697333Y-104042333D01*
X169743051Y-104155005D01*
X169782000Y-104169333D01*
X169873483Y-104201385D01*
X169964138Y-104201385D01*
X169965828Y-104186598D01*
X169883406Y-104069732D01*
X169666628Y-103833187D01*
X169556576Y-103665334D01*
X169528000Y-103537907D01*
X169468651Y-103423227D01*
X169414590Y-103407333D01*
X169299351Y-103338114D01*
X169204739Y-103195667D01*
X169158660Y-103043641D01*
X169184093Y-102984000D01*
X169278091Y-103050275D01*
X169292167Y-103080832D01*
X169391403Y-103160538D01*
X169553205Y-103202054D01*
X169832886Y-103288984D01*
X170098669Y-103462706D01*
X170290266Y-103677875D01*
X170341582Y-103795038D01*
X170367954Y-104037296D01*
X170356448Y-104255084D01*
X170350539Y-104431689D01*
X170387661Y-104507928D01*
X170389330Y-104508000D01*
X170450823Y-104438890D01*
X170459333Y-104376003D01*
X170502192Y-104289651D01*
X170548111Y-104298874D01*
X170600824Y-104387621D01*
X170987920Y-104387621D01*
X170987783Y-104377236D01*
X171102517Y-104162474D01*
X171228448Y-103991017D01*
X171472044Y-103752466D01*
X171725160Y-103666008D01*
X172023857Y-103725241D01*
X172216787Y-103815544D01*
X172371377Y-103933713D01*
X172576682Y-104136214D01*
X172799893Y-104384347D01*
X173008200Y-104639409D01*
X173168791Y-104862698D01*
X173248858Y-105015513D01*
X173252444Y-105037167D01*
X173565502Y-105037167D01*
X173557117Y-105031729D01*
X173418230Y-104859238D01*
X173349538Y-104749010D01*
X173020377Y-104256934D01*
X172663395Y-103869638D01*
X172296417Y-103596056D01*
X171937267Y-103445120D01*
X171603770Y-103425764D01*
X171313750Y-103546922D01*
X171188234Y-103665801D01*
X171026359Y-103869712D01*
X170906287Y-104040841D01*
X170892568Y-104063968D01*
X170809173Y-104156278D01*
X170698131Y-104106838D01*
X170679194Y-104091467D01*
X170559112Y-103949058D01*
X170575270Y-103853573D01*
X170669955Y-103830667D01*
X170788319Y-103772538D01*
X170977384Y-103620174D01*
X171152083Y-103449667D01*
X170882667Y-103449667D01*
X170840333Y-103492000D01*
X170798000Y-103449667D01*
X170840333Y-103407333D01*
X170882667Y-103449667D01*
X171152083Y-103449667D01*
X171195458Y-103407333D01*
X171485691Y-103136689D01*
X171739153Y-103003411D01*
X172001002Y-102996671D01*
X172316391Y-103105639D01*
X172362899Y-103127367D01*
X172482380Y-103194415D01*
X172597866Y-103288570D01*
X172724515Y-103430365D01*
X172877484Y-103640331D01*
X173071934Y-103939003D01*
X173323021Y-104346912D01*
X173585308Y-104783167D01*
X173694015Y-104993001D01*
X173697565Y-105089358D01*
X174198687Y-105089358D01*
X174171978Y-105085388D01*
X174002107Y-104979746D01*
X173802739Y-104710500D01*
X173727478Y-104580018D01*
X173400698Y-104002576D01*
X173123487Y-103561397D01*
X172877423Y-103237661D01*
X172644085Y-103012547D01*
X172405051Y-102867235D01*
X172141901Y-102782903D01*
X171936723Y-102750440D01*
X171684036Y-102736066D01*
X171508512Y-102783725D01*
X171329022Y-102921956D01*
X171258493Y-102989014D01*
X170967333Y-103271217D01*
X170965451Y-103021775D01*
X170949252Y-102947374D01*
X170871368Y-102947374D01*
X170826503Y-103207662D01*
X170657933Y-103402485D01*
X170489274Y-103514548D01*
X170374239Y-103516791D01*
X170298100Y-103465158D01*
X170126316Y-103351433D01*
X169887292Y-103227027D01*
X169647273Y-103122974D01*
X169472505Y-103070305D01*
X169451705Y-103068667D01*
X169362853Y-103009061D01*
X169358667Y-102984000D01*
X169296231Y-102911284D01*
X169168401Y-102909563D01*
X169066255Y-102977655D01*
X169060700Y-103116097D01*
X169132028Y-103297412D01*
X169241722Y-103446464D01*
X169329924Y-103492000D01*
X169421918Y-103562603D01*
X169443333Y-103661333D01*
X169424553Y-103757187D01*
X169341886Y-103807239D01*
X169155844Y-103824758D01*
X168956500Y-103824936D01*
X168694695Y-103817476D01*
X168581610Y-103798658D01*
X168596696Y-103761713D01*
X168660167Y-103727331D01*
X168809146Y-103624139D01*
X168847494Y-103532637D01*
X168759309Y-103492024D01*
X168755633Y-103492000D01*
X168704656Y-103458218D01*
X168756942Y-103375914D01*
X168809677Y-103213766D01*
X168765499Y-103058414D01*
X168704354Y-102925805D01*
X168692016Y-102945919D01*
X168710502Y-103091854D01*
X168712300Y-103276848D01*
X168673677Y-103369732D01*
X168637567Y-103473621D01*
X168651756Y-103537045D01*
X168635182Y-103643371D01*
X168563392Y-103661333D01*
X168447575Y-103718323D01*
X168443224Y-103852417D01*
X168528933Y-103983067D01*
X168586081Y-104066645D01*
X168521407Y-104084667D01*
X168496460Y-104138909D01*
X168582621Y-104284175D01*
X168632040Y-104345835D01*
X168759534Y-104527468D01*
X168809050Y-104661455D01*
X168803903Y-104684502D01*
X168684361Y-104759121D01*
X168564128Y-104693013D01*
X168561092Y-104688269D01*
X168452399Y-104619907D01*
X168270453Y-104565524D01*
X168076833Y-104488251D01*
X167974138Y-104382970D01*
X167971017Y-104217963D01*
X167974584Y-104201292D01*
X167859152Y-104201292D01*
X167755906Y-104200355D01*
X167579316Y-104123984D01*
X167449608Y-104042333D01*
X166802161Y-104042333D01*
X166793010Y-104186929D01*
X166766505Y-104199660D01*
X166763131Y-104192111D01*
X166746382Y-104024032D01*
X166750189Y-104000000D01*
X165802667Y-104000000D01*
X165771689Y-104069690D01*
X165746222Y-104056444D01*
X165736089Y-103955965D01*
X165746222Y-103943555D01*
X165796557Y-103955178D01*
X165802667Y-104000000D01*
X166750189Y-104000000D01*
X166759994Y-103938111D01*
X166786944Y-103903584D01*
X166801603Y-104016041D01*
X166802161Y-104042333D01*
X167449608Y-104042333D01*
X167387630Y-104003318D01*
X167239545Y-103870041D01*
X167200626Y-103806476D01*
X166480000Y-103806476D01*
X166470187Y-103961404D01*
X166419311Y-103969008D01*
X166342982Y-103899267D01*
X166257473Y-103756731D01*
X166260156Y-103716616D01*
X165565973Y-103716616D01*
X165505927Y-103949214D01*
X165485138Y-104003924D01*
X165376418Y-104203473D01*
X165282348Y-104244977D01*
X165222531Y-104129075D01*
X165211297Y-103995015D01*
X165255123Y-103822250D01*
X165359426Y-103671133D01*
X165478576Y-103597476D01*
X165528763Y-103606698D01*
X165565973Y-103716616D01*
X166260156Y-103716616D01*
X166263312Y-103669458D01*
X166368512Y-103577858D01*
X166450478Y-103636815D01*
X166480000Y-103806476D01*
X167200626Y-103806476D01*
X167136669Y-103702018D01*
X167102799Y-103556913D01*
X167150829Y-103492110D01*
X167154616Y-103492000D01*
X166903333Y-103492000D01*
X166874447Y-103574465D01*
X166865997Y-103576667D01*
X166793711Y-103517338D01*
X166776333Y-103492000D01*
X166783046Y-103413981D01*
X166813670Y-103407333D01*
X166899888Y-103468794D01*
X166903333Y-103492000D01*
X167154616Y-103492000D01*
X167252161Y-103545213D01*
X167409998Y-103678115D01*
X167588287Y-103850601D01*
X167747193Y-104022564D01*
X167846879Y-104153898D01*
X167859152Y-104201292D01*
X167974584Y-104201292D01*
X168025356Y-103964006D01*
X168048884Y-103892425D01*
X167919333Y-103892425D01*
X167896336Y-103974836D01*
X167801822Y-103923136D01*
X167792333Y-103915333D01*
X167685974Y-103794450D01*
X167665333Y-103738290D01*
X167727808Y-103700624D01*
X167792333Y-103715382D01*
X167904952Y-103827779D01*
X167919333Y-103892425D01*
X168048884Y-103892425D01*
X168117717Y-103683011D01*
X168228659Y-103436892D01*
X168309163Y-103316000D01*
X168406471Y-103165922D01*
X168427333Y-103090222D01*
X168493832Y-102977912D01*
X168533167Y-102955406D01*
X168577467Y-102918671D01*
X168512000Y-102909969D01*
X168401647Y-102978287D01*
X168269392Y-103154157D01*
X168213228Y-103256875D01*
X168092020Y-103472873D01*
X167985166Y-103612787D01*
X167952012Y-103636329D01*
X167816423Y-103602939D01*
X167656238Y-103462326D01*
X167511576Y-103263750D01*
X167422554Y-103056468D01*
X167411333Y-102972454D01*
X167433000Y-102801701D01*
X167533497Y-102737800D01*
X167670900Y-102730000D01*
X167996696Y-102681555D01*
X168196964Y-102542490D01*
X168258000Y-102346021D01*
X168261654Y-102277619D01*
X167782162Y-102277619D01*
X167732466Y-102404802D01*
X167639762Y-102552261D01*
X167538654Y-102562217D01*
X167477828Y-102529669D01*
X167357831Y-102364497D01*
X167326667Y-102173411D01*
X167346872Y-101938680D01*
X167417939Y-101860558D01*
X167555541Y-101930015D01*
X167632738Y-101997112D01*
X167766443Y-102146157D01*
X167782162Y-102277619D01*
X168261654Y-102277619D01*
X168263765Y-102238119D01*
X168303053Y-102170204D01*
X168408855Y-102130935D01*
X168614162Y-102108973D01*
X168917578Y-102094607D01*
X168119134Y-102094607D01*
X168112574Y-102171729D01*
X167990773Y-102130606D01*
X167758044Y-101972914D01*
X167707667Y-101934563D01*
X167612870Y-101835528D01*
X167649733Y-101801359D01*
X167866751Y-101857724D01*
X168057326Y-101998562D01*
X168119134Y-102094607D01*
X168917578Y-102094607D01*
X168951963Y-102092979D01*
X168999787Y-102091050D01*
X169262588Y-102087861D01*
X169404103Y-102117462D01*
X169471714Y-102197639D01*
X169496541Y-102277514D01*
X169623988Y-102491017D01*
X169848835Y-102641975D01*
X170114507Y-102711900D01*
X170364426Y-102682302D01*
X170490305Y-102602267D01*
X170594989Y-102526453D01*
X170683983Y-102575707D01*
X170750352Y-102663439D01*
X170871368Y-102947374D01*
X170949252Y-102947374D01*
X170910806Y-102770800D01*
X170798000Y-102560667D01*
X170676072Y-102326098D01*
X170644755Y-102171702D01*
X170541670Y-102171702D01*
X170512990Y-102386971D01*
X170447815Y-102537947D01*
X170442400Y-102543733D01*
X170277875Y-102640757D01*
X170158678Y-102590211D01*
X170120667Y-102438663D01*
X170086337Y-102257199D01*
X170027959Y-102174697D01*
X170021281Y-102095064D01*
X170155692Y-101972968D01*
X170170844Y-101962854D01*
X170350043Y-101868969D01*
X170469620Y-101848143D01*
X170475218Y-101850817D01*
X170530274Y-101967772D01*
X170541670Y-102171702D01*
X170644755Y-102171702D01*
X170630549Y-102101667D01*
X170563133Y-101809415D01*
X170434111Y-101671186D01*
X170332826Y-101671186D01*
X170255647Y-101756972D01*
X170053483Y-101915750D01*
X170003415Y-101953508D01*
X169778699Y-102090899D01*
X169609747Y-102134912D01*
X169530223Y-102078291D01*
X169528000Y-102055965D01*
X169600341Y-101907785D01*
X169777452Y-101760825D01*
X169999469Y-101655913D01*
X170153565Y-101629333D01*
X170295353Y-101636077D01*
X170332826Y-101671186D01*
X170434111Y-101671186D01*
X170388822Y-101622666D01*
X170141734Y-101553175D01*
X169855989Y-101612694D01*
X169628107Y-101756333D01*
X169419288Y-101918851D01*
X169323496Y-101965191D01*
X169339619Y-101904259D01*
X169466545Y-101744960D01*
X169654479Y-101545196D01*
X169890568Y-101284240D01*
X169994064Y-101113510D01*
X169983659Y-101035125D01*
X169885933Y-101038621D01*
X169704982Y-101169510D01*
X169433744Y-101432995D01*
X169409868Y-101457929D01*
X169168358Y-101693907D01*
X168954811Y-101872002D01*
X168806040Y-101962423D01*
X168779502Y-101968000D01*
X168655513Y-101905140D01*
X168474960Y-101741259D01*
X168298664Y-101538386D01*
X168100151Y-101300888D01*
X167922249Y-101114596D01*
X167818638Y-101030157D01*
X167675259Y-100978543D01*
X167644993Y-101037288D01*
X167723545Y-101194733D01*
X167906619Y-101439216D01*
X168017128Y-101569022D01*
X168213649Y-101811642D01*
X168320356Y-101980592D01*
X168334668Y-102060277D01*
X168254003Y-102035105D01*
X168075780Y-101889481D01*
X168069162Y-101883333D01*
X167867046Y-101764465D01*
X167630222Y-101716241D01*
X167419446Y-101741433D01*
X167295469Y-101842814D01*
X167293392Y-101847925D01*
X167251950Y-102041854D01*
X167245099Y-102265827D01*
X167271352Y-102446206D01*
X167306695Y-102505990D01*
X167339436Y-102606951D01*
X167347056Y-102815538D01*
X167341073Y-102927142D01*
X167310758Y-103308312D01*
X167058203Y-103220271D01*
X166887941Y-103181729D01*
X166713385Y-103204482D01*
X166477032Y-103300238D01*
X166344345Y-103365629D01*
X166084751Y-103491325D01*
X165926528Y-103543366D01*
X165822340Y-103529094D01*
X165730354Y-103460847D01*
X165509225Y-103335396D01*
X165308015Y-103378040D01*
X165153040Y-103544774D01*
X165007510Y-103766881D01*
X164821801Y-103533980D01*
X164650751Y-103380978D01*
X164519761Y-103380274D01*
X164450722Y-103527865D01*
X164445325Y-103602830D01*
X164404113Y-103736436D01*
X164305508Y-103915260D01*
X164182941Y-104091634D01*
X164069844Y-104217887D01*
X163999646Y-104246350D01*
X163996647Y-104242602D01*
X163952695Y-104153144D01*
X163866304Y-103967092D01*
X163833026Y-103894166D01*
X163701207Y-103659469D01*
X163586196Y-103586444D01*
X163476113Y-103669879D01*
X163443149Y-103723071D01*
X163372541Y-103819146D01*
X163289947Y-103799263D01*
X163191046Y-103715472D01*
X163071455Y-103621357D01*
X162994042Y-103639177D01*
X162903977Y-103787624D01*
X162887770Y-103818863D01*
X162805889Y-104074784D01*
X162760039Y-104422445D01*
X162754667Y-104588462D01*
X162743922Y-104889708D01*
X162707270Y-105050997D01*
X162638088Y-105100605D01*
X162634683Y-105100667D01*
X162551255Y-105023879D01*
X162512135Y-104931333D01*
X162246667Y-104931333D01*
X162215689Y-105001023D01*
X162190222Y-104987778D01*
X162180089Y-104887298D01*
X162190222Y-104874889D01*
X162240557Y-104886511D01*
X162246667Y-104931333D01*
X162512135Y-104931333D01*
X162466732Y-104823928D01*
X162411436Y-104613833D01*
X161820759Y-104613833D01*
X161813256Y-104896447D01*
X161780320Y-105046125D01*
X161712037Y-105098554D01*
X161685512Y-105100667D01*
X161601672Y-105072402D01*
X161579187Y-104959858D01*
X161603930Y-104748972D01*
X161667051Y-104435830D01*
X161727880Y-104271462D01*
X161778756Y-104260641D01*
X161812021Y-104408140D01*
X161820759Y-104613833D01*
X162411436Y-104613833D01*
X162393696Y-104546431D01*
X162344728Y-104237003D01*
X162331333Y-104000829D01*
X162291658Y-103776634D01*
X162188736Y-103688354D01*
X162046728Y-103750382D01*
X161998432Y-103802521D01*
X161861099Y-103918135D01*
X161763111Y-103937592D01*
X161656481Y-103982862D01*
X161538371Y-104155177D01*
X161429692Y-104415377D01*
X161355642Y-104700685D01*
X161302574Y-104926245D01*
X161257503Y-104992973D01*
X161220282Y-104899281D01*
X161190764Y-104643582D01*
X161168803Y-104224288D01*
X161154253Y-103639812D01*
X161146967Y-102888567D01*
X161146000Y-102428670D01*
X161146000Y-99936000D01*
X174354000Y-99936000D01*
X174523333Y-99936000D01*
X174523333Y-99766667D01*
X160976667Y-99766667D01*
X160976667Y-108233333D01*
X160976667Y-108233333D01*
G37*
X160976667Y-108233333D02*
X174523333Y-108233333D01*
X174523333Y-107102491D01*
X174354000Y-107102491D01*
X174354000Y-108064000D01*
X164448000Y-108064000D01*
X164448000Y-107852333D01*
X164422988Y-107753555D01*
X164335111Y-107753555D01*
X164323489Y-107803890D01*
X164278667Y-107810000D01*
X164208977Y-107779022D01*
X164222222Y-107753555D01*
X164322702Y-107743422D01*
X164335111Y-107753555D01*
X164422988Y-107753555D01*
X164405488Y-107684447D01*
X164325997Y-107640667D01*
X164186041Y-107686158D01*
X164147978Y-107781431D01*
X164230967Y-107861990D01*
X164354302Y-107926895D01*
X164343894Y-107978038D01*
X164192812Y-108016367D01*
X163894127Y-108042830D01*
X163440906Y-108058377D01*
X162826220Y-108063954D01*
X162754667Y-108064000D01*
X161146000Y-108064000D01*
X161146000Y-107247834D01*
X161151457Y-106849574D01*
X161171177Y-106587376D01*
X161210189Y-106428220D01*
X161273520Y-106339088D01*
X161285826Y-106329424D01*
X161374797Y-106234530D01*
X161316681Y-106159837D01*
X161315078Y-106158842D01*
X161244307Y-106136857D01*
X161264915Y-106188251D01*
X161273869Y-106275546D01*
X161243720Y-106286000D01*
X161211943Y-106213080D01*
X161204151Y-106036832D01*
X161216886Y-105821022D01*
X161246692Y-105629417D01*
X161284649Y-105531055D01*
X161330666Y-105516515D01*
X161367944Y-105604960D01*
X161400415Y-105816179D01*
X161432012Y-106169963D01*
X161443582Y-106330987D01*
X161470856Y-106682536D01*
X161499132Y-106975368D01*
X161523789Y-107164009D01*
X161532052Y-107201533D01*
X161594439Y-107290676D01*
X161661083Y-107242126D01*
X161714841Y-107086167D01*
X161738572Y-106853082D01*
X161738667Y-106836524D01*
X161738667Y-106465709D01*
X162111858Y-106409745D01*
X162407674Y-106386790D01*
X162679766Y-106399192D01*
X162735732Y-106408841D01*
X162904997Y-106472548D01*
X163001616Y-106603205D01*
X163061041Y-106817655D01*
X163136722Y-107051368D01*
X163215116Y-107122077D01*
X163273673Y-107034217D01*
X163289844Y-106792221D01*
X163288970Y-106772833D01*
X163272941Y-106455333D01*
X163669970Y-106442032D01*
X164058945Y-106429000D01*
X164070845Y-106466461D01*
X164085608Y-106554579D01*
X164149840Y-106871897D01*
X164232550Y-107059236D01*
X164313896Y-107111080D01*
X164374038Y-107021912D01*
X164393137Y-106786218D01*
X164383694Y-106637448D01*
X164363640Y-106428730D01*
X164067000Y-106428730D01*
X164058945Y-106429000D01*
X164058540Y-106427727D01*
X163934344Y-106413000D01*
X162935898Y-106413000D01*
X162753004Y-106213348D01*
X162613227Y-106213348D01*
X162599503Y-106231878D01*
X162467955Y-106265856D01*
X162268175Y-106305310D01*
X162049754Y-106340267D01*
X161890670Y-106358652D01*
X161770167Y-106302910D01*
X161699746Y-106099363D01*
X161699076Y-106095500D01*
X161640020Y-105678478D01*
X161633522Y-105403390D01*
X161680786Y-105250811D01*
X161754415Y-105204619D01*
X161854061Y-105223823D01*
X161907003Y-105358036D01*
X161923748Y-105497669D01*
X161966855Y-105723967D01*
X162031646Y-105791686D01*
X162097297Y-105706159D01*
X162142985Y-105472718D01*
X162145702Y-105440827D01*
X162178278Y-105202391D01*
X162184591Y-105193933D01*
X161297594Y-105193933D01*
X161270357Y-105329848D01*
X161214927Y-105435907D01*
X161181831Y-105383680D01*
X161167746Y-105326873D01*
X161159951Y-105172982D01*
X161180849Y-105122262D01*
X161261508Y-105102082D01*
X161297594Y-105193933D01*
X162184591Y-105193933D01*
X162244314Y-105113929D01*
X162369705Y-105156253D01*
X162452871Y-105213202D01*
X162555793Y-105325123D01*
X162531170Y-105464150D01*
X162505750Y-105514502D01*
X162452944Y-105710969D01*
X162459659Y-105936145D01*
X162515917Y-106125162D01*
X162611743Y-106213153D01*
X162613227Y-106213348D01*
X162753004Y-106213348D01*
X162718282Y-106175445D01*
X162574611Y-105979974D01*
X162502608Y-105806333D01*
X162500667Y-105783645D01*
X162545037Y-105642385D01*
X162644907Y-105508685D01*
X162750416Y-105439355D01*
X162793526Y-105449970D01*
X162821674Y-105546592D01*
X162857429Y-105758729D01*
X162882095Y-105948868D01*
X162935898Y-106413000D01*
X163934344Y-106413000D01*
X163643667Y-106378532D01*
X163386059Y-106336764D01*
X163252697Y-106274223D01*
X163198543Y-106165966D01*
X163192047Y-106128436D01*
X163198211Y-105991919D01*
X163249696Y-105981650D01*
X163360474Y-105971881D01*
X163452353Y-105797513D01*
X163501441Y-105579514D01*
X163261906Y-105579514D01*
X163242178Y-105739711D01*
X163206222Y-105806222D01*
X163132324Y-105855867D01*
X163099866Y-105787290D01*
X163093333Y-105608667D01*
X163117858Y-105430325D01*
X163176947Y-105354686D01*
X163178000Y-105354667D01*
X163238835Y-105424308D01*
X163261906Y-105579514D01*
X163501441Y-105579514D01*
X163513089Y-105527787D01*
X163581532Y-105305082D01*
X163629890Y-105270000D01*
X162797000Y-105270000D01*
X162790287Y-105348019D01*
X162759664Y-105354667D01*
X162673446Y-105293206D01*
X162670000Y-105270000D01*
X162698887Y-105187534D01*
X162707337Y-105185333D01*
X162779623Y-105244662D01*
X162797000Y-105270000D01*
X163629890Y-105270000D01*
X163657793Y-105249758D01*
X163225945Y-105249758D01*
X163142722Y-105263316D01*
X163032908Y-105247749D01*
X163031597Y-105218847D01*
X163144914Y-105198636D01*
X163193875Y-105212163D01*
X163225945Y-105249758D01*
X163657793Y-105249758D01*
X163704061Y-105216193D01*
X163729622Y-105212273D01*
X163819966Y-105210910D01*
X163761579Y-105236410D01*
X163678856Y-105295236D01*
X163661661Y-105431071D01*
X163689663Y-105628697D01*
X163762842Y-105874886D01*
X163865919Y-106055159D01*
X163896424Y-106083894D01*
X163995453Y-106229134D01*
X164058540Y-106427727D01*
X164067000Y-106428730D01*
X164363640Y-106428730D01*
X164343759Y-106221828D01*
X164772384Y-106306578D01*
X165024640Y-106363712D01*
X165155107Y-106431287D01*
X165208913Y-106548237D01*
X165226672Y-106698497D01*
X165271203Y-106927366D01*
X165338396Y-106995918D01*
X165406353Y-106907201D01*
X165452927Y-106667000D01*
X165484188Y-106328333D01*
X165579927Y-106709333D01*
X165666959Y-106954086D01*
X165750591Y-107038221D01*
X165810134Y-106963544D01*
X165824898Y-106731863D01*
X165822297Y-106688167D01*
X165826633Y-106465459D01*
X165888552Y-106375939D01*
X165923020Y-106370667D01*
X166022192Y-106451348D01*
X166072723Y-106688167D01*
X166109597Y-106892406D01*
X166168056Y-107000516D01*
X166183667Y-107005667D01*
X166244565Y-106931770D01*
X166295739Y-106753161D01*
X166327798Y-106534461D01*
X166331350Y-106340289D01*
X166297003Y-106235266D01*
X166295753Y-106234449D01*
X166292954Y-106229555D01*
X166028445Y-106229555D01*
X166016822Y-106279890D01*
X165972000Y-106286000D01*
X165902310Y-106255022D01*
X165915556Y-106229555D01*
X166016035Y-106219422D01*
X166028445Y-106229555D01*
X166292954Y-106229555D01*
X166230807Y-106120897D01*
X166228693Y-106090503D01*
X166270989Y-106068126D01*
X166350060Y-106146312D01*
X166476890Y-106246025D01*
X166563380Y-106244462D01*
X166596668Y-106271595D01*
X166557592Y-106421784D01*
X166527242Y-106498978D01*
X166450390Y-106743525D01*
X166452383Y-106897584D01*
X166529887Y-106934616D01*
X166579156Y-106912045D01*
X166667891Y-106803028D01*
X166771386Y-106606150D01*
X166786109Y-106571997D01*
X166899259Y-106371498D01*
X167045313Y-106293349D01*
X167145014Y-106286000D01*
X167369529Y-106261096D01*
X167663087Y-106198049D01*
X167800044Y-106159916D01*
X168126636Y-106082767D01*
X168457133Y-106037659D01*
X168564082Y-106032916D01*
X168898308Y-105978872D01*
X167899496Y-105978872D01*
X167872767Y-106023782D01*
X167665878Y-106126918D01*
X167325503Y-106184633D01*
X167211775Y-106191512D01*
X167044059Y-106178071D01*
X167009979Y-106104449D01*
X167021275Y-106067408D01*
X167050255Y-105910360D01*
X167061977Y-105748362D01*
X166809736Y-105748362D01*
X166792065Y-105912051D01*
X166767275Y-105982742D01*
X166656630Y-106102490D01*
X166480991Y-106069212D01*
X166388219Y-106008140D01*
X166286480Y-105859666D01*
X166281786Y-105845375D01*
X165718000Y-105845375D01*
X165691287Y-106070238D01*
X165624859Y-106216180D01*
X165539795Y-106238183D01*
X165513900Y-106192352D01*
X165210000Y-106192352D01*
X165186533Y-106260895D01*
X165093881Y-106279908D01*
X164898667Y-106249328D01*
X164654826Y-106191282D01*
X164278667Y-106096564D01*
X164278667Y-105651000D01*
X164024667Y-105651000D01*
X164017857Y-105886940D01*
X163989042Y-105983156D01*
X163925645Y-105968996D01*
X163897667Y-105947333D01*
X163794379Y-105781439D01*
X163770667Y-105651000D01*
X163823994Y-105451458D01*
X163897667Y-105354667D01*
X163974041Y-105312823D01*
X164012018Y-105372454D01*
X164024174Y-105562905D01*
X164024667Y-105651000D01*
X164278667Y-105651000D01*
X164278667Y-105640949D01*
X164291551Y-105359820D01*
X164335284Y-105217881D01*
X164400302Y-105185333D01*
X164498752Y-105263320D01*
X164548469Y-105460500D01*
X164589919Y-105647936D01*
X164655231Y-105734912D01*
X164661737Y-105735667D01*
X164796276Y-105788464D01*
X164972253Y-105913552D01*
X165129695Y-106060975D01*
X165208628Y-106180779D01*
X165210000Y-106192352D01*
X165513900Y-106192352D01*
X165474865Y-106123269D01*
X165464000Y-106037370D01*
X165525289Y-105854898D01*
X165591000Y-105778000D01*
X165689260Y-105722899D01*
X165717519Y-105812028D01*
X165718000Y-105845375D01*
X166281786Y-105845375D01*
X166210629Y-105628763D01*
X166203062Y-105587620D01*
X166201880Y-105572026D01*
X165210000Y-105572026D01*
X165206877Y-105815330D01*
X165185584Y-105915571D01*
X165128234Y-105899017D01*
X165042725Y-105817687D01*
X164905326Y-105612568D01*
X164820475Y-105375539D01*
X164802787Y-105171053D01*
X164862892Y-105100993D01*
X164870625Y-105100667D01*
X164939626Y-105166929D01*
X164929430Y-105277793D01*
X164905465Y-105398083D01*
X164952052Y-105389173D01*
X165046555Y-105307004D01*
X165143861Y-105228418D01*
X165192030Y-105242315D01*
X165208320Y-105376679D01*
X165210000Y-105572026D01*
X166201880Y-105572026D01*
X166185818Y-105360204D01*
X166239915Y-105234662D01*
X166259880Y-105220611D01*
X165626649Y-105220611D01*
X165611083Y-105330425D01*
X165582181Y-105331736D01*
X165561969Y-105218419D01*
X165575497Y-105169458D01*
X165613091Y-105137388D01*
X165626649Y-105220611D01*
X166259880Y-105220611D01*
X166307918Y-105186804D01*
X166415241Y-105155030D01*
X166484123Y-105228345D01*
X166542325Y-105419518D01*
X166615087Y-105615912D01*
X166698725Y-105712468D01*
X166719750Y-105714500D01*
X166809736Y-105748362D01*
X167061977Y-105748362D01*
X167068892Y-105652803D01*
X167072667Y-105468534D01*
X167080277Y-105200580D01*
X167083767Y-105185333D01*
X166805298Y-105185333D01*
X166791993Y-105305529D01*
X166762594Y-105291167D01*
X166751411Y-105117824D01*
X166762594Y-105079500D01*
X166793496Y-105068864D01*
X166805298Y-105185333D01*
X167083767Y-105185333D01*
X167111186Y-105065571D01*
X167177507Y-105027489D01*
X167219545Y-105031870D01*
X167345785Y-105140042D01*
X167417163Y-105372308D01*
X167513162Y-105699203D01*
X167666481Y-105896533D01*
X167819634Y-105947333D01*
X167899496Y-105978872D01*
X168898308Y-105978872D01*
X168910622Y-105976881D01*
X169123516Y-105866012D01*
X169304264Y-105723836D01*
X169151882Y-105723836D01*
X169098318Y-105785885D01*
X169057349Y-105817640D01*
X168820524Y-105914405D01*
X168494566Y-105949524D01*
X168147130Y-105925312D01*
X167845872Y-105844083D01*
X167719085Y-105771855D01*
X167605306Y-105640267D01*
X167522827Y-105473798D01*
X167483417Y-105318718D01*
X167498846Y-105221295D01*
X167580667Y-105227667D01*
X167721560Y-105238045D01*
X167762826Y-105219739D01*
X167798720Y-105138945D01*
X167713502Y-105052130D01*
X167617315Y-104963758D01*
X167661357Y-104896982D01*
X167694306Y-104878188D01*
X166342753Y-104878188D01*
X166337693Y-105036755D01*
X166261208Y-105073873D01*
X166220150Y-105054717D01*
X166216384Y-105046210D01*
X165099813Y-105046210D01*
X165069276Y-105099370D01*
X164938598Y-105056806D01*
X164902247Y-105035870D01*
X164835468Y-104919874D01*
X164821995Y-104866867D01*
X164490684Y-104866867D01*
X164483302Y-105023395D01*
X164469672Y-105050772D01*
X164366670Y-105099729D01*
X164304101Y-104994794D01*
X164288429Y-104827666D01*
X163767434Y-104827666D01*
X163745422Y-105019772D01*
X163694193Y-105100499D01*
X163691188Y-105100667D01*
X163631722Y-105025465D01*
X163575080Y-104835985D01*
X163558882Y-104746267D01*
X163264466Y-104746267D01*
X163232464Y-104969326D01*
X163165983Y-105091017D01*
X163135667Y-105100667D01*
X163064431Y-105063926D01*
X163024837Y-104932644D01*
X163009597Y-104675232D01*
X163008667Y-104550333D01*
X163023125Y-104238229D01*
X163061606Y-104050475D01*
X163116776Y-104000231D01*
X163181295Y-104100654D01*
X163209303Y-104190500D01*
X163258057Y-104470455D01*
X163264466Y-104746267D01*
X163558882Y-104746267D01*
X163557002Y-104735855D01*
X163529595Y-104441515D01*
X163530516Y-104171244D01*
X163535480Y-104122021D01*
X163568665Y-103873000D01*
X163669666Y-104111345D01*
X163728407Y-104320625D01*
X163761380Y-104577008D01*
X163767434Y-104827666D01*
X164288429Y-104827666D01*
X164279322Y-104730559D01*
X164278667Y-104660400D01*
X164290859Y-104421297D01*
X164323267Y-104300758D01*
X164352307Y-104300567D01*
X164413985Y-104433852D01*
X164463845Y-104646485D01*
X164490684Y-104866867D01*
X164821995Y-104866867D01*
X164779670Y-104700356D01*
X164764373Y-104592667D01*
X164724387Y-104312086D01*
X164675249Y-104073925D01*
X164660085Y-104021167D01*
X164637477Y-103866002D01*
X164690538Y-103829087D01*
X164785957Y-103899068D01*
X164890422Y-104064591D01*
X164908514Y-104105833D01*
X164993141Y-104355729D01*
X165058384Y-104627595D01*
X165096517Y-104873673D01*
X165099813Y-105046210D01*
X166216384Y-105046210D01*
X166172431Y-104946926D01*
X166148110Y-104735931D01*
X166147299Y-104651170D01*
X166147570Y-104635000D01*
X165379333Y-104635000D01*
X165337000Y-104677333D01*
X165294667Y-104635000D01*
X165337000Y-104592667D01*
X165379333Y-104635000D01*
X166147570Y-104635000D01*
X166153265Y-104296333D01*
X166273253Y-104623612D01*
X166342753Y-104878188D01*
X167694306Y-104878188D01*
X167743009Y-104850408D01*
X167875347Y-104800070D01*
X167917338Y-104868778D01*
X167919333Y-104924370D01*
X167990041Y-105267157D01*
X168195941Y-105514162D01*
X168527697Y-105657842D01*
X168870833Y-105693333D01*
X169084030Y-105698301D01*
X169151882Y-105723836D01*
X169304264Y-105723836D01*
X169334535Y-105700025D01*
X169431628Y-105913120D01*
X169537908Y-106058609D01*
X169628498Y-106055991D01*
X169670382Y-105925603D01*
X169654523Y-105775827D01*
X169644486Y-105578383D01*
X169743906Y-105460758D01*
X169771893Y-105444743D01*
X169898075Y-105406156D01*
X170011473Y-105467031D01*
X170145806Y-105629355D01*
X170292892Y-105848857D01*
X170395951Y-106039043D01*
X170407255Y-106067324D01*
X170476075Y-106173920D01*
X170561412Y-106133121D01*
X170605183Y-105992097D01*
X170524893Y-105769063D01*
X170357109Y-105506894D01*
X170291398Y-105378307D01*
X170341005Y-105296777D01*
X170529345Y-105235721D01*
X170536078Y-105234301D01*
X169782000Y-105234301D01*
X169722434Y-105371094D01*
X169591932Y-105475787D01*
X169462784Y-105492744D01*
X169452893Y-105487574D01*
X169342054Y-105498064D01*
X169311267Y-105532198D01*
X169193687Y-105584809D01*
X168971145Y-105598696D01*
X168702166Y-105579236D01*
X168445277Y-105531803D01*
X168259007Y-105461773D01*
X168220455Y-105432011D01*
X168105574Y-105255775D01*
X168045650Y-105109025D01*
X168017860Y-104967140D01*
X168078984Y-104948532D01*
X168142396Y-104971961D01*
X168397143Y-105047235D01*
X168745570Y-105112645D01*
X169112026Y-105157454D01*
X169420862Y-105170922D01*
X169506833Y-105165650D01*
X169711205Y-105169913D01*
X169782000Y-105234301D01*
X170536078Y-105234301D01*
X170611165Y-105218467D01*
X170758027Y-105203048D01*
X170888764Y-105239052D01*
X171042525Y-105349087D01*
X171258461Y-105555760D01*
X171341332Y-105640103D01*
X171599524Y-105881221D01*
X171776621Y-106003070D01*
X171860718Y-106009160D01*
X171839910Y-105902998D01*
X171702292Y-105688095D01*
X171603899Y-105562714D01*
X171435078Y-105339404D01*
X171381983Y-105218537D01*
X171429223Y-105185333D01*
X171553145Y-105239671D01*
X171755586Y-105380271D01*
X171995474Y-105573516D01*
X172231735Y-105785786D01*
X172423296Y-105983465D01*
X172463629Y-106032000D01*
X172551236Y-106112107D01*
X172609913Y-106039315D01*
X172621345Y-106010833D01*
X172645681Y-105838389D01*
X172607339Y-105687493D01*
X172526006Y-105626175D01*
X172510863Y-105629048D01*
X172408699Y-105592929D01*
X172235544Y-105476104D01*
X172163345Y-105418167D01*
X171885675Y-105185333D01*
X172271744Y-105185333D01*
X172495546Y-105193149D01*
X172634993Y-105241420D01*
X172742913Y-105367383D01*
X172872136Y-105608276D01*
X172872333Y-105608667D01*
X173002548Y-105840298D01*
X173113590Y-105994062D01*
X173165096Y-106032000D01*
X173275508Y-105976207D01*
X173261052Y-105814372D01*
X173164279Y-105621805D01*
X173034427Y-105379367D01*
X173013655Y-105242930D01*
X173101880Y-105189044D01*
X173162727Y-105185333D01*
X173320344Y-105267836D01*
X173490703Y-105516684D01*
X173519492Y-105572522D01*
X173665590Y-105845227D01*
X173773059Y-105985037D01*
X173865989Y-106016346D01*
X173931137Y-105989376D01*
X173943774Y-105888860D01*
X173864030Y-105685485D01*
X173796092Y-105561046D01*
X173672407Y-105322513D01*
X173653771Y-105204998D01*
X173689788Y-105188507D01*
X173788107Y-105258497D01*
X173932674Y-105438092D01*
X174078833Y-105666331D01*
X174198309Y-105880293D01*
X174277003Y-106059449D01*
X174323414Y-106248166D01*
X174346043Y-106490808D01*
X174353390Y-106831742D01*
X174354000Y-107102491D01*
X174523333Y-107102491D01*
X174523333Y-105413182D01*
X174354000Y-105413182D01*
X174346855Y-105568145D01*
X174304816Y-105569607D01*
X174229693Y-105476682D01*
X174132236Y-105325594D01*
X174102693Y-105248833D01*
X174168885Y-105192496D01*
X174227000Y-105185333D01*
X174328616Y-105259773D01*
X174354000Y-105413182D01*
X174523333Y-105413182D01*
X174523333Y-99936000D01*
X174354000Y-99936000D01*
X174354000Y-105112444D01*
X174198687Y-105089358D01*
X173697565Y-105089358D01*
X173662406Y-105100014D01*
X173565502Y-105037167D01*
X173252444Y-105037167D01*
X173181405Y-105085495D01*
X173062833Y-105097405D01*
X172889755Y-105024771D01*
X172576000Y-105024771D01*
X172500068Y-105068940D01*
X172306896Y-105096090D01*
X172173833Y-105100246D01*
X171900699Y-105070823D01*
X171371205Y-105070823D01*
X171339615Y-105098602D01*
X171242513Y-105100667D01*
X171075532Y-105067699D01*
X171041210Y-105042419D01*
X170205333Y-105042419D01*
X170179897Y-105056221D01*
X170013719Y-105063146D01*
X169735270Y-105062692D01*
X169431492Y-105056124D01*
X168896709Y-105027010D01*
X168514486Y-104973990D01*
X168269458Y-104894919D01*
X168267325Y-104893822D01*
X168065979Y-104764091D01*
X168018790Y-104689294D01*
X167675171Y-104689294D01*
X167653024Y-104766454D01*
X167597935Y-104814320D01*
X167436246Y-104848504D01*
X167277777Y-104762000D01*
X166818667Y-104762000D01*
X166787689Y-104831690D01*
X166762222Y-104818444D01*
X166752089Y-104717965D01*
X166762222Y-104705555D01*
X166812557Y-104717178D01*
X166818667Y-104762000D01*
X167277777Y-104762000D01*
X167270822Y-104758204D01*
X167140499Y-104582830D01*
X167084119Y-104361792D01*
X167087011Y-104295893D01*
X167087792Y-104289278D01*
X165711316Y-104289278D01*
X165695749Y-104399092D01*
X165666847Y-104400403D01*
X165646636Y-104287086D01*
X165660163Y-104238125D01*
X165697758Y-104206055D01*
X165711316Y-104289278D01*
X167087792Y-104289278D01*
X167115000Y-104058946D01*
X167428601Y-104382823D01*
X167605533Y-104574591D01*
X167675171Y-104689294D01*
X168018790Y-104689294D01*
X168010566Y-104676260D01*
X168094849Y-104653588D01*
X168312591Y-104719332D01*
X168313970Y-104719908D01*
X168594943Y-104798474D01*
X168810699Y-104785539D01*
X168925555Y-104686306D01*
X168935333Y-104629294D01*
X169005300Y-104528884D01*
X169094083Y-104508000D01*
X169289473Y-104491543D01*
X169527096Y-104453147D01*
X169709909Y-104426123D01*
X169767325Y-104465531D01*
X169739575Y-104592955D01*
X169712311Y-104729761D01*
X169778694Y-104744767D01*
X169835730Y-104724352D01*
X170066646Y-104638052D01*
X170154546Y-104625003D01*
X170109681Y-104686455D01*
X170036553Y-104748865D01*
X169913199Y-104855822D01*
X169896842Y-104921166D01*
X170006618Y-104978178D01*
X170205333Y-105042419D01*
X171041210Y-105042419D01*
X171013283Y-105021850D01*
X170999950Y-104924405D01*
X171092748Y-104904373D01*
X171243365Y-104969730D01*
X171259616Y-104981174D01*
X171371205Y-105070823D01*
X171900699Y-105070823D01*
X171837082Y-105063970D01*
X171576080Y-104938982D01*
X171517667Y-104894567D01*
X171263667Y-104689308D01*
X171300821Y-104673611D01*
X170870598Y-104673611D01*
X170842961Y-104757748D01*
X170737298Y-104809508D01*
X170700106Y-104796158D01*
X170664471Y-104706395D01*
X170704545Y-104652255D01*
X170818373Y-104603760D01*
X170870598Y-104673611D01*
X171300821Y-104673611D01*
X171578447Y-104556321D01*
X171786529Y-104472424D01*
X171919232Y-104426363D01*
X171935335Y-104423333D01*
X172031545Y-104477681D01*
X172192244Y-104610344D01*
X172368889Y-104775754D01*
X172512940Y-104928342D01*
X172575854Y-105022539D01*
X172576000Y-105024771D01*
X172889755Y-105024771D01*
X172866150Y-105014865D01*
X172703000Y-104825397D01*
X172409255Y-104471199D01*
X172080138Y-104275178D01*
X171727079Y-104240950D01*
X171361507Y-104372131D01*
X171330146Y-104391072D01*
X171104360Y-104502405D01*
X170989318Y-104494169D01*
X170987920Y-104387621D01*
X170600824Y-104387621D01*
X170522618Y-104476263D01*
X170350118Y-104540139D01*
X170165113Y-104556763D01*
X169968776Y-104541930D01*
X169870770Y-104513745D01*
X169868213Y-104508000D01*
X169908650Y-104408847D01*
X169948202Y-104340834D01*
X169964138Y-104201385D01*
X169873483Y-104201385D01*
X169844309Y-104271383D01*
X169724545Y-104340092D01*
X169633833Y-104362690D01*
X169242773Y-104406282D01*
X168975712Y-104393103D01*
X168795612Y-104318729D01*
X168723667Y-104254000D01*
X168637966Y-104126713D01*
X168673208Y-104084667D01*
X168736025Y-104034631D01*
X168723667Y-104000000D01*
X168768726Y-103950556D01*
X168964649Y-103921636D01*
X169184337Y-103915333D01*
X169480950Y-103924919D01*
X169640906Y-103958936D01*
X169696069Y-104025274D01*
X169697333Y-104042333D01*
X169743051Y-104155005D01*
X169782000Y-104169333D01*
X169873483Y-104201385D01*
X169964138Y-104201385D01*
X169965828Y-104186598D01*
X169883406Y-104069732D01*
X169666628Y-103833187D01*
X169556576Y-103665334D01*
X169528000Y-103537907D01*
X169468651Y-103423227D01*
X169414590Y-103407333D01*
X169299351Y-103338114D01*
X169204739Y-103195667D01*
X169158660Y-103043641D01*
X169184093Y-102984000D01*
X169278091Y-103050275D01*
X169292167Y-103080832D01*
X169391403Y-103160538D01*
X169553205Y-103202054D01*
X169832886Y-103288984D01*
X170098669Y-103462706D01*
X170290266Y-103677875D01*
X170341582Y-103795038D01*
X170367954Y-104037296D01*
X170356448Y-104255084D01*
X170350539Y-104431689D01*
X170387661Y-104507928D01*
X170389330Y-104508000D01*
X170450823Y-104438890D01*
X170459333Y-104376003D01*
X170502192Y-104289651D01*
X170548111Y-104298874D01*
X170600824Y-104387621D01*
X170987920Y-104387621D01*
X170987783Y-104377236D01*
X171102517Y-104162474D01*
X171228448Y-103991017D01*
X171472044Y-103752466D01*
X171725160Y-103666008D01*
X172023857Y-103725241D01*
X172216787Y-103815544D01*
X172371377Y-103933713D01*
X172576682Y-104136214D01*
X172799893Y-104384347D01*
X173008200Y-104639409D01*
X173168791Y-104862698D01*
X173248858Y-105015513D01*
X173252444Y-105037167D01*
X173565502Y-105037167D01*
X173557117Y-105031729D01*
X173418230Y-104859238D01*
X173349538Y-104749010D01*
X173020377Y-104256934D01*
X172663395Y-103869638D01*
X172296417Y-103596056D01*
X171937267Y-103445120D01*
X171603770Y-103425764D01*
X171313750Y-103546922D01*
X171188234Y-103665801D01*
X171026359Y-103869712D01*
X170906287Y-104040841D01*
X170892568Y-104063968D01*
X170809173Y-104156278D01*
X170698131Y-104106838D01*
X170679194Y-104091467D01*
X170559112Y-103949058D01*
X170575270Y-103853573D01*
X170669955Y-103830667D01*
X170788319Y-103772538D01*
X170977384Y-103620174D01*
X171152083Y-103449667D01*
X170882667Y-103449667D01*
X170840333Y-103492000D01*
X170798000Y-103449667D01*
X170840333Y-103407333D01*
X170882667Y-103449667D01*
X171152083Y-103449667D01*
X171195458Y-103407333D01*
X171485691Y-103136689D01*
X171739153Y-103003411D01*
X172001002Y-102996671D01*
X172316391Y-103105639D01*
X172362899Y-103127367D01*
X172482380Y-103194415D01*
X172597866Y-103288570D01*
X172724515Y-103430365D01*
X172877484Y-103640331D01*
X173071934Y-103939003D01*
X173323021Y-104346912D01*
X173585308Y-104783167D01*
X173694015Y-104993001D01*
X173697565Y-105089358D01*
X174198687Y-105089358D01*
X174171978Y-105085388D01*
X174002107Y-104979746D01*
X173802739Y-104710500D01*
X173727478Y-104580018D01*
X173400698Y-104002576D01*
X173123487Y-103561397D01*
X172877423Y-103237661D01*
X172644085Y-103012547D01*
X172405051Y-102867235D01*
X172141901Y-102782903D01*
X171936723Y-102750440D01*
X171684036Y-102736066D01*
X171508512Y-102783725D01*
X171329022Y-102921956D01*
X171258493Y-102989014D01*
X170967333Y-103271217D01*
X170965451Y-103021775D01*
X170949252Y-102947374D01*
X170871368Y-102947374D01*
X170826503Y-103207662D01*
X170657933Y-103402485D01*
X170489274Y-103514548D01*
X170374239Y-103516791D01*
X170298100Y-103465158D01*
X170126316Y-103351433D01*
X169887292Y-103227027D01*
X169647273Y-103122974D01*
X169472505Y-103070305D01*
X169451705Y-103068667D01*
X169362853Y-103009061D01*
X169358667Y-102984000D01*
X169296231Y-102911284D01*
X169168401Y-102909563D01*
X169066255Y-102977655D01*
X169060700Y-103116097D01*
X169132028Y-103297412D01*
X169241722Y-103446464D01*
X169329924Y-103492000D01*
X169421918Y-103562603D01*
X169443333Y-103661333D01*
X169424553Y-103757187D01*
X169341886Y-103807239D01*
X169155844Y-103824758D01*
X168956500Y-103824936D01*
X168694695Y-103817476D01*
X168581610Y-103798658D01*
X168596696Y-103761713D01*
X168660167Y-103727331D01*
X168809146Y-103624139D01*
X168847494Y-103532637D01*
X168759309Y-103492024D01*
X168755633Y-103492000D01*
X168704656Y-103458218D01*
X168756942Y-103375914D01*
X168809677Y-103213766D01*
X168765499Y-103058414D01*
X168704354Y-102925805D01*
X168692016Y-102945919D01*
X168710502Y-103091854D01*
X168712300Y-103276848D01*
X168673677Y-103369732D01*
X168637567Y-103473621D01*
X168651756Y-103537045D01*
X168635182Y-103643371D01*
X168563392Y-103661333D01*
X168447575Y-103718323D01*
X168443224Y-103852417D01*
X168528933Y-103983067D01*
X168586081Y-104066645D01*
X168521407Y-104084667D01*
X168496460Y-104138909D01*
X168582621Y-104284175D01*
X168632040Y-104345835D01*
X168759534Y-104527468D01*
X168809050Y-104661455D01*
X168803903Y-104684502D01*
X168684361Y-104759121D01*
X168564128Y-104693013D01*
X168561092Y-104688269D01*
X168452399Y-104619907D01*
X168270453Y-104565524D01*
X168076833Y-104488251D01*
X167974138Y-104382970D01*
X167971017Y-104217963D01*
X167974584Y-104201292D01*
X167859152Y-104201292D01*
X167755906Y-104200355D01*
X167579316Y-104123984D01*
X167449608Y-104042333D01*
X166802161Y-104042333D01*
X166793010Y-104186929D01*
X166766505Y-104199660D01*
X166763131Y-104192111D01*
X166746382Y-104024032D01*
X166750189Y-104000000D01*
X165802667Y-104000000D01*
X165771689Y-104069690D01*
X165746222Y-104056444D01*
X165736089Y-103955965D01*
X165746222Y-103943555D01*
X165796557Y-103955178D01*
X165802667Y-104000000D01*
X166750189Y-104000000D01*
X166759994Y-103938111D01*
X166786944Y-103903584D01*
X166801603Y-104016041D01*
X166802161Y-104042333D01*
X167449608Y-104042333D01*
X167387630Y-104003318D01*
X167239545Y-103870041D01*
X167200626Y-103806476D01*
X166480000Y-103806476D01*
X166470187Y-103961404D01*
X166419311Y-103969008D01*
X166342982Y-103899267D01*
X166257473Y-103756731D01*
X166260156Y-103716616D01*
X165565973Y-103716616D01*
X165505927Y-103949214D01*
X165485138Y-104003924D01*
X165376418Y-104203473D01*
X165282348Y-104244977D01*
X165222531Y-104129075D01*
X165211297Y-103995015D01*
X165255123Y-103822250D01*
X165359426Y-103671133D01*
X165478576Y-103597476D01*
X165528763Y-103606698D01*
X165565973Y-103716616D01*
X166260156Y-103716616D01*
X166263312Y-103669458D01*
X166368512Y-103577858D01*
X166450478Y-103636815D01*
X166480000Y-103806476D01*
X167200626Y-103806476D01*
X167136669Y-103702018D01*
X167102799Y-103556913D01*
X167150829Y-103492110D01*
X167154616Y-103492000D01*
X166903333Y-103492000D01*
X166874447Y-103574465D01*
X166865997Y-103576667D01*
X166793711Y-103517338D01*
X166776333Y-103492000D01*
X166783046Y-103413981D01*
X166813670Y-103407333D01*
X166899888Y-103468794D01*
X166903333Y-103492000D01*
X167154616Y-103492000D01*
X167252161Y-103545213D01*
X167409998Y-103678115D01*
X167588287Y-103850601D01*
X167747193Y-104022564D01*
X167846879Y-104153898D01*
X167859152Y-104201292D01*
X167974584Y-104201292D01*
X168025356Y-103964006D01*
X168048884Y-103892425D01*
X167919333Y-103892425D01*
X167896336Y-103974836D01*
X167801822Y-103923136D01*
X167792333Y-103915333D01*
X167685974Y-103794450D01*
X167665333Y-103738290D01*
X167727808Y-103700624D01*
X167792333Y-103715382D01*
X167904952Y-103827779D01*
X167919333Y-103892425D01*
X168048884Y-103892425D01*
X168117717Y-103683011D01*
X168228659Y-103436892D01*
X168309163Y-103316000D01*
X168406471Y-103165922D01*
X168427333Y-103090222D01*
X168493832Y-102977912D01*
X168533167Y-102955406D01*
X168577467Y-102918671D01*
X168512000Y-102909969D01*
X168401647Y-102978287D01*
X168269392Y-103154157D01*
X168213228Y-103256875D01*
X168092020Y-103472873D01*
X167985166Y-103612787D01*
X167952012Y-103636329D01*
X167816423Y-103602939D01*
X167656238Y-103462326D01*
X167511576Y-103263750D01*
X167422554Y-103056468D01*
X167411333Y-102972454D01*
X167433000Y-102801701D01*
X167533497Y-102737800D01*
X167670900Y-102730000D01*
X167996696Y-102681555D01*
X168196964Y-102542490D01*
X168258000Y-102346021D01*
X168261654Y-102277619D01*
X167782162Y-102277619D01*
X167732466Y-102404802D01*
X167639762Y-102552261D01*
X167538654Y-102562217D01*
X167477828Y-102529669D01*
X167357831Y-102364497D01*
X167326667Y-102173411D01*
X167346872Y-101938680D01*
X167417939Y-101860558D01*
X167555541Y-101930015D01*
X167632738Y-101997112D01*
X167766443Y-102146157D01*
X167782162Y-102277619D01*
X168261654Y-102277619D01*
X168263765Y-102238119D01*
X168303053Y-102170204D01*
X168408855Y-102130935D01*
X168614162Y-102108973D01*
X168917578Y-102094607D01*
X168119134Y-102094607D01*
X168112574Y-102171729D01*
X167990773Y-102130606D01*
X167758044Y-101972914D01*
X167707667Y-101934563D01*
X167612870Y-101835528D01*
X167649733Y-101801359D01*
X167866751Y-101857724D01*
X168057326Y-101998562D01*
X168119134Y-102094607D01*
X168917578Y-102094607D01*
X168951963Y-102092979D01*
X168999787Y-102091050D01*
X169262588Y-102087861D01*
X169404103Y-102117462D01*
X169471714Y-102197639D01*
X169496541Y-102277514D01*
X169623988Y-102491017D01*
X169848835Y-102641975D01*
X170114507Y-102711900D01*
X170364426Y-102682302D01*
X170490305Y-102602267D01*
X170594989Y-102526453D01*
X170683983Y-102575707D01*
X170750352Y-102663439D01*
X170871368Y-102947374D01*
X170949252Y-102947374D01*
X170910806Y-102770800D01*
X170798000Y-102560667D01*
X170676072Y-102326098D01*
X170644755Y-102171702D01*
X170541670Y-102171702D01*
X170512990Y-102386971D01*
X170447815Y-102537947D01*
X170442400Y-102543733D01*
X170277875Y-102640757D01*
X170158678Y-102590211D01*
X170120667Y-102438663D01*
X170086337Y-102257199D01*
X170027959Y-102174697D01*
X170021281Y-102095064D01*
X170155692Y-101972968D01*
X170170844Y-101962854D01*
X170350043Y-101868969D01*
X170469620Y-101848143D01*
X170475218Y-101850817D01*
X170530274Y-101967772D01*
X170541670Y-102171702D01*
X170644755Y-102171702D01*
X170630549Y-102101667D01*
X170563133Y-101809415D01*
X170434111Y-101671186D01*
X170332826Y-101671186D01*
X170255647Y-101756972D01*
X170053483Y-101915750D01*
X170003415Y-101953508D01*
X169778699Y-102090899D01*
X169609747Y-102134912D01*
X169530223Y-102078291D01*
X169528000Y-102055965D01*
X169600341Y-101907785D01*
X169777452Y-101760825D01*
X169999469Y-101655913D01*
X170153565Y-101629333D01*
X170295353Y-101636077D01*
X170332826Y-101671186D01*
X170434111Y-101671186D01*
X170388822Y-101622666D01*
X170141734Y-101553175D01*
X169855989Y-101612694D01*
X169628107Y-101756333D01*
X169419288Y-101918851D01*
X169323496Y-101965191D01*
X169339619Y-101904259D01*
X169466545Y-101744960D01*
X169654479Y-101545196D01*
X169890568Y-101284240D01*
X169994064Y-101113510D01*
X169983659Y-101035125D01*
X169885933Y-101038621D01*
X169704982Y-101169510D01*
X169433744Y-101432995D01*
X169409868Y-101457929D01*
X169168358Y-101693907D01*
X168954811Y-101872002D01*
X168806040Y-101962423D01*
X168779502Y-101968000D01*
X168655513Y-101905140D01*
X168474960Y-101741259D01*
X168298664Y-101538386D01*
X168100151Y-101300888D01*
X167922249Y-101114596D01*
X167818638Y-101030157D01*
X167675259Y-100978543D01*
X167644993Y-101037288D01*
X167723545Y-101194733D01*
X167906619Y-101439216D01*
X168017128Y-101569022D01*
X168213649Y-101811642D01*
X168320356Y-101980592D01*
X168334668Y-102060277D01*
X168254003Y-102035105D01*
X168075780Y-101889481D01*
X168069162Y-101883333D01*
X167867046Y-101764465D01*
X167630222Y-101716241D01*
X167419446Y-101741433D01*
X167295469Y-101842814D01*
X167293392Y-101847925D01*
X167251950Y-102041854D01*
X167245099Y-102265827D01*
X167271352Y-102446206D01*
X167306695Y-102505990D01*
X167339436Y-102606951D01*
X167347056Y-102815538D01*
X167341073Y-102927142D01*
X167310758Y-103308312D01*
X167058203Y-103220271D01*
X166887941Y-103181729D01*
X166713385Y-103204482D01*
X166477032Y-103300238D01*
X166344345Y-103365629D01*
X166084751Y-103491325D01*
X165926528Y-103543366D01*
X165822340Y-103529094D01*
X165730354Y-103460847D01*
X165509225Y-103335396D01*
X165308015Y-103378040D01*
X165153040Y-103544774D01*
X165007510Y-103766881D01*
X164821801Y-103533980D01*
X164650751Y-103380978D01*
X164519761Y-103380274D01*
X164450722Y-103527865D01*
X164445325Y-103602830D01*
X164404113Y-103736436D01*
X164305508Y-103915260D01*
X164182941Y-104091634D01*
X164069844Y-104217887D01*
X163999646Y-104246350D01*
X163996647Y-104242602D01*
X163952695Y-104153144D01*
X163866304Y-103967092D01*
X163833026Y-103894166D01*
X163701207Y-103659469D01*
X163586196Y-103586444D01*
X163476113Y-103669879D01*
X163443149Y-103723071D01*
X163372541Y-103819146D01*
X163289947Y-103799263D01*
X163191046Y-103715472D01*
X163071455Y-103621357D01*
X162994042Y-103639177D01*
X162903977Y-103787624D01*
X162887770Y-103818863D01*
X162805889Y-104074784D01*
X162760039Y-104422445D01*
X162754667Y-104588462D01*
X162743922Y-104889708D01*
X162707270Y-105050997D01*
X162638088Y-105100605D01*
X162634683Y-105100667D01*
X162551255Y-105023879D01*
X162512135Y-104931333D01*
X162246667Y-104931333D01*
X162215689Y-105001023D01*
X162190222Y-104987778D01*
X162180089Y-104887298D01*
X162190222Y-104874889D01*
X162240557Y-104886511D01*
X162246667Y-104931333D01*
X162512135Y-104931333D01*
X162466732Y-104823928D01*
X162411436Y-104613833D01*
X161820759Y-104613833D01*
X161813256Y-104896447D01*
X161780320Y-105046125D01*
X161712037Y-105098554D01*
X161685512Y-105100667D01*
X161601672Y-105072402D01*
X161579187Y-104959858D01*
X161603930Y-104748972D01*
X161667051Y-104435830D01*
X161727880Y-104271462D01*
X161778756Y-104260641D01*
X161812021Y-104408140D01*
X161820759Y-104613833D01*
X162411436Y-104613833D01*
X162393696Y-104546431D01*
X162344728Y-104237003D01*
X162331333Y-104000829D01*
X162291658Y-103776634D01*
X162188736Y-103688354D01*
X162046728Y-103750382D01*
X161998432Y-103802521D01*
X161861099Y-103918135D01*
X161763111Y-103937592D01*
X161656481Y-103982862D01*
X161538371Y-104155177D01*
X161429692Y-104415377D01*
X161355642Y-104700685D01*
X161302574Y-104926245D01*
X161257503Y-104992973D01*
X161220282Y-104899281D01*
X161190764Y-104643582D01*
X161168803Y-104224288D01*
X161154253Y-103639812D01*
X161146967Y-102888567D01*
X161146000Y-102428670D01*
X161146000Y-99936000D01*
X174354000Y-99936000D01*
X174523333Y-99936000D01*
X174523333Y-99766667D01*
X160976667Y-99766667D01*
X160976667Y-108233333D01*
G36*
X173142174Y-107626506D02*
X173147945Y-107767667D01*
X173185915Y-107926205D01*
X173211000Y-107979333D01*
X173241648Y-107907532D01*
X173274056Y-107767667D01*
X173271744Y-107599377D01*
X173211000Y-107556000D01*
X173142174Y-107626506D01*
X173142174Y-107626506D01*
G37*
X173142174Y-107626506D02*
X173147945Y-107767667D01*
X173185915Y-107926205D01*
X173211000Y-107979333D01*
X173241648Y-107907532D01*
X173274056Y-107767667D01*
X173271744Y-107599377D01*
X173211000Y-107556000D01*
X173142174Y-107626506D01*
G36*
X172745333Y-107640667D02*
X172614492Y-107770273D01*
X172585822Y-107876479D01*
X172598187Y-107975521D01*
X172624352Y-107911211D01*
X172634363Y-107873500D01*
X172701128Y-107747995D01*
X172745333Y-107725333D01*
X172824737Y-107794991D01*
X172856304Y-107873500D01*
X172885931Y-107919089D01*
X172903904Y-107805585D01*
X172904845Y-107785854D01*
X172897793Y-107625177D01*
X172833176Y-107600238D01*
X172745333Y-107640667D01*
X172745333Y-107640667D01*
G37*
X172745333Y-107640667D02*
X172614492Y-107770273D01*
X172585822Y-107876479D01*
X172598187Y-107975521D01*
X172624352Y-107911211D01*
X172634363Y-107873500D01*
X172701128Y-107747995D01*
X172745333Y-107725333D01*
X172824737Y-107794991D01*
X172856304Y-107873500D01*
X172885931Y-107919089D01*
X172903904Y-107805585D01*
X172904845Y-107785854D01*
X172897793Y-107625177D01*
X172833176Y-107600238D01*
X172745333Y-107640667D01*
G36*
X172246285Y-107687218D02*
X172220400Y-107708400D01*
X172173994Y-107789421D01*
X172278900Y-107815758D01*
X172283900Y-107815951D01*
X172399117Y-107825650D01*
X172360300Y-107859154D01*
X172279667Y-107894667D01*
X172173288Y-107950597D01*
X172221122Y-107971521D01*
X172253503Y-107973382D01*
X172408926Y-107930500D01*
X172453560Y-107887289D01*
X172464668Y-107756704D01*
X172373307Y-107672928D01*
X172246285Y-107687218D01*
X172246285Y-107687218D01*
G37*
X172246285Y-107687218D02*
X172220400Y-107708400D01*
X172173994Y-107789421D01*
X172278900Y-107815758D01*
X172283900Y-107815951D01*
X172399117Y-107825650D01*
X172360300Y-107859154D01*
X172279667Y-107894667D01*
X172173288Y-107950597D01*
X172221122Y-107971521D01*
X172253503Y-107973382D01*
X172408926Y-107930500D01*
X172453560Y-107887289D01*
X172464668Y-107756704D01*
X172373307Y-107672928D01*
X172246285Y-107687218D01*
G36*
X171399618Y-107687218D02*
X171373733Y-107708400D01*
X171327327Y-107789421D01*
X171432234Y-107815758D01*
X171437233Y-107815951D01*
X171552451Y-107825650D01*
X171513633Y-107859154D01*
X171433000Y-107894667D01*
X171326621Y-107950597D01*
X171374455Y-107971521D01*
X171406837Y-107973382D01*
X171562260Y-107930500D01*
X171606893Y-107887289D01*
X171618001Y-107756704D01*
X171526641Y-107672928D01*
X171399618Y-107687218D01*
X171399618Y-107687218D01*
G37*
X171399618Y-107687218D02*
X171373733Y-107708400D01*
X171327327Y-107789421D01*
X171432234Y-107815758D01*
X171437233Y-107815951D01*
X171552451Y-107825650D01*
X171513633Y-107859154D01*
X171433000Y-107894667D01*
X171326621Y-107950597D01*
X171374455Y-107971521D01*
X171406837Y-107973382D01*
X171562260Y-107930500D01*
X171606893Y-107887289D01*
X171618001Y-107756704D01*
X171526641Y-107672928D01*
X171399618Y-107687218D01*
G36*
X171145785Y-107689255D02*
X171133974Y-107774722D01*
X171124732Y-107886449D01*
X171077710Y-107863134D01*
X171006974Y-107772651D01*
X170915092Y-107680871D01*
X170882667Y-107698784D01*
X170941270Y-107823776D01*
X171008665Y-107893835D01*
X171120061Y-107950574D01*
X171187699Y-107860186D01*
X171188458Y-107858217D01*
X171208878Y-107712340D01*
X171189460Y-107665237D01*
X171145785Y-107689255D01*
X171145785Y-107689255D01*
G37*
X171145785Y-107689255D02*
X171133974Y-107774722D01*
X171124732Y-107886449D01*
X171077710Y-107863134D01*
X171006974Y-107772651D01*
X170915092Y-107680871D01*
X170882667Y-107698784D01*
X170941270Y-107823776D01*
X171008665Y-107893835D01*
X171120061Y-107950574D01*
X171187699Y-107860186D01*
X171188458Y-107858217D01*
X171208878Y-107712340D01*
X171189460Y-107665237D01*
X171145785Y-107689255D01*
G36*
X170628408Y-107792347D02*
X170598049Y-107852333D01*
X170608142Y-107961539D01*
X170659546Y-107979333D01*
X170757136Y-107911207D01*
X170769778Y-107852333D01*
X170736420Y-107739499D01*
X170708281Y-107725333D01*
X170628408Y-107792347D01*
X170628408Y-107792347D01*
G37*
X170628408Y-107792347D02*
X170598049Y-107852333D01*
X170608142Y-107961539D01*
X170659546Y-107979333D01*
X170757136Y-107911207D01*
X170769778Y-107852333D01*
X170736420Y-107739499D01*
X170708281Y-107725333D01*
X170628408Y-107792347D01*
G36*
X170224677Y-107628119D02*
X170184611Y-107767667D01*
X170185034Y-107929847D01*
X170238241Y-107979333D01*
X170308949Y-107906938D01*
X170332333Y-107767667D01*
X170313936Y-107608414D01*
X170278704Y-107556000D01*
X170224677Y-107628119D01*
X170224677Y-107628119D01*
G37*
X170224677Y-107628119D02*
X170184611Y-107767667D01*
X170185034Y-107929847D01*
X170238241Y-107979333D01*
X170308949Y-107906938D01*
X170332333Y-107767667D01*
X170313936Y-107608414D01*
X170278704Y-107556000D01*
X170224677Y-107628119D01*
G36*
X169248333Y-107753073D02*
X169205949Y-107860332D01*
X169199637Y-107966236D01*
X169252780Y-107917974D01*
X169269449Y-107894667D01*
X169353329Y-107810310D01*
X169429159Y-107875409D01*
X169442037Y-107894667D01*
X169505418Y-107963363D01*
X169525876Y-107880581D01*
X169526704Y-107838658D01*
X169475147Y-107704307D01*
X169360835Y-107677233D01*
X169248333Y-107753073D01*
X169248333Y-107753073D01*
G37*
X169248333Y-107753073D02*
X169205949Y-107860332D01*
X169199637Y-107966236D01*
X169252780Y-107917974D01*
X169269449Y-107894667D01*
X169353329Y-107810310D01*
X169429159Y-107875409D01*
X169442037Y-107894667D01*
X169505418Y-107963363D01*
X169525876Y-107880581D01*
X169526704Y-107838658D01*
X169475147Y-107704307D01*
X169360835Y-107677233D01*
X169248333Y-107753073D01*
G36*
X169028391Y-107685849D02*
X169020000Y-107753555D01*
X168978403Y-107878105D01*
X168892531Y-107870092D01*
X168824363Y-107746500D01*
X168793772Y-107671130D01*
X168777655Y-107757502D01*
X168775822Y-107788833D01*
X168822876Y-107939764D01*
X168938813Y-107978767D01*
X169054508Y-107892037D01*
X169075450Y-107848682D01*
X169091950Y-107706769D01*
X169072793Y-107665237D01*
X169028391Y-107685849D01*
X169028391Y-107685849D01*
G37*
X169028391Y-107685849D02*
X169020000Y-107753555D01*
X168978403Y-107878105D01*
X168892531Y-107870092D01*
X168824363Y-107746500D01*
X168793772Y-107671130D01*
X168777655Y-107757502D01*
X168775822Y-107788833D01*
X168822876Y-107939764D01*
X168938813Y-107978767D01*
X169054508Y-107892037D01*
X169075450Y-107848682D01*
X169091950Y-107706769D01*
X169072793Y-107665237D01*
X169028391Y-107685849D01*
G36*
X168511958Y-107599595D02*
X168502866Y-107739292D01*
X168506443Y-107759908D01*
X168458502Y-107867237D01*
X168410636Y-107906778D01*
X168349591Y-107966022D01*
X168403188Y-107978037D01*
X168521275Y-107912611D01*
X168593917Y-107815138D01*
X168635491Y-107650598D01*
X168596896Y-107598475D01*
X168511958Y-107599595D01*
X168511958Y-107599595D01*
G37*
X168511958Y-107599595D02*
X168502866Y-107739292D01*
X168506443Y-107759908D01*
X168458502Y-107867237D01*
X168410636Y-107906778D01*
X168349591Y-107966022D01*
X168403188Y-107978037D01*
X168521275Y-107912611D01*
X168593917Y-107815138D01*
X168635491Y-107650598D01*
X168596896Y-107598475D01*
X168511958Y-107599595D01*
G36*
X167942428Y-107711161D02*
X167919333Y-107810000D01*
X167979585Y-107946208D01*
X168107909Y-107975958D01*
X168215667Y-107894667D01*
X168222245Y-107810000D01*
X168173333Y-107810000D01*
X168108904Y-107892206D01*
X168088667Y-107894667D01*
X168006460Y-107830237D01*
X168004000Y-107810000D01*
X168068429Y-107727793D01*
X168088667Y-107725333D01*
X168170873Y-107789762D01*
X168173333Y-107810000D01*
X168222245Y-107810000D01*
X168226701Y-107752656D01*
X168116598Y-107653393D01*
X168041337Y-107640667D01*
X167942428Y-107711161D01*
X167942428Y-107711161D01*
G37*
X167942428Y-107711161D02*
X167919333Y-107810000D01*
X167979585Y-107946208D01*
X168107909Y-107975958D01*
X168215667Y-107894667D01*
X168222245Y-107810000D01*
X168173333Y-107810000D01*
X168108904Y-107892206D01*
X168088667Y-107894667D01*
X168006460Y-107830237D01*
X168004000Y-107810000D01*
X168068429Y-107727793D01*
X168088667Y-107725333D01*
X168170873Y-107789762D01*
X168173333Y-107810000D01*
X168222245Y-107810000D01*
X168226701Y-107752656D01*
X168116598Y-107653393D01*
X168041337Y-107640667D01*
X167942428Y-107711161D01*
G36*
X167554724Y-107753321D02*
X167526757Y-107833798D01*
X167526563Y-107917852D01*
X167553160Y-107853993D01*
X167635940Y-107735399D01*
X167730839Y-107771631D01*
X167776304Y-107873500D01*
X167806826Y-107944701D01*
X167823256Y-107853077D01*
X167824845Y-107824958D01*
X167797777Y-107677311D01*
X167687472Y-107656597D01*
X167554724Y-107753321D01*
X167554724Y-107753321D01*
G37*
X167554724Y-107753321D02*
X167526757Y-107833798D01*
X167526563Y-107917852D01*
X167553160Y-107853993D01*
X167635940Y-107735399D01*
X167730839Y-107771631D01*
X167776304Y-107873500D01*
X167806826Y-107944701D01*
X167823256Y-107853077D01*
X167824845Y-107824958D01*
X167797777Y-107677311D01*
X167687472Y-107656597D01*
X167554724Y-107753321D01*
G36*
X167241958Y-107599595D02*
X167232866Y-107739292D01*
X167236443Y-107759908D01*
X167188502Y-107867237D01*
X167140636Y-107906778D01*
X167079591Y-107966022D01*
X167133188Y-107978037D01*
X167251275Y-107912611D01*
X167323917Y-107815138D01*
X167365491Y-107650598D01*
X167326896Y-107598475D01*
X167241958Y-107599595D01*
X167241958Y-107599595D01*
G37*
X167241958Y-107599595D02*
X167232866Y-107739292D01*
X167236443Y-107759908D01*
X167188502Y-107867237D01*
X167140636Y-107906778D01*
X167079591Y-107966022D01*
X167133188Y-107978037D01*
X167251275Y-107912611D01*
X167323917Y-107815138D01*
X167365491Y-107650598D01*
X167326896Y-107598475D01*
X167241958Y-107599595D01*
G36*
X166231459Y-107663257D02*
X166298853Y-107690272D01*
X166331833Y-107699029D01*
X166457338Y-107765794D01*
X166480000Y-107810000D01*
X166410342Y-107889403D01*
X166331833Y-107920970D01*
X166231832Y-107953120D01*
X166294997Y-107967184D01*
X166326837Y-107969512D01*
X166479217Y-107934281D01*
X166522333Y-107894667D01*
X166535080Y-107754331D01*
X166423442Y-107661331D01*
X166326837Y-107650488D01*
X166231459Y-107663257D01*
X166231459Y-107663257D01*
G37*
X166231459Y-107663257D02*
X166298853Y-107690272D01*
X166331833Y-107699029D01*
X166457338Y-107765794D01*
X166480000Y-107810000D01*
X166410342Y-107889403D01*
X166331833Y-107920970D01*
X166231832Y-107953120D01*
X166294997Y-107967184D01*
X166326837Y-107969512D01*
X166479217Y-107934281D01*
X166522333Y-107894667D01*
X166535080Y-107754331D01*
X166423442Y-107661331D01*
X166326837Y-107650488D01*
X166231459Y-107663257D01*
G36*
X165896285Y-107687218D02*
X165870400Y-107708400D01*
X165823994Y-107789421D01*
X165928900Y-107815758D01*
X165933900Y-107815951D01*
X166049117Y-107825650D01*
X166010300Y-107859154D01*
X165929667Y-107894667D01*
X165823288Y-107950597D01*
X165871122Y-107971521D01*
X165903503Y-107973382D01*
X166058926Y-107930500D01*
X166103560Y-107887289D01*
X166114668Y-107756704D01*
X166023307Y-107672928D01*
X165896285Y-107687218D01*
X165896285Y-107687218D01*
G37*
X165896285Y-107687218D02*
X165870400Y-107708400D01*
X165823994Y-107789421D01*
X165928900Y-107815758D01*
X165933900Y-107815951D01*
X166049117Y-107825650D01*
X166010300Y-107859154D01*
X165929667Y-107894667D01*
X165823288Y-107950597D01*
X165871122Y-107971521D01*
X165903503Y-107973382D01*
X166058926Y-107930500D01*
X166103560Y-107887289D01*
X166114668Y-107756704D01*
X166023307Y-107672928D01*
X165896285Y-107687218D01*
G36*
X165438057Y-107753321D02*
X165410090Y-107833798D01*
X165409896Y-107917852D01*
X165436493Y-107853993D01*
X165519274Y-107735399D01*
X165614172Y-107771631D01*
X165659637Y-107873500D01*
X165690159Y-107944701D01*
X165706590Y-107853077D01*
X165708179Y-107824958D01*
X165681111Y-107677311D01*
X165570806Y-107656597D01*
X165438057Y-107753321D01*
X165438057Y-107753321D01*
G37*
X165438057Y-107753321D02*
X165410090Y-107833798D01*
X165409896Y-107917852D01*
X165436493Y-107853993D01*
X165519274Y-107735399D01*
X165614172Y-107771631D01*
X165659637Y-107873500D01*
X165690159Y-107944701D01*
X165706590Y-107853077D01*
X165708179Y-107824958D01*
X165681111Y-107677311D01*
X165570806Y-107656597D01*
X165438057Y-107753321D01*
G36*
X165125291Y-107599595D02*
X165116199Y-107739292D01*
X165119776Y-107759908D01*
X165071835Y-107867237D01*
X165023969Y-107906778D01*
X164962924Y-107966022D01*
X165016521Y-107978037D01*
X165134608Y-107912611D01*
X165207250Y-107815138D01*
X165248824Y-107650598D01*
X165210229Y-107598475D01*
X165125291Y-107599595D01*
X165125291Y-107599595D01*
G37*
X165125291Y-107599595D02*
X165116199Y-107739292D01*
X165119776Y-107759908D01*
X165071835Y-107867237D01*
X165023969Y-107906778D01*
X164962924Y-107966022D01*
X165016521Y-107978037D01*
X165134608Y-107912611D01*
X165207250Y-107815138D01*
X165248824Y-107650598D01*
X165210229Y-107598475D01*
X165125291Y-107599595D01*
G36*
X164701741Y-107792347D02*
X164671382Y-107852333D01*
X164681475Y-107961539D01*
X164732880Y-107979333D01*
X164830470Y-107911207D01*
X164843111Y-107852333D01*
X164809754Y-107739499D01*
X164781614Y-107725333D01*
X164701741Y-107792347D01*
X164701741Y-107792347D01*
G37*
X164701741Y-107792347D02*
X164671382Y-107852333D01*
X164681475Y-107961539D01*
X164732880Y-107979333D01*
X164830470Y-107911207D01*
X164843111Y-107852333D01*
X164809754Y-107739499D01*
X164781614Y-107725333D01*
X164701741Y-107792347D01*
G36*
X163779618Y-107687218D02*
X163753733Y-107708400D01*
X163707327Y-107789421D01*
X163812234Y-107815758D01*
X163817233Y-107815951D01*
X163932451Y-107825650D01*
X163893633Y-107859154D01*
X163813000Y-107894667D01*
X163706621Y-107950597D01*
X163754455Y-107971521D01*
X163786837Y-107973382D01*
X163942260Y-107930500D01*
X163986893Y-107887289D01*
X163998001Y-107756704D01*
X163906641Y-107672928D01*
X163779618Y-107687218D01*
X163779618Y-107687218D01*
G37*
X163779618Y-107687218D02*
X163753733Y-107708400D01*
X163707327Y-107789421D01*
X163812234Y-107815758D01*
X163817233Y-107815951D01*
X163932451Y-107825650D01*
X163893633Y-107859154D01*
X163813000Y-107894667D01*
X163706621Y-107950597D01*
X163754455Y-107971521D01*
X163786837Y-107973382D01*
X163942260Y-107930500D01*
X163986893Y-107887289D01*
X163998001Y-107756704D01*
X163906641Y-107672928D01*
X163779618Y-107687218D01*
G36*
X163265846Y-107673412D02*
X163262667Y-107764688D01*
X163314160Y-107933372D01*
X163435446Y-107983076D01*
X163544889Y-107922889D01*
X163588870Y-107810000D01*
X163516667Y-107810000D01*
X163452238Y-107892206D01*
X163432000Y-107894667D01*
X163349794Y-107830237D01*
X163347333Y-107810000D01*
X163411763Y-107727793D01*
X163432000Y-107725333D01*
X163514207Y-107789762D01*
X163516667Y-107810000D01*
X163588870Y-107810000D01*
X163595230Y-107793678D01*
X163479064Y-107667883D01*
X163432000Y-107640667D01*
X163307771Y-107595755D01*
X163265846Y-107673412D01*
X163265846Y-107673412D01*
G37*
X163265846Y-107673412D02*
X163262667Y-107764688D01*
X163314160Y-107933372D01*
X163435446Y-107983076D01*
X163544889Y-107922889D01*
X163588870Y-107810000D01*
X163516667Y-107810000D01*
X163452238Y-107892206D01*
X163432000Y-107894667D01*
X163349794Y-107830237D01*
X163347333Y-107810000D01*
X163411763Y-107727793D01*
X163432000Y-107725333D01*
X163514207Y-107789762D01*
X163516667Y-107810000D01*
X163588870Y-107810000D01*
X163595230Y-107793678D01*
X163479064Y-107667883D01*
X163432000Y-107640667D01*
X163307771Y-107595755D01*
X163265846Y-107673412D01*
G36*
X162932951Y-107687218D02*
X162907067Y-107708400D01*
X162860661Y-107789421D01*
X162965567Y-107815758D01*
X162970567Y-107815951D01*
X163085784Y-107825650D01*
X163046966Y-107859154D01*
X162966333Y-107894667D01*
X162859954Y-107950597D01*
X162907789Y-107971521D01*
X162940170Y-107973382D01*
X163095593Y-107930500D01*
X163140226Y-107887289D01*
X163151334Y-107756704D01*
X163059974Y-107672928D01*
X162932951Y-107687218D01*
X162932951Y-107687218D01*
G37*
X162932951Y-107687218D02*
X162907067Y-107708400D01*
X162860661Y-107789421D01*
X162965567Y-107815758D01*
X162970567Y-107815951D01*
X163085784Y-107825650D01*
X163046966Y-107859154D01*
X162966333Y-107894667D01*
X162859954Y-107950597D01*
X162907789Y-107971521D01*
X162940170Y-107973382D01*
X163095593Y-107930500D01*
X163140226Y-107887289D01*
X163151334Y-107756704D01*
X163059974Y-107672928D01*
X162932951Y-107687218D01*
G36*
X162585333Y-107937000D02*
X162627667Y-107979333D01*
X162670000Y-107937000D01*
X162627667Y-107894667D01*
X162585333Y-107937000D01*
X162585333Y-107937000D01*
G37*
X162585333Y-107937000D02*
X162627667Y-107979333D01*
X162670000Y-107937000D01*
X162627667Y-107894667D01*
X162585333Y-107937000D01*
G36*
X162612163Y-107624792D02*
X162602070Y-107757115D01*
X162618847Y-107787069D01*
X162657329Y-107761818D01*
X162663316Y-107675944D01*
X162642639Y-107585602D01*
X162612163Y-107624792D01*
X162612163Y-107624792D01*
G37*
X162612163Y-107624792D02*
X162602070Y-107757115D01*
X162618847Y-107787069D01*
X162657329Y-107761818D01*
X162663316Y-107675944D01*
X162642639Y-107585602D01*
X162612163Y-107624792D01*
G36*
X170628667Y-107598333D02*
X170671000Y-107640667D01*
X170713333Y-107598333D01*
X170671000Y-107556000D01*
X170628667Y-107598333D01*
X170628667Y-107598333D01*
G37*
X170628667Y-107598333D02*
X170671000Y-107640667D01*
X170713333Y-107598333D01*
X170671000Y-107556000D01*
X170628667Y-107598333D01*
G36*
X164702000Y-107598333D02*
X164744333Y-107640667D01*
X164786667Y-107598333D01*
X164744333Y-107556000D01*
X164702000Y-107598333D01*
X164702000Y-107598333D01*
G37*
X164702000Y-107598333D02*
X164744333Y-107640667D01*
X164786667Y-107598333D01*
X164744333Y-107556000D01*
X164702000Y-107598333D01*
G36*
X173483715Y-106294422D02*
X173465000Y-106417233D01*
X173476151Y-106591210D01*
X173512735Y-106600690D01*
X173563566Y-106491975D01*
X173569386Y-106336995D01*
X173539742Y-106284542D01*
X173483715Y-106294422D01*
X173483715Y-106294422D01*
G37*
X173483715Y-106294422D02*
X173465000Y-106417233D01*
X173476151Y-106591210D01*
X173512735Y-106600690D01*
X173563566Y-106491975D01*
X173569386Y-106336995D01*
X173539742Y-106284542D01*
X173483715Y-106294422D01*
G36*
X172973666Y-106398407D02*
X172931282Y-106505665D01*
X172924971Y-106611569D01*
X172978113Y-106563307D01*
X172994782Y-106540000D01*
X173078663Y-106455643D01*
X173154492Y-106520742D01*
X173167370Y-106540000D01*
X173230751Y-106608696D01*
X173251210Y-106525915D01*
X173252037Y-106483991D01*
X173200480Y-106349641D01*
X173086168Y-106322567D01*
X172973666Y-106398407D01*
X172973666Y-106398407D01*
G37*
X172973666Y-106398407D02*
X172931282Y-106505665D01*
X172924971Y-106611569D01*
X172978113Y-106563307D01*
X172994782Y-106540000D01*
X173078663Y-106455643D01*
X173154492Y-106520742D01*
X173167370Y-106540000D01*
X173230751Y-106608696D01*
X173251210Y-106525915D01*
X173252037Y-106483991D01*
X173200480Y-106349641D01*
X173086168Y-106322567D01*
X172973666Y-106398407D01*
G36*
X172655522Y-106288753D02*
X172527296Y-106414675D01*
X172548625Y-106539796D01*
X172688850Y-106609708D01*
X172797430Y-106581361D01*
X172822827Y-106455333D01*
X172745333Y-106455333D01*
X172680904Y-106537540D01*
X172660667Y-106540000D01*
X172578460Y-106475571D01*
X172576000Y-106455333D01*
X172640429Y-106373127D01*
X172660667Y-106370667D01*
X172742873Y-106435096D01*
X172745333Y-106455333D01*
X172822827Y-106455333D01*
X172829994Y-106419770D01*
X172830000Y-106416229D01*
X172814185Y-106263999D01*
X172738493Y-106249240D01*
X172655522Y-106288753D01*
X172655522Y-106288753D01*
G37*
X172655522Y-106288753D02*
X172527296Y-106414675D01*
X172548625Y-106539796D01*
X172688850Y-106609708D01*
X172797430Y-106581361D01*
X172822827Y-106455333D01*
X172745333Y-106455333D01*
X172680904Y-106537540D01*
X172660667Y-106540000D01*
X172578460Y-106475571D01*
X172576000Y-106455333D01*
X172640429Y-106373127D01*
X172660667Y-106370667D01*
X172742873Y-106435096D01*
X172745333Y-106455333D01*
X172822827Y-106455333D01*
X172829994Y-106419770D01*
X172830000Y-106416229D01*
X172814185Y-106263999D01*
X172738493Y-106249240D01*
X172655522Y-106288753D01*
G36*
X172157378Y-106365976D02*
X172152667Y-106413000D01*
X172192227Y-106545774D01*
X172216167Y-106569251D01*
X172264555Y-106529902D01*
X172279667Y-106413000D01*
X172257172Y-106277929D01*
X172216167Y-106256748D01*
X172157378Y-106365976D01*
X172157378Y-106365976D01*
G37*
X172157378Y-106365976D02*
X172152667Y-106413000D01*
X172192227Y-106545774D01*
X172216167Y-106569251D01*
X172264555Y-106529902D01*
X172279667Y-106413000D01*
X172257172Y-106277929D01*
X172216167Y-106256748D01*
X172157378Y-106365976D01*
M02*
