M48
;DRILL file {KiCad 4.0.7} date 12/03/18 22:42:32
;FORMAT={3:3/ absolute / metric / suppress leading zeros}
FMAT,2
METRIC,TZ
T1C0.400
T2C0.600
T3C0.800
T4C1.000
T5C5.000
%
G90
G05
M71
T1
X117687Y-88850
X118000Y-118000
X123000Y-86000
X123000Y-87000
X123000Y-88000
X125573Y-91200
X126347Y-90345
X126517Y-91617
X126978Y-89377
X127264Y-92694
X127967Y-93462
X128867Y-100544
X129000Y-86000
X129966Y-101489
X131154Y-94724
X131250Y-118500
X131819Y-93739
X133000Y-87000
X134221Y-87006
X134670Y-98661
X136000Y-87000
X136048Y-98617
X137216Y-104363
X137875Y-102290
X138246Y-118166
X139000Y-87000
X139976Y-83779
X140396Y-101994
X140543Y-98336
X141731Y-98031
X142614Y-98901
X144674Y-84961
X145163Y-86060
X146000Y-99000
X146647Y-93365
X147000Y-96000
X147477Y-89975
X164248Y-119141
X175000Y-77000
X178366Y-96912
X179250Y-100000
X179496Y-77014
X180507Y-97045
X183234Y-75758
X184497Y-77290
X185818Y-75806
X186505Y-77250
T2
X110730Y-81000
X112000Y-81000
X113270Y-81000
T3
X110750Y-86500
X113250Y-86500
X117500Y-80750
X119000Y-104000
X120000Y-80750
X121500Y-104000
X122500Y-107000
X122500Y-114620
X123250Y-91750
X123250Y-94250
X126750Y-82250
X127482Y-101232
X129250Y-82250
X129250Y-103000
X140500Y-105250
X141750Y-81000
X143000Y-105250
X144250Y-81000
X148000Y-86250
X150000Y-105500
X150500Y-86250
X150500Y-92750
X150500Y-98750
X152500Y-105500
X153000Y-92750
X153000Y-98750
X164750Y-86500
X167250Y-86500
X189250Y-79250
X189250Y-81750
X189250Y-95750
X189250Y-98250
T4
X132408Y-97592
X134204Y-95796
X136000Y-94000
X137796Y-92204
X139592Y-90408
X141388Y-88612
X163250Y-114000
X165500Y-114000
X167750Y-114000
X170000Y-114000
X172250Y-114000
T5
X142000Y-110500
T0
M30
