G04 #@! TF.FileFunction,Legend,Top*
%FSLAX46Y46*%
G04 Gerber Fmt 4.6, Leading zero omitted, Abs format (unit mm)*
G04 Created by KiCad (PCBNEW 4.0.7) date 12/03/18 22:41:55*
%MOMM*%
%LPD*%
G01*
G04 APERTURE LIST*
%ADD10C,0.100000*%
%ADD11C,0.200000*%
%ADD12C,0.250000*%
%ADD13C,0.300000*%
%ADD14C,0.127000*%
%ADD15C,0.120000*%
%ADD16C,0.150000*%
%ADD17C,0.010000*%
G04 APERTURE END LIST*
D10*
D11*
X174238095Y-110528571D02*
X174571429Y-110528571D01*
X174714286Y-111052381D02*
X174238095Y-111052381D01*
X174238095Y-110052381D01*
X174714286Y-110052381D01*
X175666667Y-111052381D02*
X175095238Y-111052381D01*
X175380952Y-111052381D02*
X175380952Y-110052381D01*
X175285714Y-110195238D01*
X175190476Y-110290476D01*
X175095238Y-110338095D01*
X176095238Y-110671429D02*
X176857143Y-110671429D01*
X177333333Y-110528571D02*
X177666667Y-110528571D01*
X177809524Y-111052381D02*
X177333333Y-111052381D01*
X177333333Y-110052381D01*
X177809524Y-110052381D01*
X178666667Y-110385714D02*
X178666667Y-111052381D01*
X178428571Y-110004762D02*
X178190476Y-110719048D01*
X178809524Y-110719048D01*
X179952381Y-110528571D02*
X180714286Y-110528571D01*
X180714286Y-110814286D02*
X179952381Y-110814286D01*
X181952381Y-110528571D02*
X182285715Y-110528571D01*
X182428572Y-111052381D02*
X181952381Y-111052381D01*
X181952381Y-110052381D01*
X182428572Y-110052381D01*
X182857143Y-110385714D02*
X182857143Y-111052381D01*
X182857143Y-110480952D02*
X182904762Y-110433333D01*
X183000000Y-110385714D01*
X183142858Y-110385714D01*
X183238096Y-110433333D01*
X183285715Y-110528571D01*
X183285715Y-111052381D01*
X184190477Y-111052381D02*
X184190477Y-110528571D01*
X184142858Y-110433333D01*
X184047620Y-110385714D01*
X183857143Y-110385714D01*
X183761905Y-110433333D01*
X184190477Y-111004762D02*
X184095239Y-111052381D01*
X183857143Y-111052381D01*
X183761905Y-111004762D01*
X183714286Y-110909524D01*
X183714286Y-110814286D01*
X183761905Y-110719048D01*
X183857143Y-110671429D01*
X184095239Y-110671429D01*
X184190477Y-110623810D01*
X184666667Y-111052381D02*
X184666667Y-110052381D01*
X184666667Y-110433333D02*
X184761905Y-110385714D01*
X184952382Y-110385714D01*
X185047620Y-110433333D01*
X185095239Y-110480952D01*
X185142858Y-110576190D01*
X185142858Y-110861905D01*
X185095239Y-110957143D01*
X185047620Y-111004762D01*
X184952382Y-111052381D01*
X184761905Y-111052381D01*
X184666667Y-111004762D01*
X185714286Y-111052381D02*
X185619048Y-111004762D01*
X185571429Y-110909524D01*
X185571429Y-110052381D01*
X186476192Y-111004762D02*
X186380954Y-111052381D01*
X186190477Y-111052381D01*
X186095239Y-111004762D01*
X186047620Y-110909524D01*
X186047620Y-110528571D01*
X186095239Y-110433333D01*
X186190477Y-110385714D01*
X186380954Y-110385714D01*
X186476192Y-110433333D01*
X186523811Y-110528571D01*
X186523811Y-110623810D01*
X186047620Y-110719048D01*
X186904763Y-111004762D02*
X187000001Y-111052381D01*
X187190477Y-111052381D01*
X187285716Y-111004762D01*
X187333335Y-110909524D01*
X187333335Y-110861905D01*
X187285716Y-110766667D01*
X187190477Y-110719048D01*
X187047620Y-110719048D01*
X186952382Y-110671429D01*
X186904763Y-110576190D01*
X186904763Y-110528571D01*
X186952382Y-110433333D01*
X187047620Y-110385714D01*
X187190477Y-110385714D01*
X187285716Y-110433333D01*
X188380954Y-110385714D02*
X188761906Y-110385714D01*
X188523811Y-111052381D02*
X188523811Y-110195238D01*
X188571430Y-110100000D01*
X188666668Y-110052381D01*
X188761906Y-110052381D01*
X189238097Y-111052381D02*
X189142859Y-111004762D01*
X189095240Y-110957143D01*
X189047621Y-110861905D01*
X189047621Y-110576190D01*
X189095240Y-110480952D01*
X189142859Y-110433333D01*
X189238097Y-110385714D01*
X189380955Y-110385714D01*
X189476193Y-110433333D01*
X189523812Y-110480952D01*
X189571431Y-110576190D01*
X189571431Y-110861905D01*
X189523812Y-110957143D01*
X189476193Y-111004762D01*
X189380955Y-111052381D01*
X189238097Y-111052381D01*
X190000002Y-111052381D02*
X190000002Y-110385714D01*
X190000002Y-110576190D02*
X190047621Y-110480952D01*
X190095240Y-110433333D01*
X190190478Y-110385714D01*
X190285717Y-110385714D01*
X182333336Y-111752381D02*
X181857145Y-111752381D01*
X181809526Y-112228571D01*
X181857145Y-112180952D01*
X181952383Y-112133333D01*
X182190479Y-112133333D01*
X182285717Y-112180952D01*
X182333336Y-112228571D01*
X182380955Y-112323810D01*
X182380955Y-112561905D01*
X182333336Y-112657143D01*
X182285717Y-112704762D01*
X182190479Y-112752381D01*
X181952383Y-112752381D01*
X181857145Y-112704762D01*
X181809526Y-112657143D01*
X183333336Y-112752381D02*
X182761907Y-112752381D01*
X183047621Y-112752381D02*
X183047621Y-111752381D01*
X182952383Y-111895238D01*
X182857145Y-111990476D01*
X182761907Y-112038095D01*
X183714288Y-111847619D02*
X183761907Y-111800000D01*
X183857145Y-111752381D01*
X184095241Y-111752381D01*
X184190479Y-111800000D01*
X184238098Y-111847619D01*
X184285717Y-111942857D01*
X184285717Y-112038095D01*
X184238098Y-112180952D01*
X183666669Y-112752381D01*
X184285717Y-112752381D01*
X184714288Y-112752381D02*
X184714288Y-111752381D01*
X185047622Y-112466667D01*
X185380955Y-111752381D01*
X185380955Y-112752381D01*
X186190479Y-112228571D02*
X186333336Y-112276190D01*
X186380955Y-112323810D01*
X186428574Y-112419048D01*
X186428574Y-112561905D01*
X186380955Y-112657143D01*
X186333336Y-112704762D01*
X186238098Y-112752381D01*
X185857145Y-112752381D01*
X185857145Y-111752381D01*
X186190479Y-111752381D01*
X186285717Y-111800000D01*
X186333336Y-111847619D01*
X186380955Y-111942857D01*
X186380955Y-112038095D01*
X186333336Y-112133333D01*
X186285717Y-112180952D01*
X186190479Y-112228571D01*
X185857145Y-112228571D01*
X187619050Y-112752381D02*
X187619050Y-112085714D01*
X187619050Y-112180952D02*
X187666669Y-112133333D01*
X187761907Y-112085714D01*
X187904765Y-112085714D01*
X188000003Y-112133333D01*
X188047622Y-112228571D01*
X188047622Y-112752381D01*
X188047622Y-112228571D02*
X188095241Y-112133333D01*
X188190479Y-112085714D01*
X188333336Y-112085714D01*
X188428574Y-112133333D01*
X188476193Y-112228571D01*
X188476193Y-112752381D01*
X189095240Y-112752381D02*
X189000002Y-112704762D01*
X188952383Y-112657143D01*
X188904764Y-112561905D01*
X188904764Y-112276190D01*
X188952383Y-112180952D01*
X189000002Y-112133333D01*
X189095240Y-112085714D01*
X189238098Y-112085714D01*
X189333336Y-112133333D01*
X189380955Y-112180952D01*
X189428574Y-112276190D01*
X189428574Y-112561905D01*
X189380955Y-112657143D01*
X189333336Y-112704762D01*
X189238098Y-112752381D01*
X189095240Y-112752381D01*
X190285717Y-112752381D02*
X190285717Y-111752381D01*
X190285717Y-112704762D02*
X190190479Y-112752381D01*
X190000002Y-112752381D01*
X189904764Y-112704762D01*
X189857145Y-112657143D01*
X189809526Y-112561905D01*
X189809526Y-112276190D01*
X189857145Y-112180952D01*
X189904764Y-112133333D01*
X190000002Y-112085714D01*
X190190479Y-112085714D01*
X190285717Y-112133333D01*
X191142860Y-112704762D02*
X191047622Y-112752381D01*
X190857145Y-112752381D01*
X190761907Y-112704762D01*
X190714288Y-112609524D01*
X190714288Y-112228571D01*
X190761907Y-112133333D01*
X190857145Y-112085714D01*
X191047622Y-112085714D01*
X191142860Y-112133333D01*
X191190479Y-112228571D01*
X191190479Y-112323810D01*
X190714288Y-112419048D01*
X182142860Y-114833333D02*
X182095240Y-114785714D01*
X182000002Y-114642857D01*
X181952383Y-114547619D01*
X181904764Y-114404762D01*
X181857145Y-114166667D01*
X181857145Y-113976190D01*
X181904764Y-113738095D01*
X181952383Y-113595238D01*
X182000002Y-113500000D01*
X182095240Y-113357143D01*
X182142860Y-113309524D01*
X183095241Y-114452381D02*
X182761907Y-113976190D01*
X182523812Y-114452381D02*
X182523812Y-113452381D01*
X182904765Y-113452381D01*
X183000003Y-113500000D01*
X183047622Y-113547619D01*
X183095241Y-113642857D01*
X183095241Y-113785714D01*
X183047622Y-113880952D01*
X183000003Y-113928571D01*
X182904765Y-113976190D01*
X182523812Y-113976190D01*
X183904765Y-114404762D02*
X183809527Y-114452381D01*
X183619050Y-114452381D01*
X183523812Y-114404762D01*
X183476193Y-114309524D01*
X183476193Y-113928571D01*
X183523812Y-113833333D01*
X183619050Y-113785714D01*
X183809527Y-113785714D01*
X183904765Y-113833333D01*
X183952384Y-113928571D01*
X183952384Y-114023810D01*
X183476193Y-114119048D01*
X184809527Y-113785714D02*
X184809527Y-114785714D01*
X184809527Y-114404762D02*
X184714289Y-114452381D01*
X184523812Y-114452381D01*
X184428574Y-114404762D01*
X184380955Y-114357143D01*
X184333336Y-114261905D01*
X184333336Y-113976190D01*
X184380955Y-113880952D01*
X184428574Y-113833333D01*
X184523812Y-113785714D01*
X184714289Y-113785714D01*
X184809527Y-113833333D01*
X185714289Y-113785714D02*
X185714289Y-114452381D01*
X185285717Y-113785714D02*
X185285717Y-114309524D01*
X185333336Y-114404762D01*
X185428574Y-114452381D01*
X185571432Y-114452381D01*
X185666670Y-114404762D01*
X185714289Y-114357143D01*
X186190479Y-114452381D02*
X186190479Y-113785714D01*
X186190479Y-113452381D02*
X186142860Y-113500000D01*
X186190479Y-113547619D01*
X186238098Y-113500000D01*
X186190479Y-113452381D01*
X186190479Y-113547619D01*
X186666669Y-114452381D02*
X186666669Y-113785714D01*
X186666669Y-113976190D02*
X186714288Y-113880952D01*
X186761907Y-113833333D01*
X186857145Y-113785714D01*
X186952384Y-113785714D01*
X187666670Y-114404762D02*
X187571432Y-114452381D01*
X187380955Y-114452381D01*
X187285717Y-114404762D01*
X187238098Y-114309524D01*
X187238098Y-113928571D01*
X187285717Y-113833333D01*
X187380955Y-113785714D01*
X187571432Y-113785714D01*
X187666670Y-113833333D01*
X187714289Y-113928571D01*
X187714289Y-114023810D01*
X187238098Y-114119048D01*
X188095241Y-114404762D02*
X188190479Y-114452381D01*
X188380955Y-114452381D01*
X188476194Y-114404762D01*
X188523813Y-114309524D01*
X188523813Y-114261905D01*
X188476194Y-114166667D01*
X188380955Y-114119048D01*
X188238098Y-114119048D01*
X188142860Y-114071429D01*
X188095241Y-113976190D01*
X188095241Y-113928571D01*
X188142860Y-113833333D01*
X188238098Y-113785714D01*
X188380955Y-113785714D01*
X188476194Y-113833333D01*
X190142861Y-114452381D02*
X190142861Y-113928571D01*
X190095242Y-113833333D01*
X190000004Y-113785714D01*
X189809527Y-113785714D01*
X189714289Y-113833333D01*
X190142861Y-114404762D02*
X190047623Y-114452381D01*
X189809527Y-114452381D01*
X189714289Y-114404762D01*
X189666670Y-114309524D01*
X189666670Y-114214286D01*
X189714289Y-114119048D01*
X189809527Y-114071429D01*
X190047623Y-114071429D01*
X190142861Y-114023810D01*
X190761908Y-114452381D02*
X190666670Y-114404762D01*
X190619051Y-114309524D01*
X190619051Y-113452381D01*
X191000004Y-113785714D02*
X191380956Y-113785714D01*
X191142861Y-113452381D02*
X191142861Y-114309524D01*
X191190480Y-114404762D01*
X191285718Y-114452381D01*
X191380956Y-114452381D01*
X191714290Y-114357143D02*
X191761909Y-114404762D01*
X191714290Y-114452381D01*
X191666671Y-114404762D01*
X191714290Y-114357143D01*
X191714290Y-114452381D01*
X182428574Y-116057143D02*
X182380955Y-116104762D01*
X182238098Y-116152381D01*
X182142860Y-116152381D01*
X182000002Y-116104762D01*
X181904764Y-116009524D01*
X181857145Y-115914286D01*
X181809526Y-115723810D01*
X181809526Y-115580952D01*
X181857145Y-115390476D01*
X181904764Y-115295238D01*
X182000002Y-115200000D01*
X182142860Y-115152381D01*
X182238098Y-115152381D01*
X182380955Y-115200000D01*
X182428574Y-115247619D01*
X182857145Y-116152381D02*
X182857145Y-115152381D01*
X183238098Y-115152381D01*
X183333336Y-115200000D01*
X183380955Y-115247619D01*
X183428574Y-115342857D01*
X183428574Y-115485714D01*
X183380955Y-115580952D01*
X183333336Y-115628571D01*
X183238098Y-115676190D01*
X182857145Y-115676190D01*
X184333336Y-116152381D02*
X183857145Y-116152381D01*
X183857145Y-115152381D01*
X184666669Y-116152381D02*
X184666669Y-115152381D01*
X184904764Y-115152381D01*
X185047622Y-115200000D01*
X185142860Y-115295238D01*
X185190479Y-115390476D01*
X185238098Y-115580952D01*
X185238098Y-115723810D01*
X185190479Y-115914286D01*
X185142860Y-116009524D01*
X185047622Y-116104762D01*
X184904764Y-116152381D01*
X184666669Y-116152381D01*
X186571431Y-116152381D02*
X186476193Y-116104762D01*
X186428574Y-116009524D01*
X186428574Y-115152381D01*
X187095241Y-116152381D02*
X187000003Y-116104762D01*
X186952384Y-116057143D01*
X186904765Y-115961905D01*
X186904765Y-115676190D01*
X186952384Y-115580952D01*
X187000003Y-115533333D01*
X187095241Y-115485714D01*
X187238099Y-115485714D01*
X187333337Y-115533333D01*
X187380956Y-115580952D01*
X187428575Y-115676190D01*
X187428575Y-115961905D01*
X187380956Y-116057143D01*
X187333337Y-116104762D01*
X187238099Y-116152381D01*
X187095241Y-116152381D01*
X188285718Y-116152381D02*
X188285718Y-115628571D01*
X188238099Y-115533333D01*
X188142861Y-115485714D01*
X187952384Y-115485714D01*
X187857146Y-115533333D01*
X188285718Y-116104762D02*
X188190480Y-116152381D01*
X187952384Y-116152381D01*
X187857146Y-116104762D01*
X187809527Y-116009524D01*
X187809527Y-115914286D01*
X187857146Y-115819048D01*
X187952384Y-115771429D01*
X188190480Y-115771429D01*
X188285718Y-115723810D01*
X189190480Y-116152381D02*
X189190480Y-115152381D01*
X189190480Y-116104762D02*
X189095242Y-116152381D01*
X188904765Y-116152381D01*
X188809527Y-116104762D01*
X188761908Y-116057143D01*
X188714289Y-115961905D01*
X188714289Y-115676190D01*
X188761908Y-115580952D01*
X188809527Y-115533333D01*
X188904765Y-115485714D01*
X189095242Y-115485714D01*
X189190480Y-115533333D01*
X189571432Y-116533333D02*
X189619051Y-116485714D01*
X189714289Y-116342857D01*
X189761908Y-116247619D01*
X189809527Y-116104762D01*
X189857146Y-115866667D01*
X189857146Y-115676190D01*
X189809527Y-115438095D01*
X189761908Y-115295238D01*
X189714289Y-115200000D01*
X189619051Y-115057143D01*
X189571432Y-115009524D01*
X174142857Y-116852381D02*
X174761905Y-116852381D01*
X174428571Y-117233333D01*
X174571429Y-117233333D01*
X174666667Y-117280952D01*
X174714286Y-117328571D01*
X174761905Y-117423810D01*
X174761905Y-117661905D01*
X174714286Y-117757143D01*
X174666667Y-117804762D01*
X174571429Y-117852381D01*
X174285714Y-117852381D01*
X174190476Y-117804762D01*
X174142857Y-117757143D01*
X175666667Y-116852381D02*
X175190476Y-116852381D01*
X175142857Y-117328571D01*
X175190476Y-117280952D01*
X175285714Y-117233333D01*
X175523810Y-117233333D01*
X175619048Y-117280952D01*
X175666667Y-117328571D01*
X175714286Y-117423810D01*
X175714286Y-117661905D01*
X175666667Y-117757143D01*
X175619048Y-117804762D01*
X175523810Y-117852381D01*
X175285714Y-117852381D01*
X175190476Y-117804762D01*
X175142857Y-117757143D01*
X176904762Y-117471429D02*
X177666667Y-117471429D01*
X179476191Y-117757143D02*
X179428572Y-117804762D01*
X179285715Y-117852381D01*
X179190477Y-117852381D01*
X179047619Y-117804762D01*
X178952381Y-117709524D01*
X178904762Y-117614286D01*
X178857143Y-117423810D01*
X178857143Y-117280952D01*
X178904762Y-117090476D01*
X178952381Y-116995238D01*
X179047619Y-116900000D01*
X179190477Y-116852381D01*
X179285715Y-116852381D01*
X179428572Y-116900000D01*
X179476191Y-116947619D01*
X179904762Y-117852381D02*
X179904762Y-116852381D01*
X180285715Y-116852381D01*
X180380953Y-116900000D01*
X180428572Y-116947619D01*
X180476191Y-117042857D01*
X180476191Y-117185714D01*
X180428572Y-117280952D01*
X180380953Y-117328571D01*
X180285715Y-117376190D01*
X179904762Y-117376190D01*
X181380953Y-117852381D02*
X180904762Y-117852381D01*
X180904762Y-116852381D01*
X181714286Y-117852381D02*
X181714286Y-116852381D01*
X181952381Y-116852381D01*
X182095239Y-116900000D01*
X182190477Y-116995238D01*
X182238096Y-117090476D01*
X182285715Y-117280952D01*
X182285715Y-117423810D01*
X182238096Y-117614286D01*
X182190477Y-117709524D01*
X182095239Y-117804762D01*
X181952381Y-117852381D01*
X181714286Y-117852381D01*
X183428572Y-117804762D02*
X183523810Y-117852381D01*
X183714286Y-117852381D01*
X183809525Y-117804762D01*
X183857144Y-117709524D01*
X183857144Y-117661905D01*
X183809525Y-117566667D01*
X183714286Y-117519048D01*
X183571429Y-117519048D01*
X183476191Y-117471429D01*
X183428572Y-117376190D01*
X183428572Y-117328571D01*
X183476191Y-117233333D01*
X183571429Y-117185714D01*
X183714286Y-117185714D01*
X183809525Y-117233333D01*
X184285715Y-117185714D02*
X184285715Y-118185714D01*
X184285715Y-117233333D02*
X184380953Y-117185714D01*
X184571430Y-117185714D01*
X184666668Y-117233333D01*
X184714287Y-117280952D01*
X184761906Y-117376190D01*
X184761906Y-117661905D01*
X184714287Y-117757143D01*
X184666668Y-117804762D01*
X184571430Y-117852381D01*
X184380953Y-117852381D01*
X184285715Y-117804762D01*
X185619049Y-117852381D02*
X185619049Y-117328571D01*
X185571430Y-117233333D01*
X185476192Y-117185714D01*
X185285715Y-117185714D01*
X185190477Y-117233333D01*
X185619049Y-117804762D02*
X185523811Y-117852381D01*
X185285715Y-117852381D01*
X185190477Y-117804762D01*
X185142858Y-117709524D01*
X185142858Y-117614286D01*
X185190477Y-117519048D01*
X185285715Y-117471429D01*
X185523811Y-117471429D01*
X185619049Y-117423810D01*
X186095239Y-117852381D02*
X186095239Y-117185714D01*
X186095239Y-117376190D02*
X186142858Y-117280952D01*
X186190477Y-117233333D01*
X186285715Y-117185714D01*
X186380954Y-117185714D01*
X187095240Y-117804762D02*
X187000002Y-117852381D01*
X186809525Y-117852381D01*
X186714287Y-117804762D01*
X186666668Y-117709524D01*
X186666668Y-117328571D01*
X186714287Y-117233333D01*
X186809525Y-117185714D01*
X187000002Y-117185714D01*
X187095240Y-117233333D01*
X187142859Y-117328571D01*
X187142859Y-117423810D01*
X186666668Y-117519048D01*
X188333335Y-117185714D02*
X188333335Y-118185714D01*
X188333335Y-117233333D02*
X188428573Y-117185714D01*
X188619050Y-117185714D01*
X188714288Y-117233333D01*
X188761907Y-117280952D01*
X188809526Y-117376190D01*
X188809526Y-117661905D01*
X188761907Y-117757143D01*
X188714288Y-117804762D01*
X188619050Y-117852381D01*
X188428573Y-117852381D01*
X188333335Y-117804762D01*
X189238097Y-117852381D02*
X189238097Y-117185714D01*
X189238097Y-116852381D02*
X189190478Y-116900000D01*
X189238097Y-116947619D01*
X189285716Y-116900000D01*
X189238097Y-116852381D01*
X189238097Y-116947619D01*
X189714287Y-117185714D02*
X189714287Y-117852381D01*
X189714287Y-117280952D02*
X189761906Y-117233333D01*
X189857144Y-117185714D01*
X190000002Y-117185714D01*
X190095240Y-117233333D01*
X190142859Y-117328571D01*
X190142859Y-117852381D01*
D12*
X120190476Y-118952381D02*
X120809524Y-118952381D01*
X120476190Y-119333333D01*
X120619048Y-119333333D01*
X120714286Y-119380952D01*
X120761905Y-119428571D01*
X120809524Y-119523810D01*
X120809524Y-119761905D01*
X120761905Y-119857143D01*
X120714286Y-119904762D01*
X120619048Y-119952381D01*
X120333333Y-119952381D01*
X120238095Y-119904762D01*
X120190476Y-119857143D01*
X121666667Y-118952381D02*
X121476190Y-118952381D01*
X121380952Y-119000000D01*
X121333333Y-119047619D01*
X121238095Y-119190476D01*
X121190476Y-119380952D01*
X121190476Y-119761905D01*
X121238095Y-119857143D01*
X121285714Y-119904762D01*
X121380952Y-119952381D01*
X121571429Y-119952381D01*
X121666667Y-119904762D01*
X121714286Y-119857143D01*
X121761905Y-119761905D01*
X121761905Y-119523810D01*
X121714286Y-119428571D01*
X121666667Y-119380952D01*
X121571429Y-119333333D01*
X121380952Y-119333333D01*
X121285714Y-119380952D01*
X121238095Y-119428571D01*
X121190476Y-119523810D01*
X163964286Y-119047619D02*
X164011905Y-119000000D01*
X164107143Y-118952381D01*
X164345239Y-118952381D01*
X164440477Y-119000000D01*
X164488096Y-119047619D01*
X164535715Y-119142857D01*
X164535715Y-119238095D01*
X164488096Y-119380952D01*
X163916667Y-119952381D01*
X164535715Y-119952381D01*
D11*
X127785715Y-86952381D02*
X127214286Y-86952381D01*
X127500000Y-86952381D02*
X127500000Y-85952381D01*
X127404762Y-86095238D01*
X127309524Y-86190476D01*
X127214286Y-86238095D01*
D13*
X95785714Y-112975000D02*
X95642857Y-112903571D01*
X95428571Y-112903571D01*
X95214286Y-112975000D01*
X95071428Y-113117857D01*
X95000000Y-113260714D01*
X94928571Y-113546429D01*
X94928571Y-113760714D01*
X95000000Y-114046429D01*
X95071428Y-114189286D01*
X95214286Y-114332143D01*
X95428571Y-114403571D01*
X95571428Y-114403571D01*
X95785714Y-114332143D01*
X95857143Y-114260714D01*
X95857143Y-113760714D01*
X95571428Y-113760714D01*
X96500000Y-114403571D02*
X96500000Y-113403571D01*
X96500000Y-112903571D02*
X96428571Y-112975000D01*
X96500000Y-113046429D01*
X96571428Y-112975000D01*
X96500000Y-112903571D01*
X96500000Y-113046429D01*
X97857143Y-113403571D02*
X97857143Y-114617857D01*
X97785714Y-114760714D01*
X97714286Y-114832143D01*
X97571429Y-114903571D01*
X97357143Y-114903571D01*
X97214286Y-114832143D01*
X97857143Y-114332143D02*
X97714286Y-114403571D01*
X97428572Y-114403571D01*
X97285714Y-114332143D01*
X97214286Y-114260714D01*
X97142857Y-114117857D01*
X97142857Y-113689286D01*
X97214286Y-113546429D01*
X97285714Y-113475000D01*
X97428572Y-113403571D01*
X97714286Y-113403571D01*
X97857143Y-113475000D01*
X99214286Y-114403571D02*
X99214286Y-113617857D01*
X99142857Y-113475000D01*
X99000000Y-113403571D01*
X98714286Y-113403571D01*
X98571429Y-113475000D01*
X99214286Y-114332143D02*
X99071429Y-114403571D01*
X98714286Y-114403571D01*
X98571429Y-114332143D01*
X98500000Y-114189286D01*
X98500000Y-114046429D01*
X98571429Y-113903571D01*
X98714286Y-113832143D01*
X99071429Y-113832143D01*
X99214286Y-113760714D01*
X100785715Y-114260714D02*
X100714286Y-114332143D01*
X100500000Y-114403571D01*
X100357143Y-114403571D01*
X100142858Y-114332143D01*
X100000000Y-114189286D01*
X99928572Y-114046429D01*
X99857143Y-113760714D01*
X99857143Y-113546429D01*
X99928572Y-113260714D01*
X100000000Y-113117857D01*
X100142858Y-112975000D01*
X100357143Y-112903571D01*
X100500000Y-112903571D01*
X100714286Y-112975000D01*
X100785715Y-113046429D01*
X102071429Y-114403571D02*
X102071429Y-113617857D01*
X102000000Y-113475000D01*
X101857143Y-113403571D01*
X101571429Y-113403571D01*
X101428572Y-113475000D01*
X102071429Y-114332143D02*
X101928572Y-114403571D01*
X101571429Y-114403571D01*
X101428572Y-114332143D01*
X101357143Y-114189286D01*
X101357143Y-114046429D01*
X101428572Y-113903571D01*
X101571429Y-113832143D01*
X101928572Y-113832143D01*
X102071429Y-113760714D01*
X102785715Y-114403571D02*
X102785715Y-113403571D01*
X102785715Y-113689286D02*
X102857143Y-113546429D01*
X102928572Y-113475000D01*
X103071429Y-113403571D01*
X103214286Y-113403571D01*
X103500000Y-113403571D02*
X104071429Y-113403571D01*
X103714286Y-112903571D02*
X103714286Y-114189286D01*
X103785714Y-114332143D01*
X103928572Y-114403571D01*
X104071429Y-114403571D01*
X105714286Y-114403571D02*
X105714286Y-112903571D01*
X105714286Y-113475000D02*
X105857143Y-113403571D01*
X106142857Y-113403571D01*
X106285714Y-113475000D01*
X106357143Y-113546429D01*
X106428572Y-113689286D01*
X106428572Y-114117857D01*
X106357143Y-114260714D01*
X106285714Y-114332143D01*
X106142857Y-114403571D01*
X105857143Y-114403571D01*
X105714286Y-114332143D01*
X106928572Y-113403571D02*
X107285715Y-114403571D01*
X107642857Y-113403571D02*
X107285715Y-114403571D01*
X107142857Y-114760714D01*
X107071429Y-114832143D01*
X106928572Y-114903571D01*
X109142857Y-112903571D02*
X110000000Y-112903571D01*
X109571429Y-114403571D02*
X109571429Y-112903571D01*
X111142857Y-113403571D02*
X111142857Y-114403571D01*
X110500000Y-113403571D02*
X110500000Y-114189286D01*
X110571428Y-114332143D01*
X110714286Y-114403571D01*
X110928571Y-114403571D01*
X111071428Y-114332143D01*
X111142857Y-114260714D01*
X111857143Y-114403571D02*
X111857143Y-113403571D01*
X111857143Y-113689286D02*
X111928571Y-113546429D01*
X112000000Y-113475000D01*
X112142857Y-113403571D01*
X112285714Y-113403571D01*
X112714285Y-114332143D02*
X112857142Y-114403571D01*
X113142857Y-114403571D01*
X113285714Y-114332143D01*
X113357142Y-114189286D01*
X113357142Y-114117857D01*
X113285714Y-113975000D01*
X113142857Y-113903571D01*
X112928571Y-113903571D01*
X112785714Y-113832143D01*
X112714285Y-113689286D01*
X112714285Y-113617857D01*
X112785714Y-113475000D01*
X112928571Y-113403571D01*
X113142857Y-113403571D01*
X113285714Y-113475000D01*
X114000000Y-114403571D02*
X114000000Y-113403571D01*
X114000000Y-112903571D02*
X113928571Y-112975000D01*
X114000000Y-113046429D01*
X114071428Y-112975000D01*
X114000000Y-112903571D01*
X114000000Y-113046429D01*
X99214286Y-115453571D02*
X100071429Y-115453571D01*
X99642858Y-116953571D02*
X99642858Y-115453571D01*
X100571429Y-116953571D02*
X100571429Y-115453571D01*
X101285715Y-116382143D02*
X102428572Y-116382143D01*
X103214286Y-116953571D02*
X103500001Y-116953571D01*
X103642858Y-116882143D01*
X103714286Y-116810714D01*
X103857144Y-116596429D01*
X103928572Y-116310714D01*
X103928572Y-115739286D01*
X103857144Y-115596429D01*
X103785715Y-115525000D01*
X103642858Y-115453571D01*
X103357144Y-115453571D01*
X103214286Y-115525000D01*
X103142858Y-115596429D01*
X103071429Y-115739286D01*
X103071429Y-116096429D01*
X103142858Y-116239286D01*
X103214286Y-116310714D01*
X103357144Y-116382143D01*
X103642858Y-116382143D01*
X103785715Y-116310714D01*
X103857144Y-116239286D01*
X103928572Y-116096429D01*
X104642857Y-116953571D02*
X104928572Y-116953571D01*
X105071429Y-116882143D01*
X105142857Y-116810714D01*
X105285715Y-116596429D01*
X105357143Y-116310714D01*
X105357143Y-115739286D01*
X105285715Y-115596429D01*
X105214286Y-115525000D01*
X105071429Y-115453571D01*
X104785715Y-115453571D01*
X104642857Y-115525000D01*
X104571429Y-115596429D01*
X104500000Y-115739286D01*
X104500000Y-116096429D01*
X104571429Y-116239286D01*
X104642857Y-116310714D01*
X104785715Y-116382143D01*
X105071429Y-116382143D01*
X105214286Y-116310714D01*
X105285715Y-116239286D01*
X105357143Y-116096429D01*
X107071428Y-115382143D02*
X105785714Y-117310714D01*
X108214286Y-115953571D02*
X108214286Y-116953571D01*
X107857143Y-115382143D02*
X107500000Y-116453571D01*
X108428572Y-116453571D01*
X108928571Y-116525000D02*
X109642857Y-116525000D01*
X108785714Y-116953571D02*
X109285714Y-115453571D01*
X109785714Y-116953571D01*
D14*
X172386860Y-98486880D02*
G75*
G03X172386860Y-98486880I-233680J0D01*
G01*
X172755160Y-97595340D02*
X172755160Y-79891540D01*
X172755160Y-79891540D02*
X186750560Y-79891540D01*
X186750560Y-79891540D02*
X186750560Y-97595340D01*
X186750560Y-97595340D02*
X172755160Y-97595340D01*
D15*
X166790000Y-134850000D02*
X166790000Y-125900000D01*
X118390000Y-134850000D02*
X118390000Y-125900000D01*
X118390000Y-125900000D02*
X117990000Y-125900000D01*
X139139555Y-95343502D02*
X144527708Y-89955349D01*
X136000000Y-92203948D02*
X141388154Y-86815795D01*
X134656498Y-90860445D02*
X140044651Y-85472292D01*
X129268344Y-96248599D02*
X133751401Y-100731656D01*
X140044651Y-85472292D02*
X144527708Y-89955349D01*
X136000000Y-92203948D02*
X130611847Y-97592102D01*
X129268344Y-96248599D02*
X134656498Y-90860445D01*
X139139555Y-95343502D02*
X133751401Y-100731656D01*
X110200000Y-82850000D02*
X113800000Y-82850000D01*
X110161522Y-82838478D02*
G75*
G02X112000000Y-78400000I1838478J1838478D01*
G01*
X113838478Y-82838478D02*
G75*
G03X112000000Y-78400000I-1838478J1838478D01*
G01*
D16*
X129825000Y-85825000D02*
X129825000Y-86550000D01*
X144175000Y-85825000D02*
X144175000Y-86625000D01*
X144175000Y-100175000D02*
X144175000Y-99375000D01*
X129825000Y-100175000D02*
X129825000Y-99375000D01*
X129825000Y-85825000D02*
X130625000Y-85825000D01*
X129825000Y-100175000D02*
X130625000Y-100175000D01*
X144175000Y-100175000D02*
X143375000Y-100175000D01*
X144175000Y-85825000D02*
X143375000Y-85825000D01*
X129825000Y-86550000D02*
X128550000Y-86550000D01*
D15*
X167786000Y-114000000D02*
G75*
G03X167786000Y-114000000I-2286000J0D01*
G01*
X170036000Y-114000000D02*
G75*
G03X170036000Y-114000000I-2286000J0D01*
G01*
X172286000Y-114000000D02*
G75*
G03X172286000Y-114000000I-2286000J0D01*
G01*
X174536000Y-114000000D02*
G75*
G03X174536000Y-114000000I-2286000J0D01*
G01*
X165536000Y-114000000D02*
G75*
G03X165536000Y-114000000I-2286000J0D01*
G01*
X187940000Y-99060000D02*
X187940000Y-94940000D01*
X190560000Y-99060000D02*
X190560000Y-94940000D01*
X187940000Y-99060000D02*
X188500000Y-99060000D01*
X190000000Y-99060000D02*
X190560000Y-99060000D01*
X187940000Y-94940000D02*
X188500000Y-94940000D01*
X190000000Y-94940000D02*
X190560000Y-94940000D01*
X190560000Y-78440000D02*
X190560000Y-82560000D01*
X187940000Y-78440000D02*
X187940000Y-82560000D01*
X190560000Y-78440000D02*
X190000000Y-78440000D01*
X188500000Y-78440000D02*
X187940000Y-78440000D01*
X190560000Y-82560000D02*
X190000000Y-82560000D01*
X188500000Y-82560000D02*
X187940000Y-82560000D01*
X122310000Y-105310000D02*
X118190000Y-105310000D01*
X122310000Y-102690000D02*
X118190000Y-102690000D01*
X122310000Y-105310000D02*
X122310000Y-104750000D01*
X122310000Y-103250000D02*
X122310000Y-102690000D01*
X118190000Y-105310000D02*
X118190000Y-104750000D01*
X118190000Y-103250000D02*
X118190000Y-102690000D01*
X121520000Y-114020000D02*
X121190000Y-114020000D01*
X121190000Y-114020000D02*
X121190000Y-107600000D01*
X121190000Y-107600000D02*
X121520000Y-107600000D01*
X123480000Y-114020000D02*
X123810000Y-114020000D01*
X123810000Y-114020000D02*
X123810000Y-107600000D01*
X123810000Y-107600000D02*
X123480000Y-107600000D01*
X114060000Y-87810000D02*
X109940000Y-87810000D01*
X114060000Y-85190000D02*
X109940000Y-85190000D01*
X114060000Y-87810000D02*
X114060000Y-87250000D01*
X114060000Y-85750000D02*
X114060000Y-85190000D01*
X109940000Y-87810000D02*
X109940000Y-87250000D01*
X109940000Y-85750000D02*
X109940000Y-85190000D01*
X116690000Y-79440000D02*
X120810000Y-79440000D01*
X116690000Y-82060000D02*
X120810000Y-82060000D01*
X116690000Y-79440000D02*
X116690000Y-80000000D01*
X116690000Y-81500000D02*
X116690000Y-82060000D01*
X120810000Y-79440000D02*
X120810000Y-80000000D01*
X120810000Y-81500000D02*
X120810000Y-82060000D01*
X125940000Y-80940000D02*
X130060000Y-80940000D01*
X125940000Y-83560000D02*
X130060000Y-83560000D01*
X125940000Y-80940000D02*
X125940000Y-81500000D01*
X125940000Y-83000000D02*
X125940000Y-83560000D01*
X130060000Y-80940000D02*
X130060000Y-81500000D01*
X130060000Y-83000000D02*
X130060000Y-83560000D01*
X140940000Y-79690000D02*
X145060000Y-79690000D01*
X140940000Y-82310000D02*
X145060000Y-82310000D01*
X140940000Y-79690000D02*
X140940000Y-80250000D01*
X140940000Y-81750000D02*
X140940000Y-82310000D01*
X145060000Y-79690000D02*
X145060000Y-80250000D01*
X145060000Y-81750000D02*
X145060000Y-82310000D01*
X147190000Y-84940000D02*
X151310000Y-84940000D01*
X147190000Y-87560000D02*
X151310000Y-87560000D01*
X147190000Y-84940000D02*
X147190000Y-85500000D01*
X147190000Y-87000000D02*
X147190000Y-87560000D01*
X151310000Y-84940000D02*
X151310000Y-85500000D01*
X151310000Y-87000000D02*
X151310000Y-87560000D01*
X149690000Y-97440000D02*
X153810000Y-97440000D01*
X149690000Y-100060000D02*
X153810000Y-100060000D01*
X149690000Y-97440000D02*
X149690000Y-98000000D01*
X149690000Y-99500000D02*
X149690000Y-100060000D01*
X153810000Y-97440000D02*
X153810000Y-98000000D01*
X153810000Y-99500000D02*
X153810000Y-100060000D01*
X149190000Y-104190000D02*
X153310000Y-104190000D01*
X149190000Y-106810000D02*
X153310000Y-106810000D01*
X149190000Y-104190000D02*
X149190000Y-104750000D01*
X149190000Y-106250000D02*
X149190000Y-106810000D01*
X153310000Y-104190000D02*
X153310000Y-104750000D01*
X153310000Y-106250000D02*
X153310000Y-106810000D01*
X139690000Y-103940000D02*
X143810000Y-103940000D01*
X139690000Y-106560000D02*
X143810000Y-106560000D01*
X139690000Y-103940000D02*
X139690000Y-104500000D01*
X139690000Y-106000000D02*
X139690000Y-106560000D01*
X143810000Y-103940000D02*
X143810000Y-104500000D01*
X143810000Y-106000000D02*
X143810000Y-106560000D01*
X127835786Y-99733167D02*
X130749066Y-102646447D01*
X125983167Y-101585786D02*
X128896447Y-104499066D01*
X127835786Y-99733167D02*
X127439807Y-100129146D01*
X126379146Y-101189807D02*
X125983167Y-101585786D01*
X130749066Y-102646447D02*
X130353087Y-103042426D01*
X129292426Y-104103087D02*
X128896447Y-104499066D01*
X121940000Y-95060000D02*
X121940000Y-90940000D01*
X124560000Y-95060000D02*
X124560000Y-90940000D01*
X121940000Y-95060000D02*
X122500000Y-95060000D01*
X124000000Y-95060000D02*
X124560000Y-95060000D01*
X121940000Y-90940000D02*
X122500000Y-90940000D01*
X124000000Y-90940000D02*
X124560000Y-90940000D01*
X163940000Y-85190000D02*
X168060000Y-85190000D01*
X163940000Y-87810000D02*
X168060000Y-87810000D01*
X163940000Y-85190000D02*
X163940000Y-85750000D01*
X163940000Y-87250000D02*
X163940000Y-87810000D01*
X168060000Y-85190000D02*
X168060000Y-85750000D01*
X168060000Y-87250000D02*
X168060000Y-87810000D01*
X149690000Y-91440000D02*
X153810000Y-91440000D01*
X149690000Y-94060000D02*
X153810000Y-94060000D01*
X149690000Y-91440000D02*
X149690000Y-92000000D01*
X149690000Y-93500000D02*
X149690000Y-94060000D01*
X153810000Y-91440000D02*
X153810000Y-92000000D01*
X153810000Y-93500000D02*
X153810000Y-94060000D01*
D17*
G36*
X99098472Y-99128395D02*
X99307583Y-99149621D01*
X99514314Y-99184319D01*
X99698887Y-99227728D01*
X99841525Y-99275082D01*
X99922448Y-99321619D01*
X99928000Y-99328177D01*
X99976609Y-99364806D01*
X100070539Y-99418361D01*
X100097333Y-99432093D01*
X100197519Y-99489825D01*
X100341557Y-99582170D01*
X100505252Y-99693371D01*
X100584167Y-99749151D01*
X100923164Y-99971984D01*
X101255877Y-100152334D01*
X101571583Y-100286216D01*
X101859561Y-100369641D01*
X102109088Y-100398622D01*
X102277639Y-100378922D01*
X102371328Y-100362234D01*
X102422411Y-100368300D01*
X102423133Y-100422444D01*
X102375372Y-100509847D01*
X102294867Y-100608599D01*
X102197362Y-100696791D01*
X102174901Y-100712797D01*
X102100549Y-100774682D01*
X102095689Y-100806535D01*
X102149608Y-100805441D01*
X102251591Y-100768485D01*
X102297431Y-100746139D01*
X102457377Y-100617659D01*
X102576083Y-100425420D01*
X102624551Y-100279833D01*
X102665825Y-100110500D01*
X102737830Y-100343333D01*
X102784299Y-100511867D01*
X102822320Y-100681355D01*
X102835171Y-100756083D01*
X102860508Y-100936000D01*
X111076425Y-100936000D01*
X110973796Y-100824600D01*
X110851938Y-100725669D01*
X110676704Y-100623595D01*
X110477589Y-100532570D01*
X110284091Y-100466786D01*
X110186635Y-100445874D01*
X110068637Y-100436413D01*
X109969945Y-100456359D01*
X109854786Y-100515412D01*
X109797094Y-100551517D01*
X109573642Y-100661310D01*
X109305137Y-100742775D01*
X109027405Y-100787849D01*
X108776272Y-100788473D01*
X108755235Y-100785946D01*
X108613495Y-100763785D01*
X108423692Y-100729778D01*
X108220466Y-100690216D01*
X108161833Y-100678158D01*
X107730797Y-100612009D01*
X107356899Y-100605158D01*
X107041619Y-100657604D01*
X106978457Y-100677736D01*
X106749696Y-100758139D01*
X106878887Y-100548177D01*
X107045091Y-100340554D01*
X107272382Y-100143098D01*
X107537309Y-99970614D01*
X107816421Y-99837908D01*
X108086266Y-99759787D01*
X108140667Y-99751565D01*
X108373500Y-99722979D01*
X108246500Y-99669637D01*
X108121417Y-99640047D01*
X107970731Y-99633637D01*
X107935902Y-99636363D01*
X107815412Y-99645282D01*
X107769164Y-99639133D01*
X107788733Y-99621157D01*
X107865699Y-99594593D01*
X107991637Y-99562683D01*
X108158126Y-99528666D01*
X108263613Y-99510285D01*
X108491686Y-99476846D01*
X108681755Y-99461014D01*
X108871044Y-99461732D01*
X109096779Y-99477945D01*
X109166955Y-99484659D01*
X109412439Y-99513728D01*
X109591759Y-99550360D01*
X109723413Y-99603085D01*
X109825897Y-99680432D01*
X109917710Y-99790931D01*
X109957495Y-99849213D01*
X110034697Y-99952889D01*
X110075037Y-99982336D01*
X110072708Y-99942092D01*
X110021904Y-99836693D01*
X110006861Y-99810639D01*
X109954220Y-99712092D01*
X109930539Y-99648515D01*
X109931650Y-99638905D01*
X109976962Y-99645995D01*
X110051254Y-99702555D01*
X110134733Y-99788847D01*
X110207608Y-99885135D01*
X110241865Y-99948274D01*
X110308178Y-100055414D01*
X110392721Y-100090176D01*
X110395485Y-100090226D01*
X110570705Y-100119013D01*
X110787125Y-100195301D01*
X111024666Y-100308166D01*
X111263250Y-100446683D01*
X111482799Y-100599927D01*
X111663235Y-100756974D01*
X111707576Y-100804143D01*
X111772879Y-100871835D01*
X111836092Y-100911243D01*
X111922273Y-100929984D01*
X112056483Y-100935670D01*
X112141493Y-100936000D01*
X112458667Y-100936000D01*
X112458667Y-109203386D01*
X112649167Y-109407046D01*
X112754096Y-109513098D01*
X112814662Y-109557341D01*
X112838521Y-109544770D01*
X112839667Y-109531306D01*
X112872381Y-109468094D01*
X112951386Y-109389123D01*
X113047973Y-109317924D01*
X113133432Y-109278025D01*
X113151580Y-109275667D01*
X113167275Y-109313653D01*
X113177155Y-109410284D01*
X113178830Y-109476750D01*
X113182363Y-109560856D01*
X113197935Y-109636064D01*
X113233702Y-109717249D01*
X113297817Y-109819288D01*
X113398434Y-109957059D01*
X113543707Y-110145438D01*
X113549247Y-110152548D01*
X113684244Y-110322743D01*
X113802500Y-110466132D01*
X113893721Y-110570662D01*
X113947617Y-110624279D01*
X113955924Y-110628798D01*
X113969926Y-110590659D01*
X113975253Y-110487720D01*
X113971252Y-110339463D01*
X113967570Y-110281083D01*
X113955427Y-110081503D01*
X113943733Y-109836570D01*
X113934261Y-109585589D01*
X113930813Y-109466167D01*
X113919167Y-109000500D01*
X114226943Y-108974802D01*
X114256898Y-110088318D01*
X114264482Y-110397329D01*
X114270236Y-110687462D01*
X114273997Y-110945166D01*
X114275605Y-111156893D01*
X114274897Y-111309094D01*
X114272343Y-111381668D01*
X114257833Y-111561502D01*
X113718083Y-110876835D01*
X113178333Y-110192169D01*
X113178333Y-110850813D01*
X113177925Y-111099991D01*
X113175503Y-111277383D01*
X113169276Y-111395869D01*
X113157450Y-111468329D01*
X113138231Y-111507643D01*
X113109828Y-111526693D01*
X113083083Y-111534984D01*
X112993578Y-111558135D01*
X112929222Y-111564871D01*
X112885871Y-111544295D01*
X112859379Y-111485511D01*
X112845604Y-111377622D01*
X112840399Y-111209732D01*
X112839622Y-110970945D01*
X112839633Y-110894917D01*
X112839600Y-110228167D01*
X112750577Y-110408014D01*
X112594052Y-110632691D01*
X112365314Y-110817717D01*
X112249961Y-110882822D01*
X111985045Y-110979140D01*
X111732479Y-110991754D01*
X111492875Y-110920742D01*
X111266847Y-110766183D01*
X111254179Y-110754668D01*
X111126394Y-110650231D01*
X111039475Y-110609262D01*
X111516308Y-110609262D01*
X111519881Y-110630368D01*
X111546008Y-110652846D01*
X111655651Y-110696083D01*
X111809446Y-110711414D01*
X111971638Y-110698921D01*
X112106473Y-110658690D01*
X112120000Y-110651500D01*
X112163430Y-110623028D01*
X112165157Y-110605194D01*
X112113985Y-110595531D01*
X111998720Y-110591571D01*
X111844833Y-110590846D01*
X111666737Y-110592001D01*
X111561244Y-110597306D01*
X111516308Y-110609262D01*
X111039475Y-110609262D01*
X111019027Y-110599624D01*
X110919349Y-110588000D01*
X110765333Y-110588000D01*
X110765333Y-111175439D01*
X110881750Y-111167470D01*
X110964263Y-111172643D01*
X110994683Y-111220772D01*
X110998167Y-111285576D01*
X110994198Y-111348802D01*
X110971111Y-111391573D01*
X110912131Y-111424104D01*
X110800482Y-111456610D01*
X110664223Y-111488939D01*
X110501762Y-111522789D01*
X110368413Y-111543697D01*
X110287643Y-111548179D01*
X110278240Y-111546258D01*
X110231504Y-111493381D01*
X110205684Y-111418968D01*
X110204729Y-111337524D01*
X110258670Y-111297379D01*
X110301797Y-111286032D01*
X110356760Y-111270881D01*
X110391743Y-111243281D01*
X110412223Y-111186005D01*
X110423677Y-111081829D01*
X110431581Y-110913528D01*
X110433130Y-110872989D01*
X110437939Y-110661124D01*
X110438332Y-110566833D01*
X112247000Y-110566833D01*
X112268167Y-110588000D01*
X112289333Y-110566833D01*
X112268167Y-110545667D01*
X112247000Y-110566833D01*
X110438332Y-110566833D01*
X110439013Y-110403566D01*
X110436368Y-110139205D01*
X110432791Y-109986448D01*
X110425744Y-109774596D01*
X110417655Y-109633168D01*
X110405341Y-109547946D01*
X110385616Y-109504714D01*
X110355294Y-109489256D01*
X110320964Y-109487333D01*
X110237033Y-109458573D01*
X110195968Y-109374932D01*
X110190854Y-109273907D01*
X110217424Y-109231835D01*
X110279263Y-109208982D01*
X110394422Y-109177708D01*
X110539637Y-109143089D01*
X110691642Y-109110205D01*
X110827172Y-109084134D01*
X110922963Y-109069954D01*
X110955504Y-109070727D01*
X110970306Y-109119099D01*
X110984371Y-109212482D01*
X110983698Y-109303572D01*
X110939681Y-109342183D01*
X110881750Y-109352562D01*
X110765333Y-109365957D01*
X110765333Y-110376333D01*
X110892333Y-110376333D01*
X110982501Y-110365582D01*
X111015685Y-110316633D01*
X111019333Y-110257017D01*
X111027370Y-110202180D01*
X111315667Y-110202180D01*
X111315667Y-110376333D01*
X112247000Y-110376333D01*
X112247000Y-109974167D01*
X112461513Y-109974167D01*
X112462597Y-110151683D01*
X112467319Y-110255736D01*
X112478145Y-110297521D01*
X112497545Y-110288232D01*
X112522167Y-110249333D01*
X112560356Y-110140376D01*
X112582269Y-109996722D01*
X112584166Y-109950508D01*
X112571694Y-109813231D01*
X112538577Y-109701087D01*
X112523513Y-109675341D01*
X112494198Y-109644099D01*
X112475848Y-109652621D01*
X112465963Y-109712954D01*
X112462044Y-109837144D01*
X112461513Y-109974167D01*
X112247000Y-109974167D01*
X112247000Y-109550833D01*
X112416333Y-109550833D01*
X112437500Y-109572000D01*
X112458667Y-109550833D01*
X112437500Y-109529667D01*
X112416333Y-109550833D01*
X112247000Y-109550833D01*
X112247000Y-109434228D01*
X112036099Y-109454493D01*
X111802967Y-109514402D01*
X111600458Y-109637582D01*
X111442595Y-109809482D01*
X111343399Y-110015548D01*
X111315667Y-110202180D01*
X111027370Y-110202180D01*
X111058827Y-109987568D01*
X111168826Y-109736798D01*
X111336605Y-109517883D01*
X111549438Y-109344001D01*
X111794602Y-109228326D01*
X112055468Y-109184107D01*
X112247000Y-109180262D01*
X112247000Y-101147667D01*
X112098833Y-101147667D01*
X112000849Y-101154012D01*
X111951928Y-101169613D01*
X111950667Y-101172901D01*
X111961618Y-101224192D01*
X111989953Y-101330823D01*
X112019449Y-101434739D01*
X112053731Y-101609217D01*
X112071213Y-101821610D01*
X112072712Y-102048633D01*
X112059046Y-102267000D01*
X112031032Y-102453424D01*
X111989487Y-102584621D01*
X111978399Y-102604086D01*
X111922244Y-102698261D01*
X111921687Y-102742685D01*
X111982380Y-102755970D01*
X112024750Y-102756734D01*
X112087772Y-102760046D01*
X112095046Y-102776512D01*
X112040102Y-102816845D01*
X111958333Y-102866706D01*
X111859117Y-102933193D01*
X111804106Y-102984157D01*
X111800289Y-103001066D01*
X111846253Y-102997755D01*
X111875172Y-102975761D01*
X111947680Y-102922169D01*
X111985352Y-102930679D01*
X111987649Y-102985984D01*
X111954030Y-103072778D01*
X111883957Y-103175753D01*
X111882293Y-103177737D01*
X111736930Y-103323457D01*
X111560157Y-103447542D01*
X111343563Y-103552656D01*
X111078736Y-103641463D01*
X110757265Y-103716624D01*
X110370737Y-103780803D01*
X109910740Y-103836663D01*
X109749333Y-103852956D01*
X109482137Y-103882116D01*
X109288527Y-103912760D01*
X109157462Y-103949071D01*
X109077905Y-103995229D01*
X109038816Y-104055415D01*
X109029110Y-104125724D01*
X109024669Y-104197581D01*
X109010760Y-104301037D01*
X108985775Y-104444137D01*
X108948104Y-104634929D01*
X108896139Y-104881461D01*
X108828270Y-105191778D01*
X108742887Y-105573929D01*
X108712764Y-105707561D01*
X108557783Y-106393955D01*
X108712551Y-106688479D01*
X108840195Y-106897367D01*
X108984880Y-107078926D01*
X109133066Y-107219807D01*
X109271214Y-107306664D01*
X109361632Y-107328333D01*
X109501409Y-107356303D01*
X109612558Y-107446253D01*
X109704092Y-107607238D01*
X109743629Y-107712170D01*
X109790261Y-107865020D01*
X109805071Y-107963765D01*
X109790560Y-108031701D01*
X109779985Y-108050973D01*
X109763997Y-108142741D01*
X109782355Y-108311593D01*
X109835002Y-108557257D01*
X109921877Y-108879455D01*
X110042921Y-109277915D01*
X110049355Y-109298216D01*
X110116949Y-109519739D01*
X110186492Y-109761594D01*
X110245002Y-109978357D01*
X110254911Y-110017395D01*
X110298840Y-110174847D01*
X110341517Y-110296863D01*
X110375473Y-110362935D01*
X110382871Y-110368790D01*
X110424343Y-110418612D01*
X110423263Y-110499442D01*
X110386032Y-110573210D01*
X110344030Y-110599735D01*
X110270207Y-110597049D01*
X110245251Y-110572922D01*
X110198752Y-110563915D01*
X110080281Y-110593524D01*
X109892793Y-110660937D01*
X109819587Y-110690004D01*
X109649052Y-110756737D01*
X109509779Y-110807113D01*
X109418847Y-110835206D01*
X109392689Y-110838133D01*
X109384299Y-110792869D01*
X109370027Y-110675026D01*
X109351087Y-110496395D01*
X109328694Y-110268764D01*
X109304062Y-110003924D01*
X109286578Y-109807744D01*
X109261270Y-109524532D01*
X109237635Y-109270711D01*
X109216841Y-109058013D01*
X109200062Y-108898172D01*
X109188466Y-108802921D01*
X109184119Y-108781007D01*
X109139350Y-108784219D01*
X109047778Y-108810135D01*
X109033041Y-108815167D01*
X108956490Y-108845615D01*
X108916883Y-108884444D01*
X108904156Y-108955767D01*
X108908246Y-109083696D01*
X108909760Y-109110530D01*
X108923833Y-109358011D01*
X108818000Y-109222068D01*
X108727897Y-109114731D01*
X108608876Y-108983452D01*
X108527286Y-108898205D01*
X108329535Y-108684509D01*
X108162023Y-108478571D01*
X108036626Y-108296070D01*
X107967456Y-108159053D01*
X107916212Y-108017340D01*
X107560080Y-107992207D01*
X107237528Y-107946753D01*
X106959954Y-107852590D01*
X106698949Y-107697964D01*
X106534530Y-107567899D01*
X106406651Y-107469359D01*
X106290435Y-107398648D01*
X106210507Y-107370689D01*
X106209041Y-107370667D01*
X106145860Y-107384665D01*
X106109548Y-107441228D01*
X106086989Y-107550583D01*
X106091036Y-107781451D01*
X106172455Y-107986008D01*
X106242022Y-108075658D01*
X106321297Y-108203499D01*
X106368946Y-108364411D01*
X106375701Y-108519149D01*
X106361297Y-108580769D01*
X106299169Y-108666245D01*
X106197213Y-108744189D01*
X106184838Y-108750893D01*
X106112491Y-108787975D01*
X106081056Y-108813519D01*
X106099649Y-108838223D01*
X106177389Y-108872788D01*
X106323392Y-108927914D01*
X106341500Y-108934743D01*
X106457528Y-108993823D01*
X106584952Y-109079719D01*
X106611703Y-109100941D01*
X106698770Y-109176961D01*
X106728923Y-109228503D01*
X106711116Y-109284289D01*
X106682847Y-109329135D01*
X106610787Y-109439111D01*
X106426405Y-109309147D01*
X106204525Y-109194913D01*
X106028688Y-109158683D01*
X105815352Y-109138184D01*
X105676259Y-109362775D01*
X105600360Y-109483077D01*
X105557391Y-109538551D01*
X105536113Y-109536605D01*
X105525293Y-109484645D01*
X105522814Y-109463931D01*
X105532709Y-109355663D01*
X105604559Y-109269038D01*
X105622405Y-109255165D01*
X105738933Y-109159559D01*
X105847628Y-109056443D01*
X105934046Y-108961587D01*
X105983745Y-108890763D01*
X105984127Y-108860209D01*
X105923124Y-108864064D01*
X105808992Y-108888741D01*
X105696756Y-108919968D01*
X105559743Y-108957855D01*
X105454048Y-108980351D01*
X105410167Y-108983188D01*
X105390363Y-108992784D01*
X105398403Y-109002847D01*
X105393680Y-109051145D01*
X105343962Y-109133184D01*
X105324319Y-109157790D01*
X105237438Y-109323757D01*
X105224277Y-109518208D01*
X105268836Y-109685661D01*
X105301511Y-109781070D01*
X105310120Y-109839730D01*
X105329592Y-109854662D01*
X105349512Y-109845408D01*
X105373516Y-109854928D01*
X105379692Y-109929988D01*
X105368619Y-110078951D01*
X105366796Y-110096261D01*
X105336803Y-110376333D01*
X106553167Y-110373691D01*
X106383833Y-110269037D01*
X106260081Y-110205501D01*
X106088632Y-110133744D01*
X105903473Y-110067814D01*
X105875833Y-110059052D01*
X105675015Y-109995209D01*
X105543692Y-109946598D01*
X105470244Y-109904189D01*
X105443050Y-109858951D01*
X105450492Y-109801852D01*
X105472047Y-109745243D01*
X105514411Y-109656656D01*
X105545573Y-109614828D01*
X105547637Y-109614333D01*
X105598894Y-109629705D01*
X105708982Y-109670675D01*
X105858894Y-109729522D01*
X106029625Y-109798526D01*
X106202170Y-109869966D01*
X106357523Y-109936122D01*
X106476679Y-109989274D01*
X106510833Y-110005602D01*
X106673274Y-110100087D01*
X106796033Y-110198736D01*
X106863012Y-110287475D01*
X106870667Y-110320212D01*
X106887525Y-110341532D01*
X106944755Y-110356998D01*
X107052339Y-110367392D01*
X107220259Y-110373498D01*
X107458498Y-110376098D01*
X107586292Y-110376333D01*
X108301918Y-110376333D01*
X108432273Y-110145356D01*
X108534399Y-109983458D01*
X108626476Y-109889569D01*
X108725610Y-109851506D01*
X108839167Y-109855534D01*
X108966167Y-109874932D01*
X108946733Y-109381500D01*
X109051155Y-109593167D01*
X109127581Y-109765681D01*
X109153963Y-109874513D01*
X109130581Y-109924069D01*
X109072000Y-109922933D01*
X109009048Y-109922403D01*
X108988140Y-109980424D01*
X108987333Y-110009902D01*
X108993058Y-110152999D01*
X109008368Y-110329892D01*
X109030469Y-110520680D01*
X109056568Y-110705460D01*
X109083867Y-110864332D01*
X109109574Y-110977392D01*
X109129748Y-111024087D01*
X109193266Y-111037456D01*
X109315593Y-111040946D01*
X109471378Y-111033940D01*
X109486424Y-111032753D01*
X109660122Y-111013720D01*
X109784500Y-110982433D01*
X109894905Y-110926023D01*
X110015591Y-110840059D01*
X110133960Y-110752571D01*
X110201839Y-110712561D01*
X110234941Y-110714730D01*
X110248980Y-110753778D01*
X110250170Y-110760944D01*
X110254761Y-110839061D01*
X110247881Y-110865563D01*
X110204975Y-110886789D01*
X110098241Y-110933965D01*
X109942157Y-111000840D01*
X109751201Y-111081163D01*
X109676948Y-111112069D01*
X109122308Y-111342282D01*
X109069474Y-111060654D01*
X108742654Y-111030815D01*
X108535577Y-111008234D01*
X108398844Y-110980082D01*
X108318174Y-110938093D01*
X108279286Y-110873999D01*
X108267900Y-110779534D01*
X108267667Y-110755844D01*
X108267667Y-110588000D01*
X106956334Y-110588000D01*
X106928151Y-110767917D01*
X106857188Y-110963420D01*
X106717811Y-111121768D01*
X106520829Y-111235685D01*
X106277046Y-111297893D01*
X106126933Y-111307430D01*
X105960747Y-111291493D01*
X105764196Y-111249684D01*
X105573115Y-111191579D01*
X105423337Y-111126751D01*
X105400858Y-111113417D01*
X105335180Y-111076091D01*
X105322153Y-111089018D01*
X105331222Y-111116812D01*
X105317494Y-111187538D01*
X105245724Y-111288130D01*
X105212312Y-111323488D01*
X105021428Y-111456792D01*
X104783456Y-111531096D01*
X104512704Y-111545702D01*
X104223479Y-111499913D01*
X103930087Y-111393031D01*
X103916762Y-111386651D01*
X103779875Y-111308748D01*
X103712209Y-111232211D01*
X103700935Y-111137530D01*
X103712683Y-111076296D01*
X103738831Y-110972115D01*
X103892389Y-111076323D01*
X104084158Y-111176545D01*
X104287659Y-111232799D01*
X104490994Y-111248865D01*
X104682268Y-111228521D01*
X104849583Y-111175549D01*
X104981042Y-111093726D01*
X105028988Y-111032500D01*
X105219667Y-111032500D01*
X105240833Y-111053667D01*
X105262000Y-111032500D01*
X105240833Y-111011333D01*
X105219667Y-111032500D01*
X105028988Y-111032500D01*
X105064749Y-110986834D01*
X105087958Y-110863167D01*
X105227919Y-110863167D01*
X105232495Y-110935464D01*
X105245747Y-110941830D01*
X105247434Y-110938056D01*
X105255809Y-110854016D01*
X105249003Y-110811056D01*
X105235528Y-110793792D01*
X105228199Y-110850020D01*
X105227919Y-110863167D01*
X105087958Y-110863167D01*
X105088806Y-110858652D01*
X105041318Y-110712959D01*
X105040518Y-110711559D01*
X104969604Y-110588000D01*
X105158135Y-110588000D01*
X105281512Y-110595934D01*
X105337977Y-110623609D01*
X105346667Y-110653998D01*
X105324722Y-110697193D01*
X105293750Y-110688205D01*
X105266123Y-110679994D01*
X105297230Y-110725988D01*
X105411770Y-110821496D01*
X105580057Y-110908757D01*
X105771279Y-110975311D01*
X105954621Y-111008697D01*
X106000562Y-111010403D01*
X106117238Y-110998438D01*
X106256746Y-110968394D01*
X106394758Y-110927787D01*
X106506941Y-110884129D01*
X106568967Y-110844935D01*
X106574333Y-110833207D01*
X106584748Y-110787927D01*
X106609888Y-110696531D01*
X106610743Y-110693554D01*
X106647152Y-110566833D01*
X106001235Y-110579444D01*
X105355319Y-110592054D01*
X105265226Y-110465531D01*
X105242138Y-110439833D01*
X106574333Y-110439833D01*
X106595500Y-110461000D01*
X106616667Y-110439833D01*
X106595500Y-110418667D01*
X106574333Y-110439833D01*
X105242138Y-110439833D01*
X105181980Y-110372875D01*
X105098709Y-110315130D01*
X105090952Y-110312289D01*
X105033587Y-110275836D01*
X105030750Y-110246770D01*
X105020078Y-110226892D01*
X104982087Y-110235845D01*
X104932819Y-110244086D01*
X104944096Y-110207653D01*
X104955687Y-110171198D01*
X104935480Y-110178326D01*
X104878290Y-110175456D01*
X104764323Y-110144626D01*
X104613591Y-110093536D01*
X104446107Y-110029886D01*
X104281884Y-109961378D01*
X104140935Y-109895711D01*
X104043272Y-109840586D01*
X104027444Y-109828934D01*
X103940335Y-109779502D01*
X103846290Y-109788557D01*
X103815395Y-109799370D01*
X103719009Y-109854713D01*
X103705095Y-109921928D01*
X103772299Y-110009139D01*
X103779335Y-110015596D01*
X103835094Y-110081157D01*
X103844697Y-110120935D01*
X103859327Y-110151805D01*
X103877445Y-110156240D01*
X103958093Y-110175741D01*
X104094562Y-110218729D01*
X104264154Y-110277015D01*
X104444171Y-110342416D01*
X104611913Y-110406744D01*
X104744682Y-110461814D01*
X104805536Y-110490949D01*
X104944500Y-110566833D01*
X104418673Y-110578778D01*
X104174049Y-110581435D01*
X104005210Y-110576038D01*
X103903602Y-110561979D01*
X103860959Y-110539129D01*
X103814743Y-110508924D01*
X103730827Y-110534803D01*
X103730620Y-110534903D01*
X103632167Y-110582270D01*
X103745730Y-110585135D01*
X103849793Y-110617746D01*
X103887179Y-110675857D01*
X103903638Y-110750279D01*
X103900615Y-110775275D01*
X103858415Y-110794624D01*
X103752058Y-110840064D01*
X103595744Y-110905616D01*
X103403674Y-110985300D01*
X103314667Y-111021992D01*
X102743167Y-111257147D01*
X102729771Y-111155407D01*
X102716235Y-111077882D01*
X102706976Y-111053667D01*
X102666765Y-111069181D01*
X102563545Y-111111594D01*
X102412236Y-111174712D01*
X102227762Y-111252342D01*
X102197023Y-111265333D01*
X102005702Y-111345059D01*
X101842023Y-111411059D01*
X101721986Y-111457039D01*
X101661591Y-111476704D01*
X101658901Y-111477000D01*
X101626540Y-111440324D01*
X101621280Y-111342281D01*
X101640679Y-111200849D01*
X101678078Y-111050910D01*
X102774712Y-111050910D01*
X102780503Y-111053667D01*
X102819136Y-111023865D01*
X102827833Y-111011333D01*
X102838621Y-110971756D01*
X102832830Y-110969000D01*
X102794197Y-110998802D01*
X102785500Y-111011333D01*
X102774712Y-111050910D01*
X101678078Y-111050910D01*
X101682295Y-111034007D01*
X101742284Y-110863167D01*
X101795405Y-110732704D01*
X101875333Y-110732704D01*
X101881633Y-110882730D01*
X101910562Y-110959629D01*
X101977162Y-110974600D01*
X102096476Y-110938843D01*
X102133061Y-110924579D01*
X102306543Y-110855684D01*
X102492365Y-110781890D01*
X102549944Y-110759024D01*
X102758888Y-110676048D01*
X102777012Y-110769607D01*
X102790451Y-110825956D01*
X102797579Y-110803714D01*
X102800901Y-110751687D01*
X102795900Y-110698422D01*
X102976000Y-110698422D01*
X102987009Y-110776698D01*
X103036060Y-110791853D01*
X103076483Y-110783625D01*
X103176716Y-110750980D01*
X103309954Y-110698708D01*
X103362233Y-110676193D01*
X103547500Y-110593980D01*
X103261750Y-110590990D01*
X103110425Y-110590929D01*
X103024953Y-110599444D01*
X102986534Y-110623605D01*
X102976367Y-110670480D01*
X102976000Y-110698422D01*
X102795900Y-110698422D01*
X102794681Y-110685440D01*
X102759605Y-110639758D01*
X102683115Y-110610952D01*
X102552655Y-110595333D01*
X102355665Y-110589212D01*
X102245750Y-110588578D01*
X101875333Y-110588000D01*
X101875333Y-110732704D01*
X101795405Y-110732704D01*
X101862945Y-110566833D01*
X101843747Y-110343300D01*
X101917667Y-110343300D01*
X101956845Y-110357844D01*
X102061791Y-110369122D01*
X102213622Y-110375496D01*
X102298817Y-110376333D01*
X102679967Y-110376333D01*
X102652297Y-109767369D01*
X102642100Y-109528652D01*
X102637583Y-109361122D01*
X102639858Y-109251423D01*
X102650038Y-109186198D01*
X102669235Y-109152091D01*
X102698560Y-109135746D01*
X102705063Y-109133640D01*
X102817724Y-109100916D01*
X102968253Y-109059773D01*
X103136761Y-109015307D01*
X103303360Y-108972613D01*
X103448161Y-108936788D01*
X103551277Y-108912927D01*
X103592819Y-108906127D01*
X103592863Y-108906169D01*
X103606463Y-108949707D01*
X103628062Y-109041818D01*
X103629150Y-109046881D01*
X103657190Y-109177930D01*
X103295428Y-109275148D01*
X102933667Y-109372367D01*
X102933667Y-109556850D01*
X102940166Y-109668262D01*
X102956554Y-109733643D01*
X102965417Y-109740875D01*
X103021211Y-109729198D01*
X103128848Y-109699865D01*
X103204978Y-109677375D01*
X103353533Y-109634433D01*
X103437850Y-109622264D01*
X103474508Y-109646396D01*
X103480085Y-109712357D01*
X103475972Y-109767739D01*
X103464555Y-109851151D01*
X103435249Y-109904834D01*
X103368842Y-109944871D01*
X103246122Y-109987345D01*
X103194725Y-110003190D01*
X103045704Y-110054233D01*
X102967648Y-110096845D01*
X102948339Y-110138375D01*
X102951308Y-110149580D01*
X102972934Y-110248070D01*
X102976000Y-110295129D01*
X102991277Y-110348249D01*
X103051502Y-110371845D01*
X103147493Y-110376333D01*
X103261497Y-110368798D01*
X103325919Y-110330689D01*
X103375444Y-110238749D01*
X103384264Y-110217583D01*
X103453418Y-110083141D01*
X103536231Y-109964243D01*
X103546099Y-109953000D01*
X103619563Y-109830601D01*
X103664104Y-109674689D01*
X103665692Y-109663089D01*
X103671806Y-109642100D01*
X103949667Y-109642100D01*
X103970551Y-109689852D01*
X104028155Y-109669337D01*
X104114904Y-109584446D01*
X104152534Y-109537936D01*
X104207788Y-109454649D01*
X104222006Y-109407007D01*
X104214801Y-109402667D01*
X104141066Y-109431510D01*
X104052096Y-109499778D01*
X103978227Y-109580073D01*
X103949667Y-109642100D01*
X103671806Y-109642100D01*
X103723070Y-109466133D01*
X103793074Y-109377452D01*
X104288333Y-109377452D01*
X104326121Y-109392709D01*
X104421379Y-109401673D01*
X104472463Y-109402667D01*
X104640864Y-109425977D01*
X104806221Y-109504928D01*
X104842879Y-109528896D01*
X104974326Y-109613612D01*
X105051481Y-109650014D01*
X105086575Y-109642164D01*
X105092667Y-109611835D01*
X105115238Y-109583431D01*
X105126212Y-109587735D01*
X105158227Y-109581312D01*
X105164610Y-109526733D01*
X105147863Y-109455696D01*
X105111456Y-109400693D01*
X105073521Y-109336685D01*
X105078753Y-109302620D01*
X105086017Y-109275323D01*
X105074458Y-109283023D01*
X105022296Y-109281013D01*
X104923288Y-109244833D01*
X104849699Y-109208940D01*
X104674847Y-109130802D01*
X104545000Y-109112296D01*
X104444395Y-109154098D01*
X104375882Y-109229285D01*
X104317691Y-109317423D01*
X104288975Y-109373500D01*
X104288333Y-109377452D01*
X103793074Y-109377452D01*
X103843663Y-109313366D01*
X104033010Y-109199832D01*
X104263965Y-109127739D01*
X104376193Y-109097178D01*
X104455793Y-109054832D01*
X104525230Y-108981660D01*
X104606968Y-108858622D01*
X104634480Y-108813691D01*
X104796531Y-108547174D01*
X104680015Y-108456337D01*
X104404888Y-108217242D01*
X104207933Y-107987356D01*
X104084331Y-107759123D01*
X104029263Y-107524988D01*
X104025327Y-107429929D01*
X104037846Y-107286653D01*
X104069767Y-107090547D01*
X104115568Y-106865510D01*
X104169730Y-106635442D01*
X104226732Y-106424243D01*
X104281053Y-106255813D01*
X104283997Y-106248833D01*
X105812333Y-106248833D01*
X105833500Y-106270000D01*
X105854667Y-106248833D01*
X105833500Y-106227667D01*
X105812333Y-106248833D01*
X104283997Y-106248833D01*
X104315248Y-106174750D01*
X104351104Y-106097291D01*
X104347055Y-106066261D01*
X104292117Y-106079761D01*
X104175310Y-106135897D01*
X104153773Y-106146857D01*
X104012205Y-106205475D01*
X103835150Y-106260871D01*
X103722716Y-106287913D01*
X103580810Y-106319614D01*
X103500340Y-106351731D01*
X103459453Y-106399879D01*
X103436293Y-106479676D01*
X103433097Y-106494861D01*
X103405828Y-106579975D01*
X103348480Y-106727313D01*
X103267069Y-106922516D01*
X103167612Y-107151219D01*
X103056125Y-107399063D01*
X103035570Y-107443889D01*
X102918906Y-107698850D01*
X102808859Y-107941728D01*
X102712454Y-108156833D01*
X102636718Y-108328478D01*
X102588676Y-108440973D01*
X102584939Y-108450167D01*
X102541775Y-108562210D01*
X102480696Y-108727229D01*
X102406513Y-108931569D01*
X102324041Y-109161574D01*
X102238091Y-109403589D01*
X102153477Y-109643960D01*
X102075012Y-109869032D01*
X102007509Y-110065149D01*
X101955780Y-110218657D01*
X101924640Y-110315902D01*
X101917667Y-110343300D01*
X101843747Y-110343300D01*
X101795056Y-109776403D01*
X101772133Y-109526041D01*
X101749206Y-109305075D01*
X101727919Y-109127237D01*
X101709916Y-109006255D01*
X101696843Y-108955859D01*
X101696774Y-108955789D01*
X101641108Y-108949981D01*
X101545482Y-108975864D01*
X101533042Y-108980835D01*
X101455110Y-109018004D01*
X101418820Y-109062777D01*
X101413159Y-109142324D01*
X101423487Y-109251116D01*
X101434748Y-109361113D01*
X101451797Y-109538002D01*
X101472998Y-109764332D01*
X101496717Y-110022655D01*
X101521321Y-110295521D01*
X101521722Y-110300012D01*
X101546868Y-110585258D01*
X101564166Y-110798325D01*
X101573557Y-110951341D01*
X101574985Y-111056434D01*
X101568391Y-111125731D01*
X101553719Y-111171362D01*
X101530911Y-111205453D01*
X101517364Y-111220940D01*
X101425621Y-111288362D01*
X101297269Y-111346049D01*
X101265360Y-111355902D01*
X101147448Y-111375619D01*
X100965881Y-111390827D01*
X100741567Y-111401223D01*
X100495414Y-111406503D01*
X100248329Y-111406364D01*
X100021220Y-111400504D01*
X99834995Y-111388618D01*
X99748083Y-111377901D01*
X99627389Y-111354748D01*
X99568321Y-111323309D01*
X99548856Y-111262195D01*
X99547000Y-111182602D01*
X99529580Y-111051935D01*
X99498865Y-111017041D01*
X99602428Y-111017041D01*
X99604842Y-111033022D01*
X99645389Y-111092813D01*
X99685889Y-111073297D01*
X99721108Y-110979673D01*
X99735657Y-110903034D01*
X99765163Y-110782703D01*
X99806224Y-110702020D01*
X99825130Y-110686838D01*
X99877011Y-110645509D01*
X99879475Y-110601656D01*
X99845118Y-110588000D01*
X99796662Y-110623210D01*
X99733549Y-110710792D01*
X99670394Y-110823672D01*
X99621814Y-110934780D01*
X99602428Y-111017041D01*
X99498865Y-111017041D01*
X99478766Y-110994208D01*
X99437707Y-110960614D01*
X99427064Y-110888627D01*
X99439027Y-110778012D01*
X99467521Y-110588000D01*
X99282894Y-110588000D01*
X99143525Y-110595414D01*
X99065583Y-110623993D01*
X99048069Y-110683236D01*
X99089983Y-110782647D01*
X99190325Y-110931725D01*
X99239730Y-110998281D01*
X99476670Y-111313085D01*
X99181524Y-111608231D01*
X98941948Y-111248228D01*
X98702371Y-110888226D01*
X98255833Y-111086266D01*
X98255833Y-111791970D01*
X97938333Y-111844672D01*
X97931558Y-111502086D01*
X97926755Y-111364217D01*
X97919640Y-111285324D01*
X97911432Y-111275892D01*
X97907709Y-111297083D01*
X97885264Y-111392853D01*
X97853693Y-111440278D01*
X97850984Y-111441017D01*
X97771675Y-111451141D01*
X97767009Y-111451600D01*
X97736880Y-111415622D01*
X97688149Y-111314641D01*
X97627688Y-111164394D01*
X97565925Y-110991191D01*
X97409167Y-110526548D01*
X97176333Y-110538648D01*
X97024923Y-110557150D01*
X96922040Y-110591047D01*
X96897275Y-110610647D01*
X96865708Y-110677476D01*
X96821908Y-110803281D01*
X96773735Y-110964788D01*
X96757726Y-111023818D01*
X96711556Y-111193775D01*
X96676739Y-111297010D01*
X96643634Y-111348828D01*
X96602603Y-111364531D01*
X96546139Y-111359735D01*
X96465359Y-111355065D01*
X96439699Y-111390042D01*
X96447077Y-111473189D01*
X96453545Y-111560701D01*
X96422529Y-111596709D01*
X96331606Y-111603977D01*
X96318242Y-111604000D01*
X96238797Y-111597873D01*
X96183758Y-111570822D01*
X96148669Y-111509844D01*
X96129076Y-111401936D01*
X96123013Y-111282972D01*
X96333009Y-111282972D01*
X96340792Y-111337879D01*
X96355243Y-111338535D01*
X96365349Y-111281876D01*
X96358585Y-111257396D01*
X96339788Y-111241361D01*
X96333009Y-111282972D01*
X96123013Y-111282972D01*
X96120521Y-111234094D01*
X96119261Y-111096000D01*
X96372000Y-111096000D01*
X96387489Y-111130845D01*
X96400222Y-111124222D01*
X96405289Y-111073982D01*
X96400222Y-111067778D01*
X96375055Y-111073589D01*
X96372000Y-111096000D01*
X96119261Y-111096000D01*
X96118578Y-111021307D01*
X96118000Y-110629114D01*
X95858158Y-110760282D01*
X95598317Y-110891450D01*
X95622933Y-111185079D01*
X95647550Y-111478709D01*
X95512358Y-111535247D01*
X95418254Y-111568488D01*
X95371055Y-111560708D01*
X95348183Y-111523809D01*
X95336201Y-111463524D01*
X95318487Y-111331750D01*
X95296486Y-111141360D01*
X95271644Y-110905228D01*
X95245408Y-110636226D01*
X95231199Y-110482167D01*
X95204955Y-110196199D01*
X95179946Y-109931854D01*
X95157550Y-109703071D01*
X95139147Y-109523787D01*
X95126114Y-109407942D01*
X95122046Y-109378189D01*
X95116075Y-109290930D01*
X95149293Y-109242024D01*
X95242192Y-109204565D01*
X95258043Y-109199648D01*
X95360201Y-109171098D01*
X95419575Y-109159849D01*
X95424517Y-109160740D01*
X95431430Y-109203801D01*
X95444622Y-109317011D01*
X95462574Y-109486209D01*
X95483771Y-109697238D01*
X95499897Y-109864063D01*
X95522750Y-110096566D01*
X95543890Y-110297655D01*
X95561705Y-110453047D01*
X95574583Y-110548457D01*
X95579813Y-110571924D01*
X95621180Y-110560792D01*
X95716897Y-110518438D01*
X95846795Y-110453832D01*
X95855495Y-110449309D01*
X96117316Y-110312833D01*
X96117658Y-109814369D01*
X96118367Y-109602469D01*
X96122226Y-109459802D01*
X96132349Y-109370933D01*
X96151852Y-109320427D01*
X96183849Y-109292851D01*
X96226589Y-109274619D01*
X96320726Y-109243787D01*
X96373914Y-109233333D01*
X96386246Y-109273777D01*
X96397948Y-109387552D01*
X96408389Y-109563321D01*
X96416937Y-109789748D01*
X96422959Y-110055497D01*
X96424075Y-110132917D01*
X96435500Y-111032500D01*
X96659658Y-110232454D01*
X96935997Y-110232454D01*
X96943610Y-110274336D01*
X97018138Y-110290362D01*
X97055387Y-110291018D01*
X97170346Y-110280465D01*
X97251866Y-110255864D01*
X97253510Y-110254858D01*
X97278581Y-110221002D01*
X97279004Y-110154560D01*
X97252945Y-110038257D01*
X97217649Y-109916882D01*
X97169814Y-109774922D01*
X97126836Y-109674509D01*
X97096788Y-109633970D01*
X97093267Y-109634511D01*
X97068651Y-109683649D01*
X97037104Y-109791451D01*
X97009737Y-109913923D01*
X96979167Y-110060663D01*
X96951610Y-110178298D01*
X96935997Y-110232454D01*
X96659658Y-110232454D01*
X96752367Y-109901567D01*
X96835575Y-109609060D01*
X96912594Y-109346791D01*
X96980286Y-109124782D01*
X97035510Y-108953054D01*
X97075126Y-108841631D01*
X97095996Y-108800534D01*
X97097187Y-108800900D01*
X97118660Y-108847462D01*
X97164530Y-108962740D01*
X97230640Y-109135741D01*
X97312833Y-109355475D01*
X97406951Y-109610950D01*
X97492917Y-109847153D01*
X97593549Y-110123671D01*
X97685385Y-110373208D01*
X97764343Y-110584902D01*
X97826345Y-110747894D01*
X97867311Y-110851324D01*
X97882566Y-110884319D01*
X97888980Y-110851614D01*
X97892887Y-110747665D01*
X97894146Y-110585861D01*
X97892618Y-110379590D01*
X97889636Y-110207345D01*
X97881705Y-109833280D01*
X98180287Y-109833280D01*
X98180634Y-109988200D01*
X98186244Y-110167409D01*
X98196153Y-110351591D01*
X98209399Y-110521428D01*
X98225020Y-110657606D01*
X98242051Y-110740807D01*
X98253257Y-110757333D01*
X98296420Y-110741615D01*
X98388789Y-110702161D01*
X98430580Y-110683545D01*
X98594500Y-110609757D01*
X98414583Y-110596444D01*
X98234667Y-110583132D01*
X98234667Y-110524500D01*
X99462333Y-110524500D01*
X99483500Y-110545667D01*
X99504667Y-110524500D01*
X99483500Y-110503333D01*
X99462333Y-110524500D01*
X98234667Y-110524500D01*
X98234667Y-110117401D01*
X98231693Y-109932998D01*
X98223624Y-109787181D01*
X98211741Y-109695978D01*
X98199232Y-109673570D01*
X98186165Y-109721964D01*
X98180287Y-109833280D01*
X97881705Y-109833280D01*
X97876165Y-109572000D01*
X98446333Y-109572000D01*
X98446333Y-110380558D01*
X98689750Y-110367862D01*
X98828172Y-110357843D01*
X98910562Y-110334770D01*
X98965457Y-110281591D01*
X99021398Y-110181254D01*
X99029825Y-110164667D01*
X99093772Y-109970911D01*
X99081007Y-109806015D01*
X98997067Y-109678748D01*
X98847489Y-109597880D01*
X98655639Y-109572000D01*
X98446333Y-109572000D01*
X97876165Y-109572000D01*
X97874833Y-109509190D01*
X98234667Y-109384110D01*
X98234667Y-109318000D01*
X98445682Y-109318000D01*
X98647091Y-109318930D01*
X98878143Y-109351101D01*
X99092224Y-109437228D01*
X99260826Y-109564913D01*
X99289839Y-109598431D01*
X99344754Y-109682337D01*
X99369791Y-109772653D01*
X99371478Y-109901241D01*
X99366804Y-109974167D01*
X99351317Y-110123987D01*
X99331104Y-110247102D01*
X99315846Y-110302250D01*
X99308260Y-110357538D01*
X99363993Y-110375742D01*
X99389715Y-110376333D01*
X99428586Y-110376617D01*
X99430012Y-110376333D01*
X99817416Y-110376333D01*
X99983071Y-110376333D01*
X100088138Y-110370868D01*
X100126739Y-110347963D01*
X100118551Y-110302250D01*
X100086078Y-110217025D01*
X100041154Y-110092966D01*
X100025393Y-110048299D01*
X99980792Y-109935452D01*
X99942042Y-109861399D01*
X99930785Y-109848888D01*
X99909153Y-109876784D01*
X99882991Y-109968726D01*
X99858290Y-110102839D01*
X99817416Y-110376333D01*
X99430012Y-110376333D01*
X99458911Y-110370581D01*
X99483790Y-110347895D01*
X99506319Y-110298229D01*
X99529600Y-110211252D01*
X99556729Y-110076635D01*
X99590806Y-109884047D01*
X99634930Y-109623157D01*
X99659558Y-109476750D01*
X99700025Y-109243839D01*
X99737259Y-109043086D01*
X99768549Y-108888073D01*
X99791183Y-108792384D01*
X99801129Y-108767667D01*
X99824698Y-108804385D01*
X99875447Y-108905797D01*
X99947170Y-109058790D01*
X100033663Y-109250250D01*
X100091496Y-109381402D01*
X100190246Y-109599864D01*
X100276756Y-109776868D01*
X100345423Y-109901835D01*
X100390642Y-109964188D01*
X100402662Y-109968607D01*
X100404406Y-109986654D01*
X100367548Y-110059538D01*
X100301117Y-110169788D01*
X100156645Y-110397500D01*
X100273590Y-110693833D01*
X100327543Y-110845575D01*
X100361805Y-110972048D01*
X100369871Y-111048629D01*
X100368646Y-111053667D01*
X100358863Y-111095240D01*
X100388502Y-111073313D01*
X100407631Y-111053667D01*
X100442856Y-110987894D01*
X100490394Y-110859835D01*
X100543303Y-110689650D01*
X100582547Y-110545667D01*
X100666587Y-110222287D01*
X100732842Y-109977022D01*
X100782599Y-109805494D01*
X100817147Y-109703328D01*
X100837773Y-109666147D01*
X100841223Y-109666779D01*
X100854776Y-109711577D01*
X100882139Y-109825567D01*
X100920204Y-109994982D01*
X100965865Y-110206055D01*
X101006715Y-110400168D01*
X101068350Y-110696339D01*
X101115165Y-110919847D01*
X101149588Y-111080917D01*
X101174046Y-111189778D01*
X101190966Y-111256655D01*
X101202775Y-111291778D01*
X101211899Y-111305372D01*
X101220767Y-111307665D01*
X101222075Y-111307667D01*
X101271349Y-111290076D01*
X101361393Y-111247201D01*
X101371590Y-111241965D01*
X101463793Y-111172917D01*
X101477005Y-111104382D01*
X101462179Y-111046450D01*
X101430548Y-110916798D01*
X101384672Y-110726130D01*
X101327112Y-110485148D01*
X101260431Y-110204554D01*
X101187189Y-109895052D01*
X101155908Y-109762500D01*
X101081212Y-109446062D01*
X101012530Y-109155753D01*
X100952327Y-108901944D01*
X100903069Y-108695007D01*
X100867222Y-108545313D01*
X100847252Y-108463233D01*
X100844170Y-108451340D01*
X100829711Y-108474265D01*
X100798576Y-108565698D01*
X100754951Y-108712089D01*
X100703021Y-108899891D01*
X100687224Y-108959340D01*
X100542554Y-109508500D01*
X100509334Y-109254500D01*
X100440843Y-108745106D01*
X100378183Y-108310340D01*
X100319795Y-107940488D01*
X100264124Y-107625832D01*
X100209611Y-107356658D01*
X100193862Y-107286000D01*
X100146814Y-107072769D01*
X100104887Y-106870447D01*
X100073181Y-106704375D01*
X100058380Y-106612958D01*
X100033833Y-106426750D01*
X99702877Y-106287708D01*
X99429152Y-106162536D01*
X99228813Y-106041374D01*
X99092444Y-105910564D01*
X99010630Y-105756446D01*
X98973956Y-105565359D01*
X98973005Y-105323645D01*
X98978458Y-105236752D01*
X98980068Y-105124724D01*
X100563000Y-105124724D01*
X100905573Y-105488414D01*
X101057880Y-105654187D01*
X101156849Y-105773535D01*
X101210662Y-105858205D01*
X101227498Y-105919947D01*
X101224479Y-105946404D01*
X101207350Y-106039748D01*
X101188060Y-106181316D01*
X101175679Y-106292935D01*
X101157535Y-106453145D01*
X101131096Y-106660203D01*
X101101128Y-106877304D01*
X101090914Y-106947333D01*
X101068906Y-107124666D01*
X101049671Y-107333721D01*
X101033753Y-107559712D01*
X101021697Y-107787850D01*
X101014048Y-108003351D01*
X101011351Y-108191428D01*
X101014151Y-108337293D01*
X101022993Y-108426162D01*
X101035690Y-108445826D01*
X101053952Y-108395289D01*
X101066709Y-108285003D01*
X101071000Y-108153503D01*
X101082916Y-107875643D01*
X101116299Y-107541409D01*
X101167597Y-107175315D01*
X101233260Y-106801875D01*
X101309737Y-106445600D01*
X101330956Y-106358799D01*
X101463024Y-105833765D01*
X101431226Y-105803359D01*
X104986833Y-105803359D01*
X105246365Y-105781149D01*
X105391906Y-105771484D01*
X105481698Y-105779258D01*
X105544157Y-105812676D01*
X105607696Y-105879939D01*
X105613857Y-105887241D01*
X105692131Y-105994006D01*
X105745079Y-106090730D01*
X105749773Y-106103628D01*
X105778360Y-106175569D01*
X105792570Y-106173001D01*
X105791909Y-106104936D01*
X105775884Y-105980386D01*
X105761179Y-105895564D01*
X105729899Y-105750180D01*
X105700186Y-105674534D01*
X105664977Y-105654138D01*
X105645823Y-105658976D01*
X105572601Y-105680450D01*
X105443735Y-105710959D01*
X105286807Y-105743985D01*
X105283167Y-105744707D01*
X104986833Y-105803359D01*
X101431226Y-105803359D01*
X101148798Y-105533299D01*
X100895089Y-105258600D01*
X100719242Y-104991944D01*
X100616046Y-104725035D01*
X100602078Y-104662936D01*
X100587002Y-104603111D01*
X100577027Y-104611733D01*
X100570886Y-104694582D01*
X100567868Y-104818945D01*
X100563000Y-105124724D01*
X98980068Y-105124724D01*
X98983930Y-104856088D01*
X98939614Y-104542726D01*
X98845609Y-104297263D01*
X98814939Y-104247441D01*
X98736781Y-104153517D01*
X98656009Y-104119803D01*
X98594500Y-104120441D01*
X98467500Y-104132167D01*
X98456591Y-106725083D01*
X98445682Y-109318000D01*
X98234667Y-109318000D01*
X98234667Y-106806526D01*
X98234511Y-106272866D01*
X98233940Y-105817800D01*
X98232792Y-105435256D01*
X98230909Y-105119159D01*
X98228131Y-104863438D01*
X98224299Y-104662021D01*
X98219254Y-104508833D01*
X98212836Y-104397804D01*
X98204887Y-104322860D01*
X98195246Y-104277928D01*
X98183754Y-104256937D01*
X98170252Y-104253813D01*
X98167704Y-104254637D01*
X98100859Y-104277030D01*
X98084125Y-104280333D01*
X98049385Y-104315881D01*
X98004973Y-104401727D01*
X97964170Y-104506672D01*
X97940257Y-104599518D01*
X97938333Y-104622814D01*
X97903632Y-104734681D01*
X97809765Y-104802920D01*
X97672084Y-104824094D01*
X97505942Y-104794768D01*
X97388000Y-104746000D01*
X97248280Y-104691585D01*
X97109746Y-104662731D01*
X97081606Y-104661333D01*
X96953580Y-104642069D01*
X96850526Y-104597842D01*
X96759121Y-104558187D01*
X96696091Y-104558829D01*
X96622643Y-104550767D01*
X96558553Y-104465623D01*
X96553184Y-104449667D01*
X97536167Y-104449667D01*
X97545763Y-104485908D01*
X97576001Y-104492000D01*
X97633923Y-104469898D01*
X97642000Y-104449667D01*
X97611616Y-104408545D01*
X97602165Y-104407333D01*
X97544831Y-104438105D01*
X97536167Y-104449667D01*
X96553184Y-104449667D01*
X96503503Y-104302025D01*
X96457177Y-104058597D01*
X96419255Y-103733967D01*
X96389421Y-103326761D01*
X96385089Y-103246582D01*
X96973949Y-103246582D01*
X96985083Y-103264333D01*
X97037022Y-103246656D01*
X97128610Y-103203579D01*
X97138680Y-103198413D01*
X97228958Y-103134526D01*
X97255170Y-103056191D01*
X97252995Y-103021761D01*
X97220935Y-102921608D01*
X97164481Y-102900368D01*
X97093756Y-102960698D01*
X97082495Y-102977020D01*
X97026722Y-103078059D01*
X96987565Y-103176688D01*
X96973949Y-103246582D01*
X96385089Y-103246582D01*
X96382782Y-103203886D01*
X96350833Y-102571939D01*
X96025599Y-102473228D01*
X95777589Y-102380792D01*
X95601193Y-102270590D01*
X95483581Y-102130974D01*
X95411922Y-101950292D01*
X95401650Y-101906692D01*
X95377687Y-101730892D01*
X95395188Y-101623481D01*
X95396786Y-101620622D01*
X95427316Y-101580444D01*
X95438241Y-101614457D01*
X95439379Y-101651671D01*
X95473811Y-101771597D01*
X95560582Y-101906784D01*
X95678817Y-102029965D01*
X95785013Y-102103104D01*
X95913317Y-102169452D01*
X95895003Y-102142500D01*
X96669625Y-102142500D01*
X96754121Y-101891892D01*
X96779140Y-101805520D01*
X97867571Y-101805520D01*
X97870819Y-101818504D01*
X97933273Y-101857682D01*
X97995437Y-101867333D01*
X98176393Y-101888399D01*
X98377471Y-101943814D01*
X98565932Y-102021901D01*
X98709037Y-102110988D01*
X98729249Y-102129015D01*
X98864814Y-102291928D01*
X98934965Y-102466944D01*
X98949987Y-102682081D01*
X98947817Y-102724364D01*
X98933167Y-102951554D01*
X99116326Y-102811610D01*
X99229598Y-102733055D01*
X99322891Y-102682282D01*
X99359742Y-102671667D01*
X99411298Y-102651424D01*
X99394808Y-102594967D01*
X99315383Y-102508706D01*
X99178134Y-102399049D01*
X99097588Y-102342917D01*
X99059071Y-102310887D01*
X99079271Y-102298031D01*
X99169509Y-102300009D01*
X99203634Y-102302264D01*
X99389434Y-102315193D01*
X99238250Y-102186513D01*
X99004486Y-102030627D01*
X98716094Y-101905616D01*
X98400547Y-101821675D01*
X98177307Y-101792751D01*
X98002768Y-101784087D01*
X97902657Y-101788080D01*
X97867571Y-101805520D01*
X96779140Y-101805520D01*
X96806504Y-101711057D01*
X96848909Y-101520027D01*
X96864661Y-101419690D01*
X96865282Y-101401666D01*
X102634798Y-101401666D01*
X102800077Y-101401667D01*
X102949957Y-101416832D01*
X103112330Y-101454371D01*
X103145333Y-101465167D01*
X103311618Y-101501809D01*
X103543709Y-101522289D01*
X103824494Y-101527579D01*
X104136866Y-101518650D01*
X104463713Y-101496475D01*
X104787927Y-101462027D01*
X105092397Y-101416277D01*
X105360015Y-101360198D01*
X105457339Y-101333790D01*
X105697773Y-101283452D01*
X105969036Y-101259737D01*
X106244059Y-101262235D01*
X106495771Y-101290537D01*
X106697102Y-101344230D01*
X106717833Y-101352907D01*
X106844093Y-101404600D01*
X106942777Y-101437608D01*
X106976632Y-101444000D01*
X107032520Y-101462035D01*
X107148003Y-101511383D01*
X107307241Y-101584912D01*
X107494398Y-101675486D01*
X107532168Y-101694214D01*
X107778746Y-101809117D01*
X108068819Y-101932223D01*
X108364588Y-102048061D01*
X108606333Y-102133948D01*
X108887316Y-102223209D01*
X109136106Y-102291825D01*
X109382937Y-102346626D01*
X109658046Y-102394440D01*
X109939833Y-102435113D01*
X110084883Y-102443459D01*
X110269924Y-102438963D01*
X110463740Y-102424026D01*
X110635114Y-102401045D01*
X110752131Y-102372685D01*
X110900746Y-102286117D01*
X111054450Y-102147273D01*
X111186482Y-101982325D01*
X111234709Y-101900770D01*
X111294994Y-101716523D01*
X111314188Y-101503015D01*
X111289608Y-101303862D01*
X111274381Y-101256256D01*
X111233095Y-101147667D01*
X102822589Y-101147667D01*
X102728694Y-101274667D01*
X102634798Y-101401666D01*
X96865282Y-101401666D01*
X96870653Y-101245826D01*
X96843247Y-101060759D01*
X96798224Y-100893667D01*
X98081342Y-100893667D01*
X98121506Y-100867413D01*
X98207780Y-100797649D01*
X98323673Y-100697866D01*
X98359928Y-100665722D01*
X98551145Y-100505958D01*
X98721951Y-100393796D01*
X98905444Y-100311224D01*
X99134722Y-100240231D01*
X99148651Y-100236483D01*
X99344101Y-100203976D01*
X99598264Y-100190662D01*
X99887571Y-100195783D01*
X100188453Y-100218582D01*
X100477341Y-100258303D01*
X100605333Y-100283267D01*
X100814793Y-100328738D01*
X100950745Y-100356801D01*
X101022424Y-100367987D01*
X101039067Y-100362830D01*
X101009909Y-100341863D01*
X100944186Y-100305617D01*
X100938370Y-100302475D01*
X100712013Y-100193601D01*
X100448861Y-100087727D01*
X100181780Y-99996711D01*
X99943639Y-99932410D01*
X99874221Y-99918586D01*
X99521298Y-99898274D01*
X99178344Y-99957584D01*
X98858875Y-100092257D01*
X98576405Y-100298031D01*
X98530843Y-100341981D01*
X98418414Y-100460265D01*
X98305060Y-100587971D01*
X98203053Y-100710037D01*
X98124666Y-100811400D01*
X98082172Y-100876998D01*
X98081342Y-100893667D01*
X96798224Y-100893667D01*
X96798108Y-100893237D01*
X96748823Y-100743569D01*
X96709714Y-100646237D01*
X96685492Y-100607232D01*
X96680870Y-100632543D01*
X96700559Y-100728160D01*
X96717068Y-100790214D01*
X96736619Y-100923324D01*
X96743229Y-101124002D01*
X96737256Y-101376200D01*
X96719058Y-101663871D01*
X96691157Y-101952000D01*
X96669625Y-102142500D01*
X95895003Y-102142500D01*
X95805239Y-102010402D01*
X95729455Y-101868456D01*
X95666538Y-101699355D01*
X95650312Y-101637092D01*
X95633754Y-101554561D01*
X95626082Y-101480645D01*
X95630375Y-101401811D01*
X95649712Y-101304527D01*
X95687172Y-101175259D01*
X95745834Y-101000474D01*
X95828777Y-100766640D01*
X95882064Y-100618500D01*
X95952640Y-100397630D01*
X95983641Y-100220169D01*
X95977057Y-100055769D01*
X95934881Y-99874078D01*
X95931643Y-99863228D01*
X95901355Y-99734996D01*
X95911085Y-99673760D01*
X95965396Y-99678482D01*
X96068847Y-99748125D01*
X96148534Y-99813888D01*
X96321308Y-99961777D01*
X96463071Y-99828139D01*
X96667531Y-99676364D01*
X96940652Y-99534665D01*
X97266629Y-99407239D01*
X97629661Y-99298282D01*
X98013946Y-99211989D01*
X98403680Y-99152555D01*
X98783061Y-99124178D01*
X99098472Y-99128395D01*
X99098472Y-99128395D01*
G37*
X99098472Y-99128395D02*
X99307583Y-99149621D01*
X99514314Y-99184319D01*
X99698887Y-99227728D01*
X99841525Y-99275082D01*
X99922448Y-99321619D01*
X99928000Y-99328177D01*
X99976609Y-99364806D01*
X100070539Y-99418361D01*
X100097333Y-99432093D01*
X100197519Y-99489825D01*
X100341557Y-99582170D01*
X100505252Y-99693371D01*
X100584167Y-99749151D01*
X100923164Y-99971984D01*
X101255877Y-100152334D01*
X101571583Y-100286216D01*
X101859561Y-100369641D01*
X102109088Y-100398622D01*
X102277639Y-100378922D01*
X102371328Y-100362234D01*
X102422411Y-100368300D01*
X102423133Y-100422444D01*
X102375372Y-100509847D01*
X102294867Y-100608599D01*
X102197362Y-100696791D01*
X102174901Y-100712797D01*
X102100549Y-100774682D01*
X102095689Y-100806535D01*
X102149608Y-100805441D01*
X102251591Y-100768485D01*
X102297431Y-100746139D01*
X102457377Y-100617659D01*
X102576083Y-100425420D01*
X102624551Y-100279833D01*
X102665825Y-100110500D01*
X102737830Y-100343333D01*
X102784299Y-100511867D01*
X102822320Y-100681355D01*
X102835171Y-100756083D01*
X102860508Y-100936000D01*
X111076425Y-100936000D01*
X110973796Y-100824600D01*
X110851938Y-100725669D01*
X110676704Y-100623595D01*
X110477589Y-100532570D01*
X110284091Y-100466786D01*
X110186635Y-100445874D01*
X110068637Y-100436413D01*
X109969945Y-100456359D01*
X109854786Y-100515412D01*
X109797094Y-100551517D01*
X109573642Y-100661310D01*
X109305137Y-100742775D01*
X109027405Y-100787849D01*
X108776272Y-100788473D01*
X108755235Y-100785946D01*
X108613495Y-100763785D01*
X108423692Y-100729778D01*
X108220466Y-100690216D01*
X108161833Y-100678158D01*
X107730797Y-100612009D01*
X107356899Y-100605158D01*
X107041619Y-100657604D01*
X106978457Y-100677736D01*
X106749696Y-100758139D01*
X106878887Y-100548177D01*
X107045091Y-100340554D01*
X107272382Y-100143098D01*
X107537309Y-99970614D01*
X107816421Y-99837908D01*
X108086266Y-99759787D01*
X108140667Y-99751565D01*
X108373500Y-99722979D01*
X108246500Y-99669637D01*
X108121417Y-99640047D01*
X107970731Y-99633637D01*
X107935902Y-99636363D01*
X107815412Y-99645282D01*
X107769164Y-99639133D01*
X107788733Y-99621157D01*
X107865699Y-99594593D01*
X107991637Y-99562683D01*
X108158126Y-99528666D01*
X108263613Y-99510285D01*
X108491686Y-99476846D01*
X108681755Y-99461014D01*
X108871044Y-99461732D01*
X109096779Y-99477945D01*
X109166955Y-99484659D01*
X109412439Y-99513728D01*
X109591759Y-99550360D01*
X109723413Y-99603085D01*
X109825897Y-99680432D01*
X109917710Y-99790931D01*
X109957495Y-99849213D01*
X110034697Y-99952889D01*
X110075037Y-99982336D01*
X110072708Y-99942092D01*
X110021904Y-99836693D01*
X110006861Y-99810639D01*
X109954220Y-99712092D01*
X109930539Y-99648515D01*
X109931650Y-99638905D01*
X109976962Y-99645995D01*
X110051254Y-99702555D01*
X110134733Y-99788847D01*
X110207608Y-99885135D01*
X110241865Y-99948274D01*
X110308178Y-100055414D01*
X110392721Y-100090176D01*
X110395485Y-100090226D01*
X110570705Y-100119013D01*
X110787125Y-100195301D01*
X111024666Y-100308166D01*
X111263250Y-100446683D01*
X111482799Y-100599927D01*
X111663235Y-100756974D01*
X111707576Y-100804143D01*
X111772879Y-100871835D01*
X111836092Y-100911243D01*
X111922273Y-100929984D01*
X112056483Y-100935670D01*
X112141493Y-100936000D01*
X112458667Y-100936000D01*
X112458667Y-109203386D01*
X112649167Y-109407046D01*
X112754096Y-109513098D01*
X112814662Y-109557341D01*
X112838521Y-109544770D01*
X112839667Y-109531306D01*
X112872381Y-109468094D01*
X112951386Y-109389123D01*
X113047973Y-109317924D01*
X113133432Y-109278025D01*
X113151580Y-109275667D01*
X113167275Y-109313653D01*
X113177155Y-109410284D01*
X113178830Y-109476750D01*
X113182363Y-109560856D01*
X113197935Y-109636064D01*
X113233702Y-109717249D01*
X113297817Y-109819288D01*
X113398434Y-109957059D01*
X113543707Y-110145438D01*
X113549247Y-110152548D01*
X113684244Y-110322743D01*
X113802500Y-110466132D01*
X113893721Y-110570662D01*
X113947617Y-110624279D01*
X113955924Y-110628798D01*
X113969926Y-110590659D01*
X113975253Y-110487720D01*
X113971252Y-110339463D01*
X113967570Y-110281083D01*
X113955427Y-110081503D01*
X113943733Y-109836570D01*
X113934261Y-109585589D01*
X113930813Y-109466167D01*
X113919167Y-109000500D01*
X114226943Y-108974802D01*
X114256898Y-110088318D01*
X114264482Y-110397329D01*
X114270236Y-110687462D01*
X114273997Y-110945166D01*
X114275605Y-111156893D01*
X114274897Y-111309094D01*
X114272343Y-111381668D01*
X114257833Y-111561502D01*
X113718083Y-110876835D01*
X113178333Y-110192169D01*
X113178333Y-110850813D01*
X113177925Y-111099991D01*
X113175503Y-111277383D01*
X113169276Y-111395869D01*
X113157450Y-111468329D01*
X113138231Y-111507643D01*
X113109828Y-111526693D01*
X113083083Y-111534984D01*
X112993578Y-111558135D01*
X112929222Y-111564871D01*
X112885871Y-111544295D01*
X112859379Y-111485511D01*
X112845604Y-111377622D01*
X112840399Y-111209732D01*
X112839622Y-110970945D01*
X112839633Y-110894917D01*
X112839600Y-110228167D01*
X112750577Y-110408014D01*
X112594052Y-110632691D01*
X112365314Y-110817717D01*
X112249961Y-110882822D01*
X111985045Y-110979140D01*
X111732479Y-110991754D01*
X111492875Y-110920742D01*
X111266847Y-110766183D01*
X111254179Y-110754668D01*
X111126394Y-110650231D01*
X111039475Y-110609262D01*
X111516308Y-110609262D01*
X111519881Y-110630368D01*
X111546008Y-110652846D01*
X111655651Y-110696083D01*
X111809446Y-110711414D01*
X111971638Y-110698921D01*
X112106473Y-110658690D01*
X112120000Y-110651500D01*
X112163430Y-110623028D01*
X112165157Y-110605194D01*
X112113985Y-110595531D01*
X111998720Y-110591571D01*
X111844833Y-110590846D01*
X111666737Y-110592001D01*
X111561244Y-110597306D01*
X111516308Y-110609262D01*
X111039475Y-110609262D01*
X111019027Y-110599624D01*
X110919349Y-110588000D01*
X110765333Y-110588000D01*
X110765333Y-111175439D01*
X110881750Y-111167470D01*
X110964263Y-111172643D01*
X110994683Y-111220772D01*
X110998167Y-111285576D01*
X110994198Y-111348802D01*
X110971111Y-111391573D01*
X110912131Y-111424104D01*
X110800482Y-111456610D01*
X110664223Y-111488939D01*
X110501762Y-111522789D01*
X110368413Y-111543697D01*
X110287643Y-111548179D01*
X110278240Y-111546258D01*
X110231504Y-111493381D01*
X110205684Y-111418968D01*
X110204729Y-111337524D01*
X110258670Y-111297379D01*
X110301797Y-111286032D01*
X110356760Y-111270881D01*
X110391743Y-111243281D01*
X110412223Y-111186005D01*
X110423677Y-111081829D01*
X110431581Y-110913528D01*
X110433130Y-110872989D01*
X110437939Y-110661124D01*
X110438332Y-110566833D01*
X112247000Y-110566833D01*
X112268167Y-110588000D01*
X112289333Y-110566833D01*
X112268167Y-110545667D01*
X112247000Y-110566833D01*
X110438332Y-110566833D01*
X110439013Y-110403566D01*
X110436368Y-110139205D01*
X110432791Y-109986448D01*
X110425744Y-109774596D01*
X110417655Y-109633168D01*
X110405341Y-109547946D01*
X110385616Y-109504714D01*
X110355294Y-109489256D01*
X110320964Y-109487333D01*
X110237033Y-109458573D01*
X110195968Y-109374932D01*
X110190854Y-109273907D01*
X110217424Y-109231835D01*
X110279263Y-109208982D01*
X110394422Y-109177708D01*
X110539637Y-109143089D01*
X110691642Y-109110205D01*
X110827172Y-109084134D01*
X110922963Y-109069954D01*
X110955504Y-109070727D01*
X110970306Y-109119099D01*
X110984371Y-109212482D01*
X110983698Y-109303572D01*
X110939681Y-109342183D01*
X110881750Y-109352562D01*
X110765333Y-109365957D01*
X110765333Y-110376333D01*
X110892333Y-110376333D01*
X110982501Y-110365582D01*
X111015685Y-110316633D01*
X111019333Y-110257017D01*
X111027370Y-110202180D01*
X111315667Y-110202180D01*
X111315667Y-110376333D01*
X112247000Y-110376333D01*
X112247000Y-109974167D01*
X112461513Y-109974167D01*
X112462597Y-110151683D01*
X112467319Y-110255736D01*
X112478145Y-110297521D01*
X112497545Y-110288232D01*
X112522167Y-110249333D01*
X112560356Y-110140376D01*
X112582269Y-109996722D01*
X112584166Y-109950508D01*
X112571694Y-109813231D01*
X112538577Y-109701087D01*
X112523513Y-109675341D01*
X112494198Y-109644099D01*
X112475848Y-109652621D01*
X112465963Y-109712954D01*
X112462044Y-109837144D01*
X112461513Y-109974167D01*
X112247000Y-109974167D01*
X112247000Y-109550833D01*
X112416333Y-109550833D01*
X112437500Y-109572000D01*
X112458667Y-109550833D01*
X112437500Y-109529667D01*
X112416333Y-109550833D01*
X112247000Y-109550833D01*
X112247000Y-109434228D01*
X112036099Y-109454493D01*
X111802967Y-109514402D01*
X111600458Y-109637582D01*
X111442595Y-109809482D01*
X111343399Y-110015548D01*
X111315667Y-110202180D01*
X111027370Y-110202180D01*
X111058827Y-109987568D01*
X111168826Y-109736798D01*
X111336605Y-109517883D01*
X111549438Y-109344001D01*
X111794602Y-109228326D01*
X112055468Y-109184107D01*
X112247000Y-109180262D01*
X112247000Y-101147667D01*
X112098833Y-101147667D01*
X112000849Y-101154012D01*
X111951928Y-101169613D01*
X111950667Y-101172901D01*
X111961618Y-101224192D01*
X111989953Y-101330823D01*
X112019449Y-101434739D01*
X112053731Y-101609217D01*
X112071213Y-101821610D01*
X112072712Y-102048633D01*
X112059046Y-102267000D01*
X112031032Y-102453424D01*
X111989487Y-102584621D01*
X111978399Y-102604086D01*
X111922244Y-102698261D01*
X111921687Y-102742685D01*
X111982380Y-102755970D01*
X112024750Y-102756734D01*
X112087772Y-102760046D01*
X112095046Y-102776512D01*
X112040102Y-102816845D01*
X111958333Y-102866706D01*
X111859117Y-102933193D01*
X111804106Y-102984157D01*
X111800289Y-103001066D01*
X111846253Y-102997755D01*
X111875172Y-102975761D01*
X111947680Y-102922169D01*
X111985352Y-102930679D01*
X111987649Y-102985984D01*
X111954030Y-103072778D01*
X111883957Y-103175753D01*
X111882293Y-103177737D01*
X111736930Y-103323457D01*
X111560157Y-103447542D01*
X111343563Y-103552656D01*
X111078736Y-103641463D01*
X110757265Y-103716624D01*
X110370737Y-103780803D01*
X109910740Y-103836663D01*
X109749333Y-103852956D01*
X109482137Y-103882116D01*
X109288527Y-103912760D01*
X109157462Y-103949071D01*
X109077905Y-103995229D01*
X109038816Y-104055415D01*
X109029110Y-104125724D01*
X109024669Y-104197581D01*
X109010760Y-104301037D01*
X108985775Y-104444137D01*
X108948104Y-104634929D01*
X108896139Y-104881461D01*
X108828270Y-105191778D01*
X108742887Y-105573929D01*
X108712764Y-105707561D01*
X108557783Y-106393955D01*
X108712551Y-106688479D01*
X108840195Y-106897367D01*
X108984880Y-107078926D01*
X109133066Y-107219807D01*
X109271214Y-107306664D01*
X109361632Y-107328333D01*
X109501409Y-107356303D01*
X109612558Y-107446253D01*
X109704092Y-107607238D01*
X109743629Y-107712170D01*
X109790261Y-107865020D01*
X109805071Y-107963765D01*
X109790560Y-108031701D01*
X109779985Y-108050973D01*
X109763997Y-108142741D01*
X109782355Y-108311593D01*
X109835002Y-108557257D01*
X109921877Y-108879455D01*
X110042921Y-109277915D01*
X110049355Y-109298216D01*
X110116949Y-109519739D01*
X110186492Y-109761594D01*
X110245002Y-109978357D01*
X110254911Y-110017395D01*
X110298840Y-110174847D01*
X110341517Y-110296863D01*
X110375473Y-110362935D01*
X110382871Y-110368790D01*
X110424343Y-110418612D01*
X110423263Y-110499442D01*
X110386032Y-110573210D01*
X110344030Y-110599735D01*
X110270207Y-110597049D01*
X110245251Y-110572922D01*
X110198752Y-110563915D01*
X110080281Y-110593524D01*
X109892793Y-110660937D01*
X109819587Y-110690004D01*
X109649052Y-110756737D01*
X109509779Y-110807113D01*
X109418847Y-110835206D01*
X109392689Y-110838133D01*
X109384299Y-110792869D01*
X109370027Y-110675026D01*
X109351087Y-110496395D01*
X109328694Y-110268764D01*
X109304062Y-110003924D01*
X109286578Y-109807744D01*
X109261270Y-109524532D01*
X109237635Y-109270711D01*
X109216841Y-109058013D01*
X109200062Y-108898172D01*
X109188466Y-108802921D01*
X109184119Y-108781007D01*
X109139350Y-108784219D01*
X109047778Y-108810135D01*
X109033041Y-108815167D01*
X108956490Y-108845615D01*
X108916883Y-108884444D01*
X108904156Y-108955767D01*
X108908246Y-109083696D01*
X108909760Y-109110530D01*
X108923833Y-109358011D01*
X108818000Y-109222068D01*
X108727897Y-109114731D01*
X108608876Y-108983452D01*
X108527286Y-108898205D01*
X108329535Y-108684509D01*
X108162023Y-108478571D01*
X108036626Y-108296070D01*
X107967456Y-108159053D01*
X107916212Y-108017340D01*
X107560080Y-107992207D01*
X107237528Y-107946753D01*
X106959954Y-107852590D01*
X106698949Y-107697964D01*
X106534530Y-107567899D01*
X106406651Y-107469359D01*
X106290435Y-107398648D01*
X106210507Y-107370689D01*
X106209041Y-107370667D01*
X106145860Y-107384665D01*
X106109548Y-107441228D01*
X106086989Y-107550583D01*
X106091036Y-107781451D01*
X106172455Y-107986008D01*
X106242022Y-108075658D01*
X106321297Y-108203499D01*
X106368946Y-108364411D01*
X106375701Y-108519149D01*
X106361297Y-108580769D01*
X106299169Y-108666245D01*
X106197213Y-108744189D01*
X106184838Y-108750893D01*
X106112491Y-108787975D01*
X106081056Y-108813519D01*
X106099649Y-108838223D01*
X106177389Y-108872788D01*
X106323392Y-108927914D01*
X106341500Y-108934743D01*
X106457528Y-108993823D01*
X106584952Y-109079719D01*
X106611703Y-109100941D01*
X106698770Y-109176961D01*
X106728923Y-109228503D01*
X106711116Y-109284289D01*
X106682847Y-109329135D01*
X106610787Y-109439111D01*
X106426405Y-109309147D01*
X106204525Y-109194913D01*
X106028688Y-109158683D01*
X105815352Y-109138184D01*
X105676259Y-109362775D01*
X105600360Y-109483077D01*
X105557391Y-109538551D01*
X105536113Y-109536605D01*
X105525293Y-109484645D01*
X105522814Y-109463931D01*
X105532709Y-109355663D01*
X105604559Y-109269038D01*
X105622405Y-109255165D01*
X105738933Y-109159559D01*
X105847628Y-109056443D01*
X105934046Y-108961587D01*
X105983745Y-108890763D01*
X105984127Y-108860209D01*
X105923124Y-108864064D01*
X105808992Y-108888741D01*
X105696756Y-108919968D01*
X105559743Y-108957855D01*
X105454048Y-108980351D01*
X105410167Y-108983188D01*
X105390363Y-108992784D01*
X105398403Y-109002847D01*
X105393680Y-109051145D01*
X105343962Y-109133184D01*
X105324319Y-109157790D01*
X105237438Y-109323757D01*
X105224277Y-109518208D01*
X105268836Y-109685661D01*
X105301511Y-109781070D01*
X105310120Y-109839730D01*
X105329592Y-109854662D01*
X105349512Y-109845408D01*
X105373516Y-109854928D01*
X105379692Y-109929988D01*
X105368619Y-110078951D01*
X105366796Y-110096261D01*
X105336803Y-110376333D01*
X106553167Y-110373691D01*
X106383833Y-110269037D01*
X106260081Y-110205501D01*
X106088632Y-110133744D01*
X105903473Y-110067814D01*
X105875833Y-110059052D01*
X105675015Y-109995209D01*
X105543692Y-109946598D01*
X105470244Y-109904189D01*
X105443050Y-109858951D01*
X105450492Y-109801852D01*
X105472047Y-109745243D01*
X105514411Y-109656656D01*
X105545573Y-109614828D01*
X105547637Y-109614333D01*
X105598894Y-109629705D01*
X105708982Y-109670675D01*
X105858894Y-109729522D01*
X106029625Y-109798526D01*
X106202170Y-109869966D01*
X106357523Y-109936122D01*
X106476679Y-109989274D01*
X106510833Y-110005602D01*
X106673274Y-110100087D01*
X106796033Y-110198736D01*
X106863012Y-110287475D01*
X106870667Y-110320212D01*
X106887525Y-110341532D01*
X106944755Y-110356998D01*
X107052339Y-110367392D01*
X107220259Y-110373498D01*
X107458498Y-110376098D01*
X107586292Y-110376333D01*
X108301918Y-110376333D01*
X108432273Y-110145356D01*
X108534399Y-109983458D01*
X108626476Y-109889569D01*
X108725610Y-109851506D01*
X108839167Y-109855534D01*
X108966167Y-109874932D01*
X108946733Y-109381500D01*
X109051155Y-109593167D01*
X109127581Y-109765681D01*
X109153963Y-109874513D01*
X109130581Y-109924069D01*
X109072000Y-109922933D01*
X109009048Y-109922403D01*
X108988140Y-109980424D01*
X108987333Y-110009902D01*
X108993058Y-110152999D01*
X109008368Y-110329892D01*
X109030469Y-110520680D01*
X109056568Y-110705460D01*
X109083867Y-110864332D01*
X109109574Y-110977392D01*
X109129748Y-111024087D01*
X109193266Y-111037456D01*
X109315593Y-111040946D01*
X109471378Y-111033940D01*
X109486424Y-111032753D01*
X109660122Y-111013720D01*
X109784500Y-110982433D01*
X109894905Y-110926023D01*
X110015591Y-110840059D01*
X110133960Y-110752571D01*
X110201839Y-110712561D01*
X110234941Y-110714730D01*
X110248980Y-110753778D01*
X110250170Y-110760944D01*
X110254761Y-110839061D01*
X110247881Y-110865563D01*
X110204975Y-110886789D01*
X110098241Y-110933965D01*
X109942157Y-111000840D01*
X109751201Y-111081163D01*
X109676948Y-111112069D01*
X109122308Y-111342282D01*
X109069474Y-111060654D01*
X108742654Y-111030815D01*
X108535577Y-111008234D01*
X108398844Y-110980082D01*
X108318174Y-110938093D01*
X108279286Y-110873999D01*
X108267900Y-110779534D01*
X108267667Y-110755844D01*
X108267667Y-110588000D01*
X106956334Y-110588000D01*
X106928151Y-110767917D01*
X106857188Y-110963420D01*
X106717811Y-111121768D01*
X106520829Y-111235685D01*
X106277046Y-111297893D01*
X106126933Y-111307430D01*
X105960747Y-111291493D01*
X105764196Y-111249684D01*
X105573115Y-111191579D01*
X105423337Y-111126751D01*
X105400858Y-111113417D01*
X105335180Y-111076091D01*
X105322153Y-111089018D01*
X105331222Y-111116812D01*
X105317494Y-111187538D01*
X105245724Y-111288130D01*
X105212312Y-111323488D01*
X105021428Y-111456792D01*
X104783456Y-111531096D01*
X104512704Y-111545702D01*
X104223479Y-111499913D01*
X103930087Y-111393031D01*
X103916762Y-111386651D01*
X103779875Y-111308748D01*
X103712209Y-111232211D01*
X103700935Y-111137530D01*
X103712683Y-111076296D01*
X103738831Y-110972115D01*
X103892389Y-111076323D01*
X104084158Y-111176545D01*
X104287659Y-111232799D01*
X104490994Y-111248865D01*
X104682268Y-111228521D01*
X104849583Y-111175549D01*
X104981042Y-111093726D01*
X105028988Y-111032500D01*
X105219667Y-111032500D01*
X105240833Y-111053667D01*
X105262000Y-111032500D01*
X105240833Y-111011333D01*
X105219667Y-111032500D01*
X105028988Y-111032500D01*
X105064749Y-110986834D01*
X105087958Y-110863167D01*
X105227919Y-110863167D01*
X105232495Y-110935464D01*
X105245747Y-110941830D01*
X105247434Y-110938056D01*
X105255809Y-110854016D01*
X105249003Y-110811056D01*
X105235528Y-110793792D01*
X105228199Y-110850020D01*
X105227919Y-110863167D01*
X105087958Y-110863167D01*
X105088806Y-110858652D01*
X105041318Y-110712959D01*
X105040518Y-110711559D01*
X104969604Y-110588000D01*
X105158135Y-110588000D01*
X105281512Y-110595934D01*
X105337977Y-110623609D01*
X105346667Y-110653998D01*
X105324722Y-110697193D01*
X105293750Y-110688205D01*
X105266123Y-110679994D01*
X105297230Y-110725988D01*
X105411770Y-110821496D01*
X105580057Y-110908757D01*
X105771279Y-110975311D01*
X105954621Y-111008697D01*
X106000562Y-111010403D01*
X106117238Y-110998438D01*
X106256746Y-110968394D01*
X106394758Y-110927787D01*
X106506941Y-110884129D01*
X106568967Y-110844935D01*
X106574333Y-110833207D01*
X106584748Y-110787927D01*
X106609888Y-110696531D01*
X106610743Y-110693554D01*
X106647152Y-110566833D01*
X106001235Y-110579444D01*
X105355319Y-110592054D01*
X105265226Y-110465531D01*
X105242138Y-110439833D01*
X106574333Y-110439833D01*
X106595500Y-110461000D01*
X106616667Y-110439833D01*
X106595500Y-110418667D01*
X106574333Y-110439833D01*
X105242138Y-110439833D01*
X105181980Y-110372875D01*
X105098709Y-110315130D01*
X105090952Y-110312289D01*
X105033587Y-110275836D01*
X105030750Y-110246770D01*
X105020078Y-110226892D01*
X104982087Y-110235845D01*
X104932819Y-110244086D01*
X104944096Y-110207653D01*
X104955687Y-110171198D01*
X104935480Y-110178326D01*
X104878290Y-110175456D01*
X104764323Y-110144626D01*
X104613591Y-110093536D01*
X104446107Y-110029886D01*
X104281884Y-109961378D01*
X104140935Y-109895711D01*
X104043272Y-109840586D01*
X104027444Y-109828934D01*
X103940335Y-109779502D01*
X103846290Y-109788557D01*
X103815395Y-109799370D01*
X103719009Y-109854713D01*
X103705095Y-109921928D01*
X103772299Y-110009139D01*
X103779335Y-110015596D01*
X103835094Y-110081157D01*
X103844697Y-110120935D01*
X103859327Y-110151805D01*
X103877445Y-110156240D01*
X103958093Y-110175741D01*
X104094562Y-110218729D01*
X104264154Y-110277015D01*
X104444171Y-110342416D01*
X104611913Y-110406744D01*
X104744682Y-110461814D01*
X104805536Y-110490949D01*
X104944500Y-110566833D01*
X104418673Y-110578778D01*
X104174049Y-110581435D01*
X104005210Y-110576038D01*
X103903602Y-110561979D01*
X103860959Y-110539129D01*
X103814743Y-110508924D01*
X103730827Y-110534803D01*
X103730620Y-110534903D01*
X103632167Y-110582270D01*
X103745730Y-110585135D01*
X103849793Y-110617746D01*
X103887179Y-110675857D01*
X103903638Y-110750279D01*
X103900615Y-110775275D01*
X103858415Y-110794624D01*
X103752058Y-110840064D01*
X103595744Y-110905616D01*
X103403674Y-110985300D01*
X103314667Y-111021992D01*
X102743167Y-111257147D01*
X102729771Y-111155407D01*
X102716235Y-111077882D01*
X102706976Y-111053667D01*
X102666765Y-111069181D01*
X102563545Y-111111594D01*
X102412236Y-111174712D01*
X102227762Y-111252342D01*
X102197023Y-111265333D01*
X102005702Y-111345059D01*
X101842023Y-111411059D01*
X101721986Y-111457039D01*
X101661591Y-111476704D01*
X101658901Y-111477000D01*
X101626540Y-111440324D01*
X101621280Y-111342281D01*
X101640679Y-111200849D01*
X101678078Y-111050910D01*
X102774712Y-111050910D01*
X102780503Y-111053667D01*
X102819136Y-111023865D01*
X102827833Y-111011333D01*
X102838621Y-110971756D01*
X102832830Y-110969000D01*
X102794197Y-110998802D01*
X102785500Y-111011333D01*
X102774712Y-111050910D01*
X101678078Y-111050910D01*
X101682295Y-111034007D01*
X101742284Y-110863167D01*
X101795405Y-110732704D01*
X101875333Y-110732704D01*
X101881633Y-110882730D01*
X101910562Y-110959629D01*
X101977162Y-110974600D01*
X102096476Y-110938843D01*
X102133061Y-110924579D01*
X102306543Y-110855684D01*
X102492365Y-110781890D01*
X102549944Y-110759024D01*
X102758888Y-110676048D01*
X102777012Y-110769607D01*
X102790451Y-110825956D01*
X102797579Y-110803714D01*
X102800901Y-110751687D01*
X102795900Y-110698422D01*
X102976000Y-110698422D01*
X102987009Y-110776698D01*
X103036060Y-110791853D01*
X103076483Y-110783625D01*
X103176716Y-110750980D01*
X103309954Y-110698708D01*
X103362233Y-110676193D01*
X103547500Y-110593980D01*
X103261750Y-110590990D01*
X103110425Y-110590929D01*
X103024953Y-110599444D01*
X102986534Y-110623605D01*
X102976367Y-110670480D01*
X102976000Y-110698422D01*
X102795900Y-110698422D01*
X102794681Y-110685440D01*
X102759605Y-110639758D01*
X102683115Y-110610952D01*
X102552655Y-110595333D01*
X102355665Y-110589212D01*
X102245750Y-110588578D01*
X101875333Y-110588000D01*
X101875333Y-110732704D01*
X101795405Y-110732704D01*
X101862945Y-110566833D01*
X101843747Y-110343300D01*
X101917667Y-110343300D01*
X101956845Y-110357844D01*
X102061791Y-110369122D01*
X102213622Y-110375496D01*
X102298817Y-110376333D01*
X102679967Y-110376333D01*
X102652297Y-109767369D01*
X102642100Y-109528652D01*
X102637583Y-109361122D01*
X102639858Y-109251423D01*
X102650038Y-109186198D01*
X102669235Y-109152091D01*
X102698560Y-109135746D01*
X102705063Y-109133640D01*
X102817724Y-109100916D01*
X102968253Y-109059773D01*
X103136761Y-109015307D01*
X103303360Y-108972613D01*
X103448161Y-108936788D01*
X103551277Y-108912927D01*
X103592819Y-108906127D01*
X103592863Y-108906169D01*
X103606463Y-108949707D01*
X103628062Y-109041818D01*
X103629150Y-109046881D01*
X103657190Y-109177930D01*
X103295428Y-109275148D01*
X102933667Y-109372367D01*
X102933667Y-109556850D01*
X102940166Y-109668262D01*
X102956554Y-109733643D01*
X102965417Y-109740875D01*
X103021211Y-109729198D01*
X103128848Y-109699865D01*
X103204978Y-109677375D01*
X103353533Y-109634433D01*
X103437850Y-109622264D01*
X103474508Y-109646396D01*
X103480085Y-109712357D01*
X103475972Y-109767739D01*
X103464555Y-109851151D01*
X103435249Y-109904834D01*
X103368842Y-109944871D01*
X103246122Y-109987345D01*
X103194725Y-110003190D01*
X103045704Y-110054233D01*
X102967648Y-110096845D01*
X102948339Y-110138375D01*
X102951308Y-110149580D01*
X102972934Y-110248070D01*
X102976000Y-110295129D01*
X102991277Y-110348249D01*
X103051502Y-110371845D01*
X103147493Y-110376333D01*
X103261497Y-110368798D01*
X103325919Y-110330689D01*
X103375444Y-110238749D01*
X103384264Y-110217583D01*
X103453418Y-110083141D01*
X103536231Y-109964243D01*
X103546099Y-109953000D01*
X103619563Y-109830601D01*
X103664104Y-109674689D01*
X103665692Y-109663089D01*
X103671806Y-109642100D01*
X103949667Y-109642100D01*
X103970551Y-109689852D01*
X104028155Y-109669337D01*
X104114904Y-109584446D01*
X104152534Y-109537936D01*
X104207788Y-109454649D01*
X104222006Y-109407007D01*
X104214801Y-109402667D01*
X104141066Y-109431510D01*
X104052096Y-109499778D01*
X103978227Y-109580073D01*
X103949667Y-109642100D01*
X103671806Y-109642100D01*
X103723070Y-109466133D01*
X103793074Y-109377452D01*
X104288333Y-109377452D01*
X104326121Y-109392709D01*
X104421379Y-109401673D01*
X104472463Y-109402667D01*
X104640864Y-109425977D01*
X104806221Y-109504928D01*
X104842879Y-109528896D01*
X104974326Y-109613612D01*
X105051481Y-109650014D01*
X105086575Y-109642164D01*
X105092667Y-109611835D01*
X105115238Y-109583431D01*
X105126212Y-109587735D01*
X105158227Y-109581312D01*
X105164610Y-109526733D01*
X105147863Y-109455696D01*
X105111456Y-109400693D01*
X105073521Y-109336685D01*
X105078753Y-109302620D01*
X105086017Y-109275323D01*
X105074458Y-109283023D01*
X105022296Y-109281013D01*
X104923288Y-109244833D01*
X104849699Y-109208940D01*
X104674847Y-109130802D01*
X104545000Y-109112296D01*
X104444395Y-109154098D01*
X104375882Y-109229285D01*
X104317691Y-109317423D01*
X104288975Y-109373500D01*
X104288333Y-109377452D01*
X103793074Y-109377452D01*
X103843663Y-109313366D01*
X104033010Y-109199832D01*
X104263965Y-109127739D01*
X104376193Y-109097178D01*
X104455793Y-109054832D01*
X104525230Y-108981660D01*
X104606968Y-108858622D01*
X104634480Y-108813691D01*
X104796531Y-108547174D01*
X104680015Y-108456337D01*
X104404888Y-108217242D01*
X104207933Y-107987356D01*
X104084331Y-107759123D01*
X104029263Y-107524988D01*
X104025327Y-107429929D01*
X104037846Y-107286653D01*
X104069767Y-107090547D01*
X104115568Y-106865510D01*
X104169730Y-106635442D01*
X104226732Y-106424243D01*
X104281053Y-106255813D01*
X104283997Y-106248833D01*
X105812333Y-106248833D01*
X105833500Y-106270000D01*
X105854667Y-106248833D01*
X105833500Y-106227667D01*
X105812333Y-106248833D01*
X104283997Y-106248833D01*
X104315248Y-106174750D01*
X104351104Y-106097291D01*
X104347055Y-106066261D01*
X104292117Y-106079761D01*
X104175310Y-106135897D01*
X104153773Y-106146857D01*
X104012205Y-106205475D01*
X103835150Y-106260871D01*
X103722716Y-106287913D01*
X103580810Y-106319614D01*
X103500340Y-106351731D01*
X103459453Y-106399879D01*
X103436293Y-106479676D01*
X103433097Y-106494861D01*
X103405828Y-106579975D01*
X103348480Y-106727313D01*
X103267069Y-106922516D01*
X103167612Y-107151219D01*
X103056125Y-107399063D01*
X103035570Y-107443889D01*
X102918906Y-107698850D01*
X102808859Y-107941728D01*
X102712454Y-108156833D01*
X102636718Y-108328478D01*
X102588676Y-108440973D01*
X102584939Y-108450167D01*
X102541775Y-108562210D01*
X102480696Y-108727229D01*
X102406513Y-108931569D01*
X102324041Y-109161574D01*
X102238091Y-109403589D01*
X102153477Y-109643960D01*
X102075012Y-109869032D01*
X102007509Y-110065149D01*
X101955780Y-110218657D01*
X101924640Y-110315902D01*
X101917667Y-110343300D01*
X101843747Y-110343300D01*
X101795056Y-109776403D01*
X101772133Y-109526041D01*
X101749206Y-109305075D01*
X101727919Y-109127237D01*
X101709916Y-109006255D01*
X101696843Y-108955859D01*
X101696774Y-108955789D01*
X101641108Y-108949981D01*
X101545482Y-108975864D01*
X101533042Y-108980835D01*
X101455110Y-109018004D01*
X101418820Y-109062777D01*
X101413159Y-109142324D01*
X101423487Y-109251116D01*
X101434748Y-109361113D01*
X101451797Y-109538002D01*
X101472998Y-109764332D01*
X101496717Y-110022655D01*
X101521321Y-110295521D01*
X101521722Y-110300012D01*
X101546868Y-110585258D01*
X101564166Y-110798325D01*
X101573557Y-110951341D01*
X101574985Y-111056434D01*
X101568391Y-111125731D01*
X101553719Y-111171362D01*
X101530911Y-111205453D01*
X101517364Y-111220940D01*
X101425621Y-111288362D01*
X101297269Y-111346049D01*
X101265360Y-111355902D01*
X101147448Y-111375619D01*
X100965881Y-111390827D01*
X100741567Y-111401223D01*
X100495414Y-111406503D01*
X100248329Y-111406364D01*
X100021220Y-111400504D01*
X99834995Y-111388618D01*
X99748083Y-111377901D01*
X99627389Y-111354748D01*
X99568321Y-111323309D01*
X99548856Y-111262195D01*
X99547000Y-111182602D01*
X99529580Y-111051935D01*
X99498865Y-111017041D01*
X99602428Y-111017041D01*
X99604842Y-111033022D01*
X99645389Y-111092813D01*
X99685889Y-111073297D01*
X99721108Y-110979673D01*
X99735657Y-110903034D01*
X99765163Y-110782703D01*
X99806224Y-110702020D01*
X99825130Y-110686838D01*
X99877011Y-110645509D01*
X99879475Y-110601656D01*
X99845118Y-110588000D01*
X99796662Y-110623210D01*
X99733549Y-110710792D01*
X99670394Y-110823672D01*
X99621814Y-110934780D01*
X99602428Y-111017041D01*
X99498865Y-111017041D01*
X99478766Y-110994208D01*
X99437707Y-110960614D01*
X99427064Y-110888627D01*
X99439027Y-110778012D01*
X99467521Y-110588000D01*
X99282894Y-110588000D01*
X99143525Y-110595414D01*
X99065583Y-110623993D01*
X99048069Y-110683236D01*
X99089983Y-110782647D01*
X99190325Y-110931725D01*
X99239730Y-110998281D01*
X99476670Y-111313085D01*
X99181524Y-111608231D01*
X98941948Y-111248228D01*
X98702371Y-110888226D01*
X98255833Y-111086266D01*
X98255833Y-111791970D01*
X97938333Y-111844672D01*
X97931558Y-111502086D01*
X97926755Y-111364217D01*
X97919640Y-111285324D01*
X97911432Y-111275892D01*
X97907709Y-111297083D01*
X97885264Y-111392853D01*
X97853693Y-111440278D01*
X97850984Y-111441017D01*
X97771675Y-111451141D01*
X97767009Y-111451600D01*
X97736880Y-111415622D01*
X97688149Y-111314641D01*
X97627688Y-111164394D01*
X97565925Y-110991191D01*
X97409167Y-110526548D01*
X97176333Y-110538648D01*
X97024923Y-110557150D01*
X96922040Y-110591047D01*
X96897275Y-110610647D01*
X96865708Y-110677476D01*
X96821908Y-110803281D01*
X96773735Y-110964788D01*
X96757726Y-111023818D01*
X96711556Y-111193775D01*
X96676739Y-111297010D01*
X96643634Y-111348828D01*
X96602603Y-111364531D01*
X96546139Y-111359735D01*
X96465359Y-111355065D01*
X96439699Y-111390042D01*
X96447077Y-111473189D01*
X96453545Y-111560701D01*
X96422529Y-111596709D01*
X96331606Y-111603977D01*
X96318242Y-111604000D01*
X96238797Y-111597873D01*
X96183758Y-111570822D01*
X96148669Y-111509844D01*
X96129076Y-111401936D01*
X96123013Y-111282972D01*
X96333009Y-111282972D01*
X96340792Y-111337879D01*
X96355243Y-111338535D01*
X96365349Y-111281876D01*
X96358585Y-111257396D01*
X96339788Y-111241361D01*
X96333009Y-111282972D01*
X96123013Y-111282972D01*
X96120521Y-111234094D01*
X96119261Y-111096000D01*
X96372000Y-111096000D01*
X96387489Y-111130845D01*
X96400222Y-111124222D01*
X96405289Y-111073982D01*
X96400222Y-111067778D01*
X96375055Y-111073589D01*
X96372000Y-111096000D01*
X96119261Y-111096000D01*
X96118578Y-111021307D01*
X96118000Y-110629114D01*
X95858158Y-110760282D01*
X95598317Y-110891450D01*
X95622933Y-111185079D01*
X95647550Y-111478709D01*
X95512358Y-111535247D01*
X95418254Y-111568488D01*
X95371055Y-111560708D01*
X95348183Y-111523809D01*
X95336201Y-111463524D01*
X95318487Y-111331750D01*
X95296486Y-111141360D01*
X95271644Y-110905228D01*
X95245408Y-110636226D01*
X95231199Y-110482167D01*
X95204955Y-110196199D01*
X95179946Y-109931854D01*
X95157550Y-109703071D01*
X95139147Y-109523787D01*
X95126114Y-109407942D01*
X95122046Y-109378189D01*
X95116075Y-109290930D01*
X95149293Y-109242024D01*
X95242192Y-109204565D01*
X95258043Y-109199648D01*
X95360201Y-109171098D01*
X95419575Y-109159849D01*
X95424517Y-109160740D01*
X95431430Y-109203801D01*
X95444622Y-109317011D01*
X95462574Y-109486209D01*
X95483771Y-109697238D01*
X95499897Y-109864063D01*
X95522750Y-110096566D01*
X95543890Y-110297655D01*
X95561705Y-110453047D01*
X95574583Y-110548457D01*
X95579813Y-110571924D01*
X95621180Y-110560792D01*
X95716897Y-110518438D01*
X95846795Y-110453832D01*
X95855495Y-110449309D01*
X96117316Y-110312833D01*
X96117658Y-109814369D01*
X96118367Y-109602469D01*
X96122226Y-109459802D01*
X96132349Y-109370933D01*
X96151852Y-109320427D01*
X96183849Y-109292851D01*
X96226589Y-109274619D01*
X96320726Y-109243787D01*
X96373914Y-109233333D01*
X96386246Y-109273777D01*
X96397948Y-109387552D01*
X96408389Y-109563321D01*
X96416937Y-109789748D01*
X96422959Y-110055497D01*
X96424075Y-110132917D01*
X96435500Y-111032500D01*
X96659658Y-110232454D01*
X96935997Y-110232454D01*
X96943610Y-110274336D01*
X97018138Y-110290362D01*
X97055387Y-110291018D01*
X97170346Y-110280465D01*
X97251866Y-110255864D01*
X97253510Y-110254858D01*
X97278581Y-110221002D01*
X97279004Y-110154560D01*
X97252945Y-110038257D01*
X97217649Y-109916882D01*
X97169814Y-109774922D01*
X97126836Y-109674509D01*
X97096788Y-109633970D01*
X97093267Y-109634511D01*
X97068651Y-109683649D01*
X97037104Y-109791451D01*
X97009737Y-109913923D01*
X96979167Y-110060663D01*
X96951610Y-110178298D01*
X96935997Y-110232454D01*
X96659658Y-110232454D01*
X96752367Y-109901567D01*
X96835575Y-109609060D01*
X96912594Y-109346791D01*
X96980286Y-109124782D01*
X97035510Y-108953054D01*
X97075126Y-108841631D01*
X97095996Y-108800534D01*
X97097187Y-108800900D01*
X97118660Y-108847462D01*
X97164530Y-108962740D01*
X97230640Y-109135741D01*
X97312833Y-109355475D01*
X97406951Y-109610950D01*
X97492917Y-109847153D01*
X97593549Y-110123671D01*
X97685385Y-110373208D01*
X97764343Y-110584902D01*
X97826345Y-110747894D01*
X97867311Y-110851324D01*
X97882566Y-110884319D01*
X97888980Y-110851614D01*
X97892887Y-110747665D01*
X97894146Y-110585861D01*
X97892618Y-110379590D01*
X97889636Y-110207345D01*
X97881705Y-109833280D01*
X98180287Y-109833280D01*
X98180634Y-109988200D01*
X98186244Y-110167409D01*
X98196153Y-110351591D01*
X98209399Y-110521428D01*
X98225020Y-110657606D01*
X98242051Y-110740807D01*
X98253257Y-110757333D01*
X98296420Y-110741615D01*
X98388789Y-110702161D01*
X98430580Y-110683545D01*
X98594500Y-110609757D01*
X98414583Y-110596444D01*
X98234667Y-110583132D01*
X98234667Y-110524500D01*
X99462333Y-110524500D01*
X99483500Y-110545667D01*
X99504667Y-110524500D01*
X99483500Y-110503333D01*
X99462333Y-110524500D01*
X98234667Y-110524500D01*
X98234667Y-110117401D01*
X98231693Y-109932998D01*
X98223624Y-109787181D01*
X98211741Y-109695978D01*
X98199232Y-109673570D01*
X98186165Y-109721964D01*
X98180287Y-109833280D01*
X97881705Y-109833280D01*
X97876165Y-109572000D01*
X98446333Y-109572000D01*
X98446333Y-110380558D01*
X98689750Y-110367862D01*
X98828172Y-110357843D01*
X98910562Y-110334770D01*
X98965457Y-110281591D01*
X99021398Y-110181254D01*
X99029825Y-110164667D01*
X99093772Y-109970911D01*
X99081007Y-109806015D01*
X98997067Y-109678748D01*
X98847489Y-109597880D01*
X98655639Y-109572000D01*
X98446333Y-109572000D01*
X97876165Y-109572000D01*
X97874833Y-109509190D01*
X98234667Y-109384110D01*
X98234667Y-109318000D01*
X98445682Y-109318000D01*
X98647091Y-109318930D01*
X98878143Y-109351101D01*
X99092224Y-109437228D01*
X99260826Y-109564913D01*
X99289839Y-109598431D01*
X99344754Y-109682337D01*
X99369791Y-109772653D01*
X99371478Y-109901241D01*
X99366804Y-109974167D01*
X99351317Y-110123987D01*
X99331104Y-110247102D01*
X99315846Y-110302250D01*
X99308260Y-110357538D01*
X99363993Y-110375742D01*
X99389715Y-110376333D01*
X99428586Y-110376617D01*
X99430012Y-110376333D01*
X99817416Y-110376333D01*
X99983071Y-110376333D01*
X100088138Y-110370868D01*
X100126739Y-110347963D01*
X100118551Y-110302250D01*
X100086078Y-110217025D01*
X100041154Y-110092966D01*
X100025393Y-110048299D01*
X99980792Y-109935452D01*
X99942042Y-109861399D01*
X99930785Y-109848888D01*
X99909153Y-109876784D01*
X99882991Y-109968726D01*
X99858290Y-110102839D01*
X99817416Y-110376333D01*
X99430012Y-110376333D01*
X99458911Y-110370581D01*
X99483790Y-110347895D01*
X99506319Y-110298229D01*
X99529600Y-110211252D01*
X99556729Y-110076635D01*
X99590806Y-109884047D01*
X99634930Y-109623157D01*
X99659558Y-109476750D01*
X99700025Y-109243839D01*
X99737259Y-109043086D01*
X99768549Y-108888073D01*
X99791183Y-108792384D01*
X99801129Y-108767667D01*
X99824698Y-108804385D01*
X99875447Y-108905797D01*
X99947170Y-109058790D01*
X100033663Y-109250250D01*
X100091496Y-109381402D01*
X100190246Y-109599864D01*
X100276756Y-109776868D01*
X100345423Y-109901835D01*
X100390642Y-109964188D01*
X100402662Y-109968607D01*
X100404406Y-109986654D01*
X100367548Y-110059538D01*
X100301117Y-110169788D01*
X100156645Y-110397500D01*
X100273590Y-110693833D01*
X100327543Y-110845575D01*
X100361805Y-110972048D01*
X100369871Y-111048629D01*
X100368646Y-111053667D01*
X100358863Y-111095240D01*
X100388502Y-111073313D01*
X100407631Y-111053667D01*
X100442856Y-110987894D01*
X100490394Y-110859835D01*
X100543303Y-110689650D01*
X100582547Y-110545667D01*
X100666587Y-110222287D01*
X100732842Y-109977022D01*
X100782599Y-109805494D01*
X100817147Y-109703328D01*
X100837773Y-109666147D01*
X100841223Y-109666779D01*
X100854776Y-109711577D01*
X100882139Y-109825567D01*
X100920204Y-109994982D01*
X100965865Y-110206055D01*
X101006715Y-110400168D01*
X101068350Y-110696339D01*
X101115165Y-110919847D01*
X101149588Y-111080917D01*
X101174046Y-111189778D01*
X101190966Y-111256655D01*
X101202775Y-111291778D01*
X101211899Y-111305372D01*
X101220767Y-111307665D01*
X101222075Y-111307667D01*
X101271349Y-111290076D01*
X101361393Y-111247201D01*
X101371590Y-111241965D01*
X101463793Y-111172917D01*
X101477005Y-111104382D01*
X101462179Y-111046450D01*
X101430548Y-110916798D01*
X101384672Y-110726130D01*
X101327112Y-110485148D01*
X101260431Y-110204554D01*
X101187189Y-109895052D01*
X101155908Y-109762500D01*
X101081212Y-109446062D01*
X101012530Y-109155753D01*
X100952327Y-108901944D01*
X100903069Y-108695007D01*
X100867222Y-108545313D01*
X100847252Y-108463233D01*
X100844170Y-108451340D01*
X100829711Y-108474265D01*
X100798576Y-108565698D01*
X100754951Y-108712089D01*
X100703021Y-108899891D01*
X100687224Y-108959340D01*
X100542554Y-109508500D01*
X100509334Y-109254500D01*
X100440843Y-108745106D01*
X100378183Y-108310340D01*
X100319795Y-107940488D01*
X100264124Y-107625832D01*
X100209611Y-107356658D01*
X100193862Y-107286000D01*
X100146814Y-107072769D01*
X100104887Y-106870447D01*
X100073181Y-106704375D01*
X100058380Y-106612958D01*
X100033833Y-106426750D01*
X99702877Y-106287708D01*
X99429152Y-106162536D01*
X99228813Y-106041374D01*
X99092444Y-105910564D01*
X99010630Y-105756446D01*
X98973956Y-105565359D01*
X98973005Y-105323645D01*
X98978458Y-105236752D01*
X98980068Y-105124724D01*
X100563000Y-105124724D01*
X100905573Y-105488414D01*
X101057880Y-105654187D01*
X101156849Y-105773535D01*
X101210662Y-105858205D01*
X101227498Y-105919947D01*
X101224479Y-105946404D01*
X101207350Y-106039748D01*
X101188060Y-106181316D01*
X101175679Y-106292935D01*
X101157535Y-106453145D01*
X101131096Y-106660203D01*
X101101128Y-106877304D01*
X101090914Y-106947333D01*
X101068906Y-107124666D01*
X101049671Y-107333721D01*
X101033753Y-107559712D01*
X101021697Y-107787850D01*
X101014048Y-108003351D01*
X101011351Y-108191428D01*
X101014151Y-108337293D01*
X101022993Y-108426162D01*
X101035690Y-108445826D01*
X101053952Y-108395289D01*
X101066709Y-108285003D01*
X101071000Y-108153503D01*
X101082916Y-107875643D01*
X101116299Y-107541409D01*
X101167597Y-107175315D01*
X101233260Y-106801875D01*
X101309737Y-106445600D01*
X101330956Y-106358799D01*
X101463024Y-105833765D01*
X101431226Y-105803359D01*
X104986833Y-105803359D01*
X105246365Y-105781149D01*
X105391906Y-105771484D01*
X105481698Y-105779258D01*
X105544157Y-105812676D01*
X105607696Y-105879939D01*
X105613857Y-105887241D01*
X105692131Y-105994006D01*
X105745079Y-106090730D01*
X105749773Y-106103628D01*
X105778360Y-106175569D01*
X105792570Y-106173001D01*
X105791909Y-106104936D01*
X105775884Y-105980386D01*
X105761179Y-105895564D01*
X105729899Y-105750180D01*
X105700186Y-105674534D01*
X105664977Y-105654138D01*
X105645823Y-105658976D01*
X105572601Y-105680450D01*
X105443735Y-105710959D01*
X105286807Y-105743985D01*
X105283167Y-105744707D01*
X104986833Y-105803359D01*
X101431226Y-105803359D01*
X101148798Y-105533299D01*
X100895089Y-105258600D01*
X100719242Y-104991944D01*
X100616046Y-104725035D01*
X100602078Y-104662936D01*
X100587002Y-104603111D01*
X100577027Y-104611733D01*
X100570886Y-104694582D01*
X100567868Y-104818945D01*
X100563000Y-105124724D01*
X98980068Y-105124724D01*
X98983930Y-104856088D01*
X98939614Y-104542726D01*
X98845609Y-104297263D01*
X98814939Y-104247441D01*
X98736781Y-104153517D01*
X98656009Y-104119803D01*
X98594500Y-104120441D01*
X98467500Y-104132167D01*
X98456591Y-106725083D01*
X98445682Y-109318000D01*
X98234667Y-109318000D01*
X98234667Y-106806526D01*
X98234511Y-106272866D01*
X98233940Y-105817800D01*
X98232792Y-105435256D01*
X98230909Y-105119159D01*
X98228131Y-104863438D01*
X98224299Y-104662021D01*
X98219254Y-104508833D01*
X98212836Y-104397804D01*
X98204887Y-104322860D01*
X98195246Y-104277928D01*
X98183754Y-104256937D01*
X98170252Y-104253813D01*
X98167704Y-104254637D01*
X98100859Y-104277030D01*
X98084125Y-104280333D01*
X98049385Y-104315881D01*
X98004973Y-104401727D01*
X97964170Y-104506672D01*
X97940257Y-104599518D01*
X97938333Y-104622814D01*
X97903632Y-104734681D01*
X97809765Y-104802920D01*
X97672084Y-104824094D01*
X97505942Y-104794768D01*
X97388000Y-104746000D01*
X97248280Y-104691585D01*
X97109746Y-104662731D01*
X97081606Y-104661333D01*
X96953580Y-104642069D01*
X96850526Y-104597842D01*
X96759121Y-104558187D01*
X96696091Y-104558829D01*
X96622643Y-104550767D01*
X96558553Y-104465623D01*
X96553184Y-104449667D01*
X97536167Y-104449667D01*
X97545763Y-104485908D01*
X97576001Y-104492000D01*
X97633923Y-104469898D01*
X97642000Y-104449667D01*
X97611616Y-104408545D01*
X97602165Y-104407333D01*
X97544831Y-104438105D01*
X97536167Y-104449667D01*
X96553184Y-104449667D01*
X96503503Y-104302025D01*
X96457177Y-104058597D01*
X96419255Y-103733967D01*
X96389421Y-103326761D01*
X96385089Y-103246582D01*
X96973949Y-103246582D01*
X96985083Y-103264333D01*
X97037022Y-103246656D01*
X97128610Y-103203579D01*
X97138680Y-103198413D01*
X97228958Y-103134526D01*
X97255170Y-103056191D01*
X97252995Y-103021761D01*
X97220935Y-102921608D01*
X97164481Y-102900368D01*
X97093756Y-102960698D01*
X97082495Y-102977020D01*
X97026722Y-103078059D01*
X96987565Y-103176688D01*
X96973949Y-103246582D01*
X96385089Y-103246582D01*
X96382782Y-103203886D01*
X96350833Y-102571939D01*
X96025599Y-102473228D01*
X95777589Y-102380792D01*
X95601193Y-102270590D01*
X95483581Y-102130974D01*
X95411922Y-101950292D01*
X95401650Y-101906692D01*
X95377687Y-101730892D01*
X95395188Y-101623481D01*
X95396786Y-101620622D01*
X95427316Y-101580444D01*
X95438241Y-101614457D01*
X95439379Y-101651671D01*
X95473811Y-101771597D01*
X95560582Y-101906784D01*
X95678817Y-102029965D01*
X95785013Y-102103104D01*
X95913317Y-102169452D01*
X95895003Y-102142500D01*
X96669625Y-102142500D01*
X96754121Y-101891892D01*
X96779140Y-101805520D01*
X97867571Y-101805520D01*
X97870819Y-101818504D01*
X97933273Y-101857682D01*
X97995437Y-101867333D01*
X98176393Y-101888399D01*
X98377471Y-101943814D01*
X98565932Y-102021901D01*
X98709037Y-102110988D01*
X98729249Y-102129015D01*
X98864814Y-102291928D01*
X98934965Y-102466944D01*
X98949987Y-102682081D01*
X98947817Y-102724364D01*
X98933167Y-102951554D01*
X99116326Y-102811610D01*
X99229598Y-102733055D01*
X99322891Y-102682282D01*
X99359742Y-102671667D01*
X99411298Y-102651424D01*
X99394808Y-102594967D01*
X99315383Y-102508706D01*
X99178134Y-102399049D01*
X99097588Y-102342917D01*
X99059071Y-102310887D01*
X99079271Y-102298031D01*
X99169509Y-102300009D01*
X99203634Y-102302264D01*
X99389434Y-102315193D01*
X99238250Y-102186513D01*
X99004486Y-102030627D01*
X98716094Y-101905616D01*
X98400547Y-101821675D01*
X98177307Y-101792751D01*
X98002768Y-101784087D01*
X97902657Y-101788080D01*
X97867571Y-101805520D01*
X96779140Y-101805520D01*
X96806504Y-101711057D01*
X96848909Y-101520027D01*
X96864661Y-101419690D01*
X96865282Y-101401666D01*
X102634798Y-101401666D01*
X102800077Y-101401667D01*
X102949957Y-101416832D01*
X103112330Y-101454371D01*
X103145333Y-101465167D01*
X103311618Y-101501809D01*
X103543709Y-101522289D01*
X103824494Y-101527579D01*
X104136866Y-101518650D01*
X104463713Y-101496475D01*
X104787927Y-101462027D01*
X105092397Y-101416277D01*
X105360015Y-101360198D01*
X105457339Y-101333790D01*
X105697773Y-101283452D01*
X105969036Y-101259737D01*
X106244059Y-101262235D01*
X106495771Y-101290537D01*
X106697102Y-101344230D01*
X106717833Y-101352907D01*
X106844093Y-101404600D01*
X106942777Y-101437608D01*
X106976632Y-101444000D01*
X107032520Y-101462035D01*
X107148003Y-101511383D01*
X107307241Y-101584912D01*
X107494398Y-101675486D01*
X107532168Y-101694214D01*
X107778746Y-101809117D01*
X108068819Y-101932223D01*
X108364588Y-102048061D01*
X108606333Y-102133948D01*
X108887316Y-102223209D01*
X109136106Y-102291825D01*
X109382937Y-102346626D01*
X109658046Y-102394440D01*
X109939833Y-102435113D01*
X110084883Y-102443459D01*
X110269924Y-102438963D01*
X110463740Y-102424026D01*
X110635114Y-102401045D01*
X110752131Y-102372685D01*
X110900746Y-102286117D01*
X111054450Y-102147273D01*
X111186482Y-101982325D01*
X111234709Y-101900770D01*
X111294994Y-101716523D01*
X111314188Y-101503015D01*
X111289608Y-101303862D01*
X111274381Y-101256256D01*
X111233095Y-101147667D01*
X102822589Y-101147667D01*
X102728694Y-101274667D01*
X102634798Y-101401666D01*
X96865282Y-101401666D01*
X96870653Y-101245826D01*
X96843247Y-101060759D01*
X96798224Y-100893667D01*
X98081342Y-100893667D01*
X98121506Y-100867413D01*
X98207780Y-100797649D01*
X98323673Y-100697866D01*
X98359928Y-100665722D01*
X98551145Y-100505958D01*
X98721951Y-100393796D01*
X98905444Y-100311224D01*
X99134722Y-100240231D01*
X99148651Y-100236483D01*
X99344101Y-100203976D01*
X99598264Y-100190662D01*
X99887571Y-100195783D01*
X100188453Y-100218582D01*
X100477341Y-100258303D01*
X100605333Y-100283267D01*
X100814793Y-100328738D01*
X100950745Y-100356801D01*
X101022424Y-100367987D01*
X101039067Y-100362830D01*
X101009909Y-100341863D01*
X100944186Y-100305617D01*
X100938370Y-100302475D01*
X100712013Y-100193601D01*
X100448861Y-100087727D01*
X100181780Y-99996711D01*
X99943639Y-99932410D01*
X99874221Y-99918586D01*
X99521298Y-99898274D01*
X99178344Y-99957584D01*
X98858875Y-100092257D01*
X98576405Y-100298031D01*
X98530843Y-100341981D01*
X98418414Y-100460265D01*
X98305060Y-100587971D01*
X98203053Y-100710037D01*
X98124666Y-100811400D01*
X98082172Y-100876998D01*
X98081342Y-100893667D01*
X96798224Y-100893667D01*
X96798108Y-100893237D01*
X96748823Y-100743569D01*
X96709714Y-100646237D01*
X96685492Y-100607232D01*
X96680870Y-100632543D01*
X96700559Y-100728160D01*
X96717068Y-100790214D01*
X96736619Y-100923324D01*
X96743229Y-101124002D01*
X96737256Y-101376200D01*
X96719058Y-101663871D01*
X96691157Y-101952000D01*
X96669625Y-102142500D01*
X95895003Y-102142500D01*
X95805239Y-102010402D01*
X95729455Y-101868456D01*
X95666538Y-101699355D01*
X95650312Y-101637092D01*
X95633754Y-101554561D01*
X95626082Y-101480645D01*
X95630375Y-101401811D01*
X95649712Y-101304527D01*
X95687172Y-101175259D01*
X95745834Y-101000474D01*
X95828777Y-100766640D01*
X95882064Y-100618500D01*
X95952640Y-100397630D01*
X95983641Y-100220169D01*
X95977057Y-100055769D01*
X95934881Y-99874078D01*
X95931643Y-99863228D01*
X95901355Y-99734996D01*
X95911085Y-99673760D01*
X95965396Y-99678482D01*
X96068847Y-99748125D01*
X96148534Y-99813888D01*
X96321308Y-99961777D01*
X96463071Y-99828139D01*
X96667531Y-99676364D01*
X96940652Y-99534665D01*
X97266629Y-99407239D01*
X97629661Y-99298282D01*
X98013946Y-99211989D01*
X98403680Y-99152555D01*
X98783061Y-99124178D01*
X99098472Y-99128395D01*
G36*
X100514716Y-109699000D02*
X100498475Y-109789602D01*
X100478333Y-109847167D01*
X100450353Y-109893335D01*
X100441951Y-109868333D01*
X100458191Y-109777731D01*
X100478333Y-109720167D01*
X100506314Y-109673998D01*
X100514716Y-109699000D01*
X100514716Y-109699000D01*
G37*
X100514716Y-109699000D02*
X100498475Y-109789602D01*
X100478333Y-109847167D01*
X100450353Y-109893335D01*
X100441951Y-109868333D01*
X100458191Y-109777731D01*
X100478333Y-109720167D01*
X100506314Y-109673998D01*
X100514716Y-109699000D01*
D16*
X158766667Y-122832381D02*
X158766667Y-123546667D01*
X158719047Y-123689524D01*
X158623809Y-123784762D01*
X158480952Y-123832381D01*
X158385714Y-123832381D01*
X159766667Y-123832381D02*
X159195238Y-123832381D01*
X159480952Y-123832381D02*
X159480952Y-122832381D01*
X159385714Y-122975238D01*
X159290476Y-123070476D01*
X159195238Y-123118095D01*
X133623449Y-90298801D02*
X134128525Y-90803877D01*
X134195868Y-90938565D01*
X134195868Y-91073252D01*
X134128525Y-91207939D01*
X134061181Y-91275282D01*
X133993838Y-90063099D02*
X133993838Y-89995755D01*
X134027509Y-89894740D01*
X134195869Y-89726381D01*
X134296884Y-89692709D01*
X134364227Y-89692709D01*
X134465243Y-89726381D01*
X134532586Y-89793724D01*
X134599929Y-89928411D01*
X134599929Y-90736534D01*
X135037662Y-90298801D01*
X111238095Y-76892381D02*
X111238095Y-77701905D01*
X111285714Y-77797143D01*
X111333333Y-77844762D01*
X111428571Y-77892381D01*
X111619048Y-77892381D01*
X111714286Y-77844762D01*
X111761905Y-77797143D01*
X111809524Y-77701905D01*
X111809524Y-76892381D01*
X112809524Y-77892381D02*
X112238095Y-77892381D01*
X112523809Y-77892381D02*
X112523809Y-76892381D01*
X112428571Y-77035238D01*
X112333333Y-77130476D01*
X112238095Y-77178095D01*
X136238095Y-83002381D02*
X136238095Y-83811905D01*
X136285714Y-83907143D01*
X136333333Y-83954762D01*
X136428571Y-84002381D01*
X136619048Y-84002381D01*
X136714286Y-83954762D01*
X136761905Y-83907143D01*
X136809524Y-83811905D01*
X136809524Y-83002381D01*
X137190476Y-83002381D02*
X137809524Y-83002381D01*
X137476190Y-83383333D01*
X137619048Y-83383333D01*
X137714286Y-83430952D01*
X137761905Y-83478571D01*
X137809524Y-83573810D01*
X137809524Y-83811905D01*
X137761905Y-83907143D01*
X137714286Y-83954762D01*
X137619048Y-84002381D01*
X137333333Y-84002381D01*
X137238095Y-83954762D01*
X137190476Y-83907143D01*
X164809524Y-110880571D02*
X165142858Y-110880571D01*
X165285715Y-111404381D02*
X164809524Y-111404381D01*
X164809524Y-110404381D01*
X165285715Y-110404381D01*
X166238096Y-111404381D02*
X165666667Y-111404381D01*
X165952381Y-111404381D02*
X165952381Y-110404381D01*
X165857143Y-110547238D01*
X165761905Y-110642476D01*
X165666667Y-110690095D01*
X167059524Y-110880571D02*
X167392858Y-110880571D01*
X167535715Y-111404381D02*
X167059524Y-111404381D01*
X167059524Y-110404381D01*
X167535715Y-110404381D01*
X167916667Y-110499619D02*
X167964286Y-110452000D01*
X168059524Y-110404381D01*
X168297620Y-110404381D01*
X168392858Y-110452000D01*
X168440477Y-110499619D01*
X168488096Y-110594857D01*
X168488096Y-110690095D01*
X168440477Y-110832952D01*
X167869048Y-111404381D01*
X168488096Y-111404381D01*
X169309524Y-110880571D02*
X169642858Y-110880571D01*
X169785715Y-111404381D02*
X169309524Y-111404381D01*
X169309524Y-110404381D01*
X169785715Y-110404381D01*
X170119048Y-110404381D02*
X170738096Y-110404381D01*
X170404762Y-110785333D01*
X170547620Y-110785333D01*
X170642858Y-110832952D01*
X170690477Y-110880571D01*
X170738096Y-110975810D01*
X170738096Y-111213905D01*
X170690477Y-111309143D01*
X170642858Y-111356762D01*
X170547620Y-111404381D01*
X170261905Y-111404381D01*
X170166667Y-111356762D01*
X170119048Y-111309143D01*
X171559524Y-110880571D02*
X171892858Y-110880571D01*
X172035715Y-111404381D02*
X171559524Y-111404381D01*
X171559524Y-110404381D01*
X172035715Y-110404381D01*
X172892858Y-110737714D02*
X172892858Y-111404381D01*
X172654762Y-110356762D02*
X172416667Y-111071048D01*
X173035715Y-111071048D01*
X162440476Y-110404381D02*
X163059524Y-110404381D01*
X162726190Y-110785333D01*
X162869048Y-110785333D01*
X162964286Y-110832952D01*
X163011905Y-110880571D01*
X163059524Y-110975810D01*
X163059524Y-111213905D01*
X163011905Y-111309143D01*
X162964286Y-111356762D01*
X162869048Y-111404381D01*
X162583333Y-111404381D01*
X162488095Y-111356762D01*
X162440476Y-111309143D01*
X163964286Y-110404381D02*
X163488095Y-110404381D01*
X163440476Y-110880571D01*
X163488095Y-110832952D01*
X163583333Y-110785333D01*
X163821429Y-110785333D01*
X163916667Y-110832952D01*
X163964286Y-110880571D01*
X164011905Y-110975810D01*
X164011905Y-111213905D01*
X163964286Y-111309143D01*
X163916667Y-111356762D01*
X163821429Y-111404381D01*
X163583333Y-111404381D01*
X163488095Y-111356762D01*
X163440476Y-111309143D01*
X187047143Y-97642857D02*
X187094762Y-97690476D01*
X187142381Y-97833333D01*
X187142381Y-97928571D01*
X187094762Y-98071429D01*
X186999524Y-98166667D01*
X186904286Y-98214286D01*
X186713810Y-98261905D01*
X186570952Y-98261905D01*
X186380476Y-98214286D01*
X186285238Y-98166667D01*
X186190000Y-98071429D01*
X186142381Y-97928571D01*
X186142381Y-97833333D01*
X186190000Y-97690476D01*
X186237619Y-97642857D01*
X187142381Y-96690476D02*
X187142381Y-97261905D01*
X187142381Y-96976191D02*
X186142381Y-96976191D01*
X186285238Y-97071429D01*
X186380476Y-97166667D01*
X186428095Y-97261905D01*
X187142381Y-95738095D02*
X187142381Y-96309524D01*
X187142381Y-96023810D02*
X186142381Y-96023810D01*
X186285238Y-96119048D01*
X186380476Y-96214286D01*
X186428095Y-96309524D01*
X192167143Y-81142857D02*
X192214762Y-81190476D01*
X192262381Y-81333333D01*
X192262381Y-81428571D01*
X192214762Y-81571429D01*
X192119524Y-81666667D01*
X192024286Y-81714286D01*
X191833810Y-81761905D01*
X191690952Y-81761905D01*
X191500476Y-81714286D01*
X191405238Y-81666667D01*
X191310000Y-81571429D01*
X191262381Y-81428571D01*
X191262381Y-81333333D01*
X191310000Y-81190476D01*
X191357619Y-81142857D01*
X192262381Y-80190476D02*
X192262381Y-80761905D01*
X192262381Y-80476191D02*
X191262381Y-80476191D01*
X191405238Y-80571429D01*
X191500476Y-80666667D01*
X191548095Y-80761905D01*
X191357619Y-79809524D02*
X191310000Y-79761905D01*
X191262381Y-79666667D01*
X191262381Y-79428571D01*
X191310000Y-79333333D01*
X191357619Y-79285714D01*
X191452857Y-79238095D01*
X191548095Y-79238095D01*
X191690952Y-79285714D01*
X192262381Y-79857143D01*
X192262381Y-79238095D01*
X119607143Y-106917143D02*
X119559524Y-106964762D01*
X119416667Y-107012381D01*
X119321429Y-107012381D01*
X119178571Y-106964762D01*
X119083333Y-106869524D01*
X119035714Y-106774286D01*
X118988095Y-106583810D01*
X118988095Y-106440952D01*
X119035714Y-106250476D01*
X119083333Y-106155238D01*
X119178571Y-106060000D01*
X119321429Y-106012381D01*
X119416667Y-106012381D01*
X119559524Y-106060000D01*
X119607143Y-106107619D01*
X120559524Y-107012381D02*
X119988095Y-107012381D01*
X120273809Y-107012381D02*
X120273809Y-106012381D01*
X120178571Y-106155238D01*
X120083333Y-106250476D01*
X119988095Y-106298095D01*
X120892857Y-106012381D02*
X121511905Y-106012381D01*
X121178571Y-106393333D01*
X121321429Y-106393333D01*
X121416667Y-106440952D01*
X121464286Y-106488571D01*
X121511905Y-106583810D01*
X121511905Y-106821905D01*
X121464286Y-106917143D01*
X121416667Y-106964762D01*
X121321429Y-107012381D01*
X121035714Y-107012381D01*
X120940476Y-106964762D01*
X120892857Y-106917143D01*
X123452381Y-110916666D02*
X122976190Y-111250000D01*
X123452381Y-111488095D02*
X122452381Y-111488095D01*
X122452381Y-111107142D01*
X122500000Y-111011904D01*
X122547619Y-110964285D01*
X122642857Y-110916666D01*
X122785714Y-110916666D01*
X122880952Y-110964285D01*
X122928571Y-111011904D01*
X122976190Y-111107142D01*
X122976190Y-111488095D01*
X123452381Y-109964285D02*
X123452381Y-110535714D01*
X123452381Y-110250000D02*
X122452381Y-110250000D01*
X122595238Y-110345238D01*
X122690476Y-110440476D01*
X122738095Y-110535714D01*
X111357143Y-89417143D02*
X111309524Y-89464762D01*
X111166667Y-89512381D01*
X111071429Y-89512381D01*
X110928571Y-89464762D01*
X110833333Y-89369524D01*
X110785714Y-89274286D01*
X110738095Y-89083810D01*
X110738095Y-88940952D01*
X110785714Y-88750476D01*
X110833333Y-88655238D01*
X110928571Y-88560000D01*
X111071429Y-88512381D01*
X111166667Y-88512381D01*
X111309524Y-88560000D01*
X111357143Y-88607619D01*
X112309524Y-89512381D02*
X111738095Y-89512381D01*
X112023809Y-89512381D02*
X112023809Y-88512381D01*
X111928571Y-88655238D01*
X111833333Y-88750476D01*
X111738095Y-88798095D01*
X113166667Y-88845714D02*
X113166667Y-89512381D01*
X112928571Y-88464762D02*
X112690476Y-89179048D01*
X113309524Y-89179048D01*
X118107143Y-78607143D02*
X118059524Y-78654762D01*
X117916667Y-78702381D01*
X117821429Y-78702381D01*
X117678571Y-78654762D01*
X117583333Y-78559524D01*
X117535714Y-78464286D01*
X117488095Y-78273810D01*
X117488095Y-78130952D01*
X117535714Y-77940476D01*
X117583333Y-77845238D01*
X117678571Y-77750000D01*
X117821429Y-77702381D01*
X117916667Y-77702381D01*
X118059524Y-77750000D01*
X118107143Y-77797619D01*
X119059524Y-78702381D02*
X118488095Y-78702381D01*
X118773809Y-78702381D02*
X118773809Y-77702381D01*
X118678571Y-77845238D01*
X118583333Y-77940476D01*
X118488095Y-77988095D01*
X119964286Y-77702381D02*
X119488095Y-77702381D01*
X119440476Y-78178571D01*
X119488095Y-78130952D01*
X119583333Y-78083333D01*
X119821429Y-78083333D01*
X119916667Y-78130952D01*
X119964286Y-78178571D01*
X120011905Y-78273810D01*
X120011905Y-78511905D01*
X119964286Y-78607143D01*
X119916667Y-78654762D01*
X119821429Y-78702381D01*
X119583333Y-78702381D01*
X119488095Y-78654762D01*
X119440476Y-78607143D01*
X127833334Y-80047143D02*
X127785715Y-80094762D01*
X127642858Y-80142381D01*
X127547620Y-80142381D01*
X127404762Y-80094762D01*
X127309524Y-79999524D01*
X127261905Y-79904286D01*
X127214286Y-79713810D01*
X127214286Y-79570952D01*
X127261905Y-79380476D01*
X127309524Y-79285238D01*
X127404762Y-79190000D01*
X127547620Y-79142381D01*
X127642858Y-79142381D01*
X127785715Y-79190000D01*
X127833334Y-79237619D01*
X128785715Y-80142381D02*
X128214286Y-80142381D01*
X128500000Y-80142381D02*
X128500000Y-79142381D01*
X128404762Y-79285238D01*
X128309524Y-79380476D01*
X128214286Y-79428095D01*
X142833334Y-78797143D02*
X142785715Y-78844762D01*
X142642858Y-78892381D01*
X142547620Y-78892381D01*
X142404762Y-78844762D01*
X142309524Y-78749524D01*
X142261905Y-78654286D01*
X142214286Y-78463810D01*
X142214286Y-78320952D01*
X142261905Y-78130476D01*
X142309524Y-78035238D01*
X142404762Y-77940000D01*
X142547620Y-77892381D01*
X142642858Y-77892381D01*
X142785715Y-77940000D01*
X142833334Y-77987619D01*
X143214286Y-77987619D02*
X143261905Y-77940000D01*
X143357143Y-77892381D01*
X143595239Y-77892381D01*
X143690477Y-77940000D01*
X143738096Y-77987619D01*
X143785715Y-78082857D01*
X143785715Y-78178095D01*
X143738096Y-78320952D01*
X143166667Y-78892381D01*
X143785715Y-78892381D01*
X149083334Y-84047143D02*
X149035715Y-84094762D01*
X148892858Y-84142381D01*
X148797620Y-84142381D01*
X148654762Y-84094762D01*
X148559524Y-83999524D01*
X148511905Y-83904286D01*
X148464286Y-83713810D01*
X148464286Y-83570952D01*
X148511905Y-83380476D01*
X148559524Y-83285238D01*
X148654762Y-83190000D01*
X148797620Y-83142381D01*
X148892858Y-83142381D01*
X149035715Y-83190000D01*
X149083334Y-83237619D01*
X149416667Y-83142381D02*
X150035715Y-83142381D01*
X149702381Y-83523333D01*
X149845239Y-83523333D01*
X149940477Y-83570952D01*
X149988096Y-83618571D01*
X150035715Y-83713810D01*
X150035715Y-83951905D01*
X149988096Y-84047143D01*
X149940477Y-84094762D01*
X149845239Y-84142381D01*
X149559524Y-84142381D01*
X149464286Y-84094762D01*
X149416667Y-84047143D01*
X151583334Y-96547143D02*
X151535715Y-96594762D01*
X151392858Y-96642381D01*
X151297620Y-96642381D01*
X151154762Y-96594762D01*
X151059524Y-96499524D01*
X151011905Y-96404286D01*
X150964286Y-96213810D01*
X150964286Y-96070952D01*
X151011905Y-95880476D01*
X151059524Y-95785238D01*
X151154762Y-95690000D01*
X151297620Y-95642381D01*
X151392858Y-95642381D01*
X151535715Y-95690000D01*
X151583334Y-95737619D01*
X152440477Y-95975714D02*
X152440477Y-96642381D01*
X152202381Y-95594762D02*
X151964286Y-96309048D01*
X152583334Y-96309048D01*
X151083334Y-103297143D02*
X151035715Y-103344762D01*
X150892858Y-103392381D01*
X150797620Y-103392381D01*
X150654762Y-103344762D01*
X150559524Y-103249524D01*
X150511905Y-103154286D01*
X150464286Y-102963810D01*
X150464286Y-102820952D01*
X150511905Y-102630476D01*
X150559524Y-102535238D01*
X150654762Y-102440000D01*
X150797620Y-102392381D01*
X150892858Y-102392381D01*
X151035715Y-102440000D01*
X151083334Y-102487619D01*
X151988096Y-102392381D02*
X151511905Y-102392381D01*
X151464286Y-102868571D01*
X151511905Y-102820952D01*
X151607143Y-102773333D01*
X151845239Y-102773333D01*
X151940477Y-102820952D01*
X151988096Y-102868571D01*
X152035715Y-102963810D01*
X152035715Y-103201905D01*
X151988096Y-103297143D01*
X151940477Y-103344762D01*
X151845239Y-103392381D01*
X151607143Y-103392381D01*
X151511905Y-103344762D01*
X151464286Y-103297143D01*
X141583334Y-103047143D02*
X141535715Y-103094762D01*
X141392858Y-103142381D01*
X141297620Y-103142381D01*
X141154762Y-103094762D01*
X141059524Y-102999524D01*
X141011905Y-102904286D01*
X140964286Y-102713810D01*
X140964286Y-102570952D01*
X141011905Y-102380476D01*
X141059524Y-102285238D01*
X141154762Y-102190000D01*
X141297620Y-102142381D01*
X141392858Y-102142381D01*
X141535715Y-102190000D01*
X141583334Y-102237619D01*
X142440477Y-102142381D02*
X142250000Y-102142381D01*
X142154762Y-102190000D01*
X142107143Y-102237619D01*
X142011905Y-102380476D01*
X141964286Y-102570952D01*
X141964286Y-102951905D01*
X142011905Y-103047143D01*
X142059524Y-103094762D01*
X142154762Y-103142381D01*
X142345239Y-103142381D01*
X142440477Y-103094762D01*
X142488096Y-103047143D01*
X142535715Y-102951905D01*
X142535715Y-102713810D01*
X142488096Y-102618571D01*
X142440477Y-102570952D01*
X142345239Y-102523333D01*
X142154762Y-102523333D01*
X142059524Y-102570952D01*
X142011905Y-102618571D01*
X141964286Y-102713810D01*
X129805921Y-100440611D02*
X129738578Y-100440611D01*
X129603891Y-100373267D01*
X129536547Y-100305924D01*
X129469203Y-100171236D01*
X129469203Y-100036549D01*
X129502875Y-99935534D01*
X129603890Y-99767176D01*
X129704906Y-99666160D01*
X129873265Y-99565145D01*
X129974280Y-99531473D01*
X130108967Y-99531473D01*
X130243654Y-99598817D01*
X130310998Y-99666160D01*
X130378341Y-99800847D01*
X130378341Y-99868191D01*
X130681386Y-100036549D02*
X131152791Y-100507954D01*
X130142638Y-100912015D01*
X121047143Y-93166666D02*
X121094762Y-93214285D01*
X121142381Y-93357142D01*
X121142381Y-93452380D01*
X121094762Y-93595238D01*
X120999524Y-93690476D01*
X120904286Y-93738095D01*
X120713810Y-93785714D01*
X120570952Y-93785714D01*
X120380476Y-93738095D01*
X120285238Y-93690476D01*
X120190000Y-93595238D01*
X120142381Y-93452380D01*
X120142381Y-93357142D01*
X120190000Y-93214285D01*
X120237619Y-93166666D01*
X120570952Y-92595238D02*
X120523333Y-92690476D01*
X120475714Y-92738095D01*
X120380476Y-92785714D01*
X120332857Y-92785714D01*
X120237619Y-92738095D01*
X120190000Y-92690476D01*
X120142381Y-92595238D01*
X120142381Y-92404761D01*
X120190000Y-92309523D01*
X120237619Y-92261904D01*
X120332857Y-92214285D01*
X120380476Y-92214285D01*
X120475714Y-92261904D01*
X120523333Y-92309523D01*
X120570952Y-92404761D01*
X120570952Y-92595238D01*
X120618571Y-92690476D01*
X120666190Y-92738095D01*
X120761429Y-92785714D01*
X120951905Y-92785714D01*
X121047143Y-92738095D01*
X121094762Y-92690476D01*
X121142381Y-92595238D01*
X121142381Y-92404761D01*
X121094762Y-92309523D01*
X121047143Y-92261904D01*
X120951905Y-92214285D01*
X120761429Y-92214285D01*
X120666190Y-92261904D01*
X120618571Y-92309523D01*
X120570952Y-92404761D01*
X165833334Y-84297143D02*
X165785715Y-84344762D01*
X165642858Y-84392381D01*
X165547620Y-84392381D01*
X165404762Y-84344762D01*
X165309524Y-84249524D01*
X165261905Y-84154286D01*
X165214286Y-83963810D01*
X165214286Y-83820952D01*
X165261905Y-83630476D01*
X165309524Y-83535238D01*
X165404762Y-83440000D01*
X165547620Y-83392381D01*
X165642858Y-83392381D01*
X165785715Y-83440000D01*
X165833334Y-83487619D01*
X166309524Y-84392381D02*
X166500000Y-84392381D01*
X166595239Y-84344762D01*
X166642858Y-84297143D01*
X166738096Y-84154286D01*
X166785715Y-83963810D01*
X166785715Y-83582857D01*
X166738096Y-83487619D01*
X166690477Y-83440000D01*
X166595239Y-83392381D01*
X166404762Y-83392381D01*
X166309524Y-83440000D01*
X166261905Y-83487619D01*
X166214286Y-83582857D01*
X166214286Y-83820952D01*
X166261905Y-83916190D01*
X166309524Y-83963810D01*
X166404762Y-84011429D01*
X166595239Y-84011429D01*
X166690477Y-83963810D01*
X166738096Y-83916190D01*
X166785715Y-83820952D01*
X151107143Y-90547143D02*
X151059524Y-90594762D01*
X150916667Y-90642381D01*
X150821429Y-90642381D01*
X150678571Y-90594762D01*
X150583333Y-90499524D01*
X150535714Y-90404286D01*
X150488095Y-90213810D01*
X150488095Y-90070952D01*
X150535714Y-89880476D01*
X150583333Y-89785238D01*
X150678571Y-89690000D01*
X150821429Y-89642381D01*
X150916667Y-89642381D01*
X151059524Y-89690000D01*
X151107143Y-89737619D01*
X152059524Y-90642381D02*
X151488095Y-90642381D01*
X151773809Y-90642381D02*
X151773809Y-89642381D01*
X151678571Y-89785238D01*
X151583333Y-89880476D01*
X151488095Y-89928095D01*
X152678571Y-89642381D02*
X152773810Y-89642381D01*
X152869048Y-89690000D01*
X152916667Y-89737619D01*
X152964286Y-89832857D01*
X153011905Y-90023333D01*
X153011905Y-90261429D01*
X152964286Y-90451905D01*
X152916667Y-90547143D01*
X152869048Y-90594762D01*
X152773810Y-90642381D01*
X152678571Y-90642381D01*
X152583333Y-90594762D01*
X152535714Y-90547143D01*
X152488095Y-90451905D01*
X152440476Y-90261429D01*
X152440476Y-90023333D01*
X152488095Y-89832857D01*
X152535714Y-89737619D01*
X152583333Y-89690000D01*
X152678571Y-89642381D01*
M02*
