M48
;DRILL file {KiCad 4.0.7} date 02/05/19 23:34:58
;FORMAT={3:3/ absolute / metric / suppress leading zeros}
FMAT,2
METRIC,TZ
T1C0.400
T2C1.000
T3C5.000
%
G90
G05
M71
T1
X106999Y-77720
X107032Y-83817
X118000Y-112000
X118000Y-118000
X118836Y-88856
X120000Y-83250
X123000Y-86000
X123000Y-87000
X123000Y-88000
X124000Y-81000
X124075Y-90000
X125396Y-91469
X125750Y-97250
X125916Y-92604
X126301Y-90389
X126978Y-89377
X127284Y-93335
X127500Y-100000
X128003Y-101555
X129000Y-86000
X129942Y-102058
X130934Y-80795
X131154Y-94724
X131250Y-118500
X131500Y-103000
X131819Y-93739
X132500Y-89500
X132500Y-91500
X133000Y-87000
X133013Y-80684
X134221Y-87006
X134250Y-105000
X134450Y-98645
X135611Y-98676
X136000Y-87000
X136753Y-97347
X137039Y-104540
X137875Y-102290
X138803Y-118004
X139000Y-87000
X139344Y-97266
X139976Y-83779
X140000Y-82000
X140396Y-102012
X140543Y-98336
X141500Y-93500
X141500Y-95500
X141731Y-98031
X142250Y-104250
X142614Y-98901
X144549Y-81911
X144674Y-84961
X145163Y-86060
X146000Y-99000
X146647Y-93365
X147000Y-96000
X148000Y-91000
X148021Y-85568
X148034Y-87473
X150500Y-96100
X150500Y-98250
X164248Y-119141
X175000Y-77000
X177000Y-75000
X177000Y-93000
X179250Y-100000
X179496Y-77014
X179500Y-96250
X180507Y-97045
X183000Y-75000
X183000Y-93000
X184000Y-80500
X184984Y-77284
X186505Y-77250
T2
X132408Y-97592
X134204Y-95796
X136000Y-94000
X137796Y-92204
X139592Y-90408
X141388Y-88612
X157250Y-110750
X163250Y-114000
X165500Y-114000
X167750Y-114000
X170000Y-114000
X172250Y-114000
X180500Y-114000
T3
X142000Y-110500
T0
M30
